<svg fill="none" height="816" viewBox="0 0 485 816" width="485" xmlns="http://www.w3.org/2000/svg"><path d="m195.065 786.476c5.133 0 9.316-3.885 12.167-11.461 3.803-7.575 6.655-17.87 8.936-30.689 4.373-24.28 7.035-55.359 7.795-93.43v-68.372c-25.286 53.804-38.595 99.451-40.115 136.551-2.092 45.84 1.52 68.178 11.217 67.401zm-124.72-690.7159c-1.521 28.1649-1.9013 56.5239-1.1408 85.2709 0 53.028 3.4222 101.587 10.0765 145.68 6.6542 44.092 16.3504 67.595 28.8983 70.509 23.005 6.021 47.911-15.928 74.718-66.042 26.047-50.89 39.735-141.6 41.256-271.935 5.894-12.0428 22.625-13.2082 50.192-3.4963 28.138 10.6832 40.686 27.7763 48.862 51.2793-3.042 66.041-3.233 72.451-2.472 114.213.76 42.538.76 50.114 1.521 107.803v29.524c19.392-26.611 37.834-53.027 55.706-79.638 16.35-24.28 30.419-47.006 42.397-68.372 11.977-21.367 20.343-39.82 25.666-55.747 7.415-2.331 13.689-3.496 19.012-3.496 5.324 0 11.788 1.553 19.963 4.467-8.175 31.855-28.518 72.451-61.219 121.788-33.462 49.337-66.162 96.731-98.103 142.183-.76 1.554-1.521 2.72-2.281 3.497v3.496c.76 33.409.38 66.43-1.141 99.062-1.521 26.611-3.422 52.639-5.514 78.473-2.281 25.057-5.133 48.948-8.935 71.674-8.175 40.985-19.773 74.394-34.602 100.228-14.83 26.611-35.743 39.819-62.36 39.819h-2.282c-49.812 0-73.577-27.776-71.295-83.135 2.281-56.135 26.807-126.644 73.577-211.721 3.042-6.021 6.274-12.431 10.076-19.423-.76-31.856-1.521-62.546-2.281-92.264-1.521-37.877-2.282-58.272-2.282-80.221-2.281 10.683-8.935 25.834-19.962 45.452-11.788 20.395-26.427 34.769-43.538 47.006-7.415 4.467-15.21 8.352-23.385 11.46-7.415 2.331-15.59 2.331-24.526 0-16.3504-3.108-30.4194-10.683-42.397-22.726-11.7876-11.46-21.864-25.834-30.0392-43.315-8.1753-18.259-14.4493-46.424-19.0122-69.15-4.56291-22.726-7.79498-46.229-10.07644-70.509-2.28145-25.833-3.42216-50.89-3.42216-75.17 0-18.259.76048-36.129 2.28145-53.4161 3.04195-40.9845 5.13328-69.732 6.65426-86.4366 7.41469-8.35227 16.73069-12.4313 27.75769-12.4313 3.042 0 5.8938.38848 8.9358 1.16544 15.5899 2.33087 26.4269 8.35229 32.3206 18.25846-3.6123 22.7261-6.274 48.1714-7.6048 76.3362z" fill="#fff"/></svg>