<svg width="16" height="16" viewBox="0 0 16 16" fill="none" xmlns="http://www.w3.org/2000/svg">
<path fill-rule="evenodd" clip-rule="evenodd" d="M0 7.9C2.39166e-08 7.07157 0.716312 6.4 1.59993 6.4H14.4001C15.2837 6.4 16 7.07157 16 7.9C16 8.72843 15.2837 9.4 14.4001 9.4H1.59993C0.716312 9.4 -2.39165e-08 8.72843 0 7.9Z" fill="#F0BA8C"/>
<path fill-rule="evenodd" clip-rule="evenodd" d="M7.9 16C7.07157 16 6.4 15.2837 6.4 14.4L6.4 1.6C6.4 0.716343 7.07157 -5.07849e-08 7.9 0C8.72843 5.07849e-08 9.4 0.716343 9.4 1.6V14.4C9.4 15.2837 8.72843 16 7.9 16Z" fill="#F0BA8C"/>
</svg>
