<svg width="49" height="48" viewBox="0 0 49 48" fill="none" xmlns="http://www.w3.org/2000/svg">
<rect x="0.75" y="0.75" width="46.9615" height="46.5" rx="23.25" stroke="#1C325D" stroke-width="1.5"/>
<path d="M24 39.5834C16.1276 37.8338 9.83334 30.4062 9.83334 22.5834V14.0834L24 8.41675L38.1667 14.0834V22.5834C38.1667 30.4091 31.8724 37.8338 24 39.5834ZM12.6667 15.5001V22.5834C12.7476 25.8589 13.8997 29.0177 15.9465 31.5762C17.9933 34.1347 20.8222 35.9521 24 36.7501C27.1779 35.9521 30.0067 34.1347 32.0535 31.5762C34.1003 29.0177 35.2524 25.8589 35.3333 22.5834V15.5001L24 11.2501L12.6667 15.5001Z" fill="#1C325D"/>
<g clip-path="url(#clip0_38_5)">
<path d="M24 23.875C26.1738 23.875 27.9375 22.1113 27.9375 19.9375C27.9375 17.7637 26.1738 16 24 16C21.8262 16 20.0625 17.7637 20.0625 19.9375C20.0625 22.1113 21.8262 23.875 24 23.875ZM27.5 24.75H25.9934C25.3863 25.0289 24.7109 25.1875 24 25.1875C23.2891 25.1875 22.6164 25.0289 22.0066 24.75H20.5C18.5668 24.75 17 26.3168 17 28.25V28.6875C17 29.4121 17.5879 30 18.3125 30H29.6875C30.4121 30 31 29.4121 31 28.6875V28.25C31 26.3168 29.4332 24.75 27.5 24.75Z" fill="#1C325D"/>
</g>
<defs>
<clipPath id="clip0_38_5">
<rect width="14" height="14" fill="white" transform="translate(17 16)"/>
</clipPath>
</defs>
</svg>
