<svg width="18" height="18" viewBox="0 0 18 18" fill="none" xmlns="http://www.w3.org/2000/svg">
<circle cx="9" cy="9" r="9" fill="#37119D"/>
<path fill-rule="evenodd" clip-rule="evenodd" d="M12.9104 12.9095C12.5338 13.286 11.9554 13.3182 11.6184 12.9812L5.11093 6.47372C4.77399 6.13678 4.80613 5.55836 5.18271 5.18179C5.55928 4.80521 6.1377 4.77308 6.47464 5.11001L12.9821 11.6175C13.3191 11.9545 13.287 12.5329 12.9104 12.9095Z" fill="white"/>
<path fill-rule="evenodd" clip-rule="evenodd" d="M5.18186 12.9094C4.80528 12.5328 4.77315 11.9544 5.11008 11.6175L11.6176 5.10995C11.9545 4.77302 12.5329 4.80515 12.9095 5.18173C13.2861 5.5583 13.3182 6.13672 12.9813 6.47366L6.47379 12.9812C6.13685 13.3181 5.55843 13.286 5.18186 12.9094Z" fill="white"/>
</svg>
