<svg width="46" height="46" viewBox="0 0 46 46" fill="none" xmlns="http://www.w3.org/2000/svg">
<circle cx="23" cy="23" r="23" fill="#D9D9D9"/>
<path d="M32.3333 16.3333L31.1773 32.5227C31.1295 33.1954 30.8284 33.8251 30.3348 34.2848C29.8413 34.7444 29.1918 35 28.5173 35H17.4827C16.8082 35 16.1588 34.7444 15.6652 34.2848C15.1716 33.8251 14.8706 33.1954 14.8227 32.5227L13.6667 16.3333M20.3333 21.6667V29.6667M25.6667 21.6667V29.6667M27 16.3333V12.3333C27 11.9797 26.8595 11.6406 26.6095 11.3905C26.3594 11.1405 26.0203 11 25.6667 11H20.3333C19.9797 11 19.6406 11.1405 19.3905 11.3905C19.1405 11.6406 19 11.9797 19 12.3333V16.3333M12.3333 16.3333H33.6667" stroke="#616161" stroke-width="2" stroke-linecap="round" stroke-linejoin="round"/>
</svg>
