<svg width="28" height="28" viewBox="0 0 28 28" fill="none" xmlns="http://www.w3.org/2000/svg">
<path d="M17.5 14C17.5 14.9283 17.1313 15.8185 16.4749 16.4749C15.8185 17.1313 14.9283 17.5 14 17.5C13.0717 17.5 12.1815 17.1313 11.5251 16.4749C10.8687 15.8185 10.5 14.9283 10.5 14C10.5 13.0717 10.8687 12.1815 11.5251 11.5251C12.1815 10.8687 13.0717 10.5 14 10.5C14.9283 10.5 15.8185 10.8687 16.4749 11.5251C17.1313 12.1815 17.5 13.0717 17.5 14Z" stroke="#4A2ACB" stroke-width="2" stroke-linecap="round" stroke-linejoin="round"/>
<path d="M2.3335 14C4.20016 9.22015 8.55883 5.83331 14.0002 5.83331C19.4415 5.83331 23.8002 9.22015 25.6668 14C23.8002 18.7798 19.4415 22.1666 14.0002 22.1666C8.55883 22.1666 4.20016 18.7798 2.3335 14Z" stroke="#4A2ACB" stroke-width="2" stroke-linecap="round" stroke-linejoin="round"/>
</svg>
