<svg xmlns="http://www.w3.org/2000/svg" xml:space="preserve" viewBox="0 0 1024 1024"><path fill="#6330FF" d="M575 1025H1V1h1024v1024zM259.209 479.702c-3.446 3.141-6.858 6.322-10.344 9.42-59.419 52.805-112.126 111.596-156.85 177.346-11.395 16.751-21.138 34.633-31.45 52.108-1.582 2.682-2.13 5.976-3.157 8.987l1.475 1.198c3.55-1.948 7.355-3.543 10.605-5.903 16.576-12.033 33.315-23.873 49.44-36.493 71.63-56.06 142.704-112.839 214.74-168.373 33.6-25.903 68.778-49.78 103.586-74.08 7.812-5.454 16.824-9.454 25.729-13.005 8.674-3.46 14.04.615 14.053 10.025.009 5.949-.107 12.19-1.815 17.798-7.939 26.07-16.28 52.023-24.815 77.906-6.923 20.994-15.398 41.511-18.897 63.517-1.281 8.058 2.346 11.605 10.232 9.31 5.384-1.566 10.823-3.594 15.604-6.469 13.829-8.318 27.558-16.842 40.925-25.878 26.76-18.088 53.097-36.806 79.956-54.746 7.953-5.312 16.974-9.083 25.684-13.182 4.689-2.206 9.157-1.423 13.42 2.133 7.313 6.101 12.701 13.474 14.362 22.763 1.276 7.142 1.205 14.559 1.346 21.86.171 8.798-.88 17.69.056 26.384 1.536 14.288 12.293 20.636 25.867 15.97 6.754-2.321 13.284-5.288 19.966-7.83 17.333-6.598 34.41-5.825 50.642 3.095 9.896 5.439 19.466 11.582 28.706 18.085 46.034 32.398 91.663 65.376 137.97 97.376 17.196 11.885 35.78 21.78 53.9 32.295 3.356 1.947 7.435 2.974 11.315 3.617 5.675.94 8.02-1.725 6.352-7.22-1.096-3.607-2.721-7.284-4.987-10.263-9.667-12.715-18.776-26.017-29.694-37.589-39.895-42.283-80.427-83.964-120.731-125.862-36.955-38.416-73.87-76.872-110.903-115.213-40.268-41.689-80.432-83.483-121.107-124.772-14.363-14.581-29.812-28.29-48.682-37.05-18.16-8.431-36.34-9.837-53.309 3.069-17.754 13.504-36.024 26.466-52.736 41.178-55.631 48.972-110.664 98.624-166.454 148.488"/><path fill="#FFFEFF" d="M259.472 479.466c55.527-49.628 110.56-99.28 166.19-148.252 16.713-14.712 34.983-27.674 52.737-41.178 16.968-12.906 35.148-11.5 53.31-3.07 18.87 8.76 34.318 22.47 48.681 37.05 40.675 41.29 80.839 83.084 121.107 124.773 37.033 38.341 73.948 76.797 110.903 115.213 40.304 41.898 80.836 83.58 120.73 125.862 10.92 11.572 20.028 24.874 29.695 37.589 2.266 2.979 3.891 6.656 4.987 10.263 1.669 5.495-.677 8.16-6.352 7.22-3.88-.643-7.96-1.67-11.316-3.617-18.118-10.515-36.703-20.41-53.9-32.295-46.306-32-91.935-64.978-137.969-97.376-9.24-6.503-18.81-12.646-28.706-18.085-16.232-8.92-33.31-9.693-50.642-3.096-6.682 2.543-13.212 5.51-19.966 7.832-13.574 4.665-24.33-1.683-25.867-15.97-.935-8.695.115-17.587-.056-26.384-.141-7.302-.07-14.719-1.346-21.86-1.66-9.29-7.05-16.663-14.363-22.764-4.262-3.556-8.73-4.339-13.419-2.133-8.71 4.099-17.731 7.87-25.684 13.182-26.859 17.94-53.195 36.658-79.956 54.746-13.367 9.036-27.096 17.56-40.925 25.878-4.78 2.875-10.22 4.903-15.604 6.47-7.886 2.294-11.513-1.253-10.232-9.311 3.499-22.006 11.974-42.523 18.897-63.517 8.535-25.883 16.876-51.835 24.815-77.906 1.708-5.608 1.824-11.85 1.815-17.798-.013-9.41-5.379-13.485-14.053-10.025-8.905 3.55-17.917 7.55-25.729 13.005-34.808 24.3-69.987 48.177-103.587 74.08-72.035 55.534-143.11 112.312-214.74 168.373-16.124 12.62-32.863 24.46-49.439 36.493-3.25 2.36-7.056 3.955-10.605 5.903l-1.475-1.198c1.027-3.01 1.575-6.305 3.158-8.987 10.31-17.475 20.054-35.357 31.448-52.108 44.725-65.75 97.432-124.54 156.851-177.347 3.486-3.097 6.898-6.278 10.607-9.655"/></svg>