<?xml version="1.0" standalone="no"?>
<!DOCTYPE svg PUBLIC "-//W3C//DTD SVG 1.1//EN" "http://www.w3.org/Graphics/SVG/1.1/DTD/svg11.dtd" >
<svg xmlns="http://www.w3.org/2000/svg" xmlns:xlink="http://www.w3.org/1999/xlink" version="1.1">
<metadata>
Created by FontForge 20201107 at Thu Oct 28 17:09:56 2021
 By 
Copyright 2019 The Baloo 2 Project Authors (https://github.com/EkType/Baloo2)
</metadata>
<defs>
<font id="Baloo2-SemiBold" horiz-adv-x="273" >
  <font-face 
    font-family="Baloo 2 SemiBold"
    font-weight="600"
    font-stretch="normal"
    units-per-em="1000"
    panose-1="0 0 0 0 0 0 0 0 0 0"
    ascent="800"
    descent="-200"
    x-height="473"
    cap-height="615"
    bbox="-486 -496 2258 1047"
    underline-thickness="50"
    underline-position="-125"
    unicode-range="U+000D-FB04"
  />
<missing-glyph horiz-adv-x="664" 
d="M159 0q-32 0 -50.5 18.5t-18.5 50.5v511q0 32 18 50.5t50 18.5h347q33 0 51 -18.5t18 -50.5v-511q0 -32 -18 -50.5t-51 -18.5h-346zM204 99h257v451h-257v-451z" />
    <glyph glyph-name="f_f" unicode="ff" horiz-adv-x="813" 
d="M165 346v96h201q4 -7 8.5 -19.5t4.5 -28.5q0 -25 -11.5 -36.5t-32.5 -11.5h-170zM184 490v-129h-118v134q0 63 25.5 102.5t71 58t103.5 18.5q65 0 99 -17t34 -51q0 -15 -6.5 -27.5t-15.5 -20.5q-19 8 -42.5 13t-49.5 5q-53 0 -77 -20t-24 -66zM66 396h123v-394
q-8 -3 -23 -5.5t-33 -2.5q-34 0 -50.5 12.5t-16.5 44.5v345zM564 346v96h201q4 -7 8.5 -19.5t4.5 -28.5q0 -25 -11.5 -36.5t-32.5 -11.5h-170zM583 490v-129h-118v134q0 63 25.5 102.5t71 58t103.5 18.5q65 0 99 -17t34 -51q0 -15 -6.5 -27.5t-15.5 -20.5q-19 8 -42.5 13
t-49.5 5q-53 0 -77 -20t-24 -66zM465 396h123v-394q-8 -3 -23 -5.5t-33 -2.5q-34 0 -50.5 12.5t-16.5 44.5v345z" />
    <glyph glyph-name="fi" unicode="fi" horiz-adv-x="673" 
d="M165 346v96h201q4 -7 8.5 -19.5t4.5 -28.5q0 -25 -11.5 -36.5t-32.5 -11.5h-170zM184 490v-129h-118v134q0 63 25.5 102.5t71 58t103.5 18.5q65 0 99 -17t34 -51q0 -15 -6.5 -27.5t-15.5 -20.5q-19 8 -42.5 13t-49.5 5q-53 0 -77 -20t-24 -66zM66 396h123v-394
q-8 -3 -23 -5.5t-33 -2.5q-34 0 -50.5 12.5t-16.5 44.5v345zM470 614q0 29 20.5 49t51.5 20q32 0 51.5 -20t19.5 -49q0 -28 -19.5 -48.5t-51.5 -20.5q-31 0 -51.5 20.5t-20.5 48.5zM480 264h124v-262q-8 -3 -23 -5.5t-33 -2.5q-34 0 -51 12.5t-17 44.5v213zM604 201h-124
v268q8 3 23.5 5.5t33.5 2.5q35 0 51 -12.5t16 -45.5v-218z" />
    <glyph glyph-name="fl" unicode="fl" horiz-adv-x="677" 
d="M165 346v96h201q4 -7 8.5 -19.5t4.5 -28.5q0 -25 -11.5 -36.5t-32.5 -11.5h-170zM184 490v-129h-118v134q0 63 25.5 102.5t71 58t103.5 18.5q65 0 99 -17t34 -51q0 -15 -6.5 -27.5t-15.5 -20.5q-19 8 -42.5 13t-49.5 5q-53 0 -77 -20t-24 -66zM66 396h123v-394
q-8 -3 -23 -5.5t-33 -2.5q-34 0 -50.5 12.5t-16.5 44.5v345zM484 264l123 -6v-256q-8 -3 -23 -5.5t-33 -2.5q-34 0 -50.5 12.5t-16.5 44.5v213zM607 195l-123 6v449q7 2 22.5 5t32.5 3q36 0 52 -12.5t16 -44.5v-406z" />
    <glyph glyph-name="f_f_i" unicode="ffi" horiz-adv-x="1049" 
d="M165 346v96h201q4 -7 8.5 -19.5t4.5 -28.5q0 -25 -11.5 -36.5t-32.5 -11.5h-170zM184 490v-129h-118v134q0 63 25.5 102.5t71 58t103.5 18.5q65 0 99 -17t34 -51q0 -15 -6.5 -27.5t-15.5 -20.5q-19 8 -42.5 13t-49.5 5q-53 0 -77 -20t-24 -66zM66 396h123v-394
q-8 -3 -23 -5.5t-33 -2.5q-34 0 -50.5 12.5t-16.5 44.5v345zM542 346v96h201q4 -7 8.5 -19.5t4.5 -28.5q0 -25 -11.5 -36.5t-32.5 -11.5h-170zM561 490v-129h-118v134q0 63 25.5 102.5t71 58t103.5 18.5q65 0 99 -17t34 -51q0 -15 -6.5 -27.5t-15.5 -20.5q-19 8 -42.5 13
t-49.5 5q-53 0 -77 -20t-24 -66zM443 396h123v-394q-8 -3 -23 -5.5t-33 -2.5q-34 0 -50.5 12.5t-16.5 44.5v345zM846 614q0 29 20.5 49t51.5 20q32 0 51.5 -20t19.5 -49q0 -28 -19.5 -48.5t-51.5 -20.5q-31 0 -51.5 20.5t-20.5 48.5zM856 264h124v-262q-8 -3 -23 -5.5
t-33 -2.5q-34 0 -51 12.5t-17 44.5v213zM980 201h-124v268q8 3 23.5 5.5t33.5 2.5q35 0 51 -12.5t16 -45.5v-218z" />
    <glyph glyph-name="f_f_l" unicode="ffl" horiz-adv-x="1077" 
d="M165 346v96h201q4 -7 8.5 -19.5t4.5 -28.5q0 -25 -11.5 -36.5t-32.5 -11.5h-170zM184 490v-129h-118v134q0 63 25.5 102.5t71 58t103.5 18.5q65 0 99 -17t34 -51q0 -15 -6.5 -27.5t-15.5 -20.5q-19 8 -42.5 13t-49.5 5q-53 0 -77 -20t-24 -66zM66 396h123v-394
q-8 -3 -23 -5.5t-33 -2.5q-34 0 -50.5 12.5t-16.5 44.5v345zM542 346v96h201q4 -7 8.5 -19.5t4.5 -28.5q0 -25 -11.5 -36.5t-32.5 -11.5h-170zM561 490v-129h-118v134q0 63 25.5 102.5t71 58t103.5 18.5q65 0 99 -17t34 -51q0 -15 -6.5 -27.5t-15.5 -20.5q-19 8 -42.5 13
t-49.5 5q-53 0 -77 -20t-24 -66zM443 396h123v-394q-8 -3 -23 -5.5t-33 -2.5q-34 0 -50.5 12.5t-16.5 44.5v345zM862 264l123 -6v-256q-8 -3 -23 -5.5t-33 -2.5q-34 0 -50.5 12.5t-16.5 44.5v213zM985 195l-123 6v449q7 2 22.5 5t32.5 3q36 0 52 -12.5t16 -44.5v-406z" />
    <glyph glyph-name=".notdef" horiz-adv-x="664" 
d="M159 0q-32 0 -50.5 18.5t-18.5 50.5v511q0 32 18 50.5t50 18.5h347q33 0 51 -18.5t18 -50.5v-511q0 -32 -18 -50.5t-51 -18.5h-346zM204 99h257v451h-257v-451z" />
    <glyph glyph-name=".null" horiz-adv-x="0" 
 />
    <glyph glyph-name="uni000D" unicode="&#xd;" horiz-adv-x="223" 
 />
    <glyph glyph-name="space" unicode=" " horiz-adv-x="200" 
 />
    <glyph glyph-name="exclam" unicode="!" 
d="M199 570q0 -26 -1 -70.5t-3 -96.5t-5.5 -103t-7.5 -92q-7 -5 -21.5 -8.5t-26.5 -3.5q-20 0 -34.5 7.5t-17.5 26.5q-3 26 -6 73t-5 103.5t-3 110.5t-1 95q32 18 70 18q30 0 46 -14.5t16 -45.5zM60 60q0 32 20 53t55 21t55 -21t20 -53t-20 -53t-55 -21t-55 21t-20 53z" />
    <glyph glyph-name="quotedbl" unicode="&#x22;" horiz-adv-x="337" 
d="M128 399q-9 -5 -19.5 -6.5t-24.5 -1.5q-19 0 -32 8t-15 28l-9 186q24 17 59 17q27 0 41.5 -12t14.5 -37q0 -18 -2.5 -52t-5.5 -69.5t-7 -60.5zM294 399q-9 -5 -20 -6.5t-24 -1.5q-21 0 -33 8t-14 28l-10 186q12 8 26.5 12.5t32.5 4.5q28 0 42 -12t14 -38q0 -17 -2.5 -51
t-5.5 -69.5t-6 -60.5z" />
    <glyph glyph-name="numbersign" unicode="#" horiz-adv-x="690" 
d="M582 146h-533q-5 8 -8.5 20t-3.5 25q0 26 12 37t32 11h535q4 -8 7.5 -19.5t3.5 -25.5q0 -25 -11.5 -36.5t-33.5 -11.5zM611 377h-534q-4 8 -8 19.5t-4 25.5q0 26 12.5 37t32.5 11h534q4 -7 8 -19t4 -26q0 -25 -12 -36.5t-33 -11.5zM324 491l-105 -493q-9 -2 -18.5 -2.5
t-18.5 -0.5q-26 0 -41.5 11.5t-15.5 38.5q0 17 4.5 38.5t8.5 36.5l105 493q9 1 19 1.5t18 0.5q26 0 42 -10.5t16 -38.5q0 -17 -5 -37.5t-9 -37.5zM552 491l-106 -493q-9 -2 -18 -2.5t-18 -0.5q-26 0 -42 11.5t-16 38.5q0 17 5 38.5t8 36.5l106 493q9 1 18.5 1.5t17.5 0.5
q26 0 42 -10.5t16 -38.5q0 -17 -5 -37.5t-8 -37.5z" />
    <glyph glyph-name="dollar" unicode="$" horiz-adv-x="543" 
d="M214 46h110v-134q-7 -2 -20 -4t-29 -2q-31 0 -46 11.5t-15 39.5v89zM324 544h-110v152q7 3 20.5 4.5t28.5 1.5q32 0 46.5 -11.5t14.5 -39.5v-107zM256 88q58 0 85.5 23.5t27.5 58.5q0 31 -21 50.5t-65 32.5l-65 20q-50 17 -87.5 38t-58 54.5t-20.5 82.5q0 81 60.5 128
t165.5 47q56 0 99.5 -11.5t69 -31.5t25.5 -47q0 -19 -9.5 -33.5t-23.5 -23.5q-24 17 -63.5 29.5t-86.5 12.5q-52 0 -80 -19t-28 -51q0 -26 19.5 -42t59.5 -28l58 -17q86 -26 134 -70.5t48 -121.5q0 -82 -62.5 -133t-178.5 -51q-61 0 -108 13t-74.5 36t-27.5 52q0 22 13.5 38
t30.5 24q26 -22 67 -41t96 -19z" />
    <glyph glyph-name="percent" unicode="%" horiz-adv-x="785" 
d="M343 466q0 -69 -43 -109.5t-108 -40.5t-108 40.5t-43 109.5q0 70 43 110t108 40t108 -40t43 -110zM136 466q0 -34 16 -52.5t40 -18.5t40 18.5t16 52.5q0 35 -16 52.5t-40 17.5t-40 -17.5t-16 -52.5zM191 89l357 527q29 -3 49 -14t20 -30q0 -12 -6 -25.5t-16 -27.5
l-357 -526q-30 2 -49.5 14.5t-19.5 30.5q0 11 6 24t16 27zM743 143q0 -70 -42.5 -110.5t-107.5 -40.5q-64 0 -107.5 40.5t-43.5 110.5q0 69 43.5 109t107.5 40q65 0 107.5 -40t42.5 -109zM537 143q0 -36 16 -54t40 -18t39.5 18t15.5 54q0 33 -15.5 51t-39.5 18t-40 -18
t-16 -51z" />
    <glyph glyph-name="ampersand" unicode="&#x26;" horiz-adv-x="654" 
d="M531 109l-47 -45q-38 -39 -91 -59t-114 -20q-73 0 -126 25.5t-81.5 71t-28.5 104.5q0 51 20.5 88.5t54 63t73.5 37.5l56 -79q-23 -6 -42 -20t-31 -35t-12 -50q0 -48 32 -78.5t90 -30.5q28 0 64.5 12t68.5 46l36 55q15 33 21.5 78t6.5 92q14 6 27 9t25 3q33 0 45.5 -18.5
t12.5 -49.5q0 -49 -15 -102.5t-45 -97.5zM565 -14q-29 0 -58 30l-294 301l-26 36q-34 36 -46 66t-12 59q0 41 20 74t58.5 51.5t93.5 18.5q58 0 84.5 -18.5t26.5 -47.5q0 -14 -6.5 -27t-16.5 -21q-14 7 -32 11.5t-37 4.5q-33 0 -52.5 -15.5t-19.5 -42.5q0 -24 13.5 -43
t40.5 -46l326 -327q-2 -29 -19.5 -46.5t-43.5 -17.5z" />
    <glyph glyph-name="quotesingle" unicode="'" horiz-adv-x="177" 
d="M134 401q-8 -4 -20.5 -7t-26.5 -3q-21 0 -34.5 9.5t-15.5 28.5l-9 182q11 8 26.5 13.5t35.5 5.5q28 0 43 -12t15 -40q0 -17 -2 -50t-5 -67.5t-7 -59.5z" />
    <glyph glyph-name="parenleft" unicode="(" horiz-adv-x="278" 
d="M213 -126q-27 0 -47.5 18t-36.5 46q-37 58 -58.5 141t-21.5 191t23.5 192t56.5 138q16 27 36.5 44.5t47.5 17.5q20 0 35.5 -11t23.5 -26q-51 -71 -78.5 -157.5t-27.5 -197.5t26 -195.5t80 -162.5q-8 -14 -23.5 -26t-35.5 -12z" />
    <glyph glyph-name="parenright" unicode=")" horiz-adv-x="278" 
d="M66 -126q-20 0 -35.5 12t-23.5 26q54 78 80 162.5t26 195.5t-27.5 197.5t-78.5 157.5q8 15 23.5 26t35.5 11q28 0 48 -17.5t36 -44.5q33 -54 56.5 -138t23.5 -192t-21.5 -191t-58.5 -141q-16 -28 -36 -46t-48 -18z" />
    <glyph glyph-name="asterisk" unicode="*" horiz-adv-x="324" 
d="M149 541l29 -84l-154 47q-4 14 -4 29q0 19 11.5 30.5t30.5 11.5q6 0 12.5 -2t14.5 -5zM209 503l-90 -132q-5 -1 -9.5 -1.5t-8.5 -0.5q-25 0 -38.5 11t-13.5 28q0 10 5 19t12 18l43 50zM140 476l44 61l98 -128q-5 -17 -18 -28.5t-30 -11.5q-18 0 -28.5 11t-18.5 25z
M132 517l137 68q13 -6 23 -18.5t10 -28.5q0 -18 -10 -25.5t-26 -13.5l-73 -33zM199 517l-74 -38l-3 156q6 4 17 9t25 5q18 0 29 -9t11 -28q0 -5 -1 -24.5t-2 -40.5t-2 -30z" />
    <glyph glyph-name="plus" unicode="+" horiz-adv-x="547" 
d="M458 245h-405q-5 9 -8.5 20.5t-3.5 26.5q0 27 13 39.5t34 12.5h406q4 -8 8 -21t4 -28q0 -26 -13 -38t-35 -12zM331 476v-415q-9 -2 -23 -4.5t-29 -2.5q-30 0 -45 11t-15 44v414q9 2 23 5t30 3q29 0 44 -11.5t15 -43.5z" />
    <glyph glyph-name="comma" unicode="," horiz-adv-x="192" 
d="M107 -84q-24 -34 -61 -34q-32 0 -54 21q11 33 22.5 72.5t21 78.5t15.5 70q12 6 28.5 10.5t33.5 4.5q25 0 41.5 -11t16.5 -39q0 -24 -10.5 -58t-25.5 -65.5t-28 -49.5z" />
    <glyph glyph-name="hyphen" unicode="-" horiz-adv-x="372" 
d="M282 208h-227q-5 9 -9 21.5t-4 27.5q0 26 13.5 38.5t34.5 12.5h227q4 -8 8.5 -21t4.5 -27q0 -26 -13 -39t-35 -13z" />
    <glyph glyph-name="period" unicode="." horiz-adv-x="188" 
d="M19 61q0 32 20 54t55 22t55 -22t20 -54t-20 -54t-55 -22t-55 22t-20 54z" />
    <glyph glyph-name="slash" unicode="/" horiz-adv-x="323" 
d="M295 577l-181 -682q-10 -2 -19.5 -2.5t-18.5 -0.5q-30 0 -46 13.5t-16 41.5q0 19 6 40t10 36l180 682q11 1 20.5 1.5t17.5 0.5q28 0 45 -12.5t17 -40.5q0 -19 -5 -38.5t-10 -38.5z" />
    <glyph glyph-name="zero" unicode="0" horiz-adv-x="594" 
d="M424 304q0 75 -16.5 123t-45 71t-66.5 23q-36 0 -65 -23.5t-45 -71.5t-16 -122q0 -108 33 -163t93 -55q61 0 94.5 55t33.5 163zM297 -14q-75 0 -131.5 35t-88.5 105.5t-32 177.5q0 109 34 179t91 104t127 34q69 0 126.5 -34t91.5 -104.5t34 -178.5q0 -106 -32 -176.5
t-89 -106t-131 -35.5z" />
    <glyph glyph-name="one" unicode="1" horiz-adv-x="374" 
d="M288 179h-124v311l-114 -46q-14 7 -25.5 21t-11.5 37q0 44 53 63l127 50h28q31 0 49 -18t18 -50v-368zM164 264h124v-264q-8 -3 -23 -5.5t-33 -2.5q-35 0 -51.5 13t-16.5 45v214z" />
    <glyph glyph-name="two" unicode="2" horiz-adv-x="515" 
d="M58 533q0 26 23 46t62.5 31t90.5 11q71 0 120.5 -22.5t75.5 -63t26 -93.5q0 -54 -30 -105.5t-98 -109.5l-147 -129h269q5 -7 9.5 -20t4.5 -28q0 -26 -12.5 -38t-31.5 -12h-350q-16 11 -24.5 28t-8.5 38q0 25 10 42.5t24 30.5l159 146q58 51 79 84.5t21 66.5
q0 38 -27.5 61.5t-80.5 23.5q-42 0 -75 -14t-55 -29q-14 8 -24 22t-10 33z" />
    <glyph glyph-name="three" unicode="3" horiz-adv-x="512" 
d="M225 622q104 0 163.5 -44.5t59.5 -125.5q0 -37 -14 -64t-35.5 -44.5t-41.5 -24.5q27 -9 51.5 -28t40 -49t15.5 -73q0 -59 -30.5 -99.5t-83.5 -61.5t-123 -21q-62 0 -106 12t-68 32.5t-24 45.5q0 20 10 35t25 23q23 -16 59 -32t93 -16q58 0 91.5 23.5t33.5 67.5
q0 40 -29.5 63.5t-89.5 23.5h-88q-6 8 -10 20.5t-4 28.5t4 29t10 21h84q57 0 81.5 21t24.5 57q0 38 -29.5 59t-84.5 21q-44 0 -78 -12t-56 -28q-13 8 -22.5 22.5t-9.5 32.5q0 26 23 44.5t64 29.5t94 11z" />
    <glyph glyph-name="four" unicode="4" horiz-adv-x="574" 
d="M42 257l261 348q14 4 32 6.5t32 2.5q22 0 41.5 -5.5t32 -20.5t12.5 -44v-309h90q4 -8 8.5 -21t4.5 -29q0 -26 -12 -38.5t-33 -12.5h-58v-135q-7 -1 -23 -4t-31 -3q-32 0 -49 10t-17 42v90h-264q-16 8 -28 26.5t-12 42.5q0 14 3 28.5t10 25.5zM338 235l1 254h-3l-175 -254
h177z" />
    <glyph glyph-name="five" unicode="5" horiz-adv-x="530" 
d="M223 608l-26 -79l-13 -161q17 7 42.5 13.5t57.5 6.5q65 0 111 -24.5t71.5 -68.5t25.5 -104q0 -57 -26 -103.5t-79 -74t-133 -27.5q-59 0 -103.5 12.5t-69.5 34t-25 48.5q0 22 13.5 37.5t28.5 22.5q25 -20 61 -38t89 -18q59 0 89 30t30 75q0 46 -29.5 73t-82.5 27
q-31 0 -55 -8.5t-48 -21.5q-37 2 -59.5 21.5t-22.5 55.5q0 6 0.5 14.5t1.5 19.5l14 168q3 32 20 50.5t49 18.5h68zM168 507v101h284q5 -7 9 -20t4 -28q0 -26 -11.5 -39.5t-33.5 -13.5h-252z" />
    <glyph glyph-name="six" unicode="6" horiz-adv-x="554" 
d="M468 548q0 -16 -7.5 -31t-19.5 -22q-24 11 -52.5 18.5t-57.5 7.5q-69 0 -112.5 -44t-50.5 -134q20 17 57.5 34t85.5 17q90 0 146 -51.5t56 -149.5q0 -60 -26.5 -107t-76.5 -73.5t-122 -26.5t-127 32.5t-85.5 99.5t-30.5 168q0 89 21.5 153t59.5 104t87.5 59t106.5 19
q43 0 76.5 -8t52.5 -24.5t19 -40.5zM288 85q46 0 73.5 29t27.5 79q0 51 -28 77t-72 26q-38 0 -69 -16t-50 -40l2 -8q0 -70 31.5 -108.5t84.5 -38.5z" />
    <glyph glyph-name="seven" unicode="7" horiz-adv-x="470" 
d="M67 608h354q14 -8 23.5 -23t9.5 -36q0 -13 -2.5 -26t-9.5 -27l-230 -501q-10 -1 -19 -1h-17q-31 0 -52 13t-21 42q0 16 7.5 34t19.5 42l187 382h-282q-4 8 -8.5 21t-4.5 28q0 27 12.5 39.5t32.5 12.5z" />
    <glyph glyph-name="eight" unicode="8" horiz-adv-x="565" 
d="M204 335l63 15q58 13 88 35.5t30 61.5q0 38 -27 59t-75 21q-45 0 -72.5 -22t-27.5 -58q0 -30 16 -48.5t43.5 -29t60.5 -14.5l71 -26q37 -9 71 -29t55.5 -53t21.5 -84q0 -56 -30 -96t-83.5 -61t-125.5 -21q-71 0 -124.5 21.5t-83 61.5t-29.5 96q0 51 23 86t59.5 56.5
t75.5 28.5zM378 307l-80 -25q-62 -9 -95.5 -39t-33.5 -73q0 -42 30.5 -65.5t83.5 -23.5q52 0 84 22.5t32 66.5q0 48 -43 77t-116 33l-47 24q-61 16 -96.5 53t-35.5 95q0 53 28 91t78 58.5t116 20.5q104 0 164 -45.5t60 -124.5q0 -61 -37 -96t-92 -49z" />
    <glyph glyph-name="nine" unicode="9" horiz-adv-x="555" 
d="M76 61q0 16 8 31t19 22q23 -11 53 -19.5t64 -8.5q48 0 85.5 19t59.5 58.5t21 100.5q-11 -10 -30.5 -21t-45.5 -19t-59 -8q-58 0 -105.5 21t-75.5 65t-28 111q0 61 27.5 108t78 73.5t118.5 26.5q74 0 128.5 -33t85 -100t30.5 -167q0 -117 -35 -191t-97 -109t-144 -35
q-69 0 -113.5 19t-44.5 56zM275 313q36 0 66 17t43 40h-1q0 72 -30 112t-88 40q-44 0 -72 -28.5t-28 -77.5q0 -53 32 -78t78 -25z" />
    <glyph glyph-name="colon" unicode=":" horiz-adv-x="222" 
d="M39 393q0 33 20.5 55t54.5 22t54.5 -22t20.5 -55q0 -32 -20.5 -53.5t-54.5 -21.5t-54.5 21.5t-20.5 53.5zM36 61q0 32 20 54t55 22q34 0 54.5 -22t20.5 -54t-20.5 -54t-54.5 -22q-35 0 -55 22t-20 54z" />
    <glyph glyph-name="semicolon" unicode=";" horiz-adv-x="233" 
d="M42 393q0 33 20 55t55 22q34 0 54.5 -22t20.5 -55q0 -32 -20.5 -53.5t-54.5 -21.5q-35 0 -55 21.5t-20 53.5zM124 -84q-24 -34 -61 -34q-32 0 -54 21q12 33 23.5 72.5t21 78.5t14.5 70q12 6 28.5 10.5t34.5 4.5q24 0 40.5 -11t16.5 -39q0 -24 -10.5 -58t-25.5 -65.5
t-28 -49.5z" />
    <glyph glyph-name="less" unicode="&#x3c;" horiz-adv-x="481" 
d="M160 289l288 -142q2 -5 2 -11v-12q0 -25 -13 -43t-43 -18q-14 0 -28 6t-34 17l-272 143q-18 24 -18 60q0 28 9 44t23 25l317 161q32 -10 45 -26t13 -34q0 -26 -14 -40.5t-38 -27.5z" />
    <glyph glyph-name="equal" unicode="=" horiz-adv-x="514" 
d="M424 349h-370q-5 8 -8.5 20t-3.5 26q0 27 13 39.5t34 12.5h371q4 -8 7.5 -21t3.5 -28q0 -26 -12.5 -37.5t-34.5 -11.5zM424 143h-370q-5 9 -8.5 20.5t-3.5 26.5q0 27 13 39t34 12h371q4 -8 7.5 -21t3.5 -27q0 -26 -12.5 -38t-34.5 -12z" />
    <glyph glyph-name="greater" unicode="&#x3e;" horiz-adv-x="475" 
d="M316 295l-283 139q-1 5 -1.5 11t-0.5 12q0 24 13.5 42.5t42.5 18.5q14 0 29.5 -6.5t32.5 -15.5l267 -142q17 -24 17 -61q0 -28 -8 -44t-23 -24l-310 -161q-32 9 -44.5 25.5t-12.5 34.5q0 25 13.5 40t37.5 27z" />
    <glyph glyph-name="question" unicode="?" horiz-adv-x="478" 
d="M225 227l-100 -22q-13 10 -23 26.5t-10 38.5t12 34t38 19l73 18q47 13 71.5 36t24.5 62q0 34 -27 60t-87 26q-40 0 -78.5 -11.5t-61.5 -28.5q-13 10 -22 25t-9 33q0 41 52 64t132 23q73 0 124.5 -24.5t79 -67.5t27.5 -99q0 -85 -54 -136.5t-162 -75.5zM104 60
q0 33 20.5 54t54.5 21t54.5 -21t20.5 -54q0 -32 -20.5 -53t-54.5 -21t-54.5 21t-20.5 53z" />
    <glyph glyph-name="at" unicode="@" horiz-adv-x="1033" 
d="M428 199q0 -52 26.5 -77.5t68.5 -25.5q33 0 58 16t46 46l25 -103q-22 -24 -59.5 -39.5t-89.5 -15.5q-88 0 -143.5 52.5t-55.5 146.5q0 72 30.5 125t84.5 82t126 29q46 0 82.5 -11t61.5 -26q40 -23 40 -58v-12.5t-1 -12.5l-28 -258l-114 -1l26 266q-13 7 -30 11t-40 4
q-49 0 -81.5 -35.5t-32.5 -102.5zM623 34q3 19 12.5 36.5t25.5 28t36 10.5q8 -6 21.5 -12t29.5 -6q55 0 85 50.5t30 130.5q0 86 -41 151.5t-114 102t-170 36.5q-110 0 -193 -45.5t-129 -126.5t-46 -186q0 -101 42 -175t115.5 -114.5t169.5 -40.5q41 0 70 4t50 9
q6 -9 10.5 -20.5t4.5 -23.5q0 -20 -13 -35.5t-44 -23.5t-87 -8q-69 0 -133.5 17.5t-119.5 51.5t-96 85.5t-64 120t-23 153.5q0 104 35.5 187.5t100.5 143t154 91t195 31.5q100 0 182 -27t140.5 -78t90 -122t31.5 -159q0 -131 -60 -203.5t-173 -72.5q-30 0 -64 10t-61 29z
" />
    <glyph glyph-name="A" unicode="A" horiz-adv-x="609" 
d="M309 504h-5q-13 -36 -28.5 -82t-32.5 -95.5t-32 -95.5l-14 -62q-6 -19 -12.5 -42t-14 -46.5t-14 -44.5t-11.5 -37q-10 -3 -21.5 -5.5t-27.5 -2.5q-32 0 -50.5 12.5t-18.5 37.5q0 11 3.5 23t7.5 27q10 33 27 82.5t37 107.5t41.5 117t40.5 110.5t33 86.5q12 7 37 13t51 6
q34 0 62.5 -10t35.5 -32q21 -55 45 -126t49 -148t48 -150t41 -132q-10 -11 -27.5 -18t-40.5 -7q-33 0 -47.5 12.5t-22.5 38.5l-41 131l-13 64q-16 51 -31.5 100.5t-29.5 92.5t-24 74zM141 145l47 99h250l19 -99h-316z" />
    <glyph glyph-name="B" unicode="B" horiz-adv-x="609" 
d="M400 359v-93h-242v93h242zM311 266l19 71q77 0 128.5 -21t77.5 -57.5t26 -85.5q0 -95 -70 -140.5t-198 -45.5q-25 0 -54.5 1.5t-59 6.5t-54.5 12q-49 17 -49 59v491q0 18 10.5 28.5t27.5 15.5q34 11 79 15.5t93 4.5q120 0 186 -42t66 -128q0 -46 -25.5 -80.5t-76 -53.5
t-126.5 -19l-8 61q55 0 82 22t27 62q0 39 -31 59.5t-93 20.5q-25 0 -48 -2t-39 -5v-421q19 -5 46 -7t53 -2q62 0 97.5 22.5t35.5 69.5q0 43 -31 65.5t-91 22.5z" />
    <glyph glyph-name="C" unicode="C" horiz-adv-x="580" 
d="M537 530q0 -19 -10.5 -33.5t-24.5 -22.5q-25 17 -58 31t-81 14q-56 0 -98.5 -24.5t-66 -73t-23.5 -118.5q0 -106 53 -160.5t141 -54.5q47 0 81 13t59 30q13 -8 22.5 -23.5t9.5 -34.5q0 -17 -8.5 -31t-29.5 -25q-21 -12 -57.5 -22t-91.5 -10q-86 0 -156.5 34.5t-111.5 105
t-41 178.5q0 105 41 176t110 107.5t151 36.5q58 0 100.5 -13t66 -34t23.5 -46z" />
    <glyph glyph-name="D" unicode="D" horiz-adv-x="659" 
d="M484 306q0 -107 -52 -161.5t-145 -54.5q-22 0 -44 1.5t-40 5.5v415q18 3 37.5 4.5t41.5 1.5q58 0 103.5 -22.5t72 -69t26.5 -120.5zM614 308q0 106 -42.5 175t-118 103.5t-176.5 34.5q-38 0 -81.5 -4t-80.5 -15q-17 -6 -27.5 -16t-10.5 -29v-491q0 -42 49 -59
q38 -13 83 -16.5t78 -3.5q99 0 172 35t114 106.5t41 179.5z" />
    <glyph glyph-name="E" unicode="E" horiz-adv-x="539" 
d="M77 402h124v-395q-7 -2 -23 -5t-33 -3q-31 0 -49.5 18.5t-18.5 48.5v336zM201 206l-124 1v333q0 31 18.5 49t49.5 18q17 0 33 -3t23 -5v-393zM145 260v100h301q5 -7 9.5 -20t4.5 -28q0 -26 -12 -39t-33 -13h-270zM145 -1v101h336q4 -7 8.5 -20t4.5 -29q0 -26 -12 -39
t-33 -13h-304zM145 505v102h331q5 -7 9 -20t4 -28q0 -26 -11.5 -40t-33.5 -14h-299z" />
    <glyph glyph-name="F" unicode="F" horiz-adv-x="524" 
d="M203 248h-126v292q0 31 18.5 49t49.5 18q17 0 33.5 -3t24.5 -5v-351zM144 239v103h299q5 -8 9.5 -21t4.5 -28q0 -26 -12 -40t-34 -14h-267zM145 504v103h332q5 -7 9.5 -20.5t4.5 -28.5q0 -26 -12 -40t-34 -14h-300zM77 326h127v-325q-8 -2 -24.5 -4.5t-33.5 -2.5
q-36 0 -52.5 13.5t-16.5 44.5v274z" />
    <glyph glyph-name="G" unicode="G" horiz-adv-x="651" 
d="M591 295v-212q0 -24 -10.5 -38t-33.5 -26q-26 -14 -74.5 -24t-97.5 -10q-95 0 -169.5 33.5t-117.5 104t-43 180.5q0 106 44 177t117.5 107t162.5 36q60 0 104.5 -13t69 -34t24.5 -46q0 -19 -10.5 -34t-23.5 -23q-27 17 -64 31.5t-91 14.5q-58 0 -104.5 -25t-72.5 -73.5
t-26 -117.5q0 -74 26 -121.5t72 -70.5t104 -23q29 0 53.5 5t38.5 12v142h-130q-4 7 -8.5 20.5t-4.5 27.5q0 27 12 39.5t33 12.5h168q23 0 37.5 -14t14.5 -38z" />
    <glyph glyph-name="H" unicode="H" horiz-adv-x="663" 
d="M77 400h127v-398q-8 -3 -24.5 -5.5t-34.5 -2.5q-36 0 -52 13.5t-16 45.5v347zM204 255h-127v352q9 2 25.5 5t33.5 3q36 0 52 -12.5t16 -46.5v-301zM459 400h126v-398q-8 -3 -24.5 -5.5t-33.5 -2.5q-37 0 -52.5 13.5t-15.5 45.5v347zM585 255h-126v352q8 2 24.5 5t33.5 3
q36 0 52 -13t16 -47v-300zM529 255h-390v101h390v-101z" />
    <glyph glyph-name="I" unicode="I" horiz-adv-x="283" 
d="M78 401h126v-399q-8 -3 -24 -5.5t-34 -2.5q-36 0 -52 13.5t-16 45.5v348zM204 255h-126v352q8 2 25 5t34 3q35 0 51 -12.5t16 -46.5v-301z" />
    <glyph glyph-name="J" unicode="J" horiz-adv-x="398" 
d="M196 289h126v-126q0 -59 -23 -98.5t-63.5 -58.5t-94.5 -19t-86 16.5t-32 51.5q0 17 6 29.5t12 19.5q17 -6 34.5 -9.5t36.5 -3.5q43 0 63.5 20.5t20.5 64.5v113zM322 240h-126v367q8 2 25 5t33 3q35 0 51.5 -12.5t16.5 -46.5v-316z" />
    <glyph glyph-name="K" unicode="K" horiz-adv-x="590" 
d="M153 318l131 27q92 -94 162 -167.5t115 -117.5q0 -32 -20.5 -50.5t-47.5 -18.5q-29 0 -48.5 15t-38.5 35zM290 274l-152 1l309 337q46 -1 67 -19t21 -44q0 -19 -9.5 -36t-30.5 -37zM77 403h127v-402q-8 -2 -24.5 -5t-34.5 -3q-36 0 -52 13.5t-16 45.5v351zM204 257h-127
v350q9 2 25.5 5t33.5 3q36 0 52 -12.5t16 -46.5v-299z" />
    <glyph glyph-name="L" unicode="L" horiz-adv-x="507" 
d="M77 397h127v-390l-59 -8q-31 0 -49.5 18.5t-18.5 48.5v331zM145 -1v104h318q6 -8 10.5 -21t4.5 -29q0 -27 -12.5 -40.5t-33.5 -13.5h-287zM204 255h-127v352q9 2 25.5 5t33.5 3q36 0 52 -12.5t16 -46.5v-301z" />
    <glyph glyph-name="M" unicode="M" horiz-adv-x="788" 
d="M459 154q-10 -8 -26 -13.5t-36 -5.5q-26 0 -43.5 7t-23.5 24q-41 100 -70.5 174.5t-46.5 125.5h-4q-3 -67 -6 -124t-5 -110.5t-4.5 -109t-6.5 -120.5q-10 -3 -25 -6t-31 -3q-32 0 -48.5 11.5t-16.5 37.5q0 19 2.5 62.5t6 102.5t7.5 124.5t9 130t9 118.5q8 10 28.5 20.5
t54.5 10.5q37 0 60 -13t34 -40q19 -42 39.5 -94t40 -104.5t36.5 -97.5h5q34 95 68.5 184t59.5 150q12 7 30.5 11t38.5 4q35 0 57 -11t27 -33q4 -18 8.5 -59t9.5 -95.5t10 -114t9 -116t7.5 -102t4.5 -72.5q-13 -8 -27 -11.5t-35 -3.5q-26 0 -44.5 10t-20.5 39q-5 85 -9 164.5
t-6.5 145.5t-4.5 111h-5q-16 -47 -45 -120.5t-72 -188.5z" />
    <glyph glyph-name="N" unicode="N" horiz-adv-x="669" 
d="M77 472l113 3q4 -38 6.5 -80t3 -83t0.5 -79v-232q-7 -2 -23.5 -4.5t-32.5 -2.5q-36 0 -51.5 12.5t-15.5 44.5v421zM592 137l-114 -3q-8 77 -9 150.5t-1 142.5v180q9 2 24.5 5t33.5 3q35 0 50.5 -13t15.5 -44v-421zM592 178v-162q-12 -10 -32 -16.5t-46 -6.5
q-31 0 -55.5 10t-41.5 44l-147 263q-12 24 -25.5 50t-25.5 51t-22 46l-120 -28v157q11 14 32.5 21t46.5 7q30 0 55 -10t42 -43l147 -263q13 -24 26.5 -50t25 -51t20.5 -46z" />
    <glyph glyph-name="O" unicode="O" horiz-adv-x="696" 
d="M650 304q0 -104 -39.5 -175t-108 -107.5t-155.5 -36.5q-86 0 -154.5 36.5t-108 107.5t-39.5 175t40.5 175t109 107.5t152.5 36.5q86 0 154.5 -36.5t108.5 -107.5t40 -175zM521 304q0 105 -47.5 160t-126.5 55q-77 0 -124.5 -55t-47.5 -160q0 -106 47 -161t126 -55t126 55
t47 161z" />
    <glyph glyph-name="P" unicode="P" horiz-adv-x="574" 
d="M203 304h74q61 0 96 27.5t35 80.5q0 54 -33.5 80t-95.5 26q-22 0 -41 -1.5t-35 -4.5v-208zM284 203h-207v354q0 18 10.5 28t27.5 16q32 10 76 15t82 5q132 0 197.5 -56t65.5 -152q0 -64 -29 -111t-85 -73t-138 -26zM77 260h127v-258q-8 -3 -24.5 -5.5t-34.5 -2.5
q-36 0 -52 13.5t-16 45.5v207z" />
    <glyph glyph-name="Q" unicode="Q" horiz-adv-x="697" 
d="M332 3l127 28q47 -26 84.5 -43t70.5 -29t66 -23q2 -7 2 -11.5v-8.5q0 -37 -20.5 -55.5t-54.5 -18.5q-38 0 -88.5 26.5t-109.5 73.5zM650 304q0 -104 -39.5 -175t-108 -107t-155.5 -36q-86 0 -154.5 36.5t-108 107t-39.5 174.5t40.5 175t109 107.5t152.5 36.5
q86 0 154.5 -36.5t108.5 -107.5t40 -175zM521 304q0 105 -47.5 160t-126.5 55q-77 0 -124.5 -54.5t-47.5 -160.5q0 -105 47 -160t126 -55t126 55t47 160z" />
    <glyph glyph-name="R" unicode="R" horiz-adv-x="599" 
d="M203 313h83q59 0 94 26t35 77q0 50 -35 76t-103 26q-20 0 -39 -1.5t-35 -4.5v-199zM295 214h-218v343q0 18 10.5 28t27.5 16q32 10 75.5 15t88.5 5q132 0 197.5 -54.5t65.5 -149.5q0 -60 -30.5 -106t-85.5 -71.5t-131 -25.5zM278 246l108 31q25 -33 51.5 -66.5t51 -65
t44 -57.5t30.5 -43q-7 -25 -26.5 -39t-42.5 -14q-30 0 -46.5 13.5t-31.5 36.5zM77 258h127v-256q-8 -3 -24.5 -5.5t-34.5 -2.5q-36 0 -52 13.5t-16 45.5v205z" />
    <glyph glyph-name="S" unicode="S" horiz-adv-x="536" 
d="M254 88q58 0 86 23.5t28 58.5q0 31 -21.5 50.5t-65.5 32.5l-65 20q-50 17 -87.5 38t-58 54.5t-20.5 82.5q0 81 60.5 128t165.5 47q56 0 99.5 -11.5t69 -31.5t25.5 -47q0 -19 -9.5 -33.5t-23.5 -23.5q-23 17 -63 29.5t-87 12.5q-52 0 -80 -19t-28 -51q0 -26 19.5 -42
t59.5 -28l58 -17q86 -26 134 -70.5t48 -121.5q0 -82 -62.5 -133t-178.5 -51q-61 0 -108 13t-74.5 36t-27.5 52q0 22 14 38t30 24q26 -22 67 -41t96 -19z" />
    <glyph glyph-name="T" unicode="T" horiz-adv-x="539" 
d="M225 504l-3 103h281q5 -7 9 -20.5t4 -28.5q0 -26 -12 -40t-33 -14h-246zM314 607l2 -103h-281q-5 8 -9 21t-4 29q0 27 12 40t33 13h247zM205 531h126v-529q-8 -3 -24.5 -5.5t-33.5 -2.5q-37 0 -52.5 13.5t-15.5 45.5v478z" />
    <glyph glyph-name="U" unicode="U" horiz-adv-x="656" 
d="M328 -15q-79 0 -136 28.5t-86.5 80.5t-29.5 122v72h126v-67q0 -64 35.5 -98.5t90.5 -34.5q54 0 90 34.5t36 98.5v67h127v-72q0 -70 -30 -122t-86.5 -80.5t-136.5 -28.5zM202 253h-126v354q8 2 24.5 5t33.5 3q36 0 52 -12.5t16 -46.5v-303zM581 252h-127v355q8 2 25 5
t34 3q35 0 51.5 -12.5t16.5 -46.5v-304z" />
    <glyph glyph-name="V" unicode="V" horiz-adv-x="607" 
d="M386 14q-9 -8 -30.5 -14.5t-47.5 -6.5q-30 0 -52 8.5t-30 25.5q-15 29 -35.5 78t-44 110.5t-46.5 126.5t-42.5 127.5t-33.5 112.5q10 11 29 20.5t41 9.5q28 0 44 -12.5t24 -41.5q36 -115 71 -222t74 -218h5q24 69 49.5 149t50 165t44.5 166q12 6 26.5 10t31.5 4
q27 0 45.5 -13t18.5 -40q0 -18 -10.5 -59.5t-28.5 -96.5t-39 -114t-43 -114.5t-40.5 -98t-30.5 -62.5z" />
    <glyph glyph-name="W" unicode="W" horiz-adv-x="832" 
d="M352 457q10 5 27.5 9.5t35.5 4.5q31 0 51.5 -9t24.5 -28q21 -64 37.5 -117.5t31.5 -103.5t30 -104h4q16 86 29.5 165.5t26 158.5t23.5 165q26 14 56 14q28 0 46.5 -12t18.5 -39q0 -21 -5 -60t-13.5 -90.5t-20 -107t-24 -110t-25 -100t-24.5 -76.5q-12 -9 -35.5 -15.5
t-50.5 -6.5q-33 0 -56.5 9.5t-29.5 26.5q-12 31 -27 77t-31 100.5t-32 110.5q-14 -55 -30.5 -112.5t-31.5 -107t-27 -82.5q-11 -9 -33 -15.5t-49 -6.5q-32 0 -57.5 10t-33.5 26q-10 24 -23.5 71.5t-28.5 110t-29.5 129.5t-26 130t-18.5 113q11 10 29 18.5t39 8.5
q28 0 45 -12.5t22 -41.5q15 -81 26 -144.5t20.5 -115.5t18 -97.5t19.5 -91.5h4q12 42 22.5 80t22 77t24.5 85t28 106z" />
    <glyph glyph-name="X" unicode="X" horiz-adv-x="596" 
d="M257 277l-25 6l-195 271q7 22 26 40.5t50 18.5q23 0 39.5 -12t32.5 -37l142 -209l33 -23l201 -281q-5 -26 -24.5 -42t-50.5 -16q-21 0 -36.5 11t-33.5 37zM355 281l-36 -24l-181 -262q-6 -1 -12.5 -1.5t-12.5 -0.5q-37 0 -56.5 16t-19.5 41q0 20 10 36.5t25 37.5l160 207
l52 42l164 234q6 2 15.5 3.5t19.5 1.5q32 0 50 -16t18 -39q0 -19 -10 -35t-26 -37q-39 -51 -78.5 -101.5t-81.5 -102.5z" />
    <glyph glyph-name="Y" unicode="Y" horiz-adv-x="562" 
d="M344 204h-112q-27 39 -57.5 86.5t-60.5 97.5t-56.5 97.5t-44.5 86.5q9 14 25.5 27t41.5 13q28 0 45.5 -13t33.5 -45q14 -25 30.5 -55t33.5 -61.5t33 -61t29 -52.5h5q27 51 49.5 94.5t43.5 87.5t43 93q12 6 27 9.5t29 3.5q26 0 43 -14t17 -40q0 -11 -11.5 -37.5
t-35.5 -69.5t-61.5 -104.5t-89.5 -142.5zM226 253h124v-251q-8 -3 -24.5 -5.5t-32.5 -2.5q-37 0 -52 13t-15 45v201z" />
    <glyph glyph-name="Z" unicode="Z" horiz-adv-x="558" 
d="M74 138l366 470h41q31 -25 31 -65q0 -20 -8.5 -37.5t-22.5 -34.5l-364 -471h-46q-12 10 -20.5 27t-8.5 37t9.5 38.5t22.5 35.5zM91 0l46 105h368q5 -9 9.5 -22t4.5 -29q0 -27 -12.5 -40.5t-33.5 -13.5h-382zM456 608l-36 -104h-355q-5 8 -10 21t-5 29q0 27 12.5 40.5
t34.5 13.5h359z" />
    <glyph glyph-name="bracketleft" unicode="[" horiz-adv-x="285" 
d="M58 -48v624h114v-624h-114zM58 -26h208q4 -9 7.5 -20.5t3.5 -25.5q0 -24 -12 -36t-32 -12h-117q-30 0 -44 16.5t-14 41.5v36zM116 654h150q4 -8 7.5 -19.5t3.5 -25.5q0 -24 -12 -36t-32 -12h-175v36q0 24 14 40.5t44 16.5z" />
    <glyph glyph-name="backslash" unicode="\" horiz-adv-x="350" 
d="M140 628l182 -662q-10 -10 -28.5 -18.5t-35.5 -8.5q-19 0 -33.5 9t-20.5 31l-182 661q11 12 29 19.5t35 7.5q19 0 33.5 -8.5t20.5 -30.5z" />
    <glyph glyph-name="bracketright" unicode="]" horiz-adv-x="292" 
d="M227 585v-627h-114v627h114zM227 561h-208q-5 8 -8 20t-3 25q0 26 12 37t33 11h116q30 0 44 -16.5t14 -40.5v-36zM169 -120h-150q-5 8 -8 19.5t-3 25.5q0 25 12 37t33 12h174v-36q0 -25 -14 -41.5t-44 -16.5z" />
    <glyph glyph-name="asciicircum" unicode="^" horiz-adv-x="475" 
d="M174 644q9 7 25.5 11.5t36.5 4.5q50 0 64 -25q13 -21 31 -57t37 -79t36 -84t26 -72q-8 -9 -23.5 -17.5t-33.5 -8.5q-23 0 -36 10t-24 37l-77 187h-6q-6 -15 -16 -41t-22.5 -57t-23.5 -63t-19 -60q-11 -7 -24.5 -10t-27.5 -3q-22 0 -37 10t-15 34q0 12 10.5 39.5t26 63
t33.5 71.5t34 65.5t25 43.5z" />
    <glyph glyph-name="underscore" unicode="_" horiz-adv-x="486" 
d="M439 -154h-428q-4 8 -7.5 20t-3.5 27q0 26 13 38.5t34 12.5h427q4 -8 8 -21t4 -27q0 -26 -13 -38t-34 -12z" />
    <glyph glyph-name="grave" unicode="`" horiz-adv-x="302" 
d="M135 545l-96 95q-1 4 -1.5 9.5t-0.5 8.5q0 26 16 41t39 15q15 0 28.5 -6.5t25.5 -20.5l89 -112q-2 -25 -17 -38t-34 -13q-16 0 -26.5 5.5t-22.5 15.5z" />
    <glyph glyph-name="a" unicode="a" horiz-adv-x="521" 
d="M250 79q30 0 54 6t35 13v114l-99 -10q-41 -3 -62.5 -17.5t-21.5 -42.5q0 -29 23 -46t71 -17zM245 487q98 0 156 -41.5t58 -130.5v-230q0 -24 -11.5 -38t-29.5 -25q-28 -16 -71 -26.5t-97 -10.5q-100 0 -157 38.5t-57 114.5q0 67 42.5 102.5t123.5 43.5l136 14v18
q0 40 -27.5 58t-77.5 18q-39 0 -76 -10t-66 -24q-10 8 -18 22t-8 29q0 36 40 53q28 13 65.5 19t74.5 6z" />
    <glyph glyph-name="b" unicode="b" horiz-adv-x="569" 
d="M301 487q64 0 115.5 -27.5t81.5 -83t30 -138.5q0 -84 -31.5 -140t-88 -84t-131.5 -28q-57 0 -99.5 13.5t-71.5 31.5q-21 15 -30.5 30.5t-9.5 38.5v323h123v-315q13 -9 35.5 -16.5t51.5 -7.5q57 0 91.5 38t34.5 116q0 79 -34 115t-89 36q-35 0 -62 -13t-46 -30l-8 100
q23 14 57.5 27.5t80.5 13.5zM189 395h-123v255q8 2 23 5t33 3q35 0 51 -12.5t16 -44.5v-206z" />
    <glyph glyph-name="c" unicode="c" horiz-adv-x="483" 
d="M307 388q-60 0 -100.5 -39t-40.5 -114q0 -74 39 -112t101 -38q37 0 62.5 9.5t44.5 20.5q15 -9 23.5 -21.5t8.5 -30.5q0 -34 -41 -55.5t-108 -21.5q-76 0 -133.5 27.5t-90 83.5t-32.5 138q0 85 34.5 141t92 83.5t126.5 27.5q66 0 106 -23t40 -57q0 -15 -8 -28t-19 -21
q-20 12 -45 21t-60 9z" />
    <glyph glyph-name="d" unicode="d" horiz-adv-x="566" 
d="M377 104v314h123v-327q0 -22 -9.5 -36.5t-30.5 -27.5q-24 -16 -65.5 -28.5t-94.5 -12.5q-79 0 -137.5 26.5t-90.5 82t-32 140.5q0 87 32.5 143t87.5 82.5t122 26.5q37 0 67.5 -9t49.5 -21v-105q-16 15 -42 26t-60 11q-37 0 -67 -15.5t-47 -50t-17 -89.5q0 -78 36 -114
t97 -36q27 0 46 6t32 14zM500 393l-123 -1v258q7 2 22.5 5t32.5 3q36 0 52 -12.5t16 -44.5v-208z" />
    <glyph glyph-name="e" unicode="e" horiz-adv-x="533" 
d="M118 174l-5 86l268 40q-3 38 -29 66t-76 28q-51 0 -85 -35.5t-35 -101.5l3 -52q9 -64 49.5 -94t102.5 -30q42 0 78 12.5t57 27.5q14 -9 22.5 -22.5t8.5 -29.5q0 -26 -23 -44.5t-62 -28.5t-89 -10q-77 0 -136.5 28.5t-93 85.5t-33.5 142q0 61 19 107t51.5 76.5t75.5 46
t90 15.5q66 0 115.5 -26.5t78 -73.5t28.5 -108q0 -28 -14.5 -41.5t-40.5 -16.5z" />
    <glyph glyph-name="f" unicode="f" horiz-adv-x="414" 
d="M165 346v96h201q4 -7 8.5 -19.5t4.5 -28.5q0 -25 -11.5 -36.5t-32.5 -11.5h-170zM184 490v-129h-118v134q0 63 25.5 102.5t71 58t103.5 18.5q65 0 99 -17t34 -51q0 -15 -6.5 -27.5t-15.5 -20.5q-19 8 -42.5 13t-49.5 5q-53 0 -77 -20t-24 -66zM66 396h123v-394
q-8 -3 -23 -5.5t-33 -2.5q-34 0 -50.5 12.5t-16.5 44.5v345z" />
    <glyph glyph-name="g" unicode="g" horiz-adv-x="550" 
d="M260 17q-59 0 -109 22.5t-80 74.5t-30 137q0 78 30.5 130.5t86 79t127.5 26.5q51 0 94.5 -13t69.5 -30q17 -11 27.5 -26.5t10.5 -37.5v-312h-120v301q-13 8 -32 14t-47 6q-55 0 -89.5 -34t-34.5 -104q0 -77 33.5 -108t82.5 -31q38 0 61.5 13t39.5 28l4 -100
q-18 -14 -49.5 -25t-75.5 -11zM369 -3v98h118v-102q0 -68 -31 -110.5t-84.5 -62.5t-119.5 -20q-52 0 -90.5 10t-56.5 21q-33 20 -33 55q0 18 8 32t19 21q25 -16 62.5 -28t79.5 -12q60 0 94 23.5t34 74.5z" />
    <glyph glyph-name="h" unicode="h" horiz-adv-x="567" 
d="M503 202h-123v90q0 51 -27.5 74t-69.5 23q-34 0 -62.5 -13t-49.5 -30l-7 100q23 14 59 27.5t81 13.5q90 0 144.5 -47t54.5 -142v-96zM66 264h123v-262q-8 -3 -23 -5.5t-33 -2.5q-34 0 -50.5 12.5t-16.5 44.5v213zM380 263h123v-261q-8 -3 -23.5 -5.5t-32.5 -2.5
q-35 0 -51 12.5t-16 44.5v212zM189 201h-123v449q8 2 23 5t33 3q35 0 51 -12.5t16 -44.5v-400z" />
    <glyph glyph-name="i" unicode="i" horiz-adv-x="261" 
d="M58 614q0 29 20.5 49t51.5 20q32 0 51.5 -20t19.5 -49q0 -28 -19.5 -48.5t-51.5 -20.5q-31 0 -51.5 20.5t-20.5 48.5zM68 264h124v-262q-8 -3 -23 -5.5t-33 -2.5q-34 0 -51 12.5t-17 44.5v213zM192 201h-124v268q8 3 23.5 5.5t33.5 2.5q35 0 51 -12.5t16 -45.5v-218z" />
    <glyph glyph-name="j" unicode="j" horiz-adv-x="264" 
d="M0 -125q24 12 40 25t24 34t8 54v281h124v-297q0 -61 -20 -97.5t-49 -53t-58 -16.5q-33 0 -50.5 20.5t-18.5 49.5zM60 614q0 29 20.5 49t51.5 20t51 -20t20 -49q0 -28 -20 -48.5t-51 -20.5t-51.5 20.5t-20.5 48.5zM196 195l-124 6v268q8 3 23.5 5.5t33.5 2.5
q35 0 51 -12.5t16 -45.5v-224z" />
    <glyph glyph-name="k" unicode="k" horiz-adv-x="520" 
d="M245 199l-86 57l227 226q37 -1 59 -17.5t22 -42.5q0 -21 -14.5 -38t-43.5 -42zM162 238l95 45l233 -219q-3 -33 -20 -52t-47 -19q-23 0 -42 11.5t-39 35.5zM66 266l123 -6v-258q-8 -3 -23 -5.5t-33 -2.5q-34 0 -50.5 12.5t-16.5 44.5v215zM189 197l-123 6v447q8 2 23 5
t33 3q35 0 51 -12.5t16 -44.5v-404z" />
    <glyph glyph-name="l" unicode="l" horiz-adv-x="264" 
d="M71 264l123 -6v-256q-8 -3 -23 -5.5t-33 -2.5q-34 0 -50.5 12.5t-16.5 44.5v213zM194 195l-123 6v449q7 2 22.5 5t32.5 3q36 0 52 -12.5t16 -44.5v-406z" />
    <glyph glyph-name="m" unicode="m" horiz-adv-x="831" 
d="M477 327v-114h-123v100q0 39 -23.5 57.5t-59.5 18.5q-26 0 -47.5 -7.5t-36.5 -17.5v-151h-123v159q0 24 10 39.5t30 28.5q31 21 76.5 34t94.5 13t90 -15t67 -44q7 -6 13 -12t10 -14q9 -15 15.5 -34.5t6.5 -40.5zM766 317v-104h-123v100q0 39 -22 57.5t-59 18.5
q-27 0 -52.5 -11t-43.5 -29l-62 75q31 26 73 44.5t100 18.5q53 0 96 -17t68 -55t25 -98zM64 261h123v-259q-8 -3 -23 -5.5t-33 -2.5q-34 0 -50.5 12.5t-16.5 44.5v210zM354 261h123v-259q-8 -3 -23.5 -5.5t-32.5 -2.5q-35 0 -51 12.5t-16 44.5v210zM643 261h123v-259
q-7 -3 -22.5 -5.5t-32.5 -2.5q-35 0 -51.5 12.5t-16.5 44.5v210z" />
    <glyph glyph-name="n" unicode="n" horiz-adv-x="566" 
d="M501 309v-97h-123v92q0 44 -25 64.5t-67 20.5q-31 0 -55.5 -7.5t-43.5 -17.5v-152h-123v160q0 24 10 39.5t30 28.5q30 20 77.5 33.5t105.5 13.5q101 0 157.5 -45t56.5 -133zM64 261h123v-259q-8 -3 -23 -5.5t-33 -2.5q-34 0 -50.5 12.5t-16.5 44.5v210zM378 261h123v-259
q-7 -3 -22.5 -5.5t-32.5 -2.5q-35 0 -51.5 12.5t-16.5 44.5v210z" />
    <glyph glyph-name="o" unicode="o" horiz-adv-x="569" 
d="M528 237q0 -77 -30 -133.5t-84.5 -87t-128.5 -30.5t-129 30.5t-85.5 86.5t-30.5 134q0 77 31 133t86 86.5t128 30.5t127.5 -30.5t85 -87t30.5 -132.5zM285 389q-55 0 -86.5 -40t-31.5 -112q0 -74 31 -113.5t87 -39.5q55 0 86 40t31 113q0 71 -31 111.5t-86 40.5z" />
    <glyph glyph-name="p" unicode="p" horiz-adv-x="565" 
d="M287 -14q69 0 122.5 28.5t84 84.5t30.5 140q0 87 -32.5 142t-89.5 80.5t-130 25.5q-54 0 -97 -12.5t-72 -29.5q-21 -13 -30 -28t-9 -38v-328h123v316q15 9 36 15.5t49 6.5q36 0 65 -15t45.5 -47.5t16.5 -87.5q0 -79 -35 -116.5t-95 -37.5q-36 0 -62.5 12.5t-45.5 28.5
v-106q21 -13 53.5 -23.5t72.5 -10.5zM187 85l-123 1v-215q0 -32 16.5 -45t50.5 -13q18 0 33 2.5t23 5.5v264z" />
    <glyph glyph-name="q" unicode="q" horiz-adv-x="566" 
d="M501 69l-123 1v299q-13 8 -32.5 14t-45.5 6q-39 0 -69.5 -16t-47.5 -50t-17 -89q0 -78 35.5 -114t95.5 -36q30 0 54.5 10t39.5 24v-105q-19 -11 -47.5 -19t-65.5 -8q-68 0 -122 26.5t-85 82t-31 139.5q0 85 33 141.5t90.5 84t133.5 27.5q51 0 95.5 -12.5t70.5 -29.5
q17 -11 27.5 -26.5t10.5 -37.5v-312zM378 87l123 1v-270q-8 -3 -23.5 -5.5t-32.5 -2.5q-35 0 -51 13t-16 45v219z" />
    <glyph glyph-name="r" unicode="r" horiz-adv-x="396" 
d="M187 360v-137h-123v147q0 25 12 42.5t34 32.5q30 18 76 30t99 12q94 0 94 -58q0 -14 -4 -25.5t-10 -20.5q-10 2 -25 3.5t-32 1.5q-36 0 -67.5 -7.5t-53.5 -20.5zM64 264l123 -6v-256q-8 -3 -23 -5.5t-33 -2.5q-34 0 -50.5 12.5t-16.5 44.5v213z" />
    <glyph glyph-name="s" unicode="s" horiz-adv-x="469" 
d="M430 134q0 -70 -52 -109.5t-151 -39.5q-80 0 -131 24t-51 64q0 17 8 31.5t21 22.5q28 -18 65 -32t84 -14q85 0 85 52q0 22 -15 35.5t-46 19.5l-57 15q-73 16 -108.5 50t-35.5 91q0 63 52 103.5t144 40.5q48 0 86 -9.5t59.5 -27.5t21.5 -43q0 -17 -7.5 -30.5t-19.5 -20.5
q-12 7 -32.5 15.5t-46.5 14t-52 5.5q-39 0 -61.5 -12.5t-22.5 -35.5q0 -17 13 -29t44 -19l51 -12q81 -19 118 -55.5t37 -94.5z" />
    <glyph glyph-name="t" unicode="t" horiz-adv-x="384" 
d="M65 264h123v-118q0 -33 19.5 -47t55.5 -14q16 0 34.5 4t31.5 10q7 -8 13 -19t6 -27q0 -29 -27.5 -48t-85.5 -19q-79 0 -124.5 35.5t-45.5 115.5v127zM140 366v97h196q4 -7 8.5 -20t4.5 -27q0 -25 -12 -37.5t-31 -12.5h-166zM188 237h-123v360q8 3 23.5 6t32.5 3
q35 0 51 -12.5t16 -44.5v-312z" />
    <glyph glyph-name="u" unicode="u" horiz-adv-x="565" 
d="M64 181v79h123v-77q0 -53 27.5 -76t76.5 -23q32 0 54 6t33 13v157h123v-167q0 -23 -7.5 -38.5t-28.5 -28.5q-29 -17 -73.5 -28.5t-101.5 -11.5q-69 0 -120 20t-78.5 63.5t-27.5 111.5zM501 212h-123v260q8 2 23.5 4.5t32.5 2.5q35 0 51 -12t16 -45v-210zM187 212h-123
v260q8 2 23 4.5t33 2.5q35 0 51 -12t16 -45v-210z" />
    <glyph glyph-name="v" unicode="v" horiz-adv-x="519" 
d="M429 483q26 0 43 -12t17 -38q0 -16 -10.5 -53.5t-27.5 -87.5t-37.5 -103t-41.5 -100.5t-38 -79.5q-9 -7 -28.5 -12t-43.5 -5q-28 0 -48 7.5t-28 23.5q-11 21 -27.5 59t-35.5 87t-38 101t-34.5 100t-25.5 85q11 12 28.5 20t36.5 8q26 0 42.5 -11.5t24.5 -41.5l51 -167
q8 -26 18.5 -56.5t19.5 -58t15 -46.5h4q30 88 58.5 183t49.5 185q24 13 56 13z" />
    <glyph glyph-name="w" unicode="w" horiz-adv-x="759" 
d="M382 310q-13 -55 -31 -111.5t-34 -106t-28 -81.5q-10 -9 -27 -14t-42 -5q-27 0 -48.5 8.5t-29.5 24.5q-9 20 -21 57.5t-24.5 85.5t-25 100t-23 101t-17.5 87q11 11 27.5 19t37.5 8q27 0 43 -13t20 -43q10 -58 19 -109.5t18 -93.5t15.5 -71.5t9.5 -44.5h4q7 23 21 73
t33.5 114.5t38.5 131.5q14 7 29.5 11.5t35.5 4.5q26 0 44 -8.5t24 -26.5q20 -64 37.5 -124.5t31 -107t19.5 -69.5h5q17 83 36 176t32 185q25 15 55 15q26 0 42 -11.5t16 -37.5q0 -14 -5.5 -45t-15 -72t-21.5 -87t-24.5 -89t-23.5 -77t-19 -53q-9 -8 -29 -13.5t-44 -5.5
q-62 0 -72 30q-12 30 -27.5 77t-31 102t-30.5 109z" />
    <glyph glyph-name="x" unicode="x" horiz-adv-x="502" 
d="M213 285l22 4q38 49 72.5 94.5t71.5 96.5q4 1 7 1h6q34 0 53.5 -15t19.5 -38q0 -18 -8.5 -33t-29.5 -40q-30 -35 -60.5 -70.5t-59.5 -70.5l-38 -21q-35 -49 -71.5 -99.5t-71.5 -99.5q-4 0 -8.5 -0.5t-8.5 -0.5q-36 0 -55 15.5t-19 37.5q0 16 7 29.5t28 37.5
q34 43 70.5 85.5t72.5 86.5zM286 276l28 -16q39 -52 79.5 -104t79.5 -104q-3 -28 -21 -44t-44 -16t-42.5 14.5t-34.5 38.5q-27 38 -55.5 79t-55.5 78l-24 19q-43 50 -82.5 98.5t-79.5 97.5q6 29 23 46.5t42 17.5t38.5 -12.5t29.5 -33.5q28 -37 57.5 -78t61.5 -81z" />
    <glyph glyph-name="y" unicode="y" horiz-adv-x="519" 
d="M149 113q-16 33 -36.5 82.5t-42.5 115t-45 144.5q11 12 28 20t37 8q26 0 42.5 -11.5t25.5 -41.5q26 -78 52.5 -154t56.5 -155h4q19 44 38 103.5t36.5 123.5t29.5 122q12 6 25 9.5t28 3.5q25 0 43.5 -11.5t18.5 -38.5q0 -24 -8.5 -63.5t-23.5 -87.5t-34.5 -100t-41 -100.5
t-43.5 -87.5q-51 -91 -94 -137.5t-83 -46.5q-31 0 -50.5 18.5t-23.5 45.5q22 19 46.5 45.5t47.5 56.5t39 59q-17 5 -34 20.5t-38 57.5z" />
    <glyph glyph-name="z" unicode="z" horiz-adv-x="475" 
d="M114 0h-49q-11 10 -18 24t-7 31q0 16 7.5 30.5t17.5 28.5l296 359h44q12 -10 19 -24t7 -31q0 -15 -7 -30t-19 -28zM382 473v-97h-324q-5 8 -9 21t-4 27q0 26 11.5 37.5t31.5 11.5h294zM93 0v97h335q4 -7 8 -20t4 -28q0 -25 -11.5 -37t-31.5 -12h-304z" />
    <glyph glyph-name="braceleft" unicode="{" horiz-adv-x="308" 
d="M159 271q30 -15 46 -46.5t16 -78.5v-122q0 -34 15 -48.5t41 -18.5q2 -6 2 -12.5v-12.5q0 -29 -16 -43t-44 -14q-48 0 -79.5 33t-31.5 97v114q0 49 -17 75t-53 33q-4 9 -5.5 20.5t-1.5 23.5q0 11 2 22.5t5 20.5q36 8 53 34t17 73v109q0 66 32 98t80 32q29 0 44 -13.5
t15 -43.5v-12t-2 -13q-26 -3 -41 -17.5t-15 -49.5v-115q0 -48 -16 -79t-46 -46z" />
    <glyph glyph-name="bar" unicode="|" horiz-adv-x="265" 
d="M188 627v-802q-9 -2 -22.5 -4.5t-27.5 -2.5q-30 0 -45.5 11t-15.5 44v802q9 2 22.5 4.5t28.5 2.5q29 0 44.5 -11t15.5 -44z" />
    <glyph glyph-name="braceright" unicode="}" horiz-adv-x="308" 
d="M149 271q-30 15 -46 46t-16 79v115q0 35 -15 49.5t-41 17.5q-1 7 -1.5 13t-0.5 12q0 30 15 43.5t44 13.5q48 0 79.5 -32t31.5 -98v-109q0 -47 17.5 -73t53.5 -34q3 -9 5 -20.5t2 -22.5q0 -12 -1.5 -23.5t-5.5 -20.5q-36 -7 -53.5 -33t-17.5 -75v-114q0 -64 -31 -97
t-79 -33q-28 0 -44 14t-16 43q0 6 0.5 12.5t1.5 12.5q26 4 41 18.5t15 48.5v122q0 47 16 78.5t46 46.5z" />
    <glyph glyph-name="asciitilde" unicode="~" horiz-adv-x="474" 
d="M318 297q26 0 38.5 13.5t20.5 29.5q31 0 54 -18.5t23 -49.5q0 -41 -31 -63t-76 -22q-36 0 -68.5 9t-62 18.5t-59.5 9.5q-26 0 -38.5 -14.5t-20.5 -28.5q-31 0 -53.5 19t-22.5 49q0 28 15 47.5t39.5 29t51.5 9.5q38 0 70.5 -9.5t62 -19t57.5 -9.5z" />
    <glyph glyph-name="DEL" horiz-adv-x="0" 
 />
    <glyph glyph-name="uni00A0" unicode="&#xa0;" horiz-adv-x="200" 
 />
    <glyph glyph-name="exclamdown" unicode="&#xa1;" 
d="M74 -108q0 27 1 71t3 96.5t5.5 103.5t7.5 92q7 6 21.5 9t26.5 3q21 0 35 -7.5t17 -26.5q3 -26 6 -73.5t5 -103.5t3 -110.5t1 -94.5q-32 -18 -70 -18q-29 0 -45.5 14.5t-16.5 44.5zM213 403q0 -32 -20 -53t-55 -21t-55 21t-20 53t20 53t55 21t55 -21t20 -53z" />
    <glyph glyph-name="cent" unicode="&#xa2;" horiz-adv-x="484" 
d="M210 48h110v-145q-6 -2 -19.5 -4.5t-28.5 -2.5q-31 0 -46.5 11.5t-15.5 39.5v101zM320 410h-110v162q8 3 21 5t29 2q31 0 45.5 -11.5t14.5 -39.5v-118zM306 388q-60 0 -100.5 -39t-40.5 -114q0 -74 39 -112t101 -38q37 0 62.5 9.5t44.5 20.5q15 -9 23.5 -21.5t8.5 -30.5
q0 -34 -40.5 -55.5t-108.5 -21.5q-76 0 -133.5 27.5t-90 83.5t-32.5 138q0 85 34.5 141t92 83.5t126.5 27.5q66 0 106 -23t40 -57q0 -15 -8 -28t-20 -21q-19 12 -44 21t-60 9z" />
    <glyph glyph-name="sterling" unicode="&#xa3;" horiz-adv-x="504" 
d="M373 252h-283q-18 0 -30 11.5t-12 38.5q0 14 4.5 26t7.5 21h343q4 -9 8 -21t4 -26q0 -27 -11.5 -38.5t-30.5 -11.5zM131 224q0 23 -3.5 57.5t-7.5 70.5t-4 63q0 73 29.5 118.5t78.5 67.5t108 22q66 0 99.5 -21.5t33.5 -53.5q0 -14 -7.5 -29t-18.5 -22q-20 12 -40.5 18.5
t-50.5 6.5q-54 0 -82 -27.5t-28 -88.5q0 -25 3.5 -61t6.5 -69t3 -54q0 -40 -11 -71t-32 -53h258q5 -9 9 -21t4 -28q0 -25 -12 -37t-31 -12h-336q-22 0 -38.5 16t-16.5 45q0 9 1 15q42 21 63.5 52.5t21.5 95.5z" />
    <glyph glyph-name="currency" unicode="&#xa4;" horiz-adv-x="544" 
d="M143 379l71 44l-49 61q-11 14 -24 26.5t-29 12.5t-30.5 -10.5t-23.5 -31.5zM363 295q0 -52 -25.5 -79t-67.5 -27q-41 0 -67 27t-26 79q0 50 26 78t67 28q42 0 67.5 -28t25.5 -78zM334 424l64 -59l48 61q13 15 20 28.5t7 27.5q0 20 -17.5 31.5t-40.5 15.5zM469 295
q0 62 -27 104.5t-72 64.5t-100 22t-100 -22t-72 -64.5t-27 -104.5q0 -63 27 -105.5t72.5 -64.5t100.5 -22q54 0 99 22t72 64.5t27 105.5zM400 206l-71 -45l48 -60q12 -15 25 -27.5t28 -12.5q16 0 30.5 10.5t24.5 32.5zM211 160l-64 59l-49 -61q-11 -15 -19 -28.5t-8 -26.5
q0 -20 17.5 -32t41.5 -16z" />
    <glyph glyph-name="yen" unicode="&#xa5;" horiz-adv-x="570" 
d="M386 303l-185 -7q-30 47 -62 97.5t-59 98.5t-45 86q10 13 26 24.5t39 11.5q27 0 44 -12.5t33 -43.5l112 -198h5q26 46 44 81.5t36 73t42 86.5q13 6 27.5 9.5t28.5 3.5q26 0 41.5 -13.5t15.5 -37.5q0 -10 -9.5 -31t-27.5 -53.5t-44.5 -76.5t-61.5 -99zM227 183h125v-182
q-8 -2 -24.5 -4.5t-33.5 -2.5q-36 0 -51.5 13t-15.5 44v132zM258 268l19 82h235q4 -8 7.5 -18.5t3.5 -22.5q0 -21 -10 -31t-26 -10h-229zM310 350l14 -82h-258q-4 6 -8 17t-4 24q0 22 10.5 31.5t24.5 9.5h221zM487 126h-421q-4 6 -8 17.5t-4 23.5q0 23 10.5 32.5t24.5 9.5
h422q4 -8 7.5 -19t3.5 -23q0 -21 -10 -31t-25 -10z" />
    <glyph glyph-name="brokenbar" unicode="&#xa6;" horiz-adv-x="293" 
d="M188 628v-317q-9 -2 -22.5 -4.5t-27.5 -2.5q-30 0 -45.5 11t-15.5 44v316q9 3 22.5 5t28.5 2q29 0 44.5 -11t15.5 -43zM188 141v-316q-9 -2 -22.5 -4.5t-27.5 -2.5q-30 0 -45.5 11t-15.5 44v316q9 3 22.5 5t28.5 2q29 0 44.5 -11t15.5 -44z" />
    <glyph glyph-name="section" unicode="&#xa7;" horiz-adv-x="524" 
d="M469 87q0 -66 -56 -104.5t-164 -38.5q-55 0 -98.5 10.5t-68.5 30.5t-25 46q0 19 8.5 32.5t20.5 21.5q32 -18 71 -32t89 -14q52 0 76.5 13t24.5 37q0 21 -15.5 31t-52.5 17l-76 15q-69 12 -107.5 45t-38.5 94q0 58 42 89.5t108 37.5l17 -57q-23 -8 -37 -25.5t-14 -40.5
q0 -20 15.5 -34.5t45.5 -20.5l86 -18q72 -15 110.5 -45t38.5 -90zM469 281q0 -32 -13.5 -57t-34.5 -42t-45 -25l-73 49q22 13 35.5 29t13.5 40q0 22 -16.5 36t-52.5 21l-80 16q-43 9 -75.5 25t-50 42.5t-17.5 68.5q0 66 54 102.5t144 36.5q50 0 90.5 -9.5t64.5 -26.5t24 -43
q0 -17 -7.5 -30t-18.5 -21q-14 8 -38 16t-51.5 13.5t-54.5 5.5q-40 0 -63 -12t-23 -35q0 -20 14.5 -29.5t43.5 -15.5l74 -13q75 -14 115.5 -48t40.5 -94z" />
    <glyph glyph-name="dieresis" unicode="&#xa8;" horiz-adv-x="374" 
d="M158 618q0 -27 -18.5 -46t-48.5 -19q-28 0 -46.5 19t-18.5 46t18.5 45.5t46.5 18.5q30 0 48.5 -18.5t18.5 -45.5zM351 618q0 -27 -18.5 -46t-47.5 -19q-28 0 -47 19t-19 46t19 45.5t47 18.5q29 0 47.5 -18.5t18.5 -45.5z" />
    <glyph glyph-name="copyright" unicode="&#xa9;" horiz-adv-x="713" 
d="M45 303q0 87 39 157.5t108.5 112t162.5 41.5t163.5 -41.5t110 -112t39.5 -157.5q0 -86 -39.5 -155t-110 -109.5t-163.5 -40.5t-162.5 40.5t-108.5 109.5t-39 155zM355 543q-70 0 -121 -31.5t-78.5 -85t-27.5 -123.5q0 -68 27.5 -120.5t78.5 -82.5t121 -30q71 0 121.5 30
t78 82.5t27.5 120.5q0 70 -27.5 123.5t-78 85t-121.5 31.5zM385 397q-35 0 -61 -22t-26 -68q0 -44 25 -67.5t63 -23.5q24 0 39 6t26 12q22 -15 22 -40q0 -19 -26.5 -36t-73.5 -17t-84.5 19.5t-60 56.5t-22.5 91q0 57 25 93.5t63 54t77 17.5q42 0 69.5 -16t27.5 -40
q0 -11 -6 -21t-14 -17q-12 7 -27.5 12.5t-35.5 5.5z" />
    <glyph glyph-name="ordfeminine" unicode="&#xaa;" horiz-adv-x="353" 
d="M169 362q17 0 32.5 3.5t23.5 7.5v67l-58 -5q-27 -3 -41 -11t-14 -24q0 -18 13.5 -28t43.5 -10zM165 621q63 0 103 -25.5t40 -88.5v-151q0 -12 -8 -21t-20 -16q-42 -23 -111 -23q-64 0 -102 25t-38 75q0 45 28 68.5t85 29.5l83 8v6q0 26 -17 36.5t-52 10.5q-25 0 -50 -7
t-43 -17q-7 5 -12.5 15t-5.5 22q0 13 6.5 21.5t19.5 14.5q17 8 43.5 12.5t50.5 4.5z" />
    <glyph glyph-name="guillemotleft" unicode="&#xab;" horiz-adv-x="519" 
d="M134 223l131 -135q0 -21 -14 -39t-43 -18q-18 0 -32 10t-27 24l-104 111q-5 8 -9 20.5t-4 25.5q0 23 6 37t15 22l146 147q29 -7 43.5 -22t14.5 -33q0 -17 -7.5 -30t-29.5 -34zM352 223l131 -135q0 -21 -14 -39t-42 -18q-18 0 -32.5 10t-26.5 24l-105 111q-5 8 -9 20.5
t-4 25.5q0 23 6 37t16 22l146 147q28 -7 42.5 -22t14.5 -33q0 -17 -7.5 -30t-28.5 -34z" />
    <glyph glyph-name="logicalnot" unicode="&#xac;" horiz-adv-x="535" 
d="M86 414h352q26 0 41 -14.5t15 -40.5v-177q-9 -3 -24 -5t-30 -2q-30 0 -45.5 11.5t-15.5 44.5v87h-326q-5 8 -8.5 20.5t-3.5 26.5q0 25 12.5 37t32.5 12z" />
    <glyph glyph-name="uni00AD" unicode="&#xad;" horiz-adv-x="372" 
d="M282 208h-227q-5 9 -9 21.5t-4 27.5q0 26 13.5 38.5t34.5 12.5h227q4 -8 8.5 -21t4.5 -27q0 -26 -13 -39t-35 -13z" />
    <glyph glyph-name="registered" unicode="&#xae;" horiz-adv-x="619" 
d="M48 375q0 70 32.5 128t91.5 92.5t137 34.5q77 0 136 -34.5t92.5 -92.5t33.5 -128q0 -71 -33.5 -129t-92.5 -92t-136 -34q-78 0 -137 34t-91.5 92t-32.5 129zM120 375q0 -56 23 -99.5t65.5 -68t100.5 -24.5t100 24.5t65 68t23 99.5q0 55 -23 99t-65 69t-100 25t-100.5 -25
t-65.5 -69t-23 -99zM303 343h-19v-78q-5 -1 -13 -1.5t-18 -0.5q-15 0 -23 5t-8 22v186q0 14 19 18q14 4 29 5.5t31 1.5q52 0 79 -20.5t27 -58.5q0 -25 -13.5 -42.5t-32.5 -25.5l53 -69q-3 -10 -12.5 -17t-21.5 -7q-14 0 -22.5 7t-17.5 19zM284 391h24q36 0 36 32
q0 15 -10.5 22.5t-28.5 7.5q-7 0 -12 -0.5t-9 -1.5v-60z" />
    <glyph glyph-name="macron" unicode="&#xaf;" horiz-adv-x="345" 
d="M281 567h-246q-4 9 -8.5 21t-4.5 26q0 26 12 37t31 11h246q6 -8 9 -20.5t3 -25.5q0 -27 -11 -38t-31 -11z" />
    <glyph glyph-name="degree" unicode="&#xb0;" horiz-adv-x="360" 
d="M333 482q0 -43 -20.5 -74.5t-55 -48t-76.5 -16.5q-66 0 -109.5 38t-43.5 101q0 44 20.5 75t55 47.5t76.5 16.5q43 0 77.5 -16.5t55 -47.5t20.5 -75zM180 545q-23 0 -41 -15.5t-18 -47.5q0 -31 18 -47.5t41 -16.5q25 0 42 16.5t17 47.5q0 32 -17.5 47.5t-41.5 15.5z" />
    <glyph glyph-name="plusminus" unicode="&#xb1;" horiz-adv-x="547" 
d="M440 316h-370q-5 8 -8.5 20.5t-3.5 26.5q0 27 13.5 39t34.5 12h370q4 -8 8 -20.5t4 -27.5q0 -26 -13 -38t-35 -12zM440 0h-370q-5 8 -8.5 20.5t-3.5 26.5q0 26 13.5 38.5t34.5 12.5h370q4 -8 8 -20.5t4 -27.5q0 -26 -13 -38t-35 -12zM331 509v-339q-9 -2 -23 -5t-29 -3
q-30 0 -45 11.5t-15 44.5v339q9 2 23 5t29 3q29 0 44.5 -11.5t15.5 -44.5z" />
    <glyph glyph-name="uni00B2" unicode="&#xb2;" horiz-adv-x="278" 
d="M124 699q56 0 88 -27.5t32 -75.5q0 -31 -18 -59t-55 -58l-55 -44h127q3 -6 5.5 -14t2.5 -18q0 -16 -7.5 -23.5t-23.5 -7.5h-179q-8 7 -13 16.5t-5 22.5q0 15 4 25.5t11 16.5l80 71q27 23 37.5 39.5t10.5 31.5q0 19 -13.5 29.5t-34.5 10.5q-20 0 -36.5 -7t-29.5 -16
q-8 5 -13 14t-5 22q0 24 26 37.5t64 13.5z" />
    <glyph glyph-name="uni00B3" unicode="&#xb3;" horiz-adv-x="279" 
d="M77 566h51q19 0 29.5 9t10.5 24q0 17 -14.5 26.5t-39.5 9.5q-21 0 -39 -6t-30 -14q-9 7 -14.5 16t-5.5 21q0 23 28.5 35t70.5 12q58 0 90 -25t32 -67q0 -23 -13 -41.5t-33 -27.5q22 -8 36.5 -28t14.5 -49q0 -48 -36 -72.5t-91 -24.5q-49 0 -78.5 15.5t-29.5 37.5
q0 13 6 23t17 15q14 -10 32.5 -18.5t45.5 -8.5q26 0 41 10.5t15 29.5q0 17 -11 27t-33 10h-52q-4 5 -6.5 13t-2.5 18q0 20 9 30z" />
    <glyph glyph-name="acute" unicode="&#xb4;" horiz-adv-x="298" 
d="M83 609l99 109q37 0 56.5 -16.5t19.5 -37.5q0 -18 -8 -30t-27 -29l-93 -83q-31 0 -48.5 15.5t-17.5 33.5q0 11 5 19.5t14 18.5z" />
    <glyph glyph-name="uni03BC" unicode="&#xb5;" horiz-adv-x="566" 
d="M65 270h114l-6 -206q6 -42 10.5 -88.5t4.5 -95.5v-52q-8 -4 -23 -7.5t-32 -3.5q-35 0 -51.5 13t-16.5 44v396zM135 155v93l53 12v-77q0 -53 28 -76t76 -23q32 0 54 6t33 13v157h123v-167q0 -23 -8 -38.5t-28 -28.5q-25 -15 -63.5 -27.5t-93.5 -12.5q-59 0 -98 20
t-57.5 57.5t-18.5 91.5zM502 212h-123v260q8 2 23 4.5t33 2.5q35 0 51 -12t16 -45v-210zM188 212h-123v260q8 2 23 4.5t33 2.5q35 0 51 -12t16 -45v-210z" />
    <glyph glyph-name="paragraph" unicode="&#xb6;" horiz-adv-x="493" 
d="M232 613h131q32 0 50 -11t18 -47v-624q-7 -1 -23 -4t-33 -3q-32 0 -50 11.5t-18 45.5v527h-67v-256q0 -12 -14 -20t-45 -8q-40 0 -78 20t-63 61.5t-25 106.5q0 68 30.5 112.5t80 66.5t106.5 22z" />
    <glyph glyph-name="periodcentered" unicode="&#xb7;" horiz-adv-x="188" 
d="M19 261q0 32 20 54t55 22t55 -22t20 -54t-20 -54t-55 -22t-55 22t-20 54z" />
    <glyph glyph-name="cedilla" unicode="&#xb8;" horiz-adv-x="195" 
d="M49 3l69 24q33 -20 46.5 -49t13.5 -63q0 -49 -31 -79.5t-83 -30.5q-34 0 -53 14.5t-19 41.5q0 16 5 27h13q33 0 48 15.5t15 39.5q0 14 -5.5 30.5t-18.5 29.5z" />
    <glyph glyph-name="uni00B9" unicode="&#xb9;" horiz-adv-x="216" 
d="M91 405v204l-51 -20q-10 5 -19 15.5t-9 25.5q0 14 7.5 23t20.5 14l73 29h13q20 0 31 -11.5t11 -31.5v-279q-6 -2 -15.5 -4t-20.5 -2q-19 0 -30 7.5t-11 29.5z" />
    <glyph glyph-name="ordmasculine" unicode="&#xba;" horiz-adv-x="387" 
d="M348 459q0 -78 -43 -120t-113 -42t-113.5 42.5t-43.5 120.5q0 77 44 119t113 42q70 0 113 -42.5t43 -119.5zM192 552q-32 0 -51 -24t-19 -68q0 -45 19 -69t51 -24t50.5 24t18.5 68t-18.5 68.5t-50.5 24.5z" />
    <glyph glyph-name="guillemotright" unicode="&#xbb;" horiz-adv-x="519" 
d="M385 236l-131 135q0 22 14.5 39.5t42.5 17.5q18 0 32 -9.5t27 -24.5l105 -111q5 -8 8.5 -20t3.5 -26q0 -23 -6 -37t-15 -22l-146 -147q-28 8 -42.5 22.5t-14.5 32.5q0 17 7.5 30t28.5 34zM167 236l-131 135q0 22 14 39.5t43 17.5q18 0 32 -9.5t27 -24.5l105 -111
q5 -8 8.5 -20t3.5 -26q0 -23 -6 -37t-16 -22l-146 -147q-27 8 -41.5 22.5t-14.5 32.5q0 17 7 30t29 34z" />
    <glyph glyph-name="onequarter" unicode="&#xbc;" horiz-adv-x="615" 
d="M87 325v204l-51 -20q-10 5 -19 15.5t-9 25.5q0 14 7.5 23t20.5 14l73 29h13q20 0 31 -11.5t11 -31.5v-279q-6 -2 -15.5 -4t-20.5 -2q-19 0 -30 7.5t-11 29.5zM553 281v-152h46q3 -5 5 -12.5t2 -17.5q0 -17 -8.5 -24.5t-19.5 -7.5h-232q-10 5 -17 15.5t-7 24.5
q0 11 2.5 20t9.5 17l125 172q9 2 19.5 4t21.5 2q21 0 37 -9.5t16 -31.5zM482 129v52q0 12 0.5 29.5t1.5 34.5l-77 -116h75zM480 31v68h73v-98q-6 -2 -15 -3.5t-19 -1.5q-19 0 -29 7t-10 28zM92 84l359 529q25 -3 40 -13t15 -27q0 -12 -5.5 -23.5t-15.5 -26.5l-359 -529
q-25 3 -39.5 13t-15.5 27q0 12 5.5 23.5t15.5 26.5z" />
    <glyph glyph-name="onehalf" unicode="&#xbd;" horiz-adv-x="628" 
d="M87 325v204l-51 -20q-10 5 -19 15.5t-9 25.5q0 14 7.5 23t20.5 14l73 29h13q20 0 31 -11.5t11 -31.5v-279q-6 -2 -15.5 -4t-20.5 -2q-19 0 -30 7.5t-11 29.5zM477 328q56 0 88 -27.5t32 -75.5q0 -31 -18 -59t-55 -58l-55 -44h127q3 -6 5.5 -14t2.5 -18q0 -16 -7.5 -23.5
t-23.5 -7.5h-179q-8 7 -13 16.5t-5 22.5q0 15 4 25.5t11 16.5l80 71q27 23 37.5 39.5t10.5 31.5q0 19 -13.5 29.5t-34.5 10.5q-20 0 -36.5 -7t-29.5 -16q-8 5 -13 14t-5 22q0 24 26 37.5t64 13.5zM92 84l359 529q25 -3 40 -13t15 -27q0 -12 -5.5 -23.5t-15.5 -26.5
l-359 -529q-25 3 -39.5 13t-15.5 27q0 12 5.5 23.5t15.5 26.5z" />
    <glyph glyph-name="threequarters" unicode="&#xbe;" horiz-adv-x="666" 
d="M77 488h51q19 0 29.5 9t10.5 24q0 17 -14.5 26.5t-39.5 9.5q-21 0 -39 -6t-30 -14q-9 7 -14.5 16t-5.5 21q0 23 28.5 35t70.5 12q58 0 90 -25t32 -67q0 -23 -13 -41.5t-33 -27.5q22 -8 36.5 -28t14.5 -49q0 -48 -36 -72.5t-91 -24.5q-49 0 -78.5 15.5t-29.5 37.5
q0 13 6 23t17 15q14 -10 32.5 -18.5t45.5 -8.5q26 0 41 10.5t15 29.5q0 17 -11 27t-33 10h-52q-4 5 -6.5 13t-2.5 18q0 20 9 30zM604 281v-152h46q3 -5 5 -12.5t2 -17.5q0 -17 -8.5 -24.5t-19.5 -7.5h-232q-10 5 -17 15.5t-7 24.5q0 11 2.5 20t9.5 17l125 172q9 2 19.5 4
t21.5 2q21 0 37 -9.5t16 -31.5zM533 129v52q0 12 0.5 29.5t1.5 34.5l-77 -116h75zM531 31v68h73v-98q-6 -2 -15 -3.5t-19 -1.5q-19 0 -29 7t-10 28zM144 84l359 529q25 -3 40 -13t15 -27q0 -12 -5.5 -23.5t-15.5 -26.5l-359 -529q-25 3 -39.5 13t-15.5 27q0 12 5.5 23.5
t15.5 26.5z" />
    <glyph glyph-name="questiondown" unicode="&#xbf;" horiz-adv-x="478" 
d="M248 236l99 22q13 -9 23 -26t10 -39t-12 -34t-38 -19l-73 -18q-47 -13 -71 -36t-24 -62q0 -34 26.5 -60t86.5 -26q41 0 79 12t61 29q14 -11 23 -25.5t9 -33.5q0 -40 -52 -63.5t-133 -23.5q-72 0 -123.5 24.5t-79 68t-27.5 98.5q0 85 54.5 136.5t161.5 75.5zM369 403
q0 -32 -20.5 -53.5t-54.5 -21.5q-35 0 -55.5 21.5t-20.5 53.5t20.5 53t55.5 21q34 0 54.5 -21t20.5 -53z" />
    <glyph glyph-name="Agrave" unicode="&#xc0;" horiz-adv-x="609" 
d="M309 504h-5q-13 -36 -28.5 -82t-32.5 -95.5t-32 -95.5l-14 -62q-6 -19 -12.5 -42t-14 -46.5t-14 -44.5t-11.5 -37q-10 -3 -21.5 -5.5t-27.5 -2.5q-32 0 -50.5 12.5t-18.5 37.5q0 11 3.5 23t7.5 27q10 33 27 82.5t37 107.5t41.5 117t40.5 110.5t33 86.5q12 7 37 13t51 6
q34 0 62.5 -10t35.5 -32q21 -55 45 -126t49 -148t48 -150t41 -132q-10 -11 -27.5 -18t-40.5 -7q-33 0 -47.5 12.5t-22.5 38.5l-41 131l-13 64q-16 51 -31.5 100.5t-29.5 92.5t-24 74zM141 145l47 99h250l19 -99h-316zM253 678l-90 76q-1 4 -1 9v8q0 26 15 41.5t38 15.5
q29 0 54 -27l85 -93q-3 -26 -17.5 -38.5t-33.5 -12.5q-15 0 -26 6t-24 15z" />
    <glyph glyph-name="Aacute" unicode="&#xc1;" horiz-adv-x="609" 
d="M309 504h-5q-13 -36 -28.5 -82t-32.5 -95.5t-32 -95.5l-14 -62q-6 -19 -12.5 -42t-14 -46.5t-14 -44.5t-11.5 -37q-10 -3 -21.5 -5.5t-27.5 -2.5q-32 0 -50.5 12.5t-18.5 37.5q0 11 3.5 23t7.5 27q10 33 27 82.5t37 107.5t41.5 117t40.5 110.5t33 86.5q12 7 37 13t51 6
q34 0 62.5 -10t35.5 -32q21 -55 45 -126t49 -148t48 -150t41 -132q-10 -11 -27.5 -18t-40.5 -7q-33 0 -47.5 12.5t-22.5 38.5l-41 131l-13 64q-16 51 -31.5 100.5t-29.5 92.5t-24 74zM141 145l47 99h250l19 -99h-316zM279 739l103 93q31 0 48.5 -15.5t17.5 -36.5
q0 -17 -7.5 -29.5t-28.5 -26.5l-92 -68q-29 1 -44.5 14t-15.5 31q0 11 4 20t15 18z" />
    <glyph glyph-name="Acircumflex" unicode="&#xc2;" horiz-adv-x="609" 
d="M310 743q-19 -20 -43 -43.5t-49 -45.5q-24 1 -40 14t-16 34q0 16 9 28t27 27l45 42q38 31 69 31q21 0 37 -8t33 -26l81 -87q0 -25 -13.5 -38.5t-37.5 -13.5q-15 0 -28.5 9t-31.5 30zM309 504h-5q-13 -36 -28.5 -82t-32.5 -95.5t-32 -95.5l-14 -62q-6 -19 -12.5 -42
t-14 -46.5t-14 -44.5t-11.5 -37q-10 -3 -21.5 -5.5t-27.5 -2.5q-32 0 -50.5 12.5t-18.5 37.5q0 11 3.5 23t7.5 27q10 33 27 82.5t37 107.5t41.5 117t40.5 110.5t33 86.5q12 7 37 13t51 6q34 0 62.5 -10t35.5 -32q21 -55 45 -126t49 -148t48 -150t41 -132q-10 -11 -27.5 -18
t-40.5 -7q-33 0 -47.5 12.5t-22.5 38.5l-41 131l-13 64q-16 51 -31.5 100.5t-29.5 92.5t-24 74zM141 145l47 99h250l19 -99h-316z" />
    <glyph glyph-name="Atilde" unicode="&#xc3;" horiz-adv-x="609" 
d="M309 504h-5q-13 -36 -28.5 -82t-32.5 -95.5t-32 -95.5l-14 -62q-6 -19 -12.5 -42t-14 -46.5t-14 -44.5t-11.5 -37q-10 -3 -21.5 -5.5t-27.5 -2.5q-32 0 -50.5 12.5t-18.5 37.5q0 11 3.5 23t7.5 27q10 33 27 82.5t37 107.5t41.5 117t40.5 110.5t33 86.5q12 7 37 13t51 6
q34 0 62.5 -10t35.5 -32q21 -55 45 -126t49 -148t48 -150t41 -132q-10 -11 -27.5 -18t-40.5 -7q-33 0 -47.5 12.5t-22.5 38.5l-41 131l-13 64q-16 51 -31.5 100.5t-29.5 92.5t-24 74zM141 145l47 99h250l19 -99h-316zM230 814q28 0 52.5 -8t45.5 -16t37 -8q20 0 30 12t15 25
h5q25 0 43 -15.5t18 -42.5q0 -36 -23.5 -55t-61.5 -19q-30 0 -54.5 8t-45 16t-36.5 8q-20 0 -29.5 -12t-14.5 -25h-5q-25 0 -43.5 15t-18.5 43q0 25 12.5 41t32.5 24.5t41 8.5z" />
    <glyph glyph-name="Adieresis" unicode="&#xc4;" horiz-adv-x="609" 
d="M309 504h-5q-13 -36 -28.5 -82t-32.5 -95.5t-32 -95.5l-14 -62q-6 -19 -12.5 -42t-14 -46.5t-14 -44.5t-11.5 -37q-10 -3 -21.5 -5.5t-27.5 -2.5q-32 0 -50.5 12.5t-18.5 37.5q0 11 3.5 23t7.5 27q10 33 27 82.5t37 107.5t41.5 117t40.5 110.5t33 86.5q12 7 37 13t51 6
q34 0 62.5 -10t35.5 -32q21 -55 45 -126t49 -148t48 -150t41 -132q-10 -11 -27.5 -18t-40.5 -7q-33 0 -47.5 12.5t-22.5 38.5l-41 131l-13 64q-16 51 -31.5 100.5t-29.5 92.5t-24 74zM141 145l47 99h250l19 -99h-316zM275 743q0 -27 -18.5 -46t-48.5 -19q-28 0 -46.5 19
t-18.5 46t18.5 45.5t46.5 18.5q30 0 48.5 -18.5t18.5 -45.5zM468 743q0 -27 -18.5 -46t-47.5 -19q-28 0 -47 19t-19 46t19 45.5t47 18.5q29 0 47.5 -18.5t18.5 -45.5z" />
    <glyph glyph-name="Aring" unicode="&#xc5;" horiz-adv-x="609" 
d="M309 504h-5q-13 -36 -28.5 -82t-32.5 -95.5t-32 -95.5l-14 -62q-6 -19 -12.5 -42t-14 -46.5t-14 -44.5t-11.5 -37q-10 -3 -21.5 -5.5t-27.5 -2.5q-32 0 -50.5 12.5t-18.5 37.5q0 11 3.5 23t7.5 27q10 33 27 82.5t37 107.5t41.5 117t40.5 110.5t33 86.5q12 7 37 13t51 6
q34 0 62.5 -10t35.5 -32q21 -55 45 -126t49 -148t48 -150t41 -132q-10 -11 -27.5 -18t-40.5 -7q-33 0 -47.5 12.5t-22.5 38.5l-41 131l-13 64q-16 51 -31.5 100.5t-29.5 92.5t-24 74zM141 145l47 99h250l19 -99h-316zM190 749q0 42 32 70.5t86 28.5q57 0 89 -28.5t32 -70.5
t-32 -70.5t-89 -28.5q-54 0 -86 28.5t-32 70.5zM270 749q0 -17 11 -26.5t28 -9.5q18 0 29.5 9.5t11.5 26.5t-11.5 27t-29.5 10q-17 0 -28 -10t-11 -27z" />
    <glyph glyph-name="AE" unicode="&#xc6;" horiz-adv-x="859" 
d="M483 502h-91l-143 -288l-20 -39l-85 -176q-10 -3 -20 -5.5t-26 -2.5q-33 0 -48.5 13t-15.5 35q0 12 3.5 24.5t11.5 27.5q13 27 36.5 73.5t53 103.5t61 116.5t60.5 113.5t50 93q11 8 31.5 14.5t46.5 6.5q18 0 37.5 -4t35.5 -12.5t21 -23.5zM144 145l47 99h245l19 -99h-311
zM398 533h123v-526q-7 -2 -23 -5t-33 -3q-31 0 -49 18.5t-18 48.5v467zM465 260v100h301q6 -7 10 -20t4 -28q0 -26 -12 -39t-33 -13h-270zM465 -1v101h335q5 -7 9.5 -20t4.5 -29q0 -26 -12 -39t-33 -13h-304zM437 505v64q9 17 25.5 27.5t40.5 10.5h293q5 -7 9.5 -20t4.5 -28
q0 -26 -12.5 -40t-32.5 -14h-328z" />
    <glyph glyph-name="Ccedilla" unicode="&#xc7;" horiz-adv-x="580" 
d="M537 530q0 -19 -10.5 -33.5t-24.5 -22.5q-25 17 -58 31t-81 14q-56 0 -98.5 -24.5t-66 -73t-23.5 -118.5q0 -106 53 -160.5t141 -54.5q47 0 81 13t59 30q13 -8 22.5 -23.5t9.5 -34.5q0 -17 -8.5 -31t-29.5 -25q-21 -12 -57.5 -22t-91.5 -10q-86 0 -156.5 34.5t-111.5 105
t-41 178.5q0 105 41 176t110 107.5t151 36.5q58 0 100.5 -13t66 -34t23.5 -46zM296 3l69 24q33 -20 46.5 -49t13.5 -63q0 -49 -31 -79.5t-83 -30.5q-34 0 -53 14.5t-19 41.5q0 16 5 27h13q33 0 48 15.5t15 39.5q0 14 -5.5 30.5t-18.5 29.5z" />
    <glyph glyph-name="Egrave" unicode="&#xc8;" horiz-adv-x="545" 
d="M83 402h124v-395q-7 -2 -23 -5t-33 -3q-31 0 -49.5 18.5t-18.5 48.5v336zM207 206l-124 1v333q0 31 18.5 49t49.5 18q17 0 33 -3t23 -5v-393zM151 260v100h301q5 -7 9.5 -20t4.5 -28q0 -26 -12 -39t-33 -13h-270zM151 -1v101h336q4 -7 8.5 -20t4.5 -29q0 -26 -12 -39
t-33 -13h-304zM151 505v102h331q5 -7 9 -20t4 -28q0 -26 -11.5 -40t-33.5 -14h-299zM259 678l-90 76q-1 4 -1 9v8q0 26 15 41.5t38 15.5q29 0 54 -27l85 -93q-3 -26 -17.5 -38.5t-33.5 -12.5q-15 0 -26 6t-24 15z" />
    <glyph glyph-name="Eacute" unicode="&#xc9;" horiz-adv-x="545" 
d="M83 402h124v-395q-7 -2 -23 -5t-33 -3q-31 0 -49.5 18.5t-18.5 48.5v336zM207 206l-124 1v333q0 31 18.5 49t49.5 18q17 0 33 -3t23 -5v-393zM151 260v100h301q5 -7 9.5 -20t4.5 -28q0 -26 -12 -39t-33 -13h-270zM151 -1v101h336q4 -7 8.5 -20t4.5 -29q0 -26 -12 -39
t-33 -13h-304zM151 505v102h331q5 -7 9 -20t4 -28q0 -26 -11.5 -40t-33.5 -14h-299zM270 739l103 93q31 0 48.5 -15.5t17.5 -36.5q0 -17 -7.5 -29.5t-28.5 -26.5l-92 -68q-29 1 -44.5 14t-15.5 31q0 11 4 20t15 18z" />
    <glyph glyph-name="Ecircumflex" unicode="&#xca;" horiz-adv-x="545" 
d="M83 402h124v-395q-7 -2 -23 -5t-33 -3q-31 0 -49.5 18.5t-18.5 48.5v336zM207 206l-124 1v333q0 31 18.5 49t49.5 18q17 0 33 -3t23 -5v-393zM151 260v100h301q5 -7 9.5 -20t4.5 -28q0 -26 -12 -39t-33 -13h-270zM151 -1v101h336q4 -7 8.5 -20t4.5 -29q0 -26 -12 -39
t-33 -13h-304zM151 505v102h331q5 -7 9 -20t4 -28q0 -26 -11.5 -40t-33.5 -14h-299zM295 743l-43.5 -43.5t-49.5 -45.5q-24 1 -39.5 14t-15.5 34q0 16 8.5 28t27.5 27l44 42q38 31 69 31q21 0 37 -8t33 -26l82 -87q0 -25 -14 -38.5t-37 -13.5q-16 0 -29 9t-32 30z" />
    <glyph glyph-name="Edieresis" unicode="&#xcb;" horiz-adv-x="545" 
d="M83 402h124v-395q-7 -2 -23 -5t-33 -3q-31 0 -49.5 18.5t-18.5 48.5v336zM207 206l-124 1v333q0 31 18.5 49t49.5 18q17 0 33 -3t23 -5v-393zM151 260v100h301q5 -7 9.5 -20t4.5 -28q0 -26 -12 -39t-33 -13h-270zM151 -1v101h336q4 -7 8.5 -20t4.5 -29q0 -26 -12 -39
t-33 -13h-304zM151 505v102h331q5 -7 9 -20t4 -28q0 -26 -11.5 -40t-33.5 -14h-299zM264 739q0 -27 -18.5 -46t-48.5 -19q-28 0 -46.5 19t-18.5 46t18.5 45.5t46.5 18.5q30 0 48.5 -18.5t18.5 -45.5zM457 739q0 -27 -18.5 -46t-47.5 -19q-28 0 -47 19t-19 46t19 45.5
t47 18.5q29 0 47.5 -18.5t18.5 -45.5z" />
    <glyph glyph-name="Igrave" unicode="&#xcc;" horiz-adv-x="283" 
d="M78 401h126v-399q-8 -3 -24 -5.5t-34 -2.5q-36 0 -52 13.5t-16 45.5v348zM204 255h-126v352q8 2 25 5t34 3q35 0 51 -12.5t16 -46.5v-301zM82 678l-90 76q-1 4 -1 9v8q0 26 15 41.5t38 15.5q29 0 54 -27l85 -93q-3 -26 -17.5 -38.5t-33.5 -12.5q-15 0 -26 6t-24 15z" />
    <glyph glyph-name="Iacute" unicode="&#xcd;" horiz-adv-x="283" 
d="M78 401h126v-399q-8 -3 -24 -5.5t-34 -2.5q-36 0 -52 13.5t-16 45.5v348zM204 255h-126v352q8 2 25 5t34 3q35 0 51 -12.5t16 -46.5v-301zM108 739l103 93q31 0 48.5 -15.5t17.5 -36.5q0 -17 -7.5 -29.5t-28.5 -26.5l-92 -68q-29 1 -44.5 14t-15.5 31q0 11 4 20t15 18z
" />
    <glyph glyph-name="Icircumflex" unicode="&#xce;" horiz-adv-x="283" 
d="M78 401h126v-399q-8 -3 -24 -5.5t-34 -2.5q-36 0 -52 13.5t-16 45.5v348zM204 255h-126v352q8 2 25 5t34 3q35 0 51 -12.5t16 -46.5v-301zM142 743l-43.5 -43.5t-49.5 -45.5q-24 1 -39.5 14t-15.5 34q0 16 8.5 28t27.5 27l44 42q38 31 69 31q21 0 37 -8t33 -26l82 -87
q0 -25 -14 -38.5t-37 -13.5q-16 0 -29 9t-32 30z" />
    <glyph glyph-name="Idieresis" unicode="&#xcf;" horiz-adv-x="283" 
d="M78 401h126v-399q-8 -3 -24 -5.5t-34 -2.5q-36 0 -52 13.5t-16 45.5v348zM204 255h-126v352q8 2 25 5t34 3q35 0 51 -12.5t16 -46.5v-301zM108 739q0 -27 -18.5 -46t-48.5 -19q-28 0 -46.5 19t-18.5 46t18.5 45.5t46.5 18.5q30 0 48.5 -18.5t18.5 -45.5zM301 739
q0 -27 -18.5 -46t-47.5 -19q-28 0 -47 19t-19 46t19 45.5t47 18.5q29 0 47.5 -18.5t18.5 -45.5z" />
    <glyph glyph-name="Eth" unicode="&#xd0;" horiz-adv-x="691" 
d="M173 355v-100h156q20 0 32.5 13t12.5 39q0 16 -4.5 28.5t-9.5 19.5h-187zM211 255v100h-151q-21 0 -33 -12.5t-12 -39.5q0 -15 4 -27.5t10 -20.5h182zM516 306q0 -107 -52 -161.5t-146 -54.5q-21 0 -43.5 1.5t-39.5 5.5v415q17 3 36.5 4.5t42.5 1.5q58 0 103.5 -22.5
t72 -69t26.5 -120.5zM645 308q0 106 -42.5 175t-118 103.5t-175.5 34.5q-39 0 -82.5 -4t-79.5 -15q-18 -6 -28 -16t-10 -29v-491q0 -42 48 -59q38 -13 83.5 -16.5t77.5 -3.5q99 0 172.5 35t114 106.5t40.5 179.5z" />
    <glyph glyph-name="Ntilde" unicode="&#xd1;" horiz-adv-x="669" 
d="M77 472l113 3q4 -38 6.5 -80t3 -83t0.5 -79v-232q-7 -2 -23.5 -4.5t-32.5 -2.5q-36 0 -51.5 12.5t-15.5 44.5v421zM592 137l-114 -3q-8 77 -9 150.5t-1 142.5v180q9 2 24.5 5t33.5 3q35 0 50.5 -13t15.5 -44v-421zM592 178v-162q-12 -10 -32 -16.5t-46 -6.5
q-31 0 -55.5 10t-41.5 44l-147 263q-12 24 -25.5 50t-25.5 51t-22 46l-120 -28v157q11 14 32.5 21t46.5 7q30 0 55 -10t42 -43l147 -263q13 -24 26.5 -50t25 -51t20.5 -46zM248 814q28 0 52.5 -8t45.5 -16t37 -8q20 0 30 12t15 25h5q25 0 43 -15.5t18 -42.5q0 -36 -23.5 -55
t-61.5 -19q-30 0 -54.5 8t-45 16t-36.5 8q-20 0 -29.5 -12t-14.5 -25h-5q-25 0 -43.5 15t-18.5 43q0 25 12.5 41t32.5 24.5t41 8.5z" />
    <glyph glyph-name="Ograve" unicode="&#xd2;" horiz-adv-x="696" 
d="M650 304q0 -104 -39.5 -175t-108 -107.5t-155.5 -36.5q-86 0 -154.5 36.5t-108 107.5t-39.5 175t40.5 175t109 107.5t152.5 36.5q86 0 154.5 -36.5t108.5 -107.5t40 -175zM521 304q0 105 -47.5 160t-126.5 55q-77 0 -124.5 -55t-47.5 -160q0 -106 47 -161t126 -55t126 55
t47 161zM298 678l-90 76q-1 4 -1 9v8q0 26 15 41.5t38 15.5q29 0 54 -27l85 -93q-3 -26 -17.5 -38.5t-33.5 -12.5q-15 0 -26 6t-24 15z" />
    <glyph glyph-name="Oacute" unicode="&#xd3;" horiz-adv-x="696" 
d="M650 304q0 -104 -39.5 -175t-108 -107.5t-155.5 -36.5q-86 0 -154.5 36.5t-108 107.5t-39.5 175t40.5 175t109 107.5t152.5 36.5q86 0 154.5 -36.5t108.5 -107.5t40 -175zM521 304q0 105 -47.5 160t-126.5 55q-77 0 -124.5 -55t-47.5 -160q0 -106 47 -161t126 -55t126 55
t47 161zM324 739l103 93q31 0 48.5 -15.5t17.5 -36.5q0 -17 -7.5 -29.5t-28.5 -26.5l-92 -68q-29 1 -44.5 14t-15.5 31q0 11 4 20t15 18z" />
    <glyph glyph-name="Ocircumflex" unicode="&#xd4;" horiz-adv-x="696" 
d="M650 304q0 -104 -39.5 -175t-108 -107.5t-155.5 -36.5q-86 0 -154.5 36.5t-108 107.5t-39.5 175t40.5 175t109 107.5t152.5 36.5q86 0 154.5 -36.5t108.5 -107.5t40 -175zM521 304q0 105 -47.5 160t-126.5 55q-77 0 -124.5 -55t-47.5 -160q0 -106 47 -161t126 -55t126 55
t47 161zM349 743l-43.5 -43.5t-49.5 -45.5q-24 1 -39.5 14t-15.5 34q0 16 8.5 28t27.5 27l44 42q38 31 69 31q21 0 37 -8t33 -26l82 -87q0 -25 -14 -38.5t-37 -13.5q-16 0 -29 9t-32 30z" />
    <glyph glyph-name="Otilde" unicode="&#xd5;" horiz-adv-x="696" 
d="M650 304q0 -104 -39.5 -175t-108 -107.5t-155.5 -36.5q-86 0 -154.5 36.5t-108 107.5t-39.5 175t40.5 175t109 107.5t152.5 36.5q86 0 154.5 -36.5t108.5 -107.5t40 -175zM521 304q0 105 -47.5 160t-126.5 55q-77 0 -124.5 -55t-47.5 -160q0 -106 47 -161t126 -55t126 55
t47 161zM268 814q28 0 52.5 -8t45.5 -16t37 -8q20 0 30 12t15 25h5q25 0 43 -15.5t18 -42.5q0 -36 -23.5 -55t-61.5 -19q-30 0 -54.5 8t-45 16t-36.5 8q-20 0 -29.5 -12t-14.5 -25h-5q-25 0 -43.5 15t-18.5 43q0 25 12.5 41t32.5 24.5t41 8.5z" />
    <glyph glyph-name="Odieresis" unicode="&#xd6;" horiz-adv-x="696" 
d="M650 304q0 -104 -39.5 -175t-108 -107.5t-155.5 -36.5q-86 0 -154.5 36.5t-108 107.5t-39.5 175t40.5 175t109 107.5t152.5 36.5q86 0 154.5 -36.5t108.5 -107.5t40 -175zM521 304q0 105 -47.5 160t-126.5 55q-77 0 -124.5 -55t-47.5 -160q0 -106 47 -161t126 -55t126 55
t47 161zM316 739q0 -27 -18.5 -46t-48.5 -19q-28 0 -46.5 19t-18.5 46t18.5 45.5t46.5 18.5q30 0 48.5 -18.5t18.5 -45.5zM509 739q0 -27 -18.5 -46t-47.5 -19q-28 0 -47 19t-19 46t19 45.5t47 18.5q29 0 47.5 -18.5t18.5 -45.5z" />
    <glyph glyph-name="multiply" unicode="&#xd7;" horiz-adv-x="499" 
d="M307 307l148 -165q-7 -24 -23.5 -39.5t-40.5 -15.5q-10 0 -21.5 5.5t-19.5 15.5l-113 131l-37 31l-154 162q6 21 23 39.5t39 18.5q12 0 21.5 -5.5t16.5 -13.5l126 -136zM421 388l-116 -121l-47 -35l-145 -150q-26 5 -46 22.5t-20 37.5q0 10 6.5 20t16.5 20l122 124l43 28
l150 157q21 -6 39 -22.5t18 -39.5q0 -10 -5.5 -20t-15.5 -21z" />
    <glyph glyph-name="Oslash" unicode="&#xd8;" horiz-adv-x="696" 
d="M187 72l-84 -89q-29 6 -45 21t-16 34q0 15 8.5 27.5t25.5 28.5l39 39zM611 515l-40 -42l-59 74l73 79q27 -7 43.5 -21.5t16.5 -32.5q0 -14 -9 -27.5t-25 -29.5zM527 431l-320 -343l-43 88l302 326zM650 304q0 -104 -39.5 -175t-108 -107.5t-155.5 -36.5q-85 0 -154 38
t-108.5 109t-39.5 172q0 104 40.5 175t109 107.5t152.5 36.5q85 0 153.5 -38t109 -109t40.5 -172zM524 304q0 103 -49 159t-128 56q-77 0 -126 -55t-49 -160q0 -103 48.5 -159.5t127.5 -56.5t127.5 55t48.5 161z" />
    <glyph glyph-name="Ugrave" unicode="&#xd9;" horiz-adv-x="656" 
d="M328 -15q-79 0 -136 28.5t-86.5 80.5t-29.5 122v72h126v-67q0 -64 35.5 -98.5t90.5 -34.5q54 0 90 34.5t36 98.5v67h127v-72q0 -70 -30 -122t-86.5 -80.5t-136.5 -28.5zM202 253h-126v354q8 2 24.5 5t33.5 3q36 0 52 -12.5t16 -46.5v-303zM581 252h-127v355q8 2 25 5
t34 3q35 0 51.5 -12.5t16.5 -46.5v-304zM268 678l-90 76q-1 4 -1 9v8q0 26 15 41.5t38 15.5q29 0 54 -27l85 -93q-3 -26 -17.5 -38.5t-33.5 -12.5q-15 0 -26 6t-24 15z" />
    <glyph glyph-name="Uacute" unicode="&#xda;" horiz-adv-x="656" 
d="M328 -15q-79 0 -136 28.5t-86.5 80.5t-29.5 122v72h126v-67q0 -64 35.5 -98.5t90.5 -34.5q54 0 90 34.5t36 98.5v67h127v-72q0 -70 -30 -122t-86.5 -80.5t-136.5 -28.5zM202 253h-126v354q8 2 24.5 5t33.5 3q36 0 52 -12.5t16 -46.5v-303zM581 252h-127v355q8 2 25 5
t34 3q35 0 51.5 -12.5t16.5 -46.5v-304zM301 739l103 93q31 0 48.5 -15.5t17.5 -36.5q0 -17 -7.5 -29.5t-28.5 -26.5l-92 -68q-29 1 -44.5 14t-15.5 31q0 11 4 20t15 18z" />
    <glyph glyph-name="Ucircumflex" unicode="&#xdb;" horiz-adv-x="656" 
d="M328 -15q-79 0 -136 28.5t-86.5 80.5t-29.5 122v72h126v-67q0 -64 35.5 -98.5t90.5 -34.5q54 0 90 34.5t36 98.5v67h127v-72q0 -70 -30 -122t-86.5 -80.5t-136.5 -28.5zM202 253h-126v354q8 2 24.5 5t33.5 3q36 0 52 -12.5t16 -46.5v-303zM581 252h-127v355q8 2 25 5
t34 3q35 0 51.5 -12.5t16.5 -46.5v-304zM333 743l-43.5 -43.5t-49.5 -45.5q-24 1 -39.5 14t-15.5 34q0 16 8.5 28t27.5 27l44 42q38 31 69 31q21 0 37 -8t33 -26l82 -87q0 -25 -14 -38.5t-37 -13.5q-16 0 -29 9t-32 30z" />
    <glyph glyph-name="Udieresis" unicode="&#xdc;" horiz-adv-x="656" 
d="M328 -15q-79 0 -136 28.5t-86.5 80.5t-29.5 122v72h126v-67q0 -64 35.5 -98.5t90.5 -34.5q54 0 90 34.5t36 98.5v67h127v-72q0 -70 -30 -122t-86.5 -80.5t-136.5 -28.5zM202 253h-126v354q8 2 24.5 5t33.5 3q36 0 52 -12.5t16 -46.5v-303zM581 252h-127v355q8 2 25 5
t34 3q35 0 51.5 -12.5t16.5 -46.5v-304zM295 739q0 -27 -18.5 -46t-48.5 -19q-28 0 -46.5 19t-18.5 46t18.5 45.5t46.5 18.5q30 0 48.5 -18.5t18.5 -45.5zM488 739q0 -27 -18.5 -46t-47.5 -19q-28 0 -47 19t-19 46t19 45.5t47 18.5q29 0 47.5 -18.5t18.5 -45.5z" />
    <glyph glyph-name="Yacute" unicode="&#xdd;" horiz-adv-x="562" 
d="M344 204h-112q-27 39 -57.5 86.5t-60.5 97.5t-56.5 97.5t-44.5 86.5q9 14 25.5 27t41.5 13q28 0 45.5 -13t33.5 -45q14 -25 30.5 -55t33.5 -61.5t33 -61t29 -52.5h5q27 51 49.5 94.5t43.5 87.5t43 93q12 6 27 9.5t29 3.5q26 0 43 -14t17 -40q0 -11 -11.5 -37.5
t-35.5 -69.5t-61.5 -104.5t-89.5 -142.5zM226 253h124v-251q-8 -3 -24.5 -5.5t-32.5 -2.5q-37 0 -52 13t-15 45v201zM246 739l103 93q31 0 48.5 -15.5t17.5 -36.5q0 -17 -7.5 -29.5t-28.5 -26.5l-92 -68q-29 1 -44.5 14t-15.5 31q0 11 4 20t15 18z" />
    <glyph glyph-name="Thorn" unicode="&#xde;" horiz-adv-x="576" 
d="M201 204v204h82q59 0 92.5 -25t33.5 -77t-33.5 -77t-92.5 -25h-82zM75 509v-407h227q118 0 176 56.5t58 147.5q0 93 -58 148t-176 55h-227zM201 165h-126v-113q0 -31 16 -44.5t53 -13.5q17 0 33.5 2.5t23.5 4.5v164zM75 434h126v122q0 33 -16 46t-52 13q-16 0 -33 -3
t-25 -5v-173z" />
    <glyph glyph-name="germandbls" unicode="&#xdf;" horiz-adv-x="600" 
d="M191 285h-123v180q0 70 29 116.5t79 69.5t112 23q65 0 115 -24.5t78.5 -72.5t28.5 -116q0 -41 -35 -57l-39 -18q-20 -10 -29 -20t-9 -26q0 -15 10 -26t32 -25q42 -22 69 -43.5t40.5 -48.5t13.5 -65q0 -73 -49.5 -111t-126.5 -38q-58 0 -93 18.5t-35 50.5q0 17 8 31t22 21
q16 -11 36.5 -19t46.5 -8q30 0 48 15t18 39q0 23 -14 38.5t-49 34.5q-51 27 -77 58.5t-26 78.5q0 41 23.5 69.5t65.5 45.5l26 11q0 46 -27.5 76t-71.5 30q-40 0 -68.5 -26.5t-28.5 -82.5v-179zM68 336h123v-337q-8 -2 -23 -4.5t-32 -2.5q-35 0 -51.5 13t-16.5 45v286z" />
    <glyph glyph-name="agrave" unicode="&#xe0;" horiz-adv-x="521" 
d="M250 79q30 0 54 6t35 13v114l-99 -10q-41 -3 -62.5 -17.5t-21.5 -42.5q0 -29 23 -46t71 -17zM245 487q98 0 156 -41.5t58 -130.5v-230q0 -24 -11.5 -38t-29.5 -25q-28 -16 -71 -26.5t-97 -10.5q-100 0 -157 38.5t-57 114.5q0 67 42.5 102.5t123.5 43.5l136 14v18
q0 40 -27.5 58t-77.5 18q-39 0 -76 -10t-66 -24q-10 8 -18 22t-8 29q0 36 40 53q28 13 65.5 19t74.5 6zM211 545l-96 95q-1 4 -1.5 9.5t-0.5 8.5q0 26 16 41t39 15q15 0 28.5 -6.5t25.5 -20.5l89 -112q-2 -25 -17 -38t-34 -13q-16 0 -26.5 5.5t-22.5 15.5z" />
    <glyph glyph-name="aacute" unicode="&#xe1;" horiz-adv-x="521" 
d="M250 79q30 0 54 6t35 13v114l-99 -10q-41 -3 -62.5 -17.5t-21.5 -42.5q0 -29 23 -46t71 -17zM245 487q98 0 156 -41.5t58 -130.5v-230q0 -24 -11.5 -38t-29.5 -25q-28 -16 -71 -26.5t-97 -10.5q-100 0 -157 38.5t-57 114.5q0 67 42.5 102.5t123.5 43.5l136 14v18
q0 40 -27.5 58t-77.5 18q-39 0 -76 -10t-66 -24q-10 8 -18 22t-8 29q0 36 40 53q28 13 65.5 19t74.5 6zM218 609l99 109q37 0 56.5 -16.5t19.5 -37.5q0 -18 -8 -30t-27 -29l-93 -83q-31 0 -48.5 15.5t-17.5 33.5q0 11 5 19.5t14 18.5z" />
    <glyph glyph-name="acircumflex" unicode="&#xe2;" horiz-adv-x="521" 
d="M250 79q30 0 54 6t35 13v114l-99 -10q-41 -3 -62.5 -17.5t-21.5 -42.5q0 -29 23 -46t71 -17zM245 487q98 0 156 -41.5t58 -130.5v-230q0 -24 -11.5 -38t-29.5 -25q-28 -16 -71 -26.5t-97 -10.5q-100 0 -157 38.5t-57 114.5q0 67 42.5 102.5t123.5 43.5l136 14v18
q0 40 -27.5 58t-77.5 18q-39 0 -76 -10t-66 -24q-10 8 -18 22t-8 29q0 36 40 53q28 13 65.5 19t74.5 6zM309 558l-53 64q-25 -29 -44.5 -50t-40.5 -45q-28 1 -45.5 14t-17.5 34q0 15 9 26.5t24 26.5l48 51q16 15 31.5 23.5t36.5 8.5t37 -8t35 -31l78 -93q0 -21 -12 -35.5
t-37 -14.5q-15 0 -26.5 8t-22.5 21z" />
    <glyph glyph-name="atilde" unicode="&#xe3;" horiz-adv-x="521" 
d="M250 79q30 0 54 6t35 13v114l-99 -10q-41 -3 -62.5 -17.5t-21.5 -42.5q0 -29 23 -46t71 -17zM245 487q98 0 156 -41.5t58 -130.5v-230q0 -24 -11.5 -38t-29.5 -25q-28 -16 -71 -26.5t-97 -10.5q-100 0 -157 38.5t-57 114.5q0 67 42.5 102.5t123.5 43.5l136 14v18
q0 40 -27.5 58t-77.5 18q-39 0 -76 -10t-66 -24q-10 8 -18 22t-8 29q0 36 40 53q28 13 65.5 19t74.5 6zM174 682q28 0 52.5 -8t45.5 -16t37 -8q20 0 30 12t15 25h5q25 0 43 -15.5t18 -42.5q0 -36 -23.5 -55t-61.5 -19q-30 0 -54.5 8t-45 16t-36.5 8q-20 0 -29.5 -12
t-14.5 -25h-5q-25 0 -43.5 15t-18.5 43q0 25 12.5 41t32.5 24.5t41 8.5z" />
    <glyph glyph-name="adieresis" unicode="&#xe4;" horiz-adv-x="521" 
d="M250 79q30 0 54 6t35 13v114l-99 -10q-41 -3 -62.5 -17.5t-21.5 -42.5q0 -29 23 -46t71 -17zM245 487q98 0 156 -41.5t58 -130.5v-230q0 -24 -11.5 -38t-29.5 -25q-28 -16 -71 -26.5t-97 -10.5q-100 0 -157 38.5t-57 114.5q0 67 42.5 102.5t123.5 43.5l136 14v18
q0 40 -27.5 58t-77.5 18q-39 0 -76 -10t-66 -24q-10 8 -18 22t-8 29q0 36 40 53q28 13 65.5 19t74.5 6zM230 615q0 -27 -18.5 -46t-48.5 -19q-28 0 -46.5 19t-18.5 46t18.5 45.5t46.5 18.5q30 0 48.5 -18.5t18.5 -45.5zM423 615q0 -27 -18.5 -46t-47.5 -19q-28 0 -47 19
t-19 46t19 45.5t47 18.5q29 0 47.5 -18.5t18.5 -45.5z" />
    <glyph glyph-name="aring" unicode="&#xe5;" horiz-adv-x="521" 
d="M250 79q30 0 54 6t35 13v114l-99 -10q-41 -3 -62.5 -17.5t-21.5 -42.5q0 -29 23 -46t71 -17zM245 487q98 0 156 -41.5t58 -130.5v-230q0 -24 -11.5 -38t-29.5 -25q-28 -16 -71 -26.5t-97 -10.5q-100 0 -157 38.5t-57 114.5q0 67 42.5 102.5t123.5 43.5l136 14v18
q0 40 -27.5 58t-77.5 18q-39 0 -76 -10t-66 -24q-10 8 -18 22t-8 29q0 36 40 53q28 13 65.5 19t74.5 6zM142 626q0 43 31 72.5t86 29.5q57 0 88.5 -29.5t31.5 -72.5t-31.5 -72.5t-88.5 -29.5q-55 0 -86 29.5t-31 72.5zM220 626q0 -19 11.5 -29.5t27.5 -10.5q18 0 29.5 10.5
t11.5 29.5t-11.5 29.5t-29.5 10.5q-16 0 -27.5 -10.5t-11.5 -29.5z" />
    <glyph glyph-name="ae" unicode="&#xe6;" horiz-adv-x="821" 
d="M406 174l-5 86l268 40q-4 38 -30 66t-76 28q-52 0 -85.5 -35.5t-34.5 -101.5l3 -52q8 -64 49 -94t103 -30q42 0 78 12.5t58 27.5q13 -9 21.5 -22.5t8.5 -29.5q0 -26 -22.5 -44.5t-62 -28.5t-88.5 -10q-111 0 -173.5 61.5t-66.5 166.5q0 5 -3 13.5t-3 14.5q0 82 29.5 136
t79 81.5t109.5 27.5q66 0 116 -26.5t78 -73.5t28 -108q0 -28 -14.5 -41.5t-39.5 -16.5zM250 79q30 0 54 6t35 13v114l-99 -10q-41 -3 -62.5 -17.5t-21.5 -42.5q0 -29 23 -46t71 -17zM245 487q91 0 140.5 -42.5t49.5 -129.5v-233q0 -24 -11 -40t-26 -24q-27 -14 -61.5 -23.5
t-88.5 -9.5q-99 0 -155.5 38.5t-56.5 114.5q0 67 42.5 102.5t123.5 43.5l136 14v18q0 40 -27.5 58t-77.5 18q-39 0 -76 -10t-66 -24q-10 8 -18 22t-8 29q0 36 40 53q28 13 65.5 19t74.5 6z" />
    <glyph glyph-name="ccedilla" unicode="&#xe7;" horiz-adv-x="483" 
d="M307 388q-60 0 -100.5 -39t-40.5 -114q0 -74 39 -112t101 -38q37 0 62.5 9.5t44.5 20.5q15 -9 23.5 -21.5t8.5 -30.5q0 -34 -41 -55.5t-108 -21.5q-76 0 -133.5 27.5t-90 83.5t-32.5 138q0 85 34.5 141t92 83.5t126.5 27.5q66 0 106 -23t40 -57q0 -15 -8 -28t-19 -21
q-20 12 -45 21t-60 9zM238 3l69 24q33 -20 46.5 -49t13.5 -63q0 -49 -31 -79.5t-83 -30.5q-34 0 -53 14.5t-19 41.5q0 16 5 27h13q33 0 48 15.5t15 39.5q0 14 -5.5 30.5t-18.5 29.5z" />
    <glyph glyph-name="egrave" unicode="&#xe8;" horiz-adv-x="533" 
d="M118 174l-5 86l268 40q-3 38 -29 66t-76 28q-51 0 -85 -35.5t-35 -101.5l3 -52q9 -64 49.5 -94t102.5 -30q42 0 78 12.5t57 27.5q14 -9 22.5 -22.5t8.5 -29.5q0 -26 -23 -44.5t-62 -28.5t-89 -10q-77 0 -136.5 28.5t-93 85.5t-33.5 142q0 61 19 107t51.5 76.5t75.5 46
t90 15.5q66 0 115.5 -26.5t78 -73.5t28.5 -108q0 -28 -14.5 -41.5t-40.5 -16.5zM224 545l-96 95q-1 4 -1.5 9.5t-0.5 8.5q0 26 16 41t39 15q15 0 28.5 -6.5t25.5 -20.5l89 -112q-2 -25 -17 -38t-34 -13q-16 0 -26.5 5.5t-22.5 15.5z" />
    <glyph glyph-name="eacute" unicode="&#xe9;" horiz-adv-x="533" 
d="M118 174l-5 86l268 40q-3 38 -29 66t-76 28q-51 0 -85 -35.5t-35 -101.5l3 -52q9 -64 49.5 -94t102.5 -30q42 0 78 12.5t57 27.5q14 -9 22.5 -22.5t8.5 -29.5q0 -26 -23 -44.5t-62 -28.5t-89 -10q-77 0 -136.5 28.5t-93 85.5t-33.5 142q0 61 19 107t51.5 76.5t75.5 46
t90 15.5q66 0 115.5 -26.5t78 -73.5t28.5 -108q0 -28 -14.5 -41.5t-40.5 -16.5zM244 609l99 109q37 0 56.5 -16.5t19.5 -37.5q0 -18 -8 -30t-27 -29l-93 -83q-31 0 -48.5 15.5t-17.5 33.5q0 11 5 19.5t14 18.5z" />
    <glyph glyph-name="ecircumflex" unicode="&#xea;" horiz-adv-x="533" 
d="M118 174l-5 86l268 40q-3 38 -29 66t-76 28q-51 0 -85 -35.5t-35 -101.5l3 -52q9 -64 49.5 -94t102.5 -30q42 0 78 12.5t57 27.5q14 -9 22.5 -22.5t8.5 -29.5q0 -26 -23 -44.5t-62 -28.5t-89 -10q-77 0 -136.5 28.5t-93 85.5t-33.5 142q0 61 19 107t51.5 76.5t75.5 46
t90 15.5q66 0 115.5 -26.5t78 -73.5t28.5 -108q0 -28 -14.5 -41.5t-40.5 -16.5zM331 558l-53 64q-25 -29 -44.5 -50t-40.5 -45q-28 1 -45.5 14t-17.5 34q0 15 9 26.5t24 26.5l48 51q16 15 31.5 23.5t36.5 8.5t37 -8t35 -31l78 -93q0 -21 -12 -35.5t-37 -14.5q-15 0 -26.5 8
t-22.5 21z" />
    <glyph glyph-name="edieresis" unicode="&#xeb;" horiz-adv-x="533" 
d="M118 174l-5 86l268 40q-3 38 -29 66t-76 28q-51 0 -85 -35.5t-35 -101.5l3 -52q9 -64 49.5 -94t102.5 -30q42 0 78 12.5t57 27.5q14 -9 22.5 -22.5t8.5 -29.5q0 -26 -23 -44.5t-62 -28.5t-89 -10q-77 0 -136.5 28.5t-93 85.5t-33.5 142q0 61 19 107t51.5 76.5t75.5 46
t90 15.5q66 0 115.5 -26.5t78 -73.5t28.5 -108q0 -28 -14.5 -41.5t-40.5 -16.5zM240 615q0 -27 -18.5 -46t-48.5 -19q-28 0 -46.5 19t-18.5 46t18.5 45.5t46.5 18.5q30 0 48.5 -18.5t18.5 -45.5zM433 615q0 -27 -18.5 -46t-47.5 -19q-28 0 -47 19t-19 46t19 45.5t47 18.5
q29 0 47.5 -18.5t18.5 -45.5z" />
    <glyph glyph-name="igrave" unicode="&#xec;" horiz-adv-x="261" 
d="M68 302h124v-303q-8 -2 -23 -4.5t-32 -2.5q-35 0 -52 13t-17 45v252zM192 253h-124v216q8 2 23 4.5t33 2.5q35 0 51.5 -13t16.5 -45v-165zM80 545l-96 95q-1 4 -1.5 9.5t-0.5 8.5q0 26 16 41t39 15q15 0 28.5 -6.5t25.5 -20.5l89 -112q-2 -25 -17 -38t-34 -13
q-16 0 -26.5 5.5t-22.5 15.5z" />
    <glyph glyph-name="iacute" unicode="&#xed;" horiz-adv-x="261" 
d="M68 302h124v-303q-8 -2 -23 -4.5t-32 -2.5q-35 0 -52 13t-17 45v252zM192 253h-124v216q8 2 23 4.5t33 2.5q35 0 51.5 -13t16.5 -45v-165zM99 609l99 109q36 0 55.5 -16.5t19.5 -37.5q0 -18 -8 -30t-27 -29l-93 -83q-31 0 -48 15.5t-17 33.5q0 11 4.5 19.5t14.5 18.5z
" />
    <glyph glyph-name="icircumflex" unicode="&#xee;" horiz-adv-x="261" 
d="M68 302h124v-303q-8 -2 -23 -4.5t-32 -2.5q-35 0 -52 13t-17 45v252zM192 253h-124v216q8 2 23 4.5t33 2.5q35 0 51.5 -13t16.5 -45v-165zM184 558l-53 64q-24 -29 -44 -50t-40 -45q-29 1 -46 14t-17 34q0 15 8.5 26.5t23.5 26.5l48 51q16 15 32 23.5t37 8.5
q20 0 36.5 -8t35.5 -31l77 -93q0 -21 -11.5 -35.5t-36.5 -14.5q-15 0 -26.5 8t-23.5 21z" />
    <glyph glyph-name="idieresis" unicode="&#xef;" horiz-adv-x="261" 
d="M68 302h124v-303q-8 -2 -23 -4.5t-32 -2.5q-35 0 -52 13t-17 45v252zM192 253h-124v216q8 2 23 4.5t33 2.5q35 0 51.5 -13t16.5 -45v-165zM99 615q0 -27 -18.5 -45.5t-47.5 -18.5t-47.5 18.5t-18.5 45.5t18.5 46t47.5 19t47.5 -19t18.5 -46zM292 615q0 -27 -18.5 -45.5
t-47.5 -18.5q-28 0 -47 18.5t-19 45.5t19 46t47 19q29 0 47.5 -19t18.5 -46z" />
    <glyph glyph-name="eth" unicode="&#xf0;" horiz-adv-x="560" 
d="M371 548l-46 -18l-165 -61q-12 9 -21.5 23t-9.5 31q0 26 29 37l113 43l31 13l133 53q11 -8 21 -22.5t10 -30.5q0 -18 -8 -27t-23 -15zM415 378l-16 -94q-19 31 -48.5 49t-65.5 18q-59 0 -88.5 -36t-29.5 -95q0 -62 30.5 -99t85.5 -37t82.5 38t27.5 102q0 31 -3.5 57
t-9.5 52q-2 15 -1.5 24t0.5 17.5t-4 18.5q-19 42 -42 76.5t-59 64.5q-9 7 -18.5 15.5t-18.5 15.5q-25 18 -53.5 29.5t-60.5 21.5q2 32 18.5 50t43.5 18q37 0 78.5 -18.5t81.5 -50.5q8 -6 13 -10t12 -12q41 -39 74.5 -92.5t54 -117t20.5 -134.5q0 -81 -26.5 -140t-79 -91
t-131.5 -32q-111 0 -176.5 62.5t-65.5 171.5q0 77 32 127t82.5 74.5t107.5 24.5q53 0 91 -19.5t62 -48.5z" />
    <glyph glyph-name="ntilde" unicode="&#xf1;" horiz-adv-x="571" 
d="M506 309v-97h-123v92q0 44 -25 64.5t-67 20.5q-31 0 -55.5 -7.5t-43.5 -17.5v-152h-123v160q0 24 10 39.5t30 28.5q30 20 77.5 33.5t105.5 13.5q101 0 157.5 -45t56.5 -133zM69 261h123v-259q-8 -3 -23 -5.5t-33 -2.5q-34 0 -50.5 12.5t-16.5 44.5v210zM383 261h123v-259
q-7 -3 -22.5 -5.5t-32.5 -2.5q-35 0 -51.5 12.5t-16.5 44.5v210zM204 682q28 0 52.5 -8t45.5 -16t37 -8q20 0 30 12t15 25h5q25 0 43 -15.5t18 -42.5q0 -36 -23.5 -55t-61.5 -19q-30 0 -54.5 8t-45 16t-36.5 8q-20 0 -29.5 -12t-14.5 -25h-5q-25 0 -43.5 15t-18.5 43
q0 25 12.5 41t32.5 24.5t41 8.5z" />
    <glyph glyph-name="ograve" unicode="&#xf2;" horiz-adv-x="569" 
d="M528 237q0 -77 -30 -133.5t-84.5 -87t-128.5 -30.5t-129 30.5t-85.5 86.5t-30.5 134q0 77 31 133t86 86.5t128 30.5t127.5 -30.5t85 -87t30.5 -132.5zM285 389q-55 0 -86.5 -40t-31.5 -112q0 -74 31 -113.5t87 -39.5q55 0 86 40t31 113q0 71 -31 111.5t-86 40.5zM250 545
l-96 95q-1 4 -1.5 9.5t-0.5 8.5q0 26 16 41t39 15q15 0 28.5 -6.5t25.5 -20.5l89 -112q-2 -25 -17 -38t-34 -13q-16 0 -26.5 5.5t-22.5 15.5z" />
    <glyph glyph-name="oacute" unicode="&#xf3;" horiz-adv-x="569" 
d="M528 237q0 -77 -30 -133.5t-84.5 -87t-128.5 -30.5t-129 30.5t-85.5 86.5t-30.5 134q0 77 31 133t86 86.5t128 30.5t127.5 -30.5t85 -87t30.5 -132.5zM285 389q-55 0 -86.5 -40t-31.5 -112q0 -74 31 -113.5t87 -39.5q55 0 86 40t31 113q0 71 -31 111.5t-86 40.5zM245 609
l99 109q37 0 56.5 -16.5t19.5 -37.5q0 -18 -8 -30t-27 -29l-93 -83q-31 0 -48.5 15.5t-17.5 33.5q0 11 5 19.5t14 18.5z" />
    <glyph glyph-name="ocircumflex" unicode="&#xf4;" horiz-adv-x="569" 
d="M528 237q0 -77 -30 -133.5t-84.5 -87t-128.5 -30.5t-129 30.5t-85.5 86.5t-30.5 134q0 77 31 133t86 86.5t128 30.5t127.5 -30.5t85 -87t30.5 -132.5zM285 389q-55 0 -86.5 -40t-31.5 -112q0 -74 31 -113.5t87 -39.5q55 0 86 40t31 113q0 71 -31 111.5t-86 40.5zM337 558
l-53 64q-25 -29 -44.5 -50t-40.5 -45q-28 1 -45.5 14t-17.5 34q0 15 9 26.5t24 26.5l48 51q16 15 31.5 23.5t36.5 8.5t37 -8t35 -31l78 -93q0 -21 -12 -35.5t-37 -14.5q-15 0 -26.5 8t-22.5 21z" />
    <glyph glyph-name="otilde" unicode="&#xf5;" horiz-adv-x="569" 
d="M528 237q0 -77 -30 -133.5t-84.5 -87t-128.5 -30.5t-129 30.5t-85.5 86.5t-30.5 134q0 77 31 133t86 86.5t128 30.5t127.5 -30.5t85 -87t30.5 -132.5zM285 389q-55 0 -86.5 -40t-31.5 -112q0 -74 31 -113.5t87 -39.5q55 0 86 40t31 113q0 71 -31 111.5t-86 40.5zM206 682
q28 0 52.5 -8t45.5 -16t37 -8q20 0 30 12t15 25h5q25 0 43 -15.5t18 -42.5q0 -36 -23.5 -55t-61.5 -19q-30 0 -54.5 8t-45 16t-36.5 8q-20 0 -29.5 -12t-14.5 -25h-5q-25 0 -43.5 15t-18.5 43q0 25 12.5 41t32.5 24.5t41 8.5z" />
    <glyph glyph-name="odieresis" unicode="&#xf6;" horiz-adv-x="569" 
d="M528 237q0 -77 -30 -133.5t-84.5 -87t-128.5 -30.5t-129 30.5t-85.5 86.5t-30.5 134q0 77 31 133t86 86.5t128 30.5t127.5 -30.5t85 -87t30.5 -132.5zM285 389q-55 0 -86.5 -40t-31.5 -112q0 -74 31 -113.5t87 -39.5q55 0 86 40t31 113q0 71 -31 111.5t-86 40.5zM254 615
q0 -27 -18.5 -46t-48.5 -19q-28 0 -46.5 19t-18.5 46t18.5 45.5t46.5 18.5q30 0 48.5 -18.5t18.5 -45.5zM447 615q0 -27 -18.5 -46t-47.5 -19q-28 0 -47 19t-19 46t19 45.5t47 18.5q29 0 47.5 -18.5t18.5 -45.5z" />
    <glyph glyph-name="divide" unicode="&#xf7;" horiz-adv-x="523" 
d="M435 245h-382q-5 9 -8.5 20.5t-3.5 26.5q0 27 13 39.5t34 12.5h383q4 -8 8 -21t4 -28q0 -26 -13 -38t-35 -12zM198 128q0 28 18 47t48 19t47.5 -19t17.5 -47t-17.5 -47t-47.5 -19t-48 19t-18 47zM198 458q0 29 18 47.5t48 18.5t47.5 -18.5t17.5 -47.5q0 -28 -17.5 -46.5
t-47.5 -18.5t-48 18.5t-18 46.5z" />
    <glyph glyph-name="oslash" unicode="&#xf8;" horiz-adv-x="569" 
d="M432 391l-51 57l57 87q13 0 26.5 -5.5t22 -14.5t8.5 -22q0 -9 -6 -19zM199 39l-68 -100q-14 0 -27.5 5.5t-22 15t-8.5 20.5q0 10 7 20l50 72zM216 67l-44 65l172 261l65 -31zM528 237q0 -77 -30 -133.5t-84.5 -87t-128.5 -30.5t-129 30.5t-85.5 86.5t-30.5 134
q0 77 31 133t86 86.5t128 30.5t127.5 -30.5t85 -87t30.5 -132.5zM285 390q-55 0 -90 -39.5t-35 -113.5t34.5 -114t90.5 -40q55 0 89.5 39.5t34.5 114.5q0 73 -34.5 113t-89.5 40z" />
    <glyph glyph-name="ugrave" unicode="&#xf9;" horiz-adv-x="565" 
d="M64 181v79h123v-77q0 -53 27.5 -76t76.5 -23q32 0 54 6t33 13v157h123v-167q0 -23 -7.5 -38.5t-28.5 -28.5q-29 -17 -73.5 -28.5t-101.5 -11.5q-69 0 -120 20t-78.5 63.5t-27.5 111.5zM501 212h-123v260q8 2 23.5 4.5t32.5 2.5q35 0 51 -12t16 -45v-210zM187 212h-123
v260q8 2 23 4.5t33 2.5q35 0 51 -12t16 -45v-210zM227 545l-96 95q-1 4 -1.5 9.5t-0.5 8.5q0 26 16 41t39 15q15 0 28.5 -6.5t25.5 -20.5l89 -112q-2 -25 -17 -38t-34 -13q-16 0 -26.5 5.5t-22.5 15.5z" />
    <glyph glyph-name="uacute" unicode="&#xfa;" horiz-adv-x="565" 
d="M64 181v79h123v-77q0 -53 27.5 -76t76.5 -23q32 0 54 6t33 13v157h123v-167q0 -23 -7.5 -38.5t-28.5 -28.5q-29 -17 -73.5 -28.5t-101.5 -11.5q-69 0 -120 20t-78.5 63.5t-27.5 111.5zM501 212h-123v260q8 2 23.5 4.5t32.5 2.5q35 0 51 -12t16 -45v-210zM187 212h-123
v260q8 2 23 4.5t33 2.5q35 0 51 -12t16 -45v-210zM256 609l99 109q37 0 56.5 -16.5t19.5 -37.5q0 -18 -8 -30t-27 -29l-93 -83q-31 0 -48.5 15.5t-17.5 33.5q0 11 5 19.5t14 18.5z" />
    <glyph glyph-name="ucircumflex" unicode="&#xfb;" horiz-adv-x="565" 
d="M64 181v79h123v-77q0 -53 27.5 -76t76.5 -23q32 0 54 6t33 13v157h123v-167q0 -23 -7.5 -38.5t-28.5 -28.5q-29 -17 -73.5 -28.5t-101.5 -11.5q-69 0 -120 20t-78.5 63.5t-27.5 111.5zM501 212h-123v260q8 2 23.5 4.5t32.5 2.5q35 0 51 -12t16 -45v-210zM187 212h-123
v260q8 2 23 4.5t33 2.5q35 0 51 -12t16 -45v-210zM336 558l-53 64q-25 -29 -44.5 -50t-40.5 -45q-28 1 -45.5 14t-17.5 34q0 15 9 26.5t24 26.5l48 51q16 15 31.5 23.5t36.5 8.5t37 -8t35 -31l78 -93q0 -21 -12 -35.5t-37 -14.5q-15 0 -26.5 8t-22.5 21z" />
    <glyph glyph-name="udieresis" unicode="&#xfc;" horiz-adv-x="565" 
d="M64 181v79h123v-77q0 -53 27.5 -76t76.5 -23q32 0 54 6t33 13v157h123v-167q0 -23 -7.5 -38.5t-28.5 -28.5q-29 -17 -73.5 -28.5t-101.5 -11.5q-69 0 -120 20t-78.5 63.5t-27.5 111.5zM501 212h-123v260q8 2 23.5 4.5t32.5 2.5q35 0 51 -12t16 -45v-210zM187 212h-123
v260q8 2 23 4.5t33 2.5q35 0 51 -12t16 -45v-210zM250 615q0 -27 -18.5 -46t-48.5 -19q-28 0 -46.5 19t-18.5 46t18.5 45.5t46.5 18.5q30 0 48.5 -18.5t18.5 -45.5zM443 615q0 -27 -18.5 -46t-47.5 -19q-28 0 -47 19t-19 46t19 45.5t47 18.5q29 0 47.5 -18.5t18.5 -45.5z
" />
    <glyph glyph-name="yacute" unicode="&#xfd;" horiz-adv-x="519" 
d="M149 113q-16 33 -36.5 82.5t-42.5 115t-45 144.5q11 12 28 20t37 8q26 0 42.5 -11.5t25.5 -41.5q26 -78 52.5 -154t56.5 -155h4q19 44 38 103.5t36.5 123.5t29.5 122q12 6 25 9.5t28 3.5q25 0 43.5 -11.5t18.5 -38.5q0 -24 -8.5 -63.5t-23.5 -87.5t-34.5 -100t-41 -100.5
t-43.5 -87.5q-51 -91 -94 -137.5t-83 -46.5q-31 0 -50.5 18.5t-23.5 45.5q22 19 46.5 45.5t47.5 56.5t39 59q-17 5 -34 20.5t-38 57.5zM219 609l99 109q37 0 56.5 -16.5t19.5 -37.5q0 -18 -8 -30t-27 -29l-93 -83q-31 0 -48.5 15.5t-17.5 33.5q0 11 5 19.5t14 18.5z" />
    <glyph glyph-name="thorn" unicode="&#xfe;" horiz-adv-x="569" 
d="M66 53h123v548q0 31 -16 44t-51 13q-18 0 -33 -2.5t-23 -5.5v-597zM289 -14q69 0 122.5 28.5t84 84.5t30.5 140q0 87 -32 142t-85.5 80.5t-118.5 25.5q-44 0 -78.5 -11.5t-54.5 -21.5l14 -98q23 17 49 25t54 8q35 0 64 -15t46 -47.5t17 -87.5q0 -79 -35 -116.5t-95 -37.5
q-36 0 -62.5 12.5t-45.5 28.5v-106q21 -13 53.5 -23.5t72.5 -10.5zM189 85l-123 1v-210q0 -32 16.5 -45t50.5 -13q18 0 33 3t23 5v259z" />
    <glyph glyph-name="ydieresis" unicode="&#xff;" horiz-adv-x="519" 
d="M149 113q-16 33 -36.5 82.5t-42.5 115t-45 144.5q11 12 28 20t37 8q26 0 42.5 -11.5t25.5 -41.5q26 -78 52.5 -154t56.5 -155h4q19 44 38 103.5t36.5 123.5t29.5 122q12 6 25 9.5t28 3.5q25 0 43.5 -11.5t18.5 -38.5q0 -24 -8.5 -63.5t-23.5 -87.5t-34.5 -100t-41 -100.5
t-43.5 -87.5q-51 -91 -94 -137.5t-83 -46.5q-31 0 -50.5 18.5t-23.5 45.5q22 19 46.5 45.5t47.5 56.5t39 59q-17 5 -34 20.5t-38 57.5zM227 615q0 -27 -18.5 -46t-48.5 -19q-28 0 -46.5 19t-18.5 46t18.5 45.5t46.5 18.5q30 0 48.5 -18.5t18.5 -45.5zM420 615
q0 -27 -18.5 -46t-47.5 -19q-28 0 -47 19t-19 46t19 45.5t47 18.5q29 0 47.5 -18.5t18.5 -45.5z" />
    <glyph glyph-name="Amacron" unicode="&#x100;" horiz-adv-x="609" 
d="M408 691h-246q-4 9 -8.5 21t-4.5 26q0 26 11.5 37.5t31.5 11.5h246q5 -8 8.5 -20.5t3.5 -26.5q0 -26 -11 -37.5t-31 -11.5zM309 504h-5q-13 -36 -28.5 -82t-32.5 -95.5t-32 -95.5l-14 -62q-6 -19 -12.5 -42t-14 -46.5t-14 -44.5t-11.5 -37q-10 -3 -21.5 -5.5t-27.5 -2.5
q-32 0 -50.5 12.5t-18.5 37.5q0 11 3.5 23t7.5 27q10 33 27 82.5t37 107.5t41.5 117t40.5 110.5t33 86.5q12 7 37 13t51 6q34 0 62.5 -10t35.5 -32q21 -55 45 -126t49 -148t48 -150t41 -132q-10 -11 -27.5 -18t-40.5 -7q-33 0 -47.5 12.5t-22.5 38.5l-41 131l-13 64
q-16 51 -31.5 100.5t-29.5 92.5t-24 74zM141 145l47 99h250l19 -99h-316z" />
    <glyph glyph-name="amacron" unicode="&#x101;" horiz-adv-x="521" 
d="M250 79q30 0 54 6t35 13v114l-99 -10q-41 -3 -62.5 -17.5t-21.5 -42.5q0 -29 23 -46t71 -17zM245 487q98 0 156 -41.5t58 -130.5v-230q0 -24 -11.5 -38t-29.5 -25q-28 -16 -71 -26.5t-97 -10.5q-100 0 -157 38.5t-57 114.5q0 67 42.5 102.5t123.5 43.5l136 14v18
q0 40 -27.5 58t-77.5 18q-39 0 -76 -10t-66 -24q-10 8 -18 22t-8 29q0 36 40 53q28 13 65.5 19t74.5 6zM373 567h-246q-4 9 -8.5 21t-4.5 26q0 26 12 37t31 11h246q6 -8 9 -20.5t3 -25.5q0 -27 -11 -38t-31 -11z" />
    <glyph glyph-name="Abreve" unicode="&#x102;" horiz-adv-x="609" 
d="M309 504h-5q-13 -36 -28.5 -82t-32.5 -95.5t-32 -95.5l-14 -62q-6 -19 -12.5 -42t-14 -46.5t-14 -44.5t-11.5 -37q-10 -3 -21.5 -5.5t-27.5 -2.5q-32 0 -50.5 12.5t-18.5 37.5q0 11 3.5 23t7.5 27q10 33 27 82.5t37 107.5t41.5 117t40.5 110.5t33 86.5q12 7 37 13t51 6
q34 0 62.5 -10t35.5 -32q21 -55 45 -126t49 -148t48 -150t41 -132q-10 -11 -27.5 -18t-40.5 -7q-33 0 -47.5 12.5t-22.5 38.5l-41 131l-13 64q-16 51 -31.5 100.5t-29.5 92.5t-24 74zM141 145l47 99h250l19 -99h-316zM306 754q32 0 51.5 16t24.5 43q5 1 9 1.5t9 0.5
q28 0 42.5 -16t14.5 -39q0 -37 -38.5 -66.5t-112.5 -29.5t-112 29.5t-38 66.5q0 23 14.5 39t42.5 16q5 0 9.5 -0.5t7.5 -1.5q5 -27 25 -43t51 -16z" />
    <glyph glyph-name="abreve" unicode="&#x103;" horiz-adv-x="521" 
d="M250 79q30 0 54 6t35 13v114l-99 -10q-41 -3 -62.5 -17.5t-21.5 -42.5q0 -29 23 -46t71 -17zM245 487q98 0 156 -41.5t58 -130.5v-230q0 -24 -11.5 -38t-29.5 -25q-28 -16 -71 -26.5t-97 -10.5q-100 0 -157 38.5t-57 114.5q0 67 42.5 102.5t123.5 43.5l136 14v18
q0 40 -27.5 58t-77.5 18q-39 0 -76 -10t-66 -24q-10 8 -18 22t-8 29q0 36 40 53q28 13 65.5 19t74.5 6zM261 637q32 0 51.5 16t24.5 43q5 1 9 1.5t9 0.5q28 0 42.5 -16t14.5 -39q0 -37 -38.5 -66.5t-112.5 -29.5t-112 29.5t-38 66.5q0 23 14.5 39t42.5 16q5 0 9.5 -0.5
t7.5 -1.5q5 -27 25 -43t51 -16z" />
    <glyph glyph-name="Aogonek" unicode="&#x104;" horiz-adv-x="609" 
d="M482 13l91 -5q-18 -11 -31.5 -26.5t-13.5 -39.5t16 -36.5t44 -12.5h9q3 -7 5 -15t2 -17q0 -22 -15.5 -38t-55.5 -16q-49 0 -82.5 26.5t-33.5 74.5q0 28 11 49.5t26 35.5t28 20zM309 504h-5q-13 -36 -28.5 -82t-32.5 -95.5t-32 -95.5l-14 -62q-6 -19 -12.5 -42t-14 -46.5
t-14 -44.5t-11.5 -37q-10 -3 -21.5 -5.5t-27.5 -2.5q-32 0 -50.5 12.5t-18.5 37.5q0 11 3.5 23t7.5 27q10 33 27 82.5t37 107.5t41.5 117t40.5 110.5t33 86.5q12 7 37 13t51 6q34 0 62.5 -10t35.5 -32q21 -55 45 -126t49 -148t48 -150t41 -132q-10 -11 -27.5 -18t-40.5 -7
q-33 0 -47.5 12.5t-22.5 38.5l-41 131l-13 64q-16 51 -31.5 100.5t-29.5 92.5t-24 74zM141 145l47 99h250l19 -99h-316z" />
    <glyph glyph-name="aogonek" unicode="&#x105;" horiz-adv-x="521" 
d="M328 9l105 25q-26 -21 -42.5 -40.5t-16.5 -51.5q0 -24 15.5 -36.5t42.5 -12.5h10q3 -7 5 -15t2 -17q0 -22 -15.5 -38t-55.5 -16q-49 0 -82.5 26.5t-33.5 74.5q0 41 22.5 66t43.5 35zM250 79q30 0 54 6t35 13v114l-99 -10q-41 -3 -62.5 -17.5t-21.5 -42.5q0 -29 23 -46
t71 -17zM245 487q98 0 156 -41.5t58 -130.5v-230q0 -24 -11.5 -38t-29.5 -25q-28 -16 -71 -26.5t-97 -10.5q-100 0 -157 38.5t-57 114.5q0 67 42.5 102.5t123.5 43.5l136 14v18q0 40 -27.5 58t-77.5 18q-39 0 -76 -10t-66 -24q-10 8 -18 22t-8 29q0 36 40 53q28 13 65.5 19
t74.5 6z" />
    <glyph glyph-name="Cacute" unicode="&#x106;" horiz-adv-x="580" 
d="M537 530q0 -19 -10.5 -33.5t-24.5 -22.5q-25 17 -58 31t-81 14q-56 0 -98.5 -24.5t-66 -73t-23.5 -118.5q0 -106 53 -160.5t141 -54.5q47 0 81 13t59 30q13 -8 22.5 -23.5t9.5 -34.5q0 -17 -8.5 -31t-29.5 -25q-21 -12 -57.5 -22t-91.5 -10q-86 0 -156.5 34.5t-111.5 105
t-41 178.5q0 105 41 176t110 107.5t151 36.5q58 0 100.5 -13t66 -34t23.5 -46zM298 739l103 93q31 0 48.5 -15.5t17.5 -36.5q0 -17 -7.5 -29.5t-28.5 -26.5l-92 -68q-29 1 -44.5 14t-15.5 31q0 11 4 20t15 18z" />
    <glyph glyph-name="cacute" unicode="&#x107;" horiz-adv-x="483" 
d="M307 388q-60 0 -100.5 -39t-40.5 -114q0 -74 39 -112t101 -38q37 0 62.5 9.5t44.5 20.5q15 -9 23.5 -21.5t8.5 -30.5q0 -34 -41 -55.5t-108 -21.5q-76 0 -133.5 27.5t-90 83.5t-32.5 138q0 85 34.5 141t92 83.5t126.5 27.5q66 0 106 -23t40 -57q0 -15 -8 -28t-19 -21
q-20 12 -45 21t-60 9zM243 609l99 109q37 0 56.5 -16.5t19.5 -37.5q0 -18 -8 -30t-27 -29l-93 -83q-31 0 -48.5 15.5t-17.5 33.5q0 11 5 19.5t14 18.5z" />
    <glyph glyph-name="Ccircumflex" unicode="&#x108;" horiz-adv-x="580" 
d="M537 530q0 -19 -10.5 -33.5t-24.5 -22.5q-25 17 -58 31t-81 14q-56 0 -98.5 -24.5t-66 -73t-23.5 -118.5q0 -106 53 -160.5t141 -54.5q47 0 81 13t59 30q13 -8 22.5 -23.5t9.5 -34.5q0 -17 -8.5 -31t-29.5 -25q-21 -12 -57.5 -22t-91.5 -10q-86 0 -156.5 34.5t-111.5 105
t-41 178.5q0 105 41 176t110 107.5t151 36.5q58 0 100.5 -13t66 -34t23.5 -46zM339 743l-43.5 -43.5t-49.5 -45.5q-24 1 -39.5 14t-15.5 34q0 16 8.5 28t27.5 27l44 42q38 31 69 31q21 0 37 -8t33 -26l82 -87q0 -25 -14 -38.5t-37 -13.5q-16 0 -29 9t-32 30z" />
    <glyph glyph-name="ccircumflex" unicode="&#x109;" horiz-adv-x="483" 
d="M307 388q-60 0 -100.5 -39t-40.5 -114q0 -74 39 -112t101 -38q37 0 62.5 9.5t44.5 20.5q15 -9 23.5 -21.5t8.5 -30.5q0 -34 -41 -55.5t-108 -21.5q-76 0 -133.5 27.5t-90 83.5t-32.5 138q0 85 34.5 141t92 83.5t126.5 27.5q66 0 106 -23t40 -57q0 -15 -8 -28t-19 -21
q-20 12 -45 21t-60 9zM329 558l-53 64q-25 -29 -44.5 -50t-40.5 -45q-28 1 -45.5 14t-17.5 34q0 15 9 26.5t24 26.5l48 51q16 15 31.5 23.5t36.5 8.5t37 -8t35 -31l78 -93q0 -21 -12 -35.5t-37 -14.5q-15 0 -26.5 8t-22.5 21z" />
    <glyph glyph-name="Cdotaccent" unicode="&#x10a;" horiz-adv-x="580" 
d="M537 530q0 -19 -10.5 -33.5t-24.5 -22.5q-25 17 -58 31t-81 14q-56 0 -98.5 -24.5t-66 -73t-23.5 -118.5q0 -106 53 -160.5t141 -54.5q47 0 81 13t59 30q13 -8 22.5 -23.5t9.5 -34.5q0 -17 -8.5 -31t-29.5 -25q-21 -12 -57.5 -22t-91.5 -10q-86 0 -156.5 34.5t-111.5 105
t-41 178.5q0 105 41 176t110 107.5t151 36.5q58 0 100.5 -13t66 -34t23.5 -46zM407 744q0 -29 -19.5 -48t-50.5 -19q-30 0 -49.5 19t-19.5 48q0 30 19 49t50 19q32 0 51 -19t19 -49z" />
    <glyph glyph-name="cdotaccent" unicode="&#x10b;" horiz-adv-x="483" 
d="M307 388q-60 0 -100.5 -39t-40.5 -114q0 -74 39 -112t101 -38q37 0 62.5 9.5t44.5 20.5q15 -9 23.5 -21.5t8.5 -30.5q0 -34 -41 -55.5t-108 -21.5q-76 0 -133.5 27.5t-90 83.5t-32.5 138q0 85 34.5 141t92 83.5t126.5 27.5q66 0 106 -23t40 -57q0 -15 -8 -28t-19 -21
q-20 12 -45 21t-60 9zM344 619q0 -29 -19.5 -48t-50.5 -19q-30 0 -49.5 19t-19.5 48q0 30 19 49t50 19q32 0 51 -19t19 -49z" />
    <glyph glyph-name="Ccaron" unicode="&#x10c;" horiz-adv-x="580" 
d="M537 530q0 -19 -10.5 -33.5t-24.5 -22.5q-25 17 -58 31t-81 14q-56 0 -98.5 -24.5t-66 -73t-23.5 -118.5q0 -106 53 -160.5t141 -54.5q47 0 81 13t59 30q13 -8 22.5 -23.5t9.5 -34.5q0 -17 -8.5 -31t-29.5 -25q-21 -12 -57.5 -22t-91.5 -10q-86 0 -156.5 34.5t-111.5 105
t-41 178.5q0 105 41 176t110 107.5t151 36.5q58 0 100.5 -13t66 -34t23.5 -46zM344 741q24 23 47 45.5t45 43.5q24 -1 41 -14t17 -34q0 -16 -8.5 -28.5t-28.5 -27.5l-44 -42q-20 -15 -35 -22t-34 -7q-22 0 -38.5 8.5t-31.5 24.5l-83 82q0 27 13 42t36 15q15 0 29 -8t34 -31z
" />
    <glyph glyph-name="ccaron" unicode="&#x10d;" horiz-adv-x="483" 
d="M307 388q-60 0 -100.5 -39t-40.5 -114q0 -74 39 -112t101 -38q37 0 62.5 9.5t44.5 20.5q15 -9 23.5 -21.5t8.5 -30.5q0 -34 -41 -55.5t-108 -21.5q-76 0 -133.5 27.5t-90 83.5t-32.5 138q0 85 34.5 141t92 83.5t126.5 27.5q66 0 106 -23t40 -57q0 -15 -8 -28t-19 -21
q-20 12 -45 21t-60 9zM224 672l49 -54l88 91q30 -1 47 -14.5t17 -35.5q0 -16 -9.5 -27.5t-26.5 -27.5l-55 -51q-14 -13 -29 -19t-32 -6q-13 0 -24.5 3t-23 11.5t-28.5 23.5l-80 79q-2 14 2.5 28.5t16 24t28.5 9.5t29 -7t31 -28z" />
    <glyph glyph-name="Dcaron" unicode="&#x10e;" horiz-adv-x="659" 
d="M484 306q0 -107 -52 -161.5t-145 -54.5q-22 0 -44 1.5t-40 5.5v415q18 3 37.5 4.5t41.5 1.5q58 0 103.5 -22.5t72 -69t26.5 -120.5zM614 308q0 106 -42.5 175t-118 103.5t-176.5 34.5q-38 0 -81.5 -4t-80.5 -15q-17 -6 -27.5 -16t-10.5 -29v-491q0 -42 49 -59
q38 -13 83 -16.5t78 -3.5q99 0 172 35t114 106.5t41 179.5zM326 741q24 23 47 45.5t45 43.5q24 -1 41 -14t17 -34q0 -16 -8.5 -28.5t-28.5 -27.5l-44 -42q-20 -15 -35 -22t-34 -7q-22 0 -38.5 8.5t-31.5 24.5l-83 82q0 27 13 42t36 15q15 0 29 -8t34 -31z" />
    <glyph glyph-name="dcaron" unicode="&#x10f;" horiz-adv-x="695" 
d="M377 104v314h123v-327q0 -22 -9.5 -36.5t-30.5 -27.5q-24 -16 -65.5 -28.5t-94.5 -12.5q-79 0 -137.5 26.5t-90.5 82t-32 140.5q0 87 32.5 143t87.5 82.5t122 26.5q37 0 67.5 -9t49.5 -21v-105q-16 15 -42 26t-60 11q-37 0 -67 -15.5t-47 -50t-17 -89.5q0 -78 36 -114
t97 -36q27 0 46 6t32 14zM500 393l-123 -1v258q7 2 22.5 5t32.5 3q36 0 52 -12.5t16 -44.5v-208zM650 505q-12 -14 -26.5 -19.5t-31.5 -5.5q-29 0 -47 18q18 38 29 76t15 72q13 6 27.5 9.5t30.5 3.5q24 0 39 -9.5t15 -30.5q0 -16 -8 -38.5t-20 -42.5t-23 -33z" />
    <glyph glyph-name="Dcroat" unicode="&#x110;" horiz-adv-x="695" 
d="M177 355v-100h149q22 0 34 13t12 39q0 16 -4.5 28.5t-9.5 19.5h-181zM216 255v100h-161q-21 0 -33 -12.5t-12 -39.5q0 -15 4 -27.5t10 -20.5h192zM521 306q0 -107 -52 -161.5t-146 -54.5q-21 0 -43.5 1.5t-39.5 5.5v415q17 3 36.5 4.5t42.5 1.5q58 0 103.5 -22.5t72 -69
t26.5 -120.5zM650 308q0 106 -42 175t-117.5 103.5t-176.5 34.5q-39 0 -82 -4t-80 -15q-18 -6 -28 -16t-10 -29v-491q0 -42 48 -59q38 -13 83.5 -16.5t77.5 -3.5q99 0 172.5 35t114 106.5t40.5 179.5z" />
    <glyph glyph-name="dcroat" unicode="&#x111;" horiz-adv-x="570" 
d="M534 528h-245q-4 7 -7 17t-3 21q0 38 34 38h245q3 -5 7 -14.5t4 -21.5q0 -40 -35 -40zM377 104v314h123v-327q0 -22 -9.5 -36.5t-30.5 -27.5q-24 -16 -65.5 -28.5t-94.5 -12.5q-79 0 -137.5 26.5t-90.5 82t-32 140.5q0 87 32.5 143t87.5 82.5t122 26.5q37 0 67.5 -9
t49.5 -21v-105q-16 15 -42 26t-60 11q-37 0 -67 -15.5t-47 -50t-17 -89.5q0 -78 36 -114t97 -36q27 0 46 6t32 14zM500 393l-123 -1v273q7 2 22.5 5t32.5 3q36 0 52 -12.5t16 -44.5v-223z" />
    <glyph glyph-name="Emacron" unicode="&#x112;" horiz-adv-x="545" 
d="M83 402h124v-395q-7 -2 -23 -5t-33 -3q-31 0 -49.5 18.5t-18.5 48.5v336zM207 206l-124 1v333q0 31 18.5 49t49.5 18q17 0 33 -3t23 -5v-393zM151 260v100h301q5 -7 9.5 -20t4.5 -28q0 -26 -12 -39t-33 -13h-270zM151 -1v101h336q4 -7 8.5 -20t4.5 -29q0 -26 -12 -39
t-33 -13h-304zM151 505v102h331q5 -7 9 -20t4 -28q0 -26 -11.5 -40t-33.5 -14h-299zM402 691h-246q-4 9 -8.5 21t-4.5 26q0 26 12 37t31 11h246q6 -8 9 -20.5t3 -25.5q0 -27 -11 -38t-31 -11z" />
    <glyph glyph-name="emacron" unicode="&#x113;" horiz-adv-x="533" 
d="M118 174l-5 86l268 40q-3 38 -29 66t-76 28q-51 0 -85 -35.5t-35 -101.5l3 -52q9 -64 49.5 -94t102.5 -30q42 0 78 12.5t57 27.5q14 -9 22.5 -22.5t8.5 -29.5q0 -26 -23 -44.5t-62 -28.5t-89 -10q-77 0 -136.5 28.5t-93 85.5t-33.5 142q0 61 19 107t51.5 76.5t75.5 46
t90 15.5q66 0 115.5 -26.5t78 -73.5t28.5 -108q0 -28 -14.5 -41.5t-40.5 -16.5zM384 567h-246q-4 9 -8.5 21t-4.5 26q0 26 12 37t31 11h246q6 -8 9 -20.5t3 -25.5q0 -27 -11 -38t-31 -11z" />
    <glyph glyph-name="Ebreve" unicode="&#x114;" horiz-adv-x="545" 
d="M83 402h124v-395q-7 -2 -23 -5t-33 -3q-31 0 -49.5 18.5t-18.5 48.5v336zM207 206l-124 1v333q0 31 18.5 49t49.5 18q17 0 33 -3t23 -5v-393zM151 260v100h301q5 -7 9.5 -20t4.5 -28q0 -26 -12 -39t-33 -13h-270zM151 -1v101h336q4 -7 8.5 -20t4.5 -29q0 -26 -12 -39
t-33 -13h-304zM151 505v102h331q5 -7 9 -20t4 -28q0 -26 -11.5 -40t-33.5 -14h-299zM299 760q32 0 51.5 16t24.5 43q5 1 9 1.5t9 0.5q28 0 42.5 -16t14.5 -39q0 -37 -38.5 -66.5t-112.5 -29.5t-112 29.5t-38 66.5q0 23 14.5 39t42.5 16q5 0 9.5 -0.5t7.5 -1.5q5 -27 25 -43
t51 -16z" />
    <glyph glyph-name="ebreve" unicode="&#x115;" horiz-adv-x="533" 
d="M118 174l-5 86l268 40q-3 38 -29 66t-76 28q-51 0 -85 -35.5t-35 -101.5l3 -52q9 -64 49.5 -94t102.5 -30q42 0 78 12.5t57 27.5q14 -9 22.5 -22.5t8.5 -29.5q0 -26 -23 -44.5t-62 -28.5t-89 -10q-77 0 -136.5 28.5t-93 85.5t-33.5 142q0 61 19 107t51.5 76.5t75.5 46
t90 15.5q66 0 115.5 -26.5t78 -73.5t28.5 -108q0 -28 -14.5 -41.5t-40.5 -16.5zM280 637q32 0 51.5 16t24.5 43q5 1 9 1.5t9 0.5q28 0 42.5 -16t14.5 -39q0 -37 -38.5 -66.5t-112.5 -29.5t-112 29.5t-38 66.5q0 23 14.5 39t42.5 16q5 0 9.5 -0.5t7.5 -1.5q5 -27 25 -43
t51 -16z" />
    <glyph glyph-name="Edotaccent" unicode="&#x116;" horiz-adv-x="545" 
d="M83 402h124v-395q-7 -2 -23 -5t-33 -3q-31 0 -49.5 18.5t-18.5 48.5v336zM207 206l-124 1v333q0 31 18.5 49t49.5 18q17 0 33 -3t23 -5v-393zM151 260v100h301q5 -7 9.5 -20t4.5 -28q0 -26 -12 -39t-33 -13h-270zM151 -1v101h336q4 -7 8.5 -20t4.5 -29q0 -26 -12 -39
t-33 -13h-304zM151 505v102h331q5 -7 9 -20t4 -28q0 -26 -11.5 -40t-33.5 -14h-299zM375 744q0 -29 -19.5 -48t-50.5 -19q-30 0 -49.5 19t-19.5 48q0 30 19 49t50 19q32 0 51 -19t19 -49z" />
    <glyph glyph-name="edotaccent" unicode="&#x117;" horiz-adv-x="533" 
d="M118 174l-5 86l268 40q-3 38 -29 66t-76 28q-51 0 -85 -35.5t-35 -101.5l3 -52q9 -64 49.5 -94t102.5 -30q42 0 78 12.5t57 27.5q14 -9 22.5 -22.5t8.5 -29.5q0 -26 -23 -44.5t-62 -28.5t-89 -10q-77 0 -136.5 28.5t-93 85.5t-33.5 142q0 61 19 107t51.5 76.5t75.5 46
t90 15.5q66 0 115.5 -26.5t78 -73.5t28.5 -108q0 -28 -14.5 -41.5t-40.5 -16.5zM347 619q0 -29 -19.5 -48t-50.5 -19q-30 0 -49.5 19t-19.5 48q0 30 19 49t50 19q32 0 51 -19t19 -49z" />
    <glyph glyph-name="Eogonek" unicode="&#x118;" horiz-adv-x="545" 
d="M83 402h124v-395q-7 -2 -23 -5t-33 -3q-31 0 -49.5 18.5t-18.5 48.5v336zM207 206l-124 1v333q0 31 18.5 49t49.5 18q17 0 33 -3t23 -5v-393zM151 260v100h301q5 -7 9.5 -20t4.5 -28q0 -26 -12 -39t-33 -13h-270zM151 -1v101h336q4 -7 8.5 -20t4.5 -29q0 -26 -12 -39
t-33 -13h-304zM151 505v102h331q5 -7 9 -20t4 -28q0 -26 -11.5 -40t-33.5 -14h-299zM380 12l91 -4q-18 -11 -31 -26.5t-13 -39.5t15.5 -36.5t42.5 -12.5h10q3 -7 5 -15t2 -17q0 -22 -15.5 -38t-55.5 -16q-49 0 -82.5 26.5t-33.5 74.5q0 28 10.5 48.5t26 34.5t28.5 21z" />
    <glyph glyph-name="eogonek" unicode="&#x119;" horiz-adv-x="533" 
d="M118 174l-5 86l268 40q-3 38 -29 66t-76 28q-51 0 -85 -35.5t-35 -101.5l3 -52q9 -64 49.5 -94t102.5 -30q42 0 78 12.5t57 27.5q14 -9 22.5 -22.5t8.5 -29.5q0 -26 -23 -44.5t-62 -28.5t-89 -10q-77 0 -136.5 28.5t-93 85.5t-33.5 142q0 61 19 107t51.5 76.5t75.5 46
t90 15.5q66 0 115.5 -26.5t78 -73.5t28.5 -108q0 -28 -14.5 -41.5t-40.5 -16.5zM327 12l91 -4q-18 -11 -31 -26.5t-13 -39.5t15.5 -36.5t42.5 -12.5h10q3 -7 5 -15t2 -17q0 -22 -15.5 -38t-55.5 -16q-49 0 -82.5 26.5t-33.5 74.5q0 28 10.5 48.5t26 34.5t28.5 21z" />
    <glyph glyph-name="Ecaron" unicode="&#x11a;" horiz-adv-x="545" 
d="M83 402h124v-395q-7 -2 -23 -5t-33 -3q-31 0 -49.5 18.5t-18.5 48.5v336zM207 206l-124 1v333q0 31 18.5 49t49.5 18q17 0 33 -3t23 -5v-393zM151 260v100h301q5 -7 9.5 -20t4.5 -28q0 -26 -12 -39t-33 -13h-270zM151 -1v101h336q4 -7 8.5 -20t4.5 -29q0 -26 -12 -39
t-33 -13h-304zM151 505v102h331q5 -7 9 -20t4 -28q0 -26 -11.5 -40t-33.5 -14h-299zM301 741q24 23 47 45.5t45 43.5q24 -1 41 -14t17 -34q0 -16 -8.5 -28.5t-28.5 -27.5l-44 -42q-20 -15 -35 -22t-34 -7q-22 0 -38.5 8.5t-31.5 24.5l-83 82q0 27 13 42t36 15q15 0 29 -8
t34 -31z" />
    <glyph glyph-name="ecaron" unicode="&#x11b;" horiz-adv-x="533" 
d="M118 174l-5 86l268 40q-3 38 -29 66t-76 28q-51 0 -85 -35.5t-35 -101.5l3 -52q9 -64 49.5 -94t102.5 -30q42 0 78 12.5t57 27.5q14 -9 22.5 -22.5t8.5 -29.5q0 -26 -23 -44.5t-62 -28.5t-89 -10q-77 0 -136.5 28.5t-93 85.5t-33.5 142q0 61 19 107t51.5 76.5t75.5 46
t90 15.5q66 0 115.5 -26.5t78 -73.5t28.5 -108q0 -28 -14.5 -41.5t-40.5 -16.5zM233 672l49 -54l88 91q30 -1 47 -14.5t17 -35.5q0 -16 -9.5 -27.5t-26.5 -27.5l-55 -51q-14 -13 -29 -19t-32 -6q-13 0 -24.5 3t-23 11.5t-28.5 23.5l-80 79q-2 14 2.5 28.5t16 24t28.5 9.5
t29 -7t31 -28z" />
    <glyph glyph-name="Gcircumflex" unicode="&#x11c;" horiz-adv-x="651" 
d="M591 295v-212q0 -24 -10.5 -38t-33.5 -26q-26 -14 -74.5 -24t-97.5 -10q-95 0 -169.5 33.5t-117.5 104t-43 180.5q0 106 44 177t117.5 107t162.5 36q60 0 104.5 -13t69 -34t24.5 -46q0 -19 -10.5 -34t-23.5 -23q-27 17 -64 31.5t-91 14.5q-58 0 -104.5 -25t-72.5 -73.5
t-26 -117.5q0 -74 26 -121.5t72 -70.5t104 -23q29 0 53.5 5t38.5 12v142h-130q-4 7 -8.5 20.5t-4.5 27.5q0 27 12 39.5t33 12.5h168q23 0 37.5 -14t14.5 -38zM350 743l-43.5 -43.5t-49.5 -45.5q-24 1 -39.5 14t-15.5 34q0 16 8.5 28t27.5 27l44 42q38 31 69 31q21 0 37 -8
t33 -26l82 -87q0 -25 -14 -38.5t-37 -13.5q-16 0 -29 9t-32 30z" />
    <glyph glyph-name="gcircumflex" unicode="&#x11d;" horiz-adv-x="551" 
d="M261 17q-59 0 -109 22.5t-80 74.5t-30 137q0 78 30.5 130.5t86 79t127.5 26.5q51 0 94.5 -13t69.5 -30q17 -11 27.5 -26.5t10.5 -37.5v-312h-120v301q-13 8 -32 14t-47 6q-55 0 -89.5 -34t-34.5 -104q0 -77 33.5 -108t82.5 -31q38 0 61.5 13t39.5 28l4 -100
q-18 -14 -49.5 -25t-75.5 -11zM370 -3v98h118v-102q0 -68 -31 -110.5t-84.5 -62.5t-119.5 -20q-52 0 -90.5 10t-56.5 21q-33 20 -33 55q0 18 8 32t19 21q25 -16 62.5 -28t79.5 -12q60 0 94 23.5t34 74.5zM337 558l-53 64q-25 -29 -44.5 -50t-40.5 -45q-28 1 -45.5 14
t-17.5 34q0 15 9 26.5t24 26.5l48 51q16 15 31.5 23.5t36.5 8.5t37 -8t35 -31l78 -93q0 -21 -12 -35.5t-37 -14.5q-15 0 -26.5 8t-22.5 21z" />
    <glyph glyph-name="Gbreve" unicode="&#x11e;" horiz-adv-x="651" 
d="M591 295v-212q0 -24 -10.5 -38t-33.5 -26q-26 -14 -74.5 -24t-97.5 -10q-95 0 -169.5 33.5t-117.5 104t-43 180.5q0 106 44 177t117.5 107t162.5 36q60 0 104.5 -13t69 -34t24.5 -46q0 -19 -10.5 -34t-23.5 -23q-27 17 -64 31.5t-91 14.5q-58 0 -104.5 -25t-72.5 -73.5
t-26 -117.5q0 -74 26 -121.5t72 -70.5t104 -23q29 0 53.5 5t38.5 12v142h-130q-4 7 -8.5 20.5t-4.5 27.5q0 27 12 39.5t33 12.5h168q23 0 37.5 -14t14.5 -38zM344 760q32 0 51.5 16t24.5 43q5 1 9 1.5t9 0.5q28 0 42.5 -16t14.5 -39q0 -37 -38.5 -66.5t-112.5 -29.5
t-112 29.5t-38 66.5q0 23 14.5 39t42.5 16q5 0 9.5 -0.5t7.5 -1.5q5 -27 25 -43t51 -16z" />
    <glyph glyph-name="gbreve" unicode="&#x11f;" horiz-adv-x="551" 
d="M261 17q-59 0 -109 22.5t-80 74.5t-30 137q0 78 30.5 130.5t86 79t127.5 26.5q51 0 94.5 -13t69.5 -30q17 -11 27.5 -26.5t10.5 -37.5v-312h-120v301q-13 8 -32 14t-47 6q-55 0 -89.5 -34t-34.5 -104q0 -77 33.5 -108t82.5 -31q38 0 61.5 13t39.5 28l4 -100
q-18 -14 -49.5 -25t-75.5 -11zM370 -3v98h118v-102q0 -68 -31 -110.5t-84.5 -62.5t-119.5 -20q-52 0 -90.5 10t-56.5 21q-33 20 -33 55q0 18 8 32t19 21q25 -16 62.5 -28t79.5 -12q60 0 94 23.5t34 74.5zM278 637q32 0 51.5 16t24.5 43q5 1 9 1.5t9 0.5q28 0 42.5 -16
t14.5 -39q0 -37 -38.5 -66.5t-112.5 -29.5t-112 29.5t-38 66.5q0 23 14.5 39t42.5 16q5 0 9.5 -0.5t7.5 -1.5q5 -27 25 -43t51 -16z" />
    <glyph glyph-name="Gdotaccent" unicode="&#x120;" horiz-adv-x="651" 
d="M591 295v-212q0 -24 -10.5 -38t-33.5 -26q-26 -14 -74.5 -24t-97.5 -10q-95 0 -169.5 33.5t-117.5 104t-43 180.5q0 106 44 177t117.5 107t162.5 36q60 0 104.5 -13t69 -34t24.5 -46q0 -19 -10.5 -34t-23.5 -23q-27 17 -64 31.5t-91 14.5q-58 0 -104.5 -25t-72.5 -73.5
t-26 -117.5q0 -74 26 -121.5t72 -70.5t104 -23q29 0 53.5 5t38.5 12v142h-130q-4 7 -8.5 20.5t-4.5 27.5q0 27 12 39.5t33 12.5h168q23 0 37.5 -14t14.5 -38zM433 744q0 -29 -19.5 -48t-50.5 -19q-30 0 -49.5 19t-19.5 48q0 30 19 49t50 19q32 0 51 -19t19 -49z" />
    <glyph glyph-name="gdotaccent" unicode="&#x121;" horiz-adv-x="551" 
d="M261 17q-59 0 -109 22.5t-80 74.5t-30 137q0 78 30.5 130.5t86 79t127.5 26.5q51 0 94.5 -13t69.5 -30q17 -11 27.5 -26.5t10.5 -37.5v-312h-120v301q-13 8 -32 14t-47 6q-55 0 -89.5 -34t-34.5 -104q0 -77 33.5 -108t82.5 -31q38 0 61.5 13t39.5 28l4 -100
q-18 -14 -49.5 -25t-75.5 -11zM370 -3v98h118v-102q0 -68 -31 -110.5t-84.5 -62.5t-119.5 -20q-52 0 -90.5 10t-56.5 21q-33 20 -33 55q0 18 8 32t19 21q25 -16 62.5 -28t79.5 -12q60 0 94 23.5t34 74.5zM351 619q0 -29 -19.5 -48t-50.5 -19q-30 0 -49.5 19t-19.5 48
q0 30 19 49t50 19q32 0 51 -19t19 -49z" />
    <glyph glyph-name="uni0122" unicode="&#x122;" horiz-adv-x="651" 
d="M591 295v-212q0 -24 -10.5 -38t-33.5 -26q-26 -14 -74.5 -24t-97.5 -10q-95 0 -169.5 33.5t-117.5 104t-43 180.5q0 106 44 177t117.5 107t162.5 36q60 0 104.5 -13t69 -34t24.5 -46q0 -19 -10.5 -34t-23.5 -23q-27 17 -64 31.5t-91 14.5q-58 0 -104.5 -25t-72.5 -73.5
t-26 -117.5q0 -74 26 -121.5t72 -70.5t104 -23q29 0 53.5 5t38.5 12v142h-130q-4 7 -8.5 20.5t-4.5 27.5q0 27 12 39.5t33 12.5h168q23 0 37.5 -14t14.5 -38zM363 -212q-12 -13 -26.5 -19t-31.5 -6q-29 0 -47 18q18 38 29 76.5t15 71.5q12 6 27 10t31 4q23 0 38.5 -10
t15.5 -31q0 -16 -8 -38t-20 -42.5t-23 -33.5z" />
    <glyph glyph-name="uni0123" unicode="&#x123;" horiz-adv-x="551" 
d="M274 689q12 14 25.5 19.5t28.5 5.5q14 0 28 -5.5t23 -12.5q-18 -38 -29 -75.5t-16 -72.5q-11 -6 -25 -10t-29 -4q-25 0 -40.5 9t-15.5 26q0 19 7.5 42t19 44.5t23.5 33.5zM261 17q-59 0 -109 22.5t-80 74.5t-30 137q0 78 30.5 130.5t86 79t127.5 26.5q51 0 94.5 -13
t69.5 -30q17 -11 27.5 -26.5t10.5 -37.5v-312h-120v301q-13 8 -32.5 14t-46.5 6q-55 0 -89.5 -34t-34.5 -104q0 -77 33.5 -108t82.5 -31q38 0 61.5 13t39.5 28l4 -100q-19 -14 -50 -25t-75 -11zM370 -3v98h118v-102q0 -68 -31 -110.5t-84.5 -62.5t-119.5 -20q-52 0 -90.5 10
t-56.5 21q-33 20 -33 55q0 18 8 32t19 21q25 -16 62.5 -28t79.5 -12q60 0 94 23.5t34 74.5z" />
    <glyph glyph-name="Hcircumflex" unicode="&#x124;" horiz-adv-x="658" 
d="M85 400h127v-398q-8 -3 -24.5 -5.5t-34.5 -2.5q-36 0 -52 13.5t-16 45.5v347zM212 255h-127v352q9 2 25.5 5t33.5 3q36 0 52 -12.5t16 -46.5v-301zM467 400h126v-398q-8 -3 -24.5 -5.5t-33.5 -2.5q-37 0 -52.5 13.5t-15.5 45.5v347zM593 255h-126v352q8 2 24.5 5t33.5 3
q36 0 52 -13t16 -47v-300zM537 255h-390v101h390v-101zM332 743l-43.5 -43.5t-49.5 -45.5q-24 1 -39.5 14t-15.5 34q0 16 8.5 28t27.5 27l44 42q38 31 69 31q21 0 37 -8t33 -26l82 -87q0 -25 -14 -38.5t-37 -13.5q-16 0 -29 9t-32 30z" />
    <glyph glyph-name="hcircumflex" unicode="&#x125;" horiz-adv-x="570" 
d="M503 202h-123v90q0 51 -27.5 74t-69.5 23q-34 0 -62.5 -13t-49.5 -30l-7 100q23 14 59 27.5t81 13.5q90 0 144.5 -47t54.5 -142v-96zM66 264h123v-262q-8 -3 -23 -5.5t-33 -2.5q-34 0 -50.5 12.5t-16.5 44.5v213zM380 263h123v-261q-8 -3 -23.5 -5.5t-32.5 -2.5
q-35 0 -51 12.5t-16 44.5v212zM189 201h-123v449q8 2 23 5t33 3q35 0 51 -12.5t16 -44.5v-400zM120 750l-43.5 -43.5t-49.5 -45.5q-24 1 -39.5 14t-15.5 34q0 16 8.5 28t27.5 27l44 42q38 31 69 31q21 0 37 -8t33 -26l82 -87q0 -25 -14 -38.5t-37 -13.5q-16 0 -29 9t-32 30z
" />
    <glyph glyph-name="Hbar" unicode="&#x126;" horiz-adv-x="677" 
d="M619 434h-586q-3 6 -7 16t-4 21q0 39 35 39h587q3 -5 6.5 -15t3.5 -22q0 -21 -9 -30t-26 -9zM87 400h126v-398q-8 -3 -24 -5.5t-34 -2.5q-37 0 -52.5 13.5t-15.5 45.5v347zM213 255h-126v352q8 2 25 5t33 3q36 0 52 -12.5t16 -46.5v-301zM468 400h126v-398
q-8 -3 -24 -5.5t-34 -2.5q-37 0 -52.5 13.5t-15.5 45.5v347zM594 255h-126v352q8 2 25 5t33 3q36 0 52 -13t16 -47v-300zM539 255h-391v101h391v-101z" />
    <glyph glyph-name="hbar" unicode="&#x127;" horiz-adv-x="574" 
d="M37 604h245q4 -6 7.5 -15.5t3.5 -21.5q0 -39 -35 -39h-245q-3 6 -6.5 15.5t-3.5 21.5q0 39 34 39zM503 202h-123v90q0 51 -27.5 74t-69.5 23q-34 0 -62.5 -13t-49.5 -30l-7 100q23 14 59 27.5t81 13.5q90 0 144.5 -47t54.5 -142v-96zM66 264h123v-262q-8 -3 -23 -5.5
t-33 -2.5q-34 0 -50.5 12.5t-16.5 44.5v213zM380 263h123v-261q-8 -3 -23.5 -5.5t-32.5 -2.5q-35 0 -51 12.5t-16 44.5v212zM189 201h-123v464q8 2 23 5t33 3q35 0 51 -12.5t16 -44.5v-415z" />
    <glyph glyph-name="Itilde" unicode="&#x128;" horiz-adv-x="283" 
d="M78 401h126v-399q-8 -3 -24 -5.5t-34 -2.5q-36 0 -52 13.5t-16 45.5v348zM204 255h-126v352q8 2 25 5t34 3q35 0 51 -12.5t16 -46.5v-301zM56 814q28 0 52.5 -8t45.5 -16t37 -8q20 0 30 12t15 25h5q25 0 43 -15.5t18 -42.5q0 -36 -23.5 -55t-61.5 -19q-30 0 -54.5 8
t-45 16t-36.5 8q-20 0 -29.5 -12t-14.5 -25h-5q-25 0 -43.5 15t-18.5 43q0 25 12.5 41t32.5 24.5t41 8.5z" />
    <glyph glyph-name="itilde" unicode="&#x129;" horiz-adv-x="261" 
d="M68 302h124v-303q-8 -2 -23 -4.5t-32 -2.5q-35 0 -52 13t-17 45v252zM192 253h-124v216q8 2 23 4.5t33 2.5q35 0 51.5 -13t16.5 -45v-165zM49 682q28 0 52 -8t45 -16t37 -8q20 0 30.5 12t14.5 25h5q25 0 43.5 -15.5t18.5 -42.5q0 -36 -24 -55t-61 -19q-30 0 -55 8t-45 16
t-37 8q-20 0 -29.5 -12t-14.5 -25h-5q-24 0 -42.5 15t-18.5 43q0 25 12 41t32.5 24.5t41.5 8.5z" />
    <glyph glyph-name="Imacron" unicode="&#x12a;" horiz-adv-x="283" 
d="M78 401h126v-399q-8 -3 -24 -5.5t-34 -2.5q-36 0 -52 13.5t-16 45.5v348zM204 255h-126v352q8 2 25 5t34 3q35 0 51 -12.5t16 -46.5v-301zM246 691h-246q-4 9 -8.5 21t-4.5 26q0 26 12 37t31 11h246q6 -8 9 -20.5t3 -25.5q0 -27 -11 -38t-31 -11z" />
    <glyph glyph-name="imacron" unicode="&#x12b;" horiz-adv-x="261" 
d="M68 302h124v-303q-8 -2 -23 -4.5t-32 -2.5q-35 0 -52 13t-17 45v252zM192 253h-124v216q8 2 23 4.5t33 2.5q35 0 51.5 -13t16.5 -45v-165zM236 567h-245q-4 9 -9 21t-5 26q0 26 12 37t31 11h246q6 -8 9.5 -20.5t3.5 -25.5q0 -27 -11.5 -38t-31.5 -11z" />
    <glyph glyph-name="Ibreve" unicode="&#x12c;" horiz-adv-x="283" 
d="M78 401h126v-399q-8 -3 -24 -5.5t-34 -2.5q-36 0 -52 13.5t-16 45.5v348zM204 255h-126v352q8 2 25 5t34 3q35 0 51 -12.5t16 -46.5v-301zM140 754q32 0 51.5 16t24.5 43q5 1 9 1.5t9 0.5q28 0 42.5 -16t14.5 -39q0 -37 -38.5 -66.5t-112.5 -29.5t-112 29.5t-38 66.5
q0 23 14.5 39t42.5 16q5 0 9.5 -0.5t7.5 -1.5q5 -27 25 -43t51 -16z" />
    <glyph glyph-name="ibreve" unicode="&#x12d;" horiz-adv-x="261" 
d="M68 302h124v-301q-8 -2 -23 -4.5t-32 -2.5q-35 0 -52 13t-17 44v251zM192 253h-124v219q8 3 23 5t33 2q35 0 51.5 -12.5t16.5 -44.5v-169zM130 637q32 0 51.5 16t24.5 43q5 1 9 1.5t9 0.5q28 0 42.5 -16t14.5 -39q0 -37 -38.5 -66.5t-112.5 -29.5t-112 29.5t-38 66.5
q0 23 14.5 39t42.5 16q5 0 9.5 -0.5t7.5 -1.5q5 -27 25 -43t51 -16z" />
    <glyph glyph-name="Iogonek" unicode="&#x12e;" horiz-adv-x="283" 
d="M129 14l75 -12q-29 -25 -29 -58q0 -25 15.5 -39t38.5 -14h20q7 -15 7 -32q0 -27 -19 -42.5t-54 -15.5q-54 0 -87 32t-33 80q0 37 18.5 62t47.5 39zM78 401h126v-399q-8 -3 -24 -5.5t-34 -2.5q-36 0 -52 13.5t-16 45.5v348zM204 255h-126v352q8 2 25 5t34 3q35 0 51 -12.5
t16 -46.5v-301z" />
    <glyph glyph-name="iogonek" unicode="&#x12f;" horiz-adv-x="261" 
d="M110 12l82 -10q-14 -10 -25 -24t-11 -36q0 -24 15.5 -36.5t43.5 -12.5h10q3 -7 5 -15t2 -17q0 -22 -16 -38t-56 -16q-48 0 -82 26.5t-34 74.5q0 28 11 48.5t26.5 34.5t28.5 21zM58 614q0 29 20.5 49t51.5 20q32 0 51.5 -20t19.5 -49q0 -28 -19.5 -48.5t-51.5 -20.5
q-31 0 -51.5 20.5t-20.5 48.5zM68 264h124v-262q-8 -3 -23 -5.5t-33 -2.5q-34 0 -51 12.5t-17 44.5v213zM192 201h-124v268q8 3 23.5 5.5t33.5 2.5q35 0 51 -12.5t16 -45.5v-218z" />
    <glyph glyph-name="Idotaccent" unicode="&#x130;" horiz-adv-x="283" 
d="M78 401h126v-399q-8 -3 -24 -5.5t-34 -2.5q-36 0 -52 13.5t-16 45.5v348zM204 255h-126v352q8 2 25 5t34 3q35 0 51 -12.5t16 -46.5v-301zM208 744q0 -29 -19.5 -48t-50.5 -19q-30 0 -49.5 19t-19.5 48q0 30 19 49t50 19q32 0 51 -19t19 -49z" />
    <glyph glyph-name="dotlessi" unicode="&#x131;" horiz-adv-x="261" 
d="M68 302h124v-301q-8 -2 -23 -4.5t-32 -2.5q-35 0 -52 13t-17 44v251zM192 253h-124v219q8 3 23 5t33 2q35 0 51.5 -12.5t16.5 -44.5v-169z" />
    <glyph glyph-name="IJ" unicode="&#x132;" horiz-adv-x="681" 
d="M78 401h126v-399q-8 -3 -24 -5.5t-34 -2.5q-36 0 -52 13.5t-16 45.5v348zM204 255h-126v352q8 2 25 5t34 3q35 0 51 -12.5t16 -46.5v-301zM479 289h126v-126q0 -59 -23 -98.5t-63.5 -58.5t-94.5 -19t-86 16.5t-32 51.5q0 17 6 29.5t12 19.5q17 -6 34.5 -9.5t36.5 -3.5
q43 0 63.5 20.5t20.5 64.5v113zM605 240h-126v367q8 2 25 5t33 3q35 0 51.5 -12.5t16.5 -46.5v-316z" />
    <glyph glyph-name="ij" unicode="&#x133;" horiz-adv-x="525" 
d="M58 614q0 29 20.5 49t51.5 20q32 0 51.5 -20t19.5 -49q0 -28 -19.5 -48.5t-51.5 -20.5q-31 0 -51.5 20.5t-20.5 48.5zM68 264h124v-262q-8 -3 -23 -5.5t-33 -2.5q-34 0 -51 12.5t-17 44.5v213zM192 201h-124v268q8 3 23.5 5.5t33.5 2.5q35 0 51 -12.5t16 -45.5v-218z
M261 -125q24 12 40 25t24 34t8 54v281h124v-297q0 -61 -20 -97.5t-49 -53t-58 -16.5q-33 0 -50.5 20.5t-18.5 49.5zM321 614q0 29 20.5 49t51.5 20t51 -20t20 -49q0 -28 -20 -48.5t-51 -20.5t-51.5 20.5t-20.5 48.5zM457 195l-124 6v268q8 3 23.5 5.5t33.5 2.5
q35 0 51 -12.5t16 -45.5v-224z" />
    <glyph glyph-name="Jcircumflex" unicode="&#x134;" horiz-adv-x="391" 
d="M191 289h126v-126q0 -59 -23 -98.5t-63.5 -58.5t-94.5 -19t-86 16.5t-32 51.5q0 17 6 29.5t12 19.5q17 -6 34.5 -9.5t36.5 -3.5q43 0 63.5 20.5t20.5 64.5v113zM317 240h-126v367q8 2 25 5t33 3q35 0 51.5 -12.5t16.5 -46.5v-316zM250 743l-43.5 -43.5t-49.5 -45.5
q-24 1 -39.5 14t-15.5 34q0 16 8.5 28t27.5 27l44 42q38 31 69 31q21 0 37 -8t33 -26l82 -87q0 -25 -14 -38.5t-37 -13.5q-16 0 -29 9t-32 30z" />
    <glyph glyph-name="jcircumflex" unicode="&#x135;" horiz-adv-x="262" 
d="M3 -114l23 13q25 13 34.5 34.5t9.5 55.5v294h124v-306q0 -70 -27 -109q-17 -26 -40.5 -39t-52.5 -13q-32 0 -51 19t-20 51zM194 253h-124v216q8 2 23 4.5t33 2.5q35 0 51.5 -13t16.5 -45v-165zM177 558l-53 64q-24 -29 -44 -50t-40 -45q-29 1 -46 14t-17 34
q0 15 8.5 26.5t23.5 26.5l48 51q16 15 32 23.5t37 8.5q20 0 36.5 -8t35.5 -31l77 -93q0 -21 -11.5 -35.5t-36.5 -14.5q-15 0 -26.5 8t-23.5 21z" />
    <glyph glyph-name="uni0136" unicode="&#x136;" horiz-adv-x="585" 
d="M148 318l131 27q92 -94 162 -167.5t115 -117.5q0 -32 -20.5 -50.5t-47.5 -18.5q-29 0 -48.5 15t-38.5 35zM285 274l-152 1l309 337q46 -1 67 -19t21 -44q0 -19 -9.5 -36t-30.5 -37zM72 403h127v-402q-8 -2 -24.5 -5t-34.5 -3q-36 0 -52 13.5t-16 45.5v351zM199 257h-127
v350q9 2 25.5 5t33.5 3q36 0 52 -12.5t16 -46.5v-299zM310 -212q-12 -13 -26.5 -19t-31.5 -6q-29 0 -47 18q18 38 29 76.5t15 71.5q12 6 27 10t31 4q23 0 38.5 -10t15.5 -31q0 -16 -8 -38t-20 -42.5t-23 -33.5z" />
    <glyph glyph-name="uni0137" unicode="&#x137;" horiz-adv-x="520" 
d="M245 199l-86 57l227 226q37 -1 59 -17.5t22 -42.5q0 -21 -14.5 -38t-43.5 -42zM162 238l95 45l233 -219q-3 -33 -20 -52t-47 -19q-23 0 -42 11.5t-39 35.5zM66 266l123 -6v-258q-8 -3 -23 -5.5t-33 -2.5q-34 0 -50.5 12.5t-16.5 44.5v215zM189 197l-123 6v447q8 2 23 5
t33 3q35 0 51 -12.5t16 -44.5v-404zM291 -212q-12 -13 -26.5 -19t-31.5 -6q-29 0 -47 18q18 38 29 76.5t15 71.5q12 6 27 10t31 4q23 0 38.5 -10t15.5 -31q0 -16 -8 -38t-20 -42.5t-23 -33.5z" />
    <glyph glyph-name="kgreenlandic" unicode="&#x138;" horiz-adv-x="520" 
d="M189 244h-123v228q8 3 23 5t32 2q36 0 52 -12.5t16 -44.5v-178zM243 196l-84 60l232 226q38 -1 60 -17.5t22 -42.5q0 -21 -15 -38t-44 -42zM162 237l92 47l236 -220q-3 -33 -20 -52t-47 -19q-23 0 -42 11.5t-39 35.5zM66 286h123v-284q-8 -3 -23 -5.5t-33 -2.5
q-34 0 -50.5 12.5t-16.5 44.5v235z" />
    <glyph glyph-name="Lacute" unicode="&#x139;" horiz-adv-x="507" 
d="M77 397h127v-390l-59 -8q-31 0 -49.5 18.5t-18.5 48.5v331zM145 -1v104h318q6 -8 10.5 -21t4.5 -29q0 -27 -12.5 -40.5t-33.5 -13.5h-287zM204 255h-127v352q9 2 25.5 5t33.5 3q36 0 52 -12.5t16 -46.5v-301zM113 739l103 93q31 0 48.5 -15.5t17.5 -36.5
q0 -17 -7.5 -29.5t-28.5 -26.5l-92 -68q-29 1 -44.5 14t-15.5 31q0 11 4 20t15 18z" />
    <glyph glyph-name="lacute" unicode="&#x13a;" horiz-adv-x="263" 
d="M106 779l103 93q31 0 48.5 -15.5t17.5 -36.5q0 -17 -7.5 -29.5t-28.5 -26.5l-92 -68q-29 1 -44.5 14t-15.5 31q0 11 4 20t15 18zM70 264l123 -6v-256q-8 -3 -23 -5.5t-33 -2.5q-34 0 -50.5 12.5t-16.5 44.5v213zM193 195l-123 6v449q7 2 22.5 5t32.5 3q36 0 52 -12.5
t16 -44.5v-406z" />
    <glyph glyph-name="uni013B" unicode="&#x13b;" horiz-adv-x="507" 
d="M77 397h127v-390l-59 -8q-31 0 -49.5 18.5t-18.5 48.5v331zM145 -1v104h318q6 -8 10.5 -21t4.5 -29q0 -27 -12.5 -40.5t-33.5 -13.5h-287zM204 255h-127v352q9 2 25.5 5t33.5 3q36 0 52 -12.5t16 -46.5v-301zM285 -212q-12 -13 -26.5 -19t-31.5 -6q-29 0 -47 18
q18 38 29 76.5t15 71.5q12 6 27 10t31 4q23 0 38.5 -10t15.5 -31q0 -16 -8 -38t-20 -42.5t-23 -33.5z" />
    <glyph glyph-name="uni013C" unicode="&#x13c;" horiz-adv-x="264" 
d="M71 264l123 -6v-256q-8 -3 -23 -5.5t-33 -2.5q-34 0 -50.5 12.5t-16.5 44.5v213zM194 195l-123 6v449q7 2 22.5 5t32.5 3q36 0 52 -12.5t16 -44.5v-406zM142 -212q-12 -13 -26.5 -19t-31.5 -6q-29 0 -47 18q18 38 29 76.5t15 71.5q12 6 27 10t31 4q23 0 38.5 -10
t15.5 -31q0 -16 -8 -38t-20 -42.5t-23 -33.5z" />
    <glyph glyph-name="Lcaron" unicode="&#x13d;" horiz-adv-x="507" 
d="M77 397h127v-390l-59 -8q-31 0 -49.5 18.5t-18.5 48.5v331zM145 -1v104h318q6 -8 10.5 -21t4.5 -29q0 -27 -12.5 -40.5t-33.5 -13.5h-287zM204 255h-127v352q9 2 25.5 5t33.5 3q36 0 52 -12.5t16 -46.5v-301zM385 460q-12 -14 -26.5 -19.5t-31.5 -5.5q-29 0 -47 18
q18 38 29 76t15 72q13 6 27.5 9.5t30.5 3.5q24 0 39 -9.5t15 -30.5q0 -16 -8 -38.5t-20 -42.5t-23 -33z" />
    <glyph glyph-name="lcaron" unicode="&#x13e;" horiz-adv-x="389" 
d="M71 264l123 -6v-256q-8 -3 -23 -5.5t-33 -2.5q-34 0 -50.5 12.5t-16.5 44.5v213zM194 195l-123 6v449q7 2 22.5 5t32.5 3q36 0 52 -12.5t16 -44.5v-406zM343 505q-12 -14 -26.5 -19.5t-31.5 -5.5q-29 0 -47 18q18 38 29 76t15 72q13 6 27.5 9.5t30.5 3.5q24 0 39 -9.5
t15 -30.5q0 -16 -8 -38.5t-20 -42.5t-23 -33z" />
    <glyph glyph-name="Ldot" unicode="&#x13f;" horiz-adv-x="507" 
d="M77 397h127v-390l-59 -8q-31 0 -49.5 18.5t-18.5 48.5v331zM145 -1v104h318q6 -8 10.5 -21t4.5 -29q0 -27 -12.5 -40.5t-33.5 -13.5h-287zM204 255h-127v352q9 2 25.5 5t33.5 3q36 0 52 -12.5t16 -46.5v-301zM315 335q0 32 20 54t55 22t55 -22t20 -54t-20 -54t-55 -22
t-55 22t-20 54z" />
    <glyph glyph-name="ldot" unicode="&#x140;" horiz-adv-x="384" 
d="M71 264l123 -6v-256q-8 -3 -23 -5.5t-33 -2.5q-34 0 -50.5 12.5t-16.5 44.5v213zM194 195l-123 6v449q7 2 22.5 5t32.5 3q36 0 52 -12.5t16 -44.5v-406zM250 302q0 32 20 54t55 22t55 -22t20 -54t-20 -54t-55 -22t-55 22t-20 54z" />
    <glyph glyph-name="Lslash" unicode="&#x141;" horiz-adv-x="536" 
d="M369 349l-322 -134q-11 9 -24 25.5t-13 38.5q0 27 28 38l323 133q11 -8 24 -25.5t13 -37.5q0 -14 -7.5 -23.5t-21.5 -14.5zM112 397h127v-390l-59 -8q-31 0 -49.5 18.5t-18.5 48.5v331zM180 -1v104h318q6 -8 10.5 -21t4.5 -29q0 -27 -12.5 -40.5t-33.5 -13.5h-287z
M239 255h-127v352q9 2 25.5 5t33.5 3q35 0 51.5 -12.5t16.5 -46.5v-301z" />
    <glyph glyph-name="lslash" unicode="&#x142;" horiz-adv-x="356" 
d="M319 340l-272 -112q-11 8 -24 25t-13 39q0 27 28 38l272 112q11 -8 23.5 -25.5t12.5 -38.5q0 -14 -7 -23t-20 -15zM117 264l123 -6v-256q-8 -3 -23 -5.5t-33 -2.5q-34 0 -50.5 12.5t-16.5 44.5v213zM240 195l-123 6v449q8 2 23 5t32 3q36 0 52 -12.5t16 -44.5v-406z" />
    <glyph glyph-name="Nacute" unicode="&#x143;" horiz-adv-x="664" 
d="M76 472l113 3q4 -38 6.5 -80t3 -83t0.5 -79v-232q-7 -2 -23.5 -4.5t-32.5 -2.5q-36 0 -51.5 12.5t-15.5 44.5v421zM591 137l-114 -3q-8 77 -9 150.5t-1 142.5v180q9 2 24.5 5t33.5 3q35 0 50.5 -13t15.5 -44v-421zM591 178v-162q-12 -10 -32 -16.5t-46 -6.5
q-31 0 -55.5 10t-41.5 44l-147 263q-12 24 -25.5 50t-25.5 51t-22 46l-120 -28v157q11 14 32.5 21t46.5 7q30 0 55 -10t42 -43l147 -263q13 -24 26.5 -50t25 -51t20.5 -46zM314 739l103 93q31 0 48.5 -15.5t17.5 -36.5q0 -17 -7.5 -29.5t-28.5 -26.5l-92 -68q-29 1 -44.5 14
t-15.5 31q0 11 4 20t15 18z" />
    <glyph glyph-name="nacute" unicode="&#x144;" horiz-adv-x="566" 
d="M501 309v-97h-123v92q0 44 -25 64.5t-67 20.5q-31 0 -55.5 -7.5t-43.5 -17.5v-152h-123v160q0 24 10 39.5t30 28.5q30 20 77.5 33.5t105.5 13.5q101 0 157.5 -45t56.5 -133zM64 261h123v-259q-8 -3 -23 -5.5t-33 -2.5q-34 0 -50.5 12.5t-16.5 44.5v210zM378 261h123v-259
q-7 -3 -22.5 -5.5t-32.5 -2.5q-35 0 -51.5 12.5t-16.5 44.5v210zM257 609l99 109q37 0 56.5 -16.5t19.5 -37.5q0 -18 -8 -30t-27 -29l-93 -83q-31 0 -48.5 15.5t-17.5 33.5q0 11 5 19.5t14 18.5z" />
    <glyph glyph-name="uni0145" unicode="&#x145;" horiz-adv-x="664" 
d="M76 472l113 3q4 -38 6.5 -80t3 -83t0.5 -79v-232q-7 -2 -23.5 -4.5t-32.5 -2.5q-36 0 -51.5 12.5t-15.5 44.5v421zM591 137l-114 -3q-8 77 -9 150.5t-1 142.5v180q9 2 24.5 5t33.5 3q35 0 50.5 -13t15.5 -44v-421zM591 178v-162q-12 -10 -32 -16.5t-46 -6.5
q-31 0 -55.5 10t-41.5 44l-147 263q-12 24 -25.5 50t-25.5 51t-22 46l-120 -28v157q11 14 32.5 21t46.5 7q30 0 55 -10t42 -43l147 -263q13 -24 26.5 -50t25 -51t20.5 -46zM348 -212q-12 -13 -26.5 -19t-31.5 -6q-29 0 -47 18q18 38 29 76.5t15 71.5q12 6 27 10t31 4
q23 0 38.5 -10t15.5 -31q0 -16 -8 -38t-20 -42.5t-23 -33.5z" />
    <glyph glyph-name="uni0146" unicode="&#x146;" horiz-adv-x="566" 
d="M501 309v-97h-123v92q0 44 -25 64.5t-67 20.5q-31 0 -55.5 -7.5t-43.5 -17.5v-152h-123v160q0 24 10 39.5t30 28.5q30 20 77.5 33.5t105.5 13.5q101 0 157.5 -45t56.5 -133zM64 261h123v-259q-8 -3 -23 -5.5t-33 -2.5q-34 0 -50.5 12.5t-16.5 44.5v210zM378 261h123v-259
q-7 -3 -22.5 -5.5t-32.5 -2.5q-35 0 -51.5 12.5t-16.5 44.5v210zM294 -212q-12 -13 -26.5 -19t-31.5 -6q-29 0 -47 18q18 38 29 76.5t15 71.5q12 6 27 10t31 4q23 0 38.5 -10t15.5 -31q0 -16 -8 -38t-20 -42.5t-23 -33.5z" />
    <glyph glyph-name="Ncaron" unicode="&#x147;" horiz-adv-x="664" 
d="M76 472l113 3q4 -38 6.5 -80t3 -83t0.5 -79v-232q-7 -2 -23.5 -4.5t-32.5 -2.5q-36 0 -51.5 12.5t-15.5 44.5v421zM591 137l-114 -3q-8 77 -9 150.5t-1 142.5v180q9 2 24.5 5t33.5 3q35 0 50.5 -13t15.5 -44v-421zM591 178v-162q-12 -10 -32 -16.5t-46 -6.5
q-31 0 -55.5 10t-41.5 44l-147 263q-12 24 -25.5 50t-25.5 51t-22 46l-120 -28v157q11 14 32.5 21t46.5 7q30 0 55 -10t42 -43l147 -263q13 -24 26.5 -50t25 -51t20.5 -46zM340 741q24 23 47 45.5t45 43.5q24 -1 41 -14t17 -34q0 -16 -8.5 -28.5t-28.5 -27.5l-44 -42
q-20 -15 -35 -22t-34 -7q-22 0 -38.5 8.5t-31.5 24.5l-83 82q0 27 13 42t36 15q15 0 29 -8t34 -31z" />
    <glyph glyph-name="ncaron" unicode="&#x148;" horiz-adv-x="566" 
d="M501 309v-97h-123v92q0 44 -25 64.5t-67 20.5q-31 0 -55.5 -7.5t-43.5 -17.5v-152h-123v160q0 24 10 39.5t30 28.5q30 20 77.5 33.5t105.5 13.5q101 0 157.5 -45t56.5 -133zM64 261h123v-259q-8 -3 -23 -5.5t-33 -2.5q-34 0 -50.5 12.5t-16.5 44.5v210zM378 261h123v-259
q-7 -3 -22.5 -5.5t-32.5 -2.5q-35 0 -51.5 12.5t-16.5 44.5v210zM230 672l49 -54l88 91q30 -1 47 -14.5t17 -35.5q0 -16 -9.5 -27.5t-26.5 -27.5l-55 -51q-14 -13 -29 -19t-32 -6q-13 0 -24.5 3t-23 11.5t-28.5 23.5l-80 79q-2 14 2.5 28.5t16 24t28.5 9.5t29 -7t31 -28z
" />
    <glyph glyph-name="napostrophe" unicode="&#x149;" horiz-adv-x="683" 
d="M618 309v-97h-123v92q0 44 -25 64.5t-67 20.5q-31 0 -55.5 -7.5t-43.5 -17.5v-152h-123v160q0 24 10 39.5t30 28.5q30 20 77.5 33.5t105.5 13.5q101 0 157.5 -45t56.5 -133zM181 261h123v-259q-8 -3 -23 -5.5t-33 -2.5q-34 0 -50.5 12.5t-16.5 44.5v210zM495 261h123
v-259q-7 -3 -22.5 -5.5t-32.5 -2.5q-35 0 -51.5 12.5t-16.5 44.5v210zM114 414q-9 -15 -20.5 -22t-29.5 -7q-14 0 -26 3.5t-22 8.5q4 33 8.5 71.5t8 77.5t5.5 71q11 5 26.5 9t31.5 4q24 0 42.5 -11.5t18.5 -39.5q0 -22 -6.5 -54.5t-16.5 -62.5t-20 -48z" />
    <glyph glyph-name="Eng" unicode="&#x14a;" horiz-adv-x="669" 
d="M396 -125q24 12 40 25t24 34t8 54v130h124v-146q0 -61 -20 -97.5t-49 -53t-58 -16.5q-33 0 -50.5 20.5t-18.5 49.5zM77 472l113 3q4 -38 6.5 -80t3 -83t0.5 -79v-232q-7 -2 -23.5 -4.5t-32.5 -2.5q-36 0 -51.5 12.5t-15.5 44.5v421zM592 137l-114 -3q-8 77 -9 150.5
t-1 142.5v180q9 2 24.5 5t33.5 3q35 0 50.5 -13t15.5 -44v-421zM592 178v-162q-12 -10 -32 -16.5t-46 -6.5q-31 0 -55.5 10t-41.5 44l-147 263q-12 24 -25.5 50t-25.5 51t-22 46l-120 -28v157q11 14 32.5 21t46.5 7q30 0 55 -10t42 -43l147 -263q13 -24 26.5 -50t25 -51
t20.5 -46z" />
    <glyph glyph-name="eng" unicode="&#x14b;" horiz-adv-x="566" 
d="M501 309v-97h-123v92q0 44 -25 64.5t-67 20.5q-31 0 -55.5 -7.5t-43.5 -17.5v-152h-123v160q0 24 10 39.5t30 28.5q30 20 77.5 33.5t105.5 13.5q101 0 157.5 -45t56.5 -133zM64 261h123v-259q-8 -3 -23 -5.5t-33 -2.5q-34 0 -50.5 12.5t-16.5 44.5v210zM306 -125
q24 12 40 25t24 34t8 54v260h123v-276q0 -61 -19.5 -97.5t-48.5 -53t-58 -16.5q-34 0 -51 20.5t-18 49.5z" />
    <glyph glyph-name="Omacron" unicode="&#x14c;" horiz-adv-x="696" 
d="M650 304q0 -104 -39.5 -175t-108 -107.5t-155.5 -36.5q-86 0 -154.5 36.5t-108 107.5t-39.5 175t40.5 175t109 107.5t152.5 36.5q86 0 154.5 -36.5t108.5 -107.5t40 -175zM521 304q0 105 -47.5 160t-126.5 55q-77 0 -124.5 -55t-47.5 -160q0 -106 47 -161t126 -55t126 55
t47 161zM452 691h-246q-4 9 -8.5 21t-4.5 26q0 26 12 37t31 11h246q6 -8 9 -20.5t3 -25.5q0 -27 -11 -38t-31 -11z" />
    <glyph glyph-name="omacron" unicode="&#x14d;" horiz-adv-x="569" 
d="M528 237q0 -77 -30 -133.5t-84.5 -87t-128.5 -30.5t-129 30.5t-85.5 86.5t-30.5 134q0 77 31 133t86 86.5t128 30.5t127.5 -30.5t85 -87t30.5 -132.5zM285 389q-55 0 -86.5 -40t-31.5 -112q0 -74 31 -113.5t87 -39.5q55 0 86 40t31 113q0 71 -31 111.5t-86 40.5zM393 567
h-246q-4 9 -8.5 21t-4.5 26q0 26 12 37t31 11h246q6 -8 9 -20.5t3 -25.5q0 -27 -11 -38t-31 -11z" />
    <glyph glyph-name="Obreve" unicode="&#x14e;" horiz-adv-x="696" 
d="M650 304q0 -104 -39.5 -175t-108 -107.5t-155.5 -36.5q-86 0 -154.5 36.5t-108 107.5t-39.5 175t40.5 175t109 107.5t152.5 36.5q86 0 154.5 -36.5t108.5 -107.5t40 -175zM521 304q0 105 -47.5 160t-126.5 55q-77 0 -124.5 -55t-47.5 -160q0 -106 47 -161t126 -55t126 55
t47 161zM347 754q32 0 51.5 16t24.5 43q5 1 9 1.5t9 0.5q28 0 42.5 -16t14.5 -39q0 -37 -38.5 -66.5t-112.5 -29.5t-112 29.5t-38 66.5q0 23 14.5 39t42.5 16q5 0 9.5 -0.5t7.5 -1.5q5 -27 25 -43t51 -16z" />
    <glyph glyph-name="obreve" unicode="&#x14f;" horiz-adv-x="569" 
d="M528 237q0 -77 -30 -133.5t-84.5 -87t-128.5 -30.5t-129 30.5t-85.5 86.5t-30.5 134q0 77 31 133t86 86.5t128 30.5t127.5 -30.5t85 -87t30.5 -132.5zM285 389q-55 0 -86.5 -40t-31.5 -112q0 -74 31 -113.5t87 -39.5q55 0 86 40t31 113q0 71 -31 111.5t-86 40.5zM284 637
q32 0 51.5 16t24.5 43q5 1 9 1.5t9 0.5q28 0 42.5 -16t14.5 -39q0 -37 -38.5 -66.5t-112.5 -29.5t-112 29.5t-38 66.5q0 23 14.5 39t42.5 16q5 0 9.5 -0.5t7.5 -1.5q5 -27 25 -43t51 -16z" />
    <glyph glyph-name="Ohungarumlaut" unicode="&#x150;" horiz-adv-x="696" 
d="M650 304q0 -104 -39.5 -175t-108 -107.5t-155.5 -36.5q-86 0 -154.5 36.5t-108 107.5t-39.5 175t40.5 175t109 107.5t152.5 36.5q86 0 154.5 -36.5t108.5 -107.5t40 -175zM521 304q0 105 -47.5 160t-126.5 55q-77 0 -124.5 -55t-47.5 -160q0 -106 47 -161t126 -55t126 55
t47 161zM215 744l65 87q36 0 54.5 -15.5t18.5 -36.5q0 -18 -8.5 -30t-25.5 -30l-56 -63q-31 0 -47.5 14.5t-16.5 32.5q0 11 4 20t12 21zM407 744l65 87q36 0 54.5 -15.5t18.5 -36.5q0 -18 -9 -30t-25 -30l-56 -63q-31 0 -47.5 14.5t-16.5 32.5q0 11 4 20t12 21z" />
    <glyph glyph-name="ohungarumlaut" unicode="&#x151;" horiz-adv-x="569" 
d="M528 237q0 -77 -30 -133.5t-84.5 -87t-128.5 -30.5t-129 30.5t-85.5 86.5t-30.5 134q0 77 31 133t86 86.5t128 30.5t127.5 -30.5t85 -87t30.5 -132.5zM285 389q-55 0 -86.5 -40t-31.5 -112q0 -74 31 -113.5t87 -39.5q55 0 86 40t31 113q0 71 -31 111.5t-86 40.5zM147 609
l82 109q36 0 55.5 -16t19.5 -37q0 -17 -9 -29t-26 -31l-73 -83q-31 0 -48 15t-17 33q0 11 3.5 19.5t12.5 19.5zM344 609l81 109q36 0 55.5 -16t19.5 -37q0 -17 -8.5 -29t-25.5 -31l-73 -83q-31 0 -48 15t-17 33q0 11 3.5 19.5t12.5 19.5z" />
    <glyph glyph-name="OE" unicode="&#x152;" horiz-adv-x="952" 
d="M490 402h125v-395q-8 -2 -21.5 -5t-30.5 -3q-31 0 -49 18.5t-18 48.5l-6 45v291zM615 206l-125 1v291l6 42q0 31 18 49t49 18q17 0 30.5 -3t21.5 -5v-393zM558 260v100h301q5 -7 9.5 -20t4.5 -28q0 -26 -12 -39t-33 -13h-270zM563 -1v101h330q5 -7 9.5 -20t4.5 -29
q0 -26 -12 -39t-33 -13h-299zM563 505v102h326q5 -7 9 -20t4 -28q0 -26 -11.5 -40t-33.5 -14h-294zM595 304q0 -101 -29.5 -173t-86 -109t-138.5 -37q-85 0 -152 36t-106 107t-39 176q0 104 40 175t107 107.5t151 36.5q58 0 104.5 -20t80 -60t51 -99.5t17.5 -139.5zM519 304
q0 107 -48 161t-129 54q-74 0 -121 -55t-47 -160q0 -106 46.5 -161t122.5 -55q83 0 129.5 55t46.5 161z" />
    <glyph glyph-name="oe" unicode="&#x153;" horiz-adv-x="891" 
d="M508 237q0 -74 -26.5 -131t-77.5 -88.5t-124 -31.5q-74 0 -127.5 30.5t-83 86.5t-29.5 134q0 77 30 133t83.5 86.5t126.5 30.5q72 0 123 -32t78 -88.5t27 -129.5zM285 389q-55 0 -86.5 -40t-31.5 -112q0 -74 31 -113.5t87 -39.5q55 0 86 40t31 113q0 71 -31 111.5
t-86 40.5zM476 174l-5 86l268 40q-3 38 -29 66t-76 28q-52 0 -85.5 -35.5t-34.5 -101.5l3 -52q8 -64 48.5 -94t103.5 -30q42 0 77.5 12.5t57.5 27.5q13 -9 22 -22.5t9 -29.5q0 -26 -23 -44.5t-62 -28.5t-89 -10q-114 0 -180.5 63.5t-66.5 192.5q0 82 29 136.5t79 81.5
t112 27q66 0 115.5 -26.5t78 -73.5t28.5 -108q0 -28 -15 -41.5t-40 -16.5z" />
    <glyph glyph-name="Racute" unicode="&#x154;" horiz-adv-x="599" 
d="M203 313h83q59 0 94 26t35 77q0 50 -35 76t-103 26q-20 0 -39 -1.5t-35 -4.5v-199zM295 214h-218v343q0 18 10.5 28t27.5 16q32 10 75.5 15t88.5 5q132 0 197.5 -54.5t65.5 -149.5q0 -60 -30.5 -106t-85.5 -71.5t-131 -25.5zM278 246l108 31q25 -33 51.5 -66.5t51 -65
t44 -57.5t30.5 -43q-7 -25 -26.5 -39t-42.5 -14q-30 0 -46.5 13.5t-31.5 36.5zM77 258h127v-256q-8 -3 -24.5 -5.5t-34.5 -2.5q-36 0 -52 13.5t-16 45.5v205zM259 739l103 93q31 0 48.5 -15.5t17.5 -36.5q0 -17 -7.5 -29.5t-28.5 -26.5l-92 -68q-29 1 -44.5 14t-15.5 31
q0 11 4 20t15 18z" />
    <glyph glyph-name="racute" unicode="&#x155;" horiz-adv-x="396" 
d="M187 360v-137h-123v147q0 25 12 42.5t34 32.5q30 18 76 30t99 12q94 0 94 -58q0 -14 -4 -25.5t-10 -20.5q-10 2 -25 3.5t-32 1.5q-36 0 -67.5 -7.5t-53.5 -20.5zM64 264l123 -6v-256q-8 -3 -23 -5.5t-33 -2.5q-34 0 -50.5 12.5t-16.5 44.5v213zM179 609l99 109
q37 0 56.5 -16.5t19.5 -37.5q0 -18 -8 -30t-27 -29l-93 -83q-31 0 -48.5 15.5t-17.5 33.5q0 11 5 19.5t14 18.5z" />
    <glyph glyph-name="uni0156" unicode="&#x156;" horiz-adv-x="599" 
d="M203 313h83q59 0 94 26t35 77q0 50 -35 76t-103 26q-20 0 -39 -1.5t-35 -4.5v-199zM295 214h-218v343q0 18 10.5 28t27.5 16q32 10 75.5 15t88.5 5q132 0 197.5 -54.5t65.5 -149.5q0 -60 -30.5 -106t-85.5 -71.5t-131 -25.5zM278 246l108 31q25 -33 51.5 -66.5t51 -65
t44 -57.5t30.5 -43q-7 -25 -26.5 -39t-42.5 -14q-30 0 -46.5 13.5t-31.5 36.5zM77 258h127v-256q-8 -3 -24.5 -5.5t-34.5 -2.5q-36 0 -52 13.5t-16 45.5v205zM326 -212q-12 -13 -26.5 -19t-31.5 -6q-29 0 -47 18q18 38 29 76.5t15 71.5q12 6 27 10t31 4q23 0 38.5 -10
t15.5 -31q0 -16 -8 -38t-20 -42.5t-23 -33.5z" />
    <glyph glyph-name="uni0157" unicode="&#x157;" horiz-adv-x="396" 
d="M187 360v-137h-123v147q0 25 12 42.5t34 32.5q30 18 76 30t99 12q94 0 94 -58q0 -14 -4 -25.5t-10 -20.5q-10 2 -25 3.5t-32 1.5q-36 0 -67.5 -7.5t-53.5 -20.5zM64 264l123 -6v-256q-8 -3 -23 -5.5t-33 -2.5q-34 0 -50.5 12.5t-16.5 44.5v213zM136 -212
q-12 -13 -26.5 -19t-31.5 -6q-29 0 -47 18q18 38 29 76.5t15 71.5q12 6 27 10t31 4q23 0 38.5 -10t15.5 -31q0 -16 -8 -38t-20 -42.5t-23 -33.5z" />
    <glyph glyph-name="Rcaron" unicode="&#x158;" horiz-adv-x="599" 
d="M203 313h83q59 0 94 26t35 77q0 50 -35 76t-103 26q-20 0 -39 -1.5t-35 -4.5v-199zM295 214h-218v343q0 18 10.5 28t27.5 16q32 10 75.5 15t88.5 5q132 0 197.5 -54.5t65.5 -149.5q0 -60 -30.5 -106t-85.5 -71.5t-131 -25.5zM278 246l108 31q25 -33 51.5 -66.5t51 -65
t44 -57.5t30.5 -43q-7 -25 -26.5 -39t-42.5 -14q-30 0 -46.5 13.5t-31.5 36.5zM77 258h127v-256q-8 -3 -24.5 -5.5t-34.5 -2.5q-36 0 -52 13.5t-16 45.5v205zM302 741q24 23 47 45.5t45 43.5q24 -1 41 -14t17 -34q0 -16 -8.5 -28.5t-28.5 -27.5l-44 -42q-20 -15 -35 -22
t-34 -7q-22 0 -38.5 8.5t-31.5 24.5l-83 82q0 27 13 42t36 15q15 0 29 -8t34 -31z" />
    <glyph glyph-name="rcaron" unicode="&#x159;" horiz-adv-x="396" 
d="M187 360v-137h-123v147q0 25 12 42.5t34 32.5q30 18 76 30t99 12q94 0 94 -58q0 -14 -4 -25.5t-10 -20.5q-10 2 -25 3.5t-32 1.5q-36 0 -67.5 -7.5t-53.5 -20.5zM64 264l123 -6v-256q-8 -3 -23 -5.5t-33 -2.5q-34 0 -50.5 12.5t-16.5 44.5v213zM177 672l49 -54l88 91
q30 -1 47 -14.5t17 -35.5q0 -16 -9.5 -27.5t-26.5 -27.5l-55 -51q-14 -13 -29 -19t-32 -6q-13 0 -24.5 3t-23 11.5t-28.5 23.5l-80 79q-2 14 2.5 28.5t16 24t28.5 9.5t29 -7t31 -28z" />
    <glyph glyph-name="Sacute" unicode="&#x15a;" horiz-adv-x="536" 
d="M254 88q58 0 86 23.5t28 58.5q0 31 -21.5 50.5t-65.5 32.5l-65 20q-50 17 -87.5 38t-58 54.5t-20.5 82.5q0 81 60.5 128t165.5 47q56 0 99.5 -11.5t69 -31.5t25.5 -47q0 -19 -9.5 -33.5t-23.5 -23.5q-23 17 -63 29.5t-87 12.5q-52 0 -80 -19t-28 -51q0 -26 19.5 -42
t59.5 -28l58 -17q86 -26 134 -70.5t48 -121.5q0 -82 -62.5 -133t-178.5 -51q-61 0 -108 13t-74.5 36t-27.5 52q0 22 14 38t30 24q26 -22 67 -41t96 -19zM228 739l103 93q31 0 48.5 -15.5t17.5 -36.5q0 -17 -7.5 -29.5t-28.5 -26.5l-92 -68q-29 1 -44.5 14t-15.5 31
q0 11 4 20t15 18z" />
    <glyph glyph-name="sacute" unicode="&#x15b;" horiz-adv-x="469" 
d="M430 134q0 -70 -52 -109.5t-151 -39.5q-80 0 -131 24t-51 64q0 17 8 31.5t21 22.5q28 -18 65 -32t84 -14q85 0 85 52q0 22 -15 35.5t-46 19.5l-57 15q-73 16 -108.5 50t-35.5 91q0 63 52 103.5t144 40.5q48 0 86 -9.5t59.5 -27.5t21.5 -43q0 -17 -7.5 -30.5t-19.5 -20.5
q-12 7 -32.5 15.5t-46.5 14t-52 5.5q-39 0 -61.5 -12.5t-22.5 -35.5q0 -17 13 -29t44 -19l51 -12q81 -19 118 -55.5t37 -94.5zM199 609l99 109q37 0 56.5 -16.5t19.5 -37.5q0 -18 -8 -30t-27 -29l-93 -83q-31 0 -48.5 15.5t-17.5 33.5q0 11 5 19.5t14 18.5z" />
    <glyph glyph-name="Scircumflex" unicode="&#x15c;" horiz-adv-x="536" 
d="M254 88q58 0 86 23.5t28 58.5q0 31 -21.5 50.5t-65.5 32.5l-65 20q-50 17 -87.5 38t-58 54.5t-20.5 82.5q0 81 60.5 128t165.5 47q56 0 99.5 -11.5t69 -31.5t25.5 -47q0 -19 -9.5 -33.5t-23.5 -23.5q-23 17 -63 29.5t-87 12.5q-52 0 -80 -19t-28 -51q0 -26 19.5 -42
t59.5 -28l58 -17q86 -26 134 -70.5t48 -121.5q0 -82 -62.5 -133t-178.5 -51q-61 0 -108 13t-74.5 36t-27.5 52q0 22 14 38t30 24q26 -22 67 -41t96 -19zM274 743l-43.5 -43.5t-49.5 -45.5q-24 1 -39.5 14t-15.5 34q0 16 8.5 28t27.5 27l44 42q38 31 69 31q21 0 37 -8t33 -26
l82 -87q0 -25 -14 -38.5t-37 -13.5q-16 0 -29 9t-32 30z" />
    <glyph glyph-name="scircumflex" unicode="&#x15d;" horiz-adv-x="469" 
d="M430 134q0 -70 -52 -109.5t-151 -39.5q-80 0 -131 24t-51 64q0 17 8 31.5t21 22.5q28 -18 65 -32t84 -14q85 0 85 52q0 22 -15 35.5t-46 19.5l-57 15q-73 16 -108.5 50t-35.5 91q0 63 52 103.5t144 40.5q48 0 86 -9.5t59.5 -27.5t21.5 -43q0 -17 -7.5 -30.5t-19.5 -20.5
q-12 7 -32.5 15.5t-46.5 14t-52 5.5q-39 0 -61.5 -12.5t-22.5 -35.5q0 -17 13 -29t44 -19l51 -12q81 -19 118 -55.5t37 -94.5zM285 558l-53 64q-25 -29 -44.5 -50t-40.5 -45q-28 1 -45.5 14t-17.5 34q0 15 9 26.5t24 26.5l48 51q16 15 31.5 23.5t36.5 8.5t37 -8t35 -31
l78 -93q0 -21 -12 -35.5t-37 -14.5q-15 0 -26.5 8t-22.5 21z" />
    <glyph glyph-name="Scedilla" unicode="&#x15e;" horiz-adv-x="536" 
d="M254 88q58 0 86 23.5t28 58.5q0 31 -21.5 50.5t-65.5 32.5l-65 20q-50 17 -87.5 38t-58 54.5t-20.5 82.5q0 81 60.5 128t165.5 47q56 0 99.5 -11.5t69 -31.5t25.5 -47q0 -19 -9.5 -33.5t-23.5 -23.5q-23 17 -63 29.5t-87 12.5q-52 0 -80 -19t-28 -51q0 -26 19.5 -42
t59.5 -28l58 -17q86 -26 134 -70.5t48 -121.5q0 -82 -62.5 -133t-178.5 -51q-61 0 -108 13t-74.5 36t-27.5 52q0 22 14 38t30 24q26 -22 67 -41t96 -19zM216 3l69 24q33 -20 46.5 -49t13.5 -63q0 -49 -31 -79.5t-83 -30.5q-34 0 -53 14.5t-19 41.5q0 16 5 27h13
q33 0 48 15.5t15 39.5q0 14 -5.5 30.5t-18.5 29.5z" />
    <glyph glyph-name="scedilla" unicode="&#x15f;" horiz-adv-x="469" 
d="M430 134q0 -70 -52 -109.5t-151 -39.5q-80 0 -131 24t-51 64q0 17 8 31.5t21 22.5q28 -18 65 -32t84 -14q85 0 85 52q0 22 -15 35.5t-46 19.5l-57 15q-73 16 -108.5 50t-35.5 91q0 63 52 103.5t144 40.5q48 0 86 -9.5t59.5 -27.5t21.5 -43q0 -17 -7.5 -30.5t-19.5 -20.5
q-12 7 -32.5 15.5t-46.5 14t-52 5.5q-39 0 -61.5 -12.5t-22.5 -35.5q0 -17 13 -29t44 -19l51 -12q81 -19 118 -55.5t37 -94.5zM194 3l69 24q33 -20 46.5 -49t13.5 -63q0 -49 -31 -79.5t-83 -30.5q-34 0 -53 14.5t-19 41.5q0 16 5 27h13q33 0 48 15.5t15 39.5q0 14 -5.5 30.5
t-18.5 29.5z" />
    <glyph glyph-name="Scaron" unicode="&#x160;" horiz-adv-x="536" 
d="M254 88q58 0 86 23.5t28 58.5q0 31 -21.5 50.5t-65.5 32.5l-65 20q-50 17 -87.5 38t-58 54.5t-20.5 82.5q0 81 60.5 128t165.5 47q56 0 99.5 -11.5t69 -31.5t25.5 -47q0 -19 -9.5 -33.5t-23.5 -23.5q-23 17 -63 29.5t-87 12.5q-52 0 -80 -19t-28 -51q0 -26 19.5 -42
t59.5 -28l58 -17q86 -26 134 -70.5t48 -121.5q0 -82 -62.5 -133t-178.5 -51q-61 0 -108 13t-74.5 36t-27.5 52q0 22 14 38t30 24q26 -22 67 -41t96 -19zM272 741q24 23 47 45.5t45 43.5q24 -1 41 -14t17 -34q0 -16 -8.5 -28.5t-28.5 -27.5l-44 -42q-20 -15 -35 -22t-34 -7
q-22 0 -38.5 8.5t-31.5 24.5l-83 82q0 27 13 42t36 15q15 0 29 -8t34 -31z" />
    <glyph glyph-name="scaron" unicode="&#x161;" horiz-adv-x="469" 
d="M430 134q0 -70 -52 -109.5t-151 -39.5q-80 0 -131 24t-51 64q0 17 8 31.5t21 22.5q28 -18 65 -32t84 -14q85 0 85 52q0 22 -15 35.5t-46 19.5l-57 15q-73 16 -108.5 50t-35.5 91q0 63 52 103.5t144 40.5q48 0 86 -9.5t59.5 -27.5t21.5 -43q0 -17 -7.5 -30.5t-19.5 -20.5
q-12 7 -32.5 15.5t-46.5 14t-52 5.5q-39 0 -61.5 -12.5t-22.5 -35.5q0 -17 13 -29t44 -19l51 -12q81 -19 118 -55.5t37 -94.5zM183 672l49 -54l88 91q30 -1 47 -14.5t17 -35.5q0 -16 -9.5 -27.5t-26.5 -27.5l-55 -51q-14 -13 -29 -19t-32 -6q-13 0 -24.5 3t-23 11.5
t-28.5 23.5l-80 79q-2 14 2.5 28.5t16 24t28.5 9.5t29 -7t31 -28z" />
    <glyph glyph-name="uni0162" unicode="&#x162;" horiz-adv-x="539" 
d="M225 504l-3 103h281q5 -7 9 -20.5t4 -28.5q0 -26 -12 -40t-33 -14h-246zM314 607l2 -103h-281q-5 8 -9 21t-4 29q0 27 12 40t33 13h247zM205 531h126v-529q-8 -3 -24.5 -5.5t-33.5 -2.5q-37 0 -52.5 13.5t-15.5 45.5v478zM232 3l69 24q33 -20 46.5 -49t13.5 -63
q0 -49 -31 -79.5t-83 -30.5q-34 0 -53 14.5t-19 41.5q0 16 5 27h13q33 0 48 15.5t15 39.5q0 14 -5.5 30.5t-18.5 29.5z" />
    <glyph glyph-name="uni0163" unicode="&#x163;" horiz-adv-x="384" 
d="M65 264h123v-118q0 -33 19.5 -47t55.5 -14q16 0 34.5 4t31.5 10q7 -8 13 -19t6 -27q0 -29 -27.5 -48t-85.5 -19q-79 0 -124.5 35.5t-45.5 115.5v127zM140 366v97h196q4 -7 8.5 -20t4.5 -27q0 -25 -12 -37.5t-31 -12.5h-166zM188 237h-123v360q8 3 23.5 6t32.5 3
q35 0 51 -12.5t16 -44.5v-312zM141 3l69 24q33 -20 46.5 -49t13.5 -63q0 -49 -31 -79.5t-83 -30.5q-34 0 -53 14.5t-19 41.5q0 16 5 27h13q33 0 48 15.5t15 39.5q0 14 -5.5 30.5t-18.5 29.5z" />
    <glyph glyph-name="Tcaron" unicode="&#x164;" horiz-adv-x="539" 
d="M225 504l-3 103h281q5 -7 9 -20.5t4 -28.5q0 -26 -12 -40t-33 -14h-246zM314 607l2 -103h-281q-5 8 -9 21t-4 29q0 27 12 40t33 13h247zM205 531h126v-529q-8 -3 -24.5 -5.5t-33.5 -2.5q-37 0 -52.5 13.5t-15.5 45.5v478zM271 741q24 23 47 45.5t45 43.5q24 -1 41 -14
t17 -34q0 -16 -8.5 -28.5t-28.5 -27.5l-44 -42q-20 -15 -35 -22t-34 -7q-22 0 -38.5 8.5t-31.5 24.5l-83 82q0 27 13 42t36 15q15 0 29 -8t34 -31z" />
    <glyph glyph-name="tcaron" unicode="&#x165;" horiz-adv-x="517" 
d="M65 264h123v-118q0 -33 19.5 -47t55.5 -14q16 0 34.5 4t31.5 10q7 -8 13 -19t6 -27q0 -29 -27.5 -48t-85.5 -19q-79 0 -124.5 35.5t-45.5 115.5v127zM140 366v97h196q4 -7 8.5 -20t4.5 -27q0 -25 -12 -37.5t-31 -12.5h-166zM188 237h-123v360q8 3 23.5 6t32.5 3
q35 0 51 -12.5t16 -44.5v-312zM481 505q-12 -14 -26.5 -19.5t-31.5 -5.5q-29 0 -47 18q18 38 29 76t15 72q13 6 27.5 9.5t30.5 3.5q24 0 39 -9.5t15 -30.5q0 -16 -8 -38.5t-20 -42.5t-23 -33z" />
    <glyph glyph-name="Tbar" unicode="&#x166;" horiz-adv-x="539" 
d="M418 286h-325q-3 7 -6.5 17t-3.5 21q0 39 35 39h325q3 -5 6.5 -15t3.5 -22q0 -21 -9 -30.5t-26 -9.5zM225 504l-3 103h281q5 -7 9 -20.5t4 -28.5q0 -26 -12 -40t-33 -14h-246zM314 607l2 -103h-281q-5 8 -9 21t-4 29q0 27 12 40t33 13h247zM205 531h126v-529
q-8 -3 -24.5 -5.5t-33.5 -2.5q-37 0 -52.5 13.5t-15.5 45.5v478z" />
    <glyph glyph-name="tbar" unicode="&#x167;" horiz-adv-x="384" 
d="M104 206l-2 77h234q3 -5 6.5 -15t3.5 -22q0 -21 -9 -30.5t-26 -9.5h-207zM65 264h123v-118q0 -33 19.5 -47t55.5 -14q16 0 34.5 4t31.5 10q7 -8 13 -19t6 -27q0 -29 -27.5 -48t-85.5 -19q-79 0 -124.5 35.5t-45.5 115.5v127zM140 366v97h196q4 -7 8.5 -20t4.5 -27
q0 -25 -12 -37.5t-31 -12.5h-166zM188 237h-123v360q8 3 23.5 6t32.5 3q35 0 51 -12.5t16 -44.5v-312z" />
    <glyph glyph-name="Utilde" unicode="&#x168;" horiz-adv-x="656" 
d="M328 -15q-79 0 -136 28.5t-86.5 80.5t-29.5 122v72h126v-67q0 -64 35.5 -98.5t90.5 -34.5q54 0 90 34.5t36 98.5v67h127v-72q0 -70 -30 -122t-86.5 -80.5t-136.5 -28.5zM202 253h-126v354q8 2 24.5 5t33.5 3q36 0 52 -12.5t16 -46.5v-303zM581 252h-127v355q8 2 25 5
t34 3q35 0 51.5 -12.5t16.5 -46.5v-304zM248 814q28 0 52.5 -8t45.5 -16t37 -8q20 0 30 12t15 25h5q25 0 43 -15.5t18 -42.5q0 -36 -23.5 -55t-61.5 -19q-30 0 -54.5 8t-45 16t-36.5 8q-20 0 -29.5 -12t-14.5 -25h-5q-25 0 -43.5 15t-18.5 43q0 25 12.5 41t32.5 24.5t41 8.5
z" />
    <glyph glyph-name="utilde" unicode="&#x169;" horiz-adv-x="566" 
d="M64 181v79h123v-77q0 -53 27.5 -76t76.5 -23q32 0 54 6t33 13v157h123v-167q0 -23 -7.5 -38.5t-28.5 -28.5q-29 -17 -73.5 -28.5t-101.5 -11.5q-69 0 -120 20t-78.5 63.5t-27.5 111.5zM501 212h-123v260q8 2 23.5 4.5t32.5 2.5q35 0 51 -12t16 -45v-210zM187 212h-123
v260q8 2 23 4.5t33 2.5q35 0 51 -12t16 -45v-210zM201 682q28 0 52.5 -8t45.5 -16t37 -8q20 0 30 12t15 25h5q25 0 43 -15.5t18 -42.5q0 -36 -23.5 -55t-61.5 -19q-30 0 -54.5 8t-45 16t-36.5 8q-20 0 -29.5 -12t-14.5 -25h-5q-25 0 -43.5 15t-18.5 43q0 25 12.5 41
t32.5 24.5t41 8.5z" />
    <glyph glyph-name="Umacron" unicode="&#x16a;" horiz-adv-x="656" 
d="M328 -15q-79 0 -136 28.5t-86.5 80.5t-29.5 122v72h126v-67q0 -64 35.5 -98.5t90.5 -34.5q54 0 90 34.5t36 98.5v67h127v-72q0 -70 -30 -122t-86.5 -80.5t-136.5 -28.5zM202 253h-126v354q8 2 24.5 5t33.5 3q36 0 52 -12.5t16 -46.5v-303zM581 252h-127v355q8 2 25 5
t34 3q35 0 51.5 -12.5t16.5 -46.5v-304zM432 691h-246q-4 9 -8.5 21t-4.5 26q0 26 12 37t31 11h246q6 -8 9 -20.5t3 -25.5q0 -27 -11 -38t-31 -11z" />
    <glyph glyph-name="umacron" unicode="&#x16b;" horiz-adv-x="565" 
d="M64 181v79h123v-77q0 -53 27.5 -76t76.5 -23q32 0 54 6t33 13v157h123v-167q0 -23 -7.5 -38.5t-28.5 -28.5q-29 -17 -73.5 -28.5t-101.5 -11.5q-69 0 -120 20t-78.5 63.5t-27.5 111.5zM501 212h-123v260q8 2 23.5 4.5t32.5 2.5q35 0 51 -12t16 -45v-210zM187 212h-123
v260q8 2 23 4.5t33 2.5q35 0 51 -12t16 -45v-210zM393 567h-246q-4 9 -8.5 21t-4.5 26q0 26 12 37t31 11h246q6 -8 9 -20.5t3 -25.5q0 -27 -11 -38t-31 -11z" />
    <glyph glyph-name="Ubreve" unicode="&#x16c;" horiz-adv-x="656" 
d="M328 -15q-79 0 -136 28.5t-86.5 80.5t-29.5 122v72h126v-67q0 -64 35.5 -98.5t90.5 -34.5q54 0 90 34.5t36 98.5v67h127v-72q0 -70 -30 -122t-86.5 -80.5t-136.5 -28.5zM202 253h-126v354q8 2 24.5 5t33.5 3q36 0 52 -12.5t16 -46.5v-303zM581 252h-127v355q8 2 25 5
t34 3q35 0 51.5 -12.5t16.5 -46.5v-304zM325 750q32 0 51.5 16t24.5 43q5 1 9 1.5t9 0.5q28 0 42.5 -16t14.5 -39q0 -37 -38.5 -66.5t-112.5 -29.5t-112 29.5t-38 66.5q0 23 14.5 39t42.5 16q5 0 9.5 -0.5t7.5 -1.5q5 -27 25 -43t51 -16z" />
    <glyph glyph-name="ubreve" unicode="&#x16d;" horiz-adv-x="566" 
d="M64 181v79h123v-77q0 -53 27.5 -76t76.5 -23q32 0 54 6t33 13v157h123v-167q0 -23 -7.5 -38.5t-28.5 -28.5q-29 -17 -73.5 -28.5t-101.5 -11.5q-69 0 -120 20t-78.5 63.5t-27.5 111.5zM501 212h-123v260q8 2 23.5 4.5t32.5 2.5q35 0 51 -12t16 -45v-210zM187 212h-123
v260q8 2 23 4.5t33 2.5q35 0 51 -12t16 -45v-210zM283 637q32 0 51.5 16t24.5 43q5 1 9 1.5t9 0.5q28 0 42.5 -16t14.5 -39q0 -37 -38.5 -66.5t-112.5 -29.5t-112 29.5t-38 66.5q0 23 14.5 39t42.5 16q5 0 9.5 -0.5t7.5 -1.5q5 -27 25 -43t51 -16z" />
    <glyph glyph-name="Uring" unicode="&#x16e;" horiz-adv-x="656" 
d="M328 -15q-79 0 -136 28.5t-86.5 80.5t-29.5 122v72h126v-67q0 -64 35.5 -98.5t90.5 -34.5q54 0 90 34.5t36 98.5v67h127v-72q0 -70 -30 -122t-86.5 -80.5t-136.5 -28.5zM202 253h-126v354q8 2 24.5 5t33.5 3q36 0 52 -12.5t16 -46.5v-303zM581 252h-127v355q8 2 25 5
t34 3q35 0 51.5 -12.5t16.5 -46.5v-304zM212 749q0 42 32 70.5t86 28.5q57 0 89 -28.5t32 -70.5t-32 -70.5t-89 -28.5q-54 0 -86 28.5t-32 70.5zM292 749q0 -17 11 -26.5t28 -9.5q18 0 29.5 9.5t11.5 26.5t-11.5 27t-29.5 10q-17 0 -28 -10t-11 -27z" />
    <glyph glyph-name="uring" unicode="&#x16f;" horiz-adv-x="565" 
d="M64 181v79h123v-77q0 -53 27.5 -76t76.5 -23q32 0 54 6t33 13v157h123v-167q0 -23 -7.5 -38.5t-28.5 -28.5q-29 -17 -73.5 -28.5t-101.5 -11.5q-69 0 -120 20t-78.5 63.5t-27.5 111.5zM501 212h-123v260q8 2 23.5 4.5t32.5 2.5q35 0 51 -12t16 -45v-210zM187 212h-123
v260q8 2 23 4.5t33 2.5q35 0 51 -12t16 -45v-210zM161 626q0 43 31 72.5t86 29.5q57 0 88.5 -29.5t31.5 -72.5t-31.5 -72.5t-88.5 -29.5q-55 0 -86 29.5t-31 72.5zM239 626q0 -19 11.5 -29.5t27.5 -10.5q18 0 29.5 10.5t11.5 29.5t-11.5 29.5t-29.5 10.5q-16 0 -27.5 -10.5
t-11.5 -29.5z" />
    <glyph glyph-name="Uhungarumlaut" unicode="&#x170;" horiz-adv-x="656" 
d="M328 -15q-79 0 -136 28.5t-86.5 80.5t-29.5 122v72h126v-67q0 -64 35.5 -98.5t90.5 -34.5q54 0 90 34.5t36 98.5v67h127v-72q0 -70 -30 -122t-86.5 -80.5t-136.5 -28.5zM202 253h-126v354q8 2 24.5 5t33.5 3q36 0 52 -12.5t16 -46.5v-303zM581 252h-127v355q8 2 25 5
t34 3q35 0 51.5 -12.5t16.5 -46.5v-304zM185 744l65 87q36 0 54.5 -15.5t18.5 -36.5q0 -18 -8.5 -30t-25.5 -30l-56 -63q-31 0 -47.5 14.5t-16.5 32.5q0 11 4 20t12 21zM377 744l65 87q36 0 54.5 -15.5t18.5 -36.5q0 -18 -9 -30t-25 -30l-56 -63q-31 0 -47.5 14.5
t-16.5 32.5q0 11 4 20t12 21z" />
    <glyph glyph-name="uhungarumlaut" unicode="&#x171;" horiz-adv-x="565" 
d="M64 181v79h123v-77q0 -53 27.5 -76t76.5 -23q32 0 54 6t33 13v157h123v-167q0 -23 -7.5 -38.5t-28.5 -28.5q-29 -17 -73.5 -28.5t-101.5 -11.5q-69 0 -120 20t-78.5 63.5t-27.5 111.5zM501 212h-123v260q8 2 23.5 4.5t32.5 2.5q35 0 51 -12t16 -45v-210zM187 212h-123
v260q8 2 23 4.5t33 2.5q35 0 51 -12t16 -45v-210zM137 609l82 109q36 0 55.5 -16t19.5 -37q0 -17 -9 -29t-26 -31l-73 -83q-31 0 -48 15t-17 33q0 11 3.5 19.5t12.5 19.5zM334 609l81 109q36 0 55.5 -16t19.5 -37q0 -17 -8.5 -29t-25.5 -31l-73 -83q-31 0 -48 15t-17 33
q0 11 3.5 19.5t12.5 19.5z" />
    <glyph glyph-name="Uogonek" unicode="&#x172;" horiz-adv-x="656" 
d="M328 -15q-79 0 -136 28.5t-86.5 80.5t-29.5 122v72h126v-67q0 -64 35.5 -98.5t90.5 -34.5q54 0 90 34.5t36 98.5v67h127v-72q0 -70 -30 -122t-86.5 -80.5t-136.5 -28.5zM202 253h-126v354q8 2 24.5 5t33.5 3q36 0 52 -12.5t16 -46.5v-303zM581 252h-127v355q8 2 25 5
t34 3q35 0 51.5 -12.5t16.5 -46.5v-304zM316 12l91 -4q-18 -11 -31 -26.5t-13 -39.5t15.5 -36.5t42.5 -12.5h10q3 -7 5 -15t2 -17q0 -22 -15.5 -38t-55.5 -16q-49 0 -82.5 26.5t-33.5 74.5q0 28 10.5 48.5t26 34.5t28.5 21z" />
    <glyph glyph-name="uogonek" unicode="&#x173;" horiz-adv-x="565" 
d="M370 9l106 27q-27 -22 -44.5 -42t-17.5 -52q0 -24 16 -36.5t43 -12.5h11q3 -7 4.5 -15t1.5 -17q0 -22 -16 -38t-55 -16q-49 0 -83 26.5t-34 74.5q0 41 23 66t45 35zM64 181v79h123v-77q0 -53 27.5 -76t76.5 -23q32 0 54 6t33 13v157h123v-167q0 -23 -7.5 -38.5
t-28.5 -28.5q-13 -8 -29.5 -12.5t-35.5 -10.5q-21 -7 -49.5 -12t-60.5 -5q-69 0 -120 20t-78.5 63.5t-27.5 111.5zM501 212h-123v260q8 2 23.5 4.5t32.5 2.5q35 0 51 -12t16 -45v-210zM187 212h-123v260q8 2 23 4.5t33 2.5q35 0 51 -12t16 -45v-210z" />
    <glyph glyph-name="Wcircumflex" unicode="&#x174;" horiz-adv-x="830" 
d="M349 457q10 5 27.5 9.5t35.5 4.5q31 0 51.5 -9t24.5 -28q21 -64 37.5 -117.5t31.5 -103.5t30 -104h4q16 86 29.5 165.5t26 158.5t23.5 165q26 14 56 14q28 0 46.5 -12t18.5 -39q0 -21 -5 -60t-13.5 -90.5t-20 -107t-24 -110t-25 -100t-24.5 -76.5q-12 -9 -35.5 -15.5
t-50.5 -6.5q-33 0 -56.5 9.5t-29.5 26.5q-12 31 -27 77t-31 100.5t-32 110.5q-14 -55 -30.5 -112.5t-31.5 -107t-27 -82.5q-11 -9 -33 -15.5t-49 -6.5q-32 0 -57.5 10t-33.5 26q-10 24 -23.5 71.5t-28.5 110t-29.5 129.5t-26 130t-18.5 113q11 10 29 18.5t39 8.5
q28 0 45 -12.5t22 -41.5q15 -81 26 -144.5t20.5 -115.5t18 -97.5t19.5 -91.5h4q12 42 22.5 80t22 77t24.5 85t28 106zM470 674l-53 64q-25 -29 -44.5 -50t-40.5 -45q-28 1 -45.5 14t-17.5 34q0 15 9 26.5t24 26.5l48 51q16 15 31.5 23.5t36.5 8.5t37 -8t35 -31l78 -93
q0 -21 -12 -35.5t-37 -14.5q-15 0 -26.5 8t-22.5 21z" />
    <glyph glyph-name="wcircumflex" unicode="&#x175;" horiz-adv-x="750" 
d="M377 310q-13 -55 -31 -111.5t-34 -106t-28 -81.5q-10 -9 -27 -14t-42 -5q-27 0 -48.5 8.5t-29.5 24.5q-9 20 -21 57.5t-24.5 85.5t-25 100t-23 101t-17.5 87q11 11 27.5 19t37.5 8q27 0 43 -13t20 -43q10 -58 19 -109.5t18 -93.5t15.5 -71.5t9.5 -44.5h4q7 23 21 73
t33.5 114.5t38.5 131.5q14 7 29.5 11.5t35.5 4.5q26 0 44 -8.5t24 -26.5q20 -64 37.5 -124.5t31 -107t19.5 -69.5h5q17 83 36 176t32 185q25 15 55 15q26 0 42 -11.5t16 -37.5q0 -14 -5.5 -45t-15 -72t-21.5 -87t-24.5 -89t-23.5 -77t-19 -53q-9 -8 -29 -13.5t-44 -5.5
q-62 0 -72 30q-12 30 -27.5 77t-31 102t-30.5 109zM431 558l-53 64q-25 -29 -44.5 -50t-40.5 -45q-28 1 -45.5 14t-17.5 34q0 15 9 26.5t24 26.5l48 51q16 15 31.5 23.5t36.5 8.5t37 -8t35 -31l78 -93q0 -21 -12 -35.5t-37 -14.5q-15 0 -26.5 8t-22.5 21z" />
    <glyph glyph-name="Ycircumflex" unicode="&#x176;" horiz-adv-x="562" 
d="M344 204h-112q-27 39 -57.5 86.5t-60.5 97.5t-56.5 97.5t-44.5 86.5q9 14 25.5 27t41.5 13q28 0 45.5 -13t33.5 -45q14 -25 30.5 -55t33.5 -61.5t33 -61t29 -52.5h5q27 51 49.5 94.5t43.5 87.5t43 93q12 6 27 9.5t29 3.5q26 0 43 -14t17 -40q0 -11 -11.5 -37.5
t-35.5 -69.5t-61.5 -104.5t-89.5 -142.5zM226 253h124v-251q-8 -3 -24.5 -5.5t-32.5 -2.5q-37 0 -52 13t-15 45v201zM285 743l-43.5 -43.5t-49.5 -45.5q-24 1 -39.5 14t-15.5 34q0 16 8.5 28t27.5 27l44 42q38 31 69 31q21 0 37 -8t33 -26l82 -87q0 -25 -14 -38.5t-37 -13.5
q-16 0 -29 9t-32 30z" />
    <glyph glyph-name="ycircumflex" unicode="&#x177;" horiz-adv-x="519" 
d="M149 113q-16 33 -36.5 82.5t-42.5 115t-45 144.5q11 12 28 20t37 8q26 0 42.5 -11.5t25.5 -41.5q26 -78 52.5 -154t56.5 -155h4q19 44 38 103.5t36.5 123.5t29.5 122q12 6 25 9.5t28 3.5q25 0 43.5 -11.5t18.5 -38.5q0 -24 -8.5 -63.5t-23.5 -87.5t-34.5 -100t-41 -100.5
t-43.5 -87.5q-51 -91 -94 -137.5t-83 -46.5q-31 0 -50.5 18.5t-23.5 45.5q22 19 46.5 45.5t47.5 56.5t39 59q-17 5 -34 20.5t-38 57.5zM319 558l-53 64q-25 -29 -44.5 -50t-40.5 -45q-28 1 -45.5 14t-17.5 34q0 15 9 26.5t24 26.5l48 51q16 15 31.5 23.5t36.5 8.5t37 -8
t35 -31l78 -93q0 -21 -12 -35.5t-37 -14.5q-15 0 -26.5 8t-22.5 21z" />
    <glyph glyph-name="Ydieresis" unicode="&#x178;" horiz-adv-x="562" 
d="M344 204h-112q-27 39 -57.5 86.5t-60.5 97.5t-56.5 97.5t-44.5 86.5q9 14 25.5 27t41.5 13q28 0 45.5 -13t33.5 -45q14 -25 30.5 -55t33.5 -61.5t33 -61t29 -52.5h5q27 51 49.5 94.5t43.5 87.5t43 93q12 6 27 9.5t29 3.5q26 0 43 -14t17 -40q0 -11 -11.5 -37.5
t-35.5 -69.5t-61.5 -104.5t-89.5 -142.5zM226 253h124v-251q-8 -3 -24.5 -5.5t-32.5 -2.5q-37 0 -52 13t-15 45v201zM254 739q0 -27 -18.5 -46t-48.5 -19q-28 0 -46.5 19t-18.5 46t18.5 45.5t46.5 18.5q30 0 48.5 -18.5t18.5 -45.5zM447 739q0 -27 -18.5 -46t-47.5 -19
q-28 0 -47 19t-19 46t19 45.5t47 18.5q29 0 47.5 -18.5t18.5 -45.5z" />
    <glyph glyph-name="Zacute" unicode="&#x179;" horiz-adv-x="558" 
d="M74 138l366 470h41q31 -25 31 -65q0 -20 -8.5 -37.5t-22.5 -34.5l-364 -471h-46q-12 10 -20.5 27t-8.5 37t9.5 38.5t22.5 35.5zM91 0l46 105h368q5 -9 9.5 -22t4.5 -29q0 -27 -12.5 -40.5t-33.5 -13.5h-382zM456 608l-36 -104h-355q-5 8 -10 21t-5 29q0 27 12.5 40.5
t34.5 13.5h359zM255 739l103 93q31 0 48.5 -15.5t17.5 -36.5q0 -17 -7.5 -29.5t-28.5 -26.5l-92 -68q-29 1 -44.5 14t-15.5 31q0 11 4 20t15 18z" />
    <glyph glyph-name="zacute" unicode="&#x17a;" horiz-adv-x="475" 
d="M114 0h-49q-11 10 -18 24t-7 31q0 16 7.5 30.5t17.5 28.5l296 359h44q12 -10 19 -24t7 -31q0 -15 -7 -30t-19 -28zM382 473v-97h-324q-5 8 -9 21t-4 27q0 26 11.5 37.5t31.5 11.5h294zM93 0v97h335q4 -7 8 -20t4 -28q0 -25 -11.5 -37t-31.5 -12h-304zM214 609l99 109
q37 0 56.5 -16.5t19.5 -37.5q0 -18 -8 -30t-27 -29l-93 -83q-31 0 -48.5 15.5t-17.5 33.5q0 11 5 19.5t14 18.5z" />
    <glyph glyph-name="Zdotaccent" unicode="&#x17b;" horiz-adv-x="558" 
d="M74 138l366 470h41q31 -25 31 -65q0 -20 -8.5 -37.5t-22.5 -34.5l-364 -471h-46q-12 10 -20.5 27t-8.5 37t9.5 38.5t22.5 35.5zM91 0l46 105h368q5 -9 9.5 -22t4.5 -29q0 -27 -12.5 -40.5t-33.5 -13.5h-382zM456 608l-36 -104h-355q-5 8 -10 21t-5 29q0 27 12.5 40.5
t34.5 13.5h359zM353 744q0 -29 -19.5 -48t-50.5 -19q-30 0 -49.5 19t-19.5 48q0 30 19 49t50 19q32 0 51 -19t19 -49z" />
    <glyph glyph-name="zdotaccent" unicode="&#x17c;" horiz-adv-x="475" 
d="M114 0h-49q-11 10 -18 24t-7 31q0 16 7.5 30.5t17.5 28.5l296 359h44q12 -10 19 -24t7 -31q0 -15 -7 -30t-19 -28zM382 473v-97h-324q-5 8 -9 21t-4 27q0 26 11.5 37.5t31.5 11.5h294zM93 0v97h335q4 -7 8 -20t4 -28q0 -25 -11.5 -37t-31.5 -12h-304zM309 619
q0 -29 -19.5 -48t-50.5 -19q-30 0 -49.5 19t-19.5 48q0 30 19 49t50 19q32 0 51 -19t19 -49z" />
    <glyph glyph-name="Zcaron" unicode="&#x17d;" horiz-adv-x="558" 
d="M74 138l366 470h41q31 -25 31 -65q0 -20 -8.5 -37.5t-22.5 -34.5l-364 -471h-46q-12 10 -20.5 27t-8.5 37t9.5 38.5t22.5 35.5zM91 0l46 105h368q5 -9 9.5 -22t4.5 -29q0 -27 -12.5 -40.5t-33.5 -13.5h-382zM456 608l-36 -104h-355q-5 8 -10 21t-5 29q0 27 12.5 40.5
t34.5 13.5h359zM289 741q24 23 47 45.5t45 43.5q24 -1 41 -14t17 -34q0 -16 -8.5 -28.5t-28.5 -27.5l-44 -42q-20 -15 -35 -22t-34 -7q-22 0 -38.5 8.5t-31.5 24.5l-83 82q0 27 13 42t36 15q15 0 29 -8t34 -31z" />
    <glyph glyph-name="zcaron" unicode="&#x17e;" horiz-adv-x="475" 
d="M114 0h-49q-11 10 -18 24t-7 31q0 16 7.5 30.5t17.5 28.5l296 359h44q12 -10 19 -24t7 -31q0 -15 -7 -30t-19 -28zM382 473v-97h-324q-5 8 -9 21t-4 27q0 26 11.5 37.5t31.5 11.5h294zM93 0v97h335q4 -7 8 -20t4 -28q0 -25 -11.5 -37t-31.5 -12h-304zM191 672l49 -54
l88 91q30 -1 47 -14.5t17 -35.5q0 -16 -9.5 -27.5t-26.5 -27.5l-55 -51q-14 -13 -29 -19t-32 -6q-13 0 -24.5 3t-23 11.5t-28.5 23.5l-80 79q-2 14 2.5 28.5t16 24t28.5 9.5t29 -7t31 -28z" />
    <glyph glyph-name="uni018F" unicode="&#x18f;" horiz-adv-x="657" 
d="M510 380l32 -93l-375 -60q3 -37 21.5 -69t52 -51.5t80.5 -19.5q85 0 126.5 49.5t41.5 142.5l-7 61q-8 61 -35 100t-67.5 58t-91.5 19q-56 0 -101 -20t-72 -45q-18 11 -29 25t-11 34q0 22 13 38t30 27q30 19 76.5 32t102.5 13q63 0 119.5 -20t100 -60.5t69 -102.5
t25.5 -146q0 -100 -36 -168.5t-101 -103.5t-152 -35q-92 0 -155 36t-95 95.5t-32 130.5q0 33 18.5 49.5t49.5 21.5z" />
    <glyph glyph-name="florin" unicode="&#x192;" horiz-adv-x="520" 
d="M264 331v96h199q5 -7 9 -19.5t4 -28.5q0 -25 -12 -36.5t-31 -11.5h-169zM295 366l3 -4l-29 -282q-9 -90 -52.5 -129.5t-115.5 -39.5q-52 0 -81 17t-29 50q0 15 6 27.5t15 19.5q14 -6 28.5 -10.5t37.5 -4.5q32 0 48 17.5t20 58.5l42 404q10 92 64.5 135.5t136.5 43.5
q62 0 94 -17t32 -52q0 -15 -6 -27.5t-14 -19.5q-19 7 -40 11.5t-50 4.5q-44 0 -67 -20.5t-29 -65.5z" />
    <glyph glyph-name="Ohorn" unicode="&#x1a0;" horiz-adv-x="730" 
d="M650 304q0 -104 -39.5 -175t-108 -107.5t-155.5 -36.5q-86 0 -154.5 36.5t-108 107.5t-39.5 175t40.5 175t109 107.5t152.5 36.5q86 0 154.5 -36.5t108.5 -107.5t40 -175zM521 304q0 105 -47.5 160t-126.5 55q-77 0 -124.5 -55t-47.5 -160q0 -106 47 -161t126 -55t126 55
t47 161zM572 443h-19q-5 9 -8.5 32.5t-3.5 45.5q34 0 58.5 20.5t24.5 72.5v34q11 6 22 9t25 3q24 0 40.5 -11.5t16.5 -39.5v-9q0 -52 -22 -87t-57.5 -52.5t-76.5 -17.5z" />
    <glyph glyph-name="ohorn" unicode="&#x1a1;" horiz-adv-x="615" 
d="M532 237q0 -77 -30 -133.5t-84.5 -87t-128.5 -30.5t-129 30.5t-85.5 86.5t-30.5 134q0 77 31 133t86 86.5t128 30.5t127.5 -30.5t85 -87t30.5 -132.5zM289 389q-55 0 -86.5 -40t-31.5 -112q0 -74 31 -113.5t87 -39.5q55 0 86 40t31 113q0 71 -31 111.5t-86 40.5zM451 319
h-19q-5 9 -8.5 32.5t-3.5 45.5q34 0 58.5 20.5t24.5 72.5v34q11 6 22 9t25 3q24 0 40.5 -11.5t16.5 -39.5v-9q0 -52 -22 -87t-57.5 -52.5t-76.5 -17.5z" />
    <glyph glyph-name="Uhorn" unicode="&#x1af;" horiz-adv-x="723" 
d="M326 -15q-79 0 -136 28.5t-86.5 80.5t-29.5 122v72h126v-67q0 -64 35.5 -98.5t90.5 -34.5q54 0 90 34.5t36 98.5v67h127v-72q0 -70 -30 -122t-86.5 -80.5t-136.5 -28.5zM200 253h-126v354q8 2 24.5 5t33.5 3q36 0 52 -12.5t16 -46.5v-303zM579 252h-127v355q8 2 25 5
t34 3q35 0 51.5 -12.5t16.5 -46.5v-304zM588 443h-19q-5 9 -8.5 32.5t-3.5 45.5q34 0 58.5 20.5t24.5 72.5v34q11 6 22 9t25 3q24 0 40.5 -11.5t16.5 -39.5v-9q0 -52 -22 -87t-57.5 -52.5t-76.5 -17.5z" />
    <glyph glyph-name="uhorn" unicode="&#x1b0;" horiz-adv-x="655" 
d="M64 181v79h123v-77q0 -53 27.5 -76t76.5 -23q32 0 54 6t33 13v157h123v-167q0 -23 -7.5 -38.5t-28.5 -28.5q-29 -17 -73.5 -28.5t-101.5 -11.5q-69 0 -120 20t-78.5 63.5t-27.5 111.5zM501 212h-123v260q8 2 23.5 4.5t32.5 2.5q35 0 51 -12t16 -45v-210zM187 212h-123
v260q8 2 23 4.5t33 2.5q35 0 51 -12t16 -45v-210zM499 319h-19q-5 9 -8.5 32.5t-3.5 45.5q34 0 58.5 20.5t24.5 72.5v34q11 6 22 9t25 3q24 0 40.5 -11.5t16.5 -39.5v-9q0 -52 -22 -87t-57.5 -52.5t-76.5 -17.5z" />
    <glyph glyph-name="uni01C4" unicode="&#x1c4;" horiz-adv-x="1203" 
d="M484 306q0 -107 -52 -161.5t-145 -54.5q-22 0 -44 1.5t-40 5.5v415q18 3 37.5 4.5t41.5 1.5q58 0 103.5 -22.5t72 -69t26.5 -120.5zM614 308q0 106 -42.5 175t-118 103.5t-176.5 34.5q-38 0 -81.5 -4t-80.5 -15q-17 -6 -27.5 -16t-10.5 -29v-491q0 -42 49 -59
q38 -13 83 -16.5t78 -3.5q99 0 172 35t114 106.5t41 179.5zM719 138l366 470h41q31 -25 31 -65q0 -20 -8.5 -37.5t-22.5 -34.5l-364 -471h-46q-12 10 -20.5 27t-8.5 37t9.5 38.5t22.5 35.5zM736 0l46 105h368q5 -9 9.5 -22t4.5 -29q0 -27 -12.5 -40.5t-33.5 -13.5h-382z
M1101 608l-36 -104h-355q-5 8 -10 21t-5 29q0 27 12.5 40.5t34.5 13.5h359zM934 741q24 23 47 45.5t45 43.5q24 -1 41 -14t17 -34q0 -16 -8.5 -28.5t-28.5 -27.5l-44 -42q-20 -15 -35 -22t-34 -7q-22 0 -38.5 8.5t-31.5 24.5l-83 82q0 27 13 42t36 15q15 0 29 -8t34 -31z
" />
    <glyph glyph-name="uni01C5" unicode="&#x1c5;" horiz-adv-x="1133" 
d="M484 306q0 -107 -52 -161.5t-145 -54.5q-22 0 -44 1.5t-40 5.5v415q18 3 37.5 4.5t41.5 1.5q58 0 103.5 -22.5t72 -69t26.5 -120.5zM614 308q0 106 -42.5 175t-118 103.5t-176.5 34.5q-38 0 -81.5 -4t-80.5 -15q-17 -6 -27.5 -16t-10.5 -29v-491q0 -42 49 -59
q38 -13 83 -16.5t78 -3.5q99 0 172 35t114 106.5t41 179.5zM773 0h-49q-11 10 -18 24t-7 31q0 16 7.5 30.5t17.5 28.5l296 359h44q12 -10 19 -24t7 -31q0 -15 -7 -30t-19 -28zM1041 473v-97h-324q-5 8 -9 21t-4 27q0 26 11.5 37.5t31.5 11.5h294zM752 0v97h335q4 -7 8 -20
t4 -28q0 -25 -11.5 -37t-31.5 -12h-304zM850 672l49 -54l88 91q30 -1 47 -14.5t17 -35.5q0 -16 -9.5 -27.5t-26.5 -27.5l-55 -51q-14 -13 -29 -19t-32 -6q-13 0 -24.5 3t-23 11.5t-28.5 23.5l-80 79q-2 14 2.5 28.5t16 24t28.5 9.5t29 -7t31 -28z" />
    <glyph glyph-name="uni01C6" unicode="&#x1c6;" horiz-adv-x="1040" 
d="M377 104v314h123v-327q0 -22 -9.5 -36.5t-30.5 -27.5q-24 -16 -65.5 -28.5t-94.5 -12.5q-79 0 -137.5 26.5t-90.5 82t-32 140.5q0 87 32.5 143t87.5 82.5t122 26.5q37 0 67.5 -9t49.5 -21v-105q-16 15 -42 26t-60 11q-37 0 -67 -15.5t-47 -50t-17 -89.5q0 -78 36 -114
t97 -36q27 0 46 6t32 14zM500 393l-123 -1v258q7 2 22.5 5t32.5 3q36 0 52 -12.5t16 -44.5v-208zM680 0h-49q-11 10 -18 24t-7 31q0 16 7.5 30.5t17.5 28.5l296 359h44q12 -10 19 -24t7 -31q0 -15 -7 -30t-19 -28zM948 473v-97h-324q-5 8 -9 21t-4 27q0 26 11.5 37.5
t31.5 11.5h294zM659 0v97h335q4 -7 8 -20t4 -28q0 -25 -11.5 -37t-31.5 -12h-304zM757 672l49 -54l88 91q30 -1 47 -14.5t17 -35.5q0 -16 -9.5 -27.5t-26.5 -27.5l-55 -51q-14 -13 -29 -19t-32 -6q-13 0 -24.5 3t-23 11.5t-28.5 23.5l-80 79q-2 14 2.5 28.5t16 24t28.5 9.5
t29 -7t31 -28z" />
    <glyph glyph-name="uni01C7" unicode="&#x1c7;" horiz-adv-x="917" 
d="M77 397h127v-390l-59 -8q-31 0 -49.5 18.5t-18.5 48.5v331zM145 -1v104h318q6 -8 10.5 -21t4.5 -29q0 -27 -12.5 -40.5t-33.5 -13.5h-287zM204 255h-127v352q9 2 25.5 5t33.5 3q36 0 52 -12.5t16 -46.5v-301zM715 289h126v-126q0 -59 -23 -98.5t-63.5 -58.5t-94.5 -19
t-86 16.5t-32 51.5q0 17 6 29.5t12 19.5q17 -6 34.5 -9.5t36.5 -3.5q43 0 63.5 20.5t20.5 64.5v113zM841 240h-126v367q8 2 25 5t33 3q35 0 51.5 -12.5t16.5 -46.5v-316z" />
    <glyph glyph-name="uni01C8" unicode="&#x1c8;" horiz-adv-x="771" 
d="M77 397h127v-390l-59 -8q-31 0 -49.5 18.5t-18.5 48.5v331zM145 -1v104h318q6 -8 10.5 -21t4.5 -29q0 -27 -12.5 -40.5t-33.5 -13.5h-287zM204 255h-127v352q9 2 25.5 5t33.5 3q36 0 52 -12.5t16 -46.5v-301zM507 -125q24 12 40 25t24 34t8 54v281h124v-297
q0 -61 -20 -97.5t-49 -53t-58 -16.5q-33 0 -50.5 20.5t-18.5 49.5zM567 614q0 29 20.5 49t51.5 20t51 -20t20 -49q0 -28 -20 -48.5t-51 -20.5t-51.5 20.5t-20.5 48.5zM703 195l-124 6v268q8 3 23.5 5.5t33.5 2.5q35 0 51 -12.5t16 -45.5v-224z" />
    <glyph glyph-name="uni01C9" unicode="&#x1c9;" horiz-adv-x="528" 
d="M71 264l123 -6v-256q-8 -3 -23 -5.5t-33 -2.5q-34 0 -50.5 12.5t-16.5 44.5v213zM194 195l-123 6v449q7 2 22.5 5t32.5 3q36 0 52 -12.5t16 -44.5v-406zM264 -125q24 12 40 25t24 34t8 54v281h124v-297q0 -61 -20 -97.5t-49 -53t-58 -16.5q-33 0 -50.5 20.5t-18.5 49.5z
M324 614q0 29 20.5 49t51.5 20t51 -20t20 -49q0 -28 -20 -48.5t-51 -20.5t-51.5 20.5t-20.5 48.5zM460 195l-124 6v268q8 3 23.5 5.5t33.5 2.5q35 0 51 -12.5t16 -45.5v-224z" />
    <glyph glyph-name="uni01CA" unicode="&#x1ca;" horiz-adv-x="1068" 
d="M77 472l113 3q4 -38 6.5 -80t3 -83t0.5 -79v-232q-7 -2 -23.5 -4.5t-32.5 -2.5q-36 0 -51.5 12.5t-15.5 44.5v421zM592 137l-114 -3q-8 77 -9 150.5t-1 142.5v180q9 2 24.5 5t33.5 3q35 0 50.5 -13t15.5 -44v-421zM592 178v-162q-12 -10 -32 -16.5t-46 -6.5
q-31 0 -55.5 10t-41.5 44l-147 263q-12 24 -25.5 50t-25.5 51t-22 46l-120 -28v157q11 14 32.5 21t46.5 7q30 0 55 -10t42 -43l147 -263q13 -24 26.5 -50t25 -51t20.5 -46zM866 289h126v-126q0 -59 -23 -98.5t-63.5 -58.5t-94.5 -19t-86 16.5t-32 51.5q0 17 6 29.5t12 19.5
q17 -6 34.5 -9.5t36.5 -3.5q43 0 63.5 20.5t20.5 64.5v113zM992 240h-126v367q8 2 25 5t33 3q35 0 51.5 -12.5t16.5 -46.5v-316z" />
    <glyph glyph-name="uni01CB" unicode="&#x1cb;" horiz-adv-x="933" 
d="M77 472l113 3q4 -38 6.5 -80t3 -83t0.5 -79v-232q-7 -2 -23.5 -4.5t-32.5 -2.5q-36 0 -51.5 12.5t-15.5 44.5v421zM592 137l-114 -3q-8 77 -9 150.5t-1 142.5v180q9 2 24.5 5t33.5 3q35 0 50.5 -13t15.5 -44v-421zM592 178v-162q-12 -10 -32 -16.5t-46 -6.5
q-31 0 -55.5 10t-41.5 44l-147 263q-12 24 -25.5 50t-25.5 51t-22 46l-120 -28v157q11 14 32.5 21t46.5 7q30 0 55 -10t42 -43l147 -263q13 -24 26.5 -50t25 -51t20.5 -46zM669 -125q24 12 40 25t24 34t8 54v281h124v-297q0 -61 -20 -97.5t-49 -53t-58 -16.5
q-33 0 -50.5 20.5t-18.5 49.5zM729 614q0 29 20.5 49t51.5 20t51 -20t20 -49q0 -28 -20 -48.5t-51 -20.5t-51.5 20.5t-20.5 48.5zM865 195l-124 6v268q8 3 23.5 5.5t33.5 2.5q35 0 51 -12.5t16 -45.5v-224z" />
    <glyph glyph-name="uni01CC" unicode="&#x1cc;" horiz-adv-x="830" 
d="M501 309v-97h-123v92q0 44 -25 64.5t-67 20.5q-31 0 -55.5 -7.5t-43.5 -17.5v-152h-123v160q0 24 10 39.5t30 28.5q30 20 77.5 33.5t105.5 13.5q101 0 157.5 -45t56.5 -133zM64 261h123v-259q-8 -3 -23 -5.5t-33 -2.5q-34 0 -50.5 12.5t-16.5 44.5v210zM378 261h123v-259
q-7 -3 -22.5 -5.5t-32.5 -2.5q-35 0 -51.5 12.5t-16.5 44.5v210zM566 -125q24 12 40 25t24 34t8 54v281h124v-297q0 -61 -20 -97.5t-49 -53t-58 -16.5q-33 0 -50.5 20.5t-18.5 49.5zM626 614q0 29 20.5 49t51.5 20t51 -20t20 -49q0 -28 -20 -48.5t-51 -20.5t-51.5 20.5
t-20.5 48.5zM762 195l-124 6v268q8 3 23.5 5.5t33.5 2.5q35 0 51 -12.5t16 -45.5v-224z" />
    <glyph glyph-name="uni01CD" unicode="&#x1cd;" horiz-adv-x="609" 
d="M309 504h-5q-13 -36 -28.5 -82t-32.5 -95.5t-32 -95.5l-14 -62q-6 -19 -12.5 -42t-14 -46.5t-14 -44.5t-11.5 -37q-10 -3 -21.5 -5.5t-27.5 -2.5q-32 0 -50.5 12.5t-18.5 37.5q0 11 3.5 23t7.5 27q10 33 27 82.5t37 107.5t41.5 117t40.5 110.5t33 86.5q12 7 37 13t51 6
q34 0 62.5 -10t35.5 -32q21 -55 45 -126t49 -148t48 -150t41 -132q-10 -11 -27.5 -18t-40.5 -7q-33 0 -47.5 12.5t-22.5 38.5l-41 131l-13 64q-16 51 -31.5 100.5t-29.5 92.5t-24 74zM141 145l47 99h250l19 -99h-316zM306 741q24 23 47 45.5t45 43.5q24 -1 41 -14t17 -34
q0 -16 -8.5 -28.5t-28.5 -27.5l-44 -42q-20 -15 -35 -22t-34 -7q-22 0 -38.5 8.5t-31.5 24.5l-83 82q0 27 13 42t36 15q15 0 29 -8t34 -31z" />
    <glyph glyph-name="uni01CE" unicode="&#x1ce;" horiz-adv-x="521" 
d="M250 79q30 0 54 6t35 13v114l-99 -10q-41 -3 -62.5 -17.5t-21.5 -42.5q0 -29 23 -46t71 -17zM245 487q98 0 156 -41.5t58 -130.5v-230q0 -24 -11.5 -38t-29.5 -25q-28 -16 -71 -26.5t-97 -10.5q-100 0 -157 38.5t-57 114.5q0 67 42.5 102.5t123.5 43.5l136 14v18
q0 40 -27.5 58t-77.5 18q-39 0 -76 -10t-66 -24q-10 8 -18 22t-8 29q0 36 40 53q28 13 65.5 19t74.5 6zM215 672l49 -54l88 91q30 -1 47 -14.5t17 -35.5q0 -16 -9.5 -27.5t-26.5 -27.5l-55 -51q-14 -13 -29 -19t-32 -6q-13 0 -24.5 3t-23 11.5t-28.5 23.5l-80 79
q-2 14 2.5 28.5t16 24t28.5 9.5t29 -7t31 -28z" />
    <glyph glyph-name="uni01CF" unicode="&#x1cf;" horiz-adv-x="283" 
d="M78 401h126v-399q-8 -3 -24 -5.5t-34 -2.5q-36 0 -52 13.5t-16 45.5v348zM204 255h-126v352q8 2 25 5t34 3q35 0 51 -12.5t16 -46.5v-301zM141 741q24 23 47 45.5t45 43.5q24 -1 41 -14t17 -34q0 -16 -8.5 -28.5t-28.5 -27.5l-44 -42q-20 -15 -35 -22t-34 -7
q-22 0 -38.5 8.5t-31.5 24.5l-83 82q0 27 13 42t36 15q15 0 29 -8t34 -31z" />
    <glyph glyph-name="uni01D0" unicode="&#x1d0;" horiz-adv-x="261" 
d="M68 302h124v-303q-8 -2 -23 -4.5t-32 -2.5q-35 0 -52 13t-17 45v252zM192 253h-124v216q8 2 23 4.5t33 2.5q35 0 51.5 -13t16.5 -45v-165zM84 672l48 -54l89 91q29 -1 46 -14.5t17 -35.5q0 -16 -9.5 -27.5t-26.5 -27.5l-55 -51q-14 -13 -29 -19t-31 -6q-14 0 -25.5 3
t-23 11.5t-28.5 23.5l-80 79q-1 14 3 28.5t15.5 24t28.5 9.5t29 -7t32 -28z" />
    <glyph glyph-name="uni01D1" unicode="&#x1d1;" horiz-adv-x="696" 
d="M650 304q0 -104 -39.5 -175t-108 -107.5t-155.5 -36.5q-86 0 -154.5 36.5t-108 107.5t-39.5 175t40.5 175t109 107.5t152.5 36.5q86 0 154.5 -36.5t108.5 -107.5t40 -175zM521 304q0 105 -47.5 160t-126.5 55q-77 0 -124.5 -55t-47.5 -160q0 -106 47 -161t126 -55t126 55
t47 161zM348 741q24 23 47 45.5t45 43.5q24 -1 41 -14t17 -34q0 -16 -8.5 -28.5t-28.5 -27.5l-44 -42q-20 -15 -35 -22t-34 -7q-22 0 -38.5 8.5t-31.5 24.5l-83 82q0 27 13 42t36 15q15 0 29 -8t34 -31z" />
    <glyph glyph-name="uni01D2" unicode="&#x1d2;" horiz-adv-x="569" 
d="M528 237q0 -77 -30 -133.5t-84.5 -87t-128.5 -30.5t-129 30.5t-85.5 86.5t-30.5 134q0 77 31 133t86 86.5t128 30.5t127.5 -30.5t85 -87t30.5 -132.5zM285 389q-55 0 -86.5 -40t-31.5 -112q0 -74 31 -113.5t87 -39.5q55 0 86 40t31 113q0 71 -31 111.5t-86 40.5zM240 672
l49 -54l88 91q30 -1 47 -14.5t17 -35.5q0 -16 -9.5 -27.5t-26.5 -27.5l-55 -51q-14 -13 -29 -19t-32 -6q-13 0 -24.5 3t-23 11.5t-28.5 23.5l-80 79q-2 14 2.5 28.5t16 24t28.5 9.5t29 -7t31 -28z" />
    <glyph glyph-name="uni01D3" unicode="&#x1d3;" horiz-adv-x="656" 
d="M328 -15q-79 0 -136 28.5t-86.5 80.5t-29.5 122v72h126v-67q0 -64 35.5 -98.5t90.5 -34.5q54 0 90 34.5t36 98.5v67h127v-72q0 -70 -30 -122t-86.5 -80.5t-136.5 -28.5zM202 253h-126v354q8 2 24.5 5t33.5 3q36 0 52 -12.5t16 -46.5v-303zM581 252h-127v355q8 2 25 5
t34 3q35 0 51.5 -12.5t16.5 -46.5v-304zM329 741q24 23 47 45.5t45 43.5q24 -1 41 -14t17 -34q0 -16 -8.5 -28.5t-28.5 -27.5l-44 -42q-20 -15 -35 -22t-34 -7q-22 0 -38.5 8.5t-31.5 24.5l-83 82q0 27 13 42t36 15q15 0 29 -8t34 -31z" />
    <glyph glyph-name="uni01D4" unicode="&#x1d4;" horiz-adv-x="565" 
d="M64 181v79h123v-77q0 -53 27.5 -76t76.5 -23q32 0 54 6t33 13v157h123v-167q0 -23 -7.5 -38.5t-28.5 -28.5q-29 -17 -73.5 -28.5t-101.5 -11.5q-69 0 -120 20t-78.5 63.5t-27.5 111.5zM501 212h-123v260q8 2 23.5 4.5t32.5 2.5q35 0 51 -12t16 -45v-210zM187 212h-123
v260q8 2 23 4.5t33 2.5q35 0 51 -12t16 -45v-210zM234 672l49 -54l88 91q30 -1 47 -14.5t17 -35.5q0 -16 -9.5 -27.5t-26.5 -27.5l-55 -51q-14 -13 -29 -19t-32 -6q-13 0 -24.5 3t-23 11.5t-28.5 23.5l-80 79q-2 14 2.5 28.5t16 24t28.5 9.5t29 -7t31 -28z" />
    <glyph glyph-name="uni01D5" unicode="&#x1d5;" horiz-adv-x="656" 
d="M440 874h-257q-4 8 -8 19t-4 24q0 24 11 34.5t28 10.5h257q5 -8 8.5 -19t3.5 -24q0 -24 -10.5 -34.5t-28.5 -10.5zM328 -15q-79 0 -136 28.5t-86.5 80.5t-29.5 122v72h126v-67q0 -64 35.5 -98.5t90.5 -34.5q54 0 90 34.5t36 98.5v67h127v-72q0 -70 -30 -122t-86.5 -80.5
t-136.5 -28.5zM202 253h-126v354q8 2 24.5 5t33.5 3q36 0 52 -12.5t16 -46.5v-303zM581 252h-127v355q8 2 25 5t34 3q35 0 51.5 -12.5t16.5 -46.5v-304zM296 743q0 -27 -18.5 -46t-48.5 -19q-28 0 -46.5 19t-18.5 46t18.5 46t46.5 19q30 0 48.5 -19t18.5 -46zM489 743
q0 -27 -18.5 -46t-47.5 -19q-28 0 -47 19t-19 46t19 46t47 19q29 0 47.5 -19t18.5 -46z" />
    <glyph glyph-name="uni01D6" unicode="&#x1d6;" horiz-adv-x="565" 
d="M391 756h-256q-4 7 -8 18.5t-4 23.5q0 25 11 35t28 10h257q5 -7 8.5 -18.5t3.5 -23.5q0 -24 -10.5 -34.5t-29.5 -10.5zM64 181v79h123v-77q0 -53 27.5 -76t76.5 -23q32 0 54 6t33 13v157h123v-167q0 -23 -7.5 -38.5t-28.5 -28.5q-29 -17 -73.5 -28.5t-101.5 -11.5
q-69 0 -120 20t-78.5 63.5t-27.5 111.5zM501 212h-123v260q8 2 23.5 4.5t32.5 2.5q35 0 51 -12t16 -45v-210zM187 212h-123v260q8 2 23 4.5t33 2.5q35 0 51 -12t16 -45v-210zM250 615q0 -27 -18.5 -45.5t-48.5 -18.5q-29 0 -47 18.5t-18 45.5t18 46t47 19q30 0 48.5 -19
t18.5 -46zM443 615q0 -27 -18.5 -45.5t-47.5 -18.5q-28 0 -47.5 18.5t-19.5 45.5t19.5 46t47.5 19q29 0 47.5 -19t18.5 -46z" />
    <glyph glyph-name="uni01D7" unicode="&#x1d7;" horiz-adv-x="656" 
d="M328 -15q-79 0 -136 28.5t-86.5 80.5t-29.5 122v72h126v-67q0 -64 35.5 -98.5t90.5 -34.5q54 0 90 34.5t36 98.5v67h127v-72q0 -70 -30 -122t-86.5 -80.5t-136.5 -28.5zM202 253h-126v354q8 2 24.5 5t33.5 3q36 0 52 -12.5t16 -46.5v-303zM581 252h-127v355q8 2 25 5
t34 3q35 0 51.5 -12.5t16.5 -46.5v-304zM296 743q0 -27 -18.5 -46t-48.5 -19q-28 0 -46.5 19t-18.5 46t18.5 45.5t46.5 18.5q30 0 48.5 -18.5t18.5 -45.5zM489 743q0 -27 -18.5 -46t-47.5 -19q-28 0 -47 19t-19 46t19 45.5t47 18.5q29 0 47.5 -18.5t18.5 -45.5zM301 918
l72 89q31 -1 46.5 -14.5t15.5 -30.5q0 -15 -7.5 -26t-21.5 -25l-64 -68q-26 0 -41 12.5t-15 27.5q0 9 3.5 17t11.5 18z" />
    <glyph glyph-name="uni01D8" unicode="&#x1d8;" horiz-adv-x="565" 
d="M64 181v79h123v-77q0 -53 27.5 -76t76.5 -23q32 0 54 6t33 13v157h123v-167q0 -23 -7.5 -38.5t-28.5 -28.5q-29 -17 -73.5 -28.5t-101.5 -11.5q-69 0 -120 20t-78.5 63.5t-27.5 111.5zM501 212h-123v260q8 2 23.5 4.5t32.5 2.5q35 0 51 -12t16 -45v-210zM187 212h-123
v260q8 2 23 4.5t33 2.5q35 0 51 -12t16 -45v-210zM250 615q0 -27 -18.5 -46t-48.5 -19q-28 0 -46.5 19t-18.5 46t18.5 45.5t46.5 18.5q30 0 48.5 -18.5t18.5 -45.5zM443 615q0 -27 -18.5 -46t-47.5 -19q-28 0 -47 19t-19 46t19 45.5t47 18.5q29 0 47.5 -18.5t18.5 -45.5z
M255 798l72 89q31 -1 46.5 -14.5t15.5 -30.5q0 -15 -7.5 -26t-21.5 -25l-64 -68q-26 0 -41 12.5t-15 27.5q0 9 3.5 17t11.5 18z" />
    <glyph glyph-name="uni01D9" unicode="&#x1d9;" horiz-adv-x="656" 
d="M328 -15q-79 0 -136 28.5t-86.5 80.5t-29.5 122v72h126v-67q0 -64 35.5 -98.5t90.5 -34.5q54 0 90 34.5t36 98.5v67h127v-72q0 -70 -30 -122t-86.5 -80.5t-136.5 -28.5zM202 253h-126v354q8 2 24.5 5t33.5 3q36 0 52 -12.5t16 -46.5v-303zM581 252h-127v355q8 2 25 5
t34 3q35 0 51.5 -12.5t16.5 -46.5v-304zM296 743q0 -27 -18.5 -46t-48.5 -19q-28 0 -46.5 19t-18.5 46t18.5 45.5t46.5 18.5q30 0 48.5 -18.5t18.5 -45.5zM489 743q0 -27 -18.5 -46t-47.5 -19q-28 0 -47 19t-19 46t19 45.5t47 18.5q29 0 47.5 -18.5t18.5 -45.5zM282 861
l-96 96q0 22 12.5 34.5t30.5 12.5q14 0 23.5 -6.5t18.5 -18.5l51 -58l79 83q27 0 40.5 -13t13.5 -26q0 -15 -6.5 -24t-19.5 -21l-63 -60q-9 -8 -19 -13.5t-23 -5.5q-12 0 -22 6t-20 14z" />
    <glyph glyph-name="uni01DA" unicode="&#x1da;" horiz-adv-x="565" 
d="M64 181v79h123v-77q0 -53 27.5 -76t76.5 -23q32 0 54 6t33 13v157h123v-167q0 -23 -7.5 -38.5t-28.5 -28.5q-29 -17 -73.5 -28.5t-101.5 -11.5q-69 0 -120 20t-78.5 63.5t-27.5 111.5zM501 212h-123v260q8 2 23.5 4.5t32.5 2.5q35 0 51 -12t16 -45v-210zM187 212h-123
v260q8 2 23 4.5t33 2.5q35 0 51 -12t16 -45v-210zM250 615q0 -27 -18.5 -46t-48.5 -19q-28 0 -46.5 19t-18.5 46t18.5 45.5t46.5 18.5q30 0 48.5 -18.5t18.5 -45.5zM443 615q0 -27 -18.5 -46t-47.5 -19q-28 0 -47 19t-19 46t19 45.5t47 18.5q29 0 47.5 -18.5t18.5 -45.5z
M243 733l-96 96q0 22 12.5 34.5t30.5 12.5q14 0 23.5 -6.5t18.5 -18.5l51 -58l79 83q27 0 40.5 -13t13.5 -26q0 -15 -6.5 -24t-19.5 -21l-63 -60q-9 -8 -19 -13.5t-23 -5.5q-12 0 -22 6t-20 14z" />
    <glyph glyph-name="uni01DB" unicode="&#x1db;" horiz-adv-x="656" 
d="M328 -15q-79 0 -136 28.5t-86.5 80.5t-29.5 122v72h126v-67q0 -64 35.5 -98.5t90.5 -34.5q54 0 90 34.5t36 98.5v67h127v-72q0 -70 -30 -122t-86.5 -80.5t-136.5 -28.5zM202 253h-126v354q8 2 24.5 5t33.5 3q36 0 52 -12.5t16 -46.5v-303zM581 252h-127v355q8 2 25 5
t34 3q35 0 51.5 -12.5t16.5 -46.5v-304zM296 743q0 -27 -18.5 -46t-48.5 -19q-28 0 -46.5 19t-18.5 46t18.5 45.5t46.5 18.5q30 0 48.5 -18.5t18.5 -45.5zM489 743q0 -27 -18.5 -46t-47.5 -19q-28 0 -47 19t-19 46t19 45.5t47 18.5q29 0 47.5 -18.5t18.5 -45.5zM282 866
l-79 90q1 24 14.5 38t31.5 14q17 0 28.5 -8.5t22.5 -23.5l66 -91q-3 -20 -16 -30.5t-27 -10.5q-12 0 -21.5 5.5t-19.5 16.5z" />
    <glyph glyph-name="uni01DC" unicode="&#x1dc;" horiz-adv-x="565" 
d="M64 181v79h123v-77q0 -53 27.5 -76t76.5 -23q32 0 54 6t33 13v157h123v-167q0 -23 -7.5 -38.5t-28.5 -28.5q-29 -17 -73.5 -28.5t-101.5 -11.5q-69 0 -120 20t-78.5 63.5t-27.5 111.5zM501 212h-123v260q8 2 23.5 4.5t32.5 2.5q35 0 51 -12t16 -45v-210zM187 212h-123
v260q8 2 23 4.5t33 2.5q35 0 51 -12t16 -45v-210zM250 615q0 -27 -18.5 -46t-48.5 -19q-28 0 -46.5 19t-18.5 46t18.5 45.5t46.5 18.5q30 0 48.5 -18.5t18.5 -45.5zM443 615q0 -27 -18.5 -46t-47.5 -19q-28 0 -47 19t-19 46t19 45.5t47 18.5q29 0 47.5 -18.5t18.5 -45.5z
M233 745l-79 90q1 24 14.5 38t31.5 14q17 0 28.5 -8.5t22.5 -23.5l66 -91q-3 -20 -16 -30.5t-27 -10.5q-12 0 -21.5 5.5t-19.5 16.5z" />
    <glyph glyph-name="Gcaron" unicode="&#x1e6;" horiz-adv-x="651" 
d="M591 295v-212q0 -24 -10.5 -38t-33.5 -26q-26 -14 -74.5 -24t-97.5 -10q-95 0 -169.5 33.5t-117.5 104t-43 180.5q0 106 44 177t117.5 107t162.5 36q60 0 104.5 -13t69 -34t24.5 -46q0 -19 -10.5 -34t-23.5 -23q-27 17 -64 31.5t-91 14.5q-58 0 -104.5 -25t-72.5 -73.5
t-26 -117.5q0 -74 26 -121.5t72 -70.5t104 -23q29 0 53.5 5t38.5 12v142h-130q-4 7 -8.5 20.5t-4.5 27.5q0 27 12 39.5t33 12.5h168q23 0 37.5 -14t14.5 -38zM354 741q24 23 47 45.5t45 43.5q24 -1 41 -14t17 -34q0 -16 -8.5 -28.5t-28.5 -27.5l-44 -42q-20 -15 -35 -22
t-34 -7q-22 0 -38.5 8.5t-31.5 24.5l-83 82q0 27 13 42t36 15q15 0 29 -8t34 -31z" />
    <glyph glyph-name="gcaron" unicode="&#x1e7;" horiz-adv-x="551" 
d="M261 17q-59 0 -109 22.5t-80 74.5t-30 137q0 78 30.5 130.5t86 79t127.5 26.5q51 0 94.5 -13t69.5 -30q17 -11 27.5 -26.5t10.5 -37.5v-312h-120v301q-13 8 -32 14t-47 6q-55 0 -89.5 -34t-34.5 -104q0 -77 33.5 -108t82.5 -31q38 0 61.5 13t39.5 28l4 -100
q-18 -14 -49.5 -25t-75.5 -11zM370 -3v98h118v-102q0 -68 -31 -110.5t-84.5 -62.5t-119.5 -20q-52 0 -90.5 10t-56.5 21q-33 20 -33 55q0 18 8 32t19 21q25 -16 62.5 -28t79.5 -12q60 0 94 23.5t34 74.5zM236 672l49 -54l88 91q30 -1 47 -14.5t17 -35.5q0 -16 -9.5 -27.5
t-26.5 -27.5l-55 -51q-14 -13 -29 -19t-32 -6q-13 0 -24.5 3t-23 11.5t-28.5 23.5l-80 79q-2 14 2.5 28.5t16 24t28.5 9.5t29 -7t31 -28z" />
    <glyph glyph-name="uni01EA" unicode="&#x1ea;" horiz-adv-x="696" 
d="M650 304q0 -104 -39.5 -175t-108 -107.5t-155.5 -36.5q-86 0 -154.5 36.5t-108 107.5t-39.5 175t40.5 175t109 107.5t152.5 36.5q86 0 154.5 -36.5t108.5 -107.5t40 -175zM521 304q0 105 -47.5 160t-126.5 55q-77 0 -124.5 -55t-47.5 -160q0 -106 47 -161t126 -55t126 55
t47 161zM334 12l91 -4q-18 -11 -31 -26.5t-13 -39.5t15.5 -36.5t42.5 -12.5h10q3 -7 5 -15t2 -17q0 -22 -15.5 -38t-55.5 -16q-49 0 -82.5 26.5t-33.5 74.5q0 28 10.5 48.5t26 34.5t28.5 21z" />
    <glyph glyph-name="uni01EB" unicode="&#x1eb;" horiz-adv-x="569" 
d="M528 237q0 -77 -30 -133.5t-84.5 -87t-128.5 -30.5t-129 30.5t-85.5 86.5t-30.5 134q0 77 31 133t86 86.5t128 30.5t127.5 -30.5t85 -87t30.5 -132.5zM285 389q-55 0 -86.5 -40t-31.5 -112q0 -74 31 -113.5t87 -39.5q55 0 86 40t31 113q0 71 -31 111.5t-86 40.5zM278 12
l91 -4q-18 -11 -31 -26.5t-13 -39.5t15.5 -36.5t42.5 -12.5h10q3 -7 5 -15t2 -17q0 -22 -15.5 -38t-55.5 -16q-49 0 -82.5 26.5t-33.5 74.5q0 28 10.5 48.5t26 34.5t28.5 21z" />
    <glyph glyph-name="Aringacute" unicode="&#x1fa;" horiz-adv-x="609" 
d="M309 504h-5q-13 -36 -28.5 -82t-32.5 -95.5t-32 -95.5l-14 -62q-6 -19 -12.5 -42t-14 -46.5t-14 -44.5t-11.5 -37q-10 -3 -21.5 -5.5t-27.5 -2.5q-32 0 -50.5 12.5t-18.5 37.5q0 11 3.5 23t7.5 27q10 33 27 82.5t37 107.5t41.5 117t40.5 110.5t33 86.5q12 7 37 13t51 6
q34 0 62.5 -10t35.5 -32q21 -55 45 -126t49 -148t48 -150t41 -132q-10 -11 -27.5 -18t-40.5 -7q-33 0 -47.5 12.5t-22.5 38.5l-41 131l-13 64q-16 51 -31.5 100.5t-29.5 92.5t-24 74zM141 145l47 99h250l19 -99h-316zM284 958l72 89q31 -1 46.5 -14.5t15.5 -30.5
q0 -15 -7.5 -26t-21.5 -25l-64 -68q-26 0 -41 12.5t-15 27.5q0 9 3.5 17t11.5 18zM190 749q0 42 32 70.5t86 28.5q57 0 89 -28.5t32 -70.5t-32 -70.5t-89 -28.5q-54 0 -86 28.5t-32 70.5zM270 749q0 -17 11 -26.5t28 -9.5q18 0 29.5 9.5t11.5 26.5t-11.5 27t-29.5 10
q-17 0 -28 -10t-11 -27z" />
    <glyph glyph-name="aringacute" unicode="&#x1fb;" horiz-adv-x="521" 
d="M250 79q30 0 54 6t35 13v114l-99 -10q-41 -3 -62.5 -17.5t-21.5 -42.5q0 -29 23 -46t71 -17zM245 487q98 0 156 -41.5t58 -130.5v-230q0 -24 -11.5 -38t-29.5 -25q-28 -16 -71 -26.5t-97 -10.5q-100 0 -157 38.5t-57 114.5q0 67 42.5 102.5t123.5 43.5l136 14v18
q0 40 -27.5 58t-77.5 18q-39 0 -76 -10t-66 -24q-10 8 -18 22t-8 29q0 36 40 53q28 13 65.5 19t74.5 6zM142 626q0 43 31 72.5t86 29.5q57 0 88.5 -29.5t31.5 -72.5t-31.5 -72.5t-88.5 -29.5q-55 0 -86 29.5t-31 72.5zM220 626q0 -19 11.5 -29.5t27.5 -10.5q18 0 29.5 10.5
t11.5 29.5t-11.5 29.5t-29.5 10.5q-16 0 -27.5 -10.5t-11.5 -29.5zM239 837l72 89q31 -1 46.5 -14.5t15.5 -30.5q0 -15 -7.5 -26t-21.5 -25l-64 -68q-26 0 -41 12.5t-15 27.5q0 9 3.5 17t11.5 18z" />
    <glyph glyph-name="AEacute" unicode="&#x1fc;" horiz-adv-x="859" 
d="M483 502h-91l-143 -288l-20 -39l-85 -176q-10 -3 -20 -5.5t-26 -2.5q-33 0 -48.5 13t-15.5 35q0 12 3.5 24.5t11.5 27.5q13 27 36.5 73.5t53 103.5t61 116.5t60.5 113.5t50 93q11 8 31.5 14.5t46.5 6.5q18 0 37.5 -4t35.5 -12.5t21 -23.5zM144 145l47 99h245l19 -99h-311
zM398 533h123v-526q-7 -2 -23 -5t-33 -3q-31 0 -49 18.5t-18 48.5v467zM465 260v100h301q6 -7 10 -20t4 -28q0 -26 -12 -39t-33 -13h-270zM465 -1v101h335q5 -7 9.5 -20t4.5 -29q0 -26 -12 -39t-33 -13h-304zM437 505v64q9 17 25.5 27.5t40.5 10.5h293q5 -7 9.5 -20t4.5 -28
q0 -26 -12.5 -40t-32.5 -14h-328zM400 739l103 93q31 0 48.5 -15.5t17.5 -36.5q0 -17 -7.5 -29.5t-28.5 -26.5l-92 -68q-29 1 -44.5 14t-15.5 31q0 11 4 20t15 18z" />
    <glyph glyph-name="aeacute" unicode="&#x1fd;" horiz-adv-x="821" 
d="M406 174l-5 86l268 40q-4 38 -30 66t-76 28q-52 0 -85.5 -35.5t-34.5 -101.5l3 -52q8 -64 49 -94t103 -30q42 0 78 12.5t58 27.5q13 -9 21.5 -22.5t8.5 -29.5q0 -26 -22.5 -44.5t-62 -28.5t-88.5 -10q-111 0 -173.5 61.5t-66.5 166.5q0 5 -3 13.5t-3 14.5q0 82 29.5 136
t79 81.5t109.5 27.5q66 0 116 -26.5t78 -73.5t28 -108q0 -28 -14.5 -41.5t-39.5 -16.5zM250 79q30 0 54 6t35 13v114l-99 -10q-41 -3 -62.5 -17.5t-21.5 -42.5q0 -29 23 -46t71 -17zM245 487q91 0 140.5 -42.5t49.5 -129.5v-233q0 -24 -11 -40t-26 -24q-27 -14 -61.5 -23.5
t-88.5 -9.5q-99 0 -155.5 38.5t-56.5 114.5q0 67 42.5 102.5t123.5 43.5l136 14v18q0 40 -27.5 58t-77.5 18q-39 0 -76 -10t-66 -24q-10 8 -18 22t-8 29q0 36 40 53q28 13 65.5 19t74.5 6zM368 611l99 109q37 0 56.5 -16.5t19.5 -37.5q0 -18 -8 -30t-27 -29l-93 -83
q-31 0 -48.5 15.5t-17.5 33.5q0 11 5 19.5t14 18.5z" />
    <glyph glyph-name="Oslashacute" unicode="&#x1fe;" horiz-adv-x="696" 
d="M187 72l-84 -89q-29 6 -45 21t-16 34q0 15 8.5 27.5t25.5 28.5l39 39zM611 515l-40 -42l-59 74l73 79q27 -7 43.5 -21.5t16.5 -32.5q0 -14 -9 -27.5t-25 -29.5zM527 431l-320 -343l-43 88l302 326zM650 304q0 -104 -39.5 -175t-108 -107.5t-155.5 -36.5q-85 0 -154 38
t-108.5 109t-39.5 172q0 104 40.5 175t109 107.5t152.5 36.5q85 0 153.5 -38t109 -109t40.5 -172zM524 304q0 103 -49 159t-128 56q-77 0 -126 -55t-49 -160q0 -103 48.5 -159.5t127.5 -56.5t127.5 55t48.5 161zM317 740l103 93q31 0 48.5 -15.5t17.5 -36.5
q0 -17 -7.5 -29.5t-28.5 -26.5l-92 -68q-29 1 -44.5 14t-15.5 31q0 11 4 20t15 18z" />
    <glyph glyph-name="oslashacute" unicode="&#x1ff;" horiz-adv-x="569" 
d="M432 391l-51 57l57 87q13 0 26.5 -5.5t22 -14.5t8.5 -22q0 -9 -6 -19zM199 39l-68 -100q-14 0 -27.5 5.5t-22 15t-8.5 20.5q0 10 7 20l50 72zM216 67l-44 65l172 261l65 -31zM528 237q0 -77 -30 -133.5t-84.5 -87t-128.5 -30.5t-129 30.5t-85.5 86.5t-30.5 134
q0 77 31 133t86 86.5t128 30.5t127.5 -30.5t85 -87t30.5 -132.5zM285 390q-55 0 -90 -39.5t-35 -113.5t34.5 -114t90.5 -40q55 0 89.5 39.5t34.5 114.5q0 73 -34.5 113t-89.5 40zM237 611l99 109q37 0 56.5 -16.5t19.5 -37.5q0 -18 -8 -30t-27 -29l-93 -83q-31 0 -48.5 15.5
t-17.5 33.5q0 11 5 19.5t14 18.5z" />
    <glyph glyph-name="uni0200" unicode="&#x200;" horiz-adv-x="609" 
d="M309 504h-5q-13 -36 -28.5 -82t-32.5 -95.5t-32 -95.5l-14 -62q-6 -19 -12.5 -42t-14 -46.5t-14 -44.5t-11.5 -37q-10 -3 -21.5 -5.5t-27.5 -2.5q-32 0 -50.5 12.5t-18.5 37.5q0 11 3.5 23t7.5 27q10 33 27 82.5t37 107.5t41.5 117t40.5 110.5t33 86.5q12 7 37 13t51 6
q34 0 62.5 -10t35.5 -32q21 -55 45 -126t49 -148t48 -150t41 -132q-10 -11 -27.5 -18t-40.5 -7q-33 0 -47.5 12.5t-22.5 38.5l-41 131l-13 64q-16 51 -31.5 100.5t-29.5 92.5t-24 74zM141 145l47 99h250l19 -99h-316zM160 687l-67 80v5q0 28 15.5 42.5t36.5 14.5
q17 0 29.5 -9t22.5 -24l64 -93q-5 -23 -19.5 -33.5t-31.5 -10.5q-15 0 -28 8t-22 20zM351 687l-67 80v5q0 28 15.5 42.5t36.5 14.5q17 0 29.5 -9t22.5 -24l64 -93q-5 -23 -19.5 -33.5t-32.5 -10.5q-15 0 -27 8.5t-22 19.5z" />
    <glyph glyph-name="uni0201" unicode="&#x201;" horiz-adv-x="521" 
d="M126 550l-87 101v6q0 28 16 42.5t38 14.5q18 0 30.5 -9t23.5 -25l79 -113q-6 -24 -18.5 -34.5t-31.5 -10.5q-15 0 -27.5 8t-22.5 20zM325 550l-87 101v5q0 29 15.5 43.5t37.5 14.5q18 0 30.5 -9t24.5 -25l79 -113q-6 -24 -19 -34.5t-32 -10.5q-14 0 -26.5 8t-22.5 20z
M250 79q30 0 54 6t35 13v114l-99 -10q-41 -3 -62.5 -17.5t-21.5 -42.5q0 -29 23 -46t71 -17zM245 487q98 0 156 -41.5t58 -130.5v-230q0 -24 -11.5 -38t-29.5 -25q-28 -16 -71 -26.5t-97 -10.5q-100 0 -157 38.5t-57 114.5q0 67 42.5 102.5t123.5 43.5l136 14v18
q0 40 -27.5 58t-77.5 18q-39 0 -76 -10t-66 -24q-10 8 -18 22t-8 29q0 36 40 53q28 13 65.5 19t74.5 6z" />
    <glyph glyph-name="uni0202" unicode="&#x202;" horiz-adv-x="609" 
d="M306 740q-31 0 -51 -16t-25 -43q-5 -1 -9 -1h-9q-27 0 -41.5 16t-14.5 38q0 38 38 67.5t112 29.5t112 -29.5t38 -67.5q0 -22 -14 -38t-43 -16h-8.5t-8.5 1q-5 27 -25 43t-51 16zM309 504h-5q-13 -36 -28.5 -82t-32.5 -95.5t-32 -95.5l-14 -62q-6 -19 -12.5 -42t-14 -46.5
t-14 -44.5t-11.5 -37q-10 -3 -21.5 -5.5t-27.5 -2.5q-32 0 -50.5 12.5t-18.5 37.5q0 11 3.5 23t7.5 27q10 33 27 82.5t37 107.5t41.5 117t40.5 110.5t33 86.5q12 7 37 13t51 6q34 0 62.5 -10t35.5 -32q21 -55 45 -126t49 -148t48 -150t41 -132q-10 -11 -27.5 -18t-40.5 -7
q-33 0 -47.5 12.5t-22.5 38.5l-41 131l-13 64q-16 51 -31.5 100.5t-29.5 92.5t-24 74zM141 145l47 99h250l19 -99h-316z" />
    <glyph glyph-name="uni0203" unicode="&#x203;" horiz-adv-x="521" 
d="M250 79q30 0 54 6t35 13v114l-99 -10q-41 -3 -62.5 -17.5t-21.5 -42.5q0 -29 23 -46t71 -17zM245 487q98 0 156 -41.5t58 -130.5v-230q0 -24 -11.5 -38t-29.5 -25q-28 -16 -71 -26.5t-97 -10.5q-100 0 -157 38.5t-57 114.5q0 67 42.5 102.5t123.5 43.5l136 14v18
q0 40 -27.5 58t-77.5 18q-39 0 -76 -10t-66 -24q-10 8 -18 22t-8 29q0 36 40 53q28 13 65.5 19t74.5 6zM247 613q-31 0 -50.5 -16t-25.5 -43q-4 -1 -8 -1h-9q-28 0 -42.5 16t-14.5 38q0 38 38.5 67.5t111.5 29.5q75 0 113 -29.5t38 -67.5q0 -22 -14.5 -38t-42.5 -16h-9.5
t-8.5 1q-5 27 -24.5 43t-51.5 16z" />
    <glyph glyph-name="uni0204" unicode="&#x204;" horiz-adv-x="539" 
d="M77 402h124v-395q-7 -2 -23 -5t-33 -3q-31 0 -49.5 18.5t-18.5 48.5v336zM201 206l-124 1v333q0 31 18.5 49t49.5 18q17 0 33 -3t23 -5v-393zM145 260v100h301q5 -7 9.5 -20t4.5 -28q0 -26 -12 -39t-33 -13h-270zM145 -1v101h336q4 -7 8.5 -20t4.5 -29q0 -26 -12 -39
t-33 -13h-304zM145 505v102h331q5 -7 9 -20t4 -28q0 -26 -11.5 -40t-33.5 -14h-299zM147 687l-67 80v5q0 28 15.5 42.5t36.5 14.5q17 0 29.5 -9t22.5 -24l64 -93q-5 -23 -19.5 -33.5t-31.5 -10.5q-15 0 -28 8t-22 20zM338 687l-67 80v5q0 28 15.5 42.5t36.5 14.5
q17 0 29.5 -9t22.5 -24l64 -93q-5 -23 -19.5 -33.5t-32.5 -10.5q-15 0 -27 8.5t-22 19.5z" />
    <glyph glyph-name="uni0205" unicode="&#x205;" horiz-adv-x="533" 
d="M118 174l-5 86l268 40q-3 38 -29 66t-76 28q-51 0 -85 -35.5t-35 -101.5l3 -52q9 -64 49.5 -94t102.5 -30q42 0 78 12.5t57 27.5q14 -9 22.5 -22.5t8.5 -29.5q0 -26 -23 -44.5t-62 -28.5t-89 -10q-77 0 -136.5 28.5t-93 85.5t-33.5 142q0 61 19 107t51.5 76.5t75.5 46
t90 15.5q66 0 115.5 -26.5t78 -73.5t28.5 -108q0 -28 -14.5 -41.5t-40.5 -16.5zM126 550l-87 101v6q0 28 16 42.5t38 14.5q18 0 30.5 -9t23.5 -25l79 -113q-6 -24 -18.5 -34.5t-31.5 -10.5q-15 0 -27.5 8t-22.5 20zM325 550l-87 101v5q0 29 15.5 43.5t37.5 14.5
q18 0 30.5 -9t24.5 -25l79 -113q-6 -24 -19 -34.5t-32 -10.5q-14 0 -26.5 8t-22.5 20z" />
    <glyph glyph-name="uni0206" unicode="&#x206;" horiz-adv-x="539" 
d="M306 717q-31 0 -51 -16t-25 -43q-5 -1 -9 -1.5t-9 -0.5q-27 0 -42 16t-15 39q0 38 38.5 67t112.5 29t112 -29.5t38 -66.5q0 -23 -14 -39t-43 -16q-4 0 -8.5 0.5t-8.5 1.5q-5 27 -25 43t-51 16zM77 402h124v-395q-7 -2 -23 -5t-33 -3q-31 0 -49.5 18.5t-18.5 48.5v336z
M201 206l-124 1v333q0 31 18.5 49t49.5 18q17 0 33 -3t23 -5v-393zM145 260v100h301q5 -7 9.5 -20t4.5 -28q0 -26 -12 -39t-33 -13h-270zM145 -1v101h336q4 -7 8.5 -20t4.5 -29q0 -26 -12 -39t-33 -13h-304zM145 505v102h331q5 -7 9 -20t4 -28q0 -26 -11.5 -40t-33.5 -14
h-299z" />
    <glyph glyph-name="uni0207" unicode="&#x207;" horiz-adv-x="533" 
d="M118 174l-5 86l268 40q-3 38 -29 66t-76 28q-51 0 -85 -35.5t-35 -101.5l3 -52q9 -64 49.5 -94t102.5 -30q42 0 78 12.5t57 27.5q14 -9 22.5 -22.5t8.5 -29.5q0 -26 -23 -44.5t-62 -28.5t-89 -10q-77 0 -136.5 28.5t-93 85.5t-33.5 142q0 61 19 107t51.5 76.5t75.5 46
t90 15.5q66 0 115.5 -26.5t78 -73.5t28.5 -108q0 -28 -14.5 -41.5t-40.5 -16.5zM273 613q-31 0 -50.5 -16t-25.5 -43q-4 -1 -8 -1h-9q-28 0 -42.5 16t-14.5 38q0 38 38.5 67.5t111.5 29.5q75 0 113 -29.5t38 -67.5q0 -22 -14.5 -38t-42.5 -16h-9.5t-8.5 1q-5 27 -24.5 43
t-51.5 16z" />
    <glyph glyph-name="uni0208" unicode="&#x208;" horiz-adv-x="283" 
d="M78 401h126v-399q-8 -3 -24 -5.5t-34 -2.5q-36 0 -52 13.5t-16 45.5v348zM204 255h-126v352q8 2 25 5t34 3q35 0 51 -12.5t16 -46.5v-301zM-18 687l-67 80v5q0 28 15.5 42.5t36.5 14.5q17 0 29.5 -9t22.5 -24l64 -93q-5 -23 -19.5 -33.5t-31.5 -10.5q-15 0 -28 8t-22 20z
M173 687l-67 80v5q0 28 15.5 42.5t36.5 14.5q17 0 29.5 -9t22.5 -24l64 -93q-5 -23 -19.5 -33.5t-32.5 -10.5q-15 0 -27 8.5t-22 19.5z" />
    <glyph glyph-name="uni0209" unicode="&#x209;" horiz-adv-x="267" 
d="M68 264h124v-262q-8 -3 -23 -5.5t-33 -2.5q-34 0 -51 12.5t-17 44.5v213zM192 201h-124v268q8 3 23.5 5.5t33.5 2.5q35 0 51 -12.5t16 -45.5v-218zM-9 550l-86 101v6q0 28 16 42.5t37 14.5q18 0 31 -8.5t24 -25.5l79 -112q-6 -25 -19 -35.5t-31 -10.5q-16 0 -28 8.5
t-23 19.5zM190 550l-87 101v6q0 28 15.5 42.5t37.5 14.5q18 0 31 -8.5t24 -25.5l79 -112q-6 -25 -18.5 -35.5t-31.5 -10.5q-15 0 -27 8t-23 20z" />
    <glyph glyph-name="uni020A" unicode="&#x20a;" horiz-adv-x="283" 
d="M141 740q-31 0 -50.5 -16t-25.5 -43q-4 -1 -8 -1h-9q-28 0 -42.5 16t-14.5 38q0 38 38.5 67.5t111.5 29.5q74 0 112 -29.5t38 -67.5q0 -22 -14 -38t-42 -16h-9.5t-8.5 1q-5 27 -24.5 43t-51.5 16zM78 401h126v-399q-8 -3 -24 -5.5t-34 -2.5q-36 0 -52 13.5t-16 45.5v348z
M204 255h-126v352q8 2 25 5t34 3q35 0 51 -12.5t16 -46.5v-301z" />
    <glyph glyph-name="uni020B" unicode="&#x20b;" horiz-adv-x="261" 
d="M68 264h124v-262q-8 -3 -23 -5.5t-33 -2.5q-34 0 -51 12.5t-17 44.5v213zM192 201h-124v268q8 3 23.5 5.5t33.5 2.5q35 0 51 -12.5t16 -45.5v-218zM125 613q-31 0 -51 -16t-25 -43q-5 -1 -9 -1h-9q-27 0 -41.5 16t-14.5 38q0 38 38.5 67.5t111.5 29.5q74 0 112 -29.5
t38 -67.5q0 -22 -14 -38t-43 -16h-8.5t-8.5 1q-5 27 -25 43t-51 16z" />
    <glyph glyph-name="uni020C" unicode="&#x20c;" horiz-adv-x="696" 
d="M650 304q0 -104 -39.5 -175t-108 -107.5t-155.5 -36.5q-86 0 -154.5 36.5t-108 107.5t-39.5 175t40.5 175t109 107.5t152.5 36.5q86 0 154.5 -36.5t108.5 -107.5t40 -175zM521 304q0 105 -47.5 160t-126.5 55q-77 0 -124.5 -55t-47.5 -160q0 -106 47 -161t126 -55t126 55
t47 161zM194 687l-67 80v5q0 28 15.5 42.5t36.5 14.5q17 0 29.5 -9t22.5 -24l64 -93q-5 -23 -19.5 -33.5t-31.5 -10.5q-15 0 -28 8t-22 20zM385 687l-67 80v5q0 28 15.5 42.5t36.5 14.5q17 0 29.5 -9t22.5 -24l64 -93q-5 -23 -19.5 -33.5t-32.5 -10.5q-15 0 -27 8.5
t-22 19.5z" />
    <glyph glyph-name="uni020D" unicode="&#x20d;" horiz-adv-x="569" 
d="M528 237q0 -77 -30 -133.5t-84.5 -87t-128.5 -30.5t-129 30.5t-85.5 86.5t-30.5 134q0 77 31 133t86 86.5t128 30.5t127.5 -30.5t85 -87t30.5 -132.5zM285 389q-55 0 -86.5 -40t-31.5 -112q0 -74 31 -113.5t87 -39.5q55 0 86 40t31 113q0 71 -31 111.5t-86 40.5zM136 550
l-87 101v6q0 28 16 42.5t38 14.5q18 0 30.5 -9t23.5 -25l79 -113q-6 -24 -18.5 -34.5t-31.5 -10.5q-15 0 -27.5 8t-22.5 20zM335 550l-87 101v5q0 29 15.5 43.5t37.5 14.5q18 0 30.5 -9t24.5 -25l79 -113q-6 -24 -19 -34.5t-32 -10.5q-14 0 -26.5 8t-22.5 20z" />
    <glyph glyph-name="uni020E" unicode="&#x20e;" horiz-adv-x="696" 
d="M347 740q-31 0 -50.5 -16t-25.5 -43q-4 -1 -8 -1h-9q-28 0 -42.5 16t-14.5 38q0 38 38.5 67.5t111.5 29.5q75 0 112.5 -29.5t37.5 -67.5q0 -22 -14 -38t-42 -16h-9.5t-8.5 1q-5 27 -24.5 43t-51.5 16zM650 304q0 -104 -39.5 -175t-108 -107.5t-155.5 -36.5
q-86 0 -154.5 36.5t-108 107.5t-39.5 175t40.5 175t109 107.5t152.5 36.5q86 0 154.5 -36.5t108.5 -107.5t40 -175zM521 304q0 105 -47.5 160t-126.5 55q-77 0 -124.5 -55t-47.5 -160q0 -106 47 -161t126 -55t126 55t47 161z" />
    <glyph glyph-name="uni020F" unicode="&#x20f;" horiz-adv-x="569" 
d="M528 237q0 -77 -30 -133.5t-84.5 -87t-128.5 -30.5t-129 30.5t-85.5 86.5t-30.5 134q0 77 31 133t86 86.5t128 30.5t127.5 -30.5t85 -87t30.5 -132.5zM285 389q-55 0 -86.5 -40t-31.5 -112q0 -74 31 -113.5t87 -39.5q55 0 86 40t31 113q0 71 -31 111.5t-86 40.5zM284 613
q-31 0 -50.5 -16t-25.5 -43q-4 -1 -8 -1h-9q-28 0 -42.5 16t-14.5 38q0 38 38.5 67.5t111.5 29.5q75 0 113 -29.5t38 -67.5q0 -22 -14.5 -38t-42.5 -16h-9.5t-8.5 1q-5 27 -24.5 43t-51.5 16z" />
    <glyph glyph-name="uni0210" unicode="&#x210;" horiz-adv-x="599" 
d="M203 313h83q59 0 94 26t35 77q0 50 -35 76t-103 26q-20 0 -39 -1.5t-35 -4.5v-199zM295 214h-218v343q0 18 10.5 28t27.5 16q32 10 75.5 15t88.5 5q132 0 197.5 -54.5t65.5 -149.5q0 -60 -30.5 -106t-85.5 -71.5t-131 -25.5zM278 246l108 31q25 -33 51.5 -66.5t51 -65
t44 -57.5t30.5 -43q-7 -25 -26.5 -39t-42.5 -14q-30 0 -46.5 13.5t-31.5 36.5zM77 258h127v-256q-8 -3 -24.5 -5.5t-34.5 -2.5q-36 0 -52 13.5t-16 45.5v205zM151 687l-67 80v5q0 28 15.5 42.5t36.5 14.5q17 0 29.5 -9t22.5 -24l64 -93q-5 -23 -19.5 -33.5t-31.5 -10.5
q-15 0 -28 8t-22 20zM342 687l-67 80v5q0 28 15.5 42.5t36.5 14.5q17 0 29.5 -9t22.5 -24l64 -93q-5 -23 -19.5 -33.5t-32.5 -10.5q-15 0 -27 8.5t-22 19.5z" />
    <glyph glyph-name="uni0211" unicode="&#x211;" horiz-adv-x="396" 
d="M187 360v-137h-123v147q0 25 12 42.5t34 32.5q30 18 76 30t99 12q94 0 94 -58q0 -14 -4 -25.5t-10 -20.5q-10 2 -25 3.5t-32 1.5q-36 0 -67.5 -7.5t-53.5 -20.5zM64 264l123 -6v-256q-8 -3 -23 -5.5t-33 -2.5q-34 0 -50.5 12.5t-16.5 44.5v213zM77 550l-87 101v6
q0 28 16 42.5t38 14.5q18 0 30.5 -9t23.5 -25l79 -113q-6 -24 -18.5 -34.5t-31.5 -10.5q-15 0 -27.5 8t-22.5 20zM276 550l-87 101v5q0 29 15.5 43.5t37.5 14.5q18 0 30.5 -9t24.5 -25l79 -113q-6 -24 -19 -34.5t-32 -10.5q-14 0 -26.5 8t-22.5 20z" />
    <glyph glyph-name="uni0212" unicode="&#x212;" horiz-adv-x="599" 
d="M203 313h83q59 0 94 26t35 77q0 50 -35 76t-103 26q-20 0 -39 -1.5t-35 -4.5v-199zM295 214h-218v343q0 18 10.5 28t27.5 16q32 10 75.5 15t88.5 5q132 0 197.5 -54.5t65.5 -149.5q0 -60 -30.5 -106t-85.5 -71.5t-131 -25.5zM278 246l108 31q25 -33 51.5 -66.5t51 -65
t44 -57.5t30.5 -43q-7 -25 -26.5 -39t-42.5 -14q-30 0 -46.5 13.5t-31.5 36.5zM77 258h127v-256q-8 -3 -24.5 -5.5t-34.5 -2.5q-36 0 -52 13.5t-16 45.5v205zM294 740q-31 0 -50.5 -16t-25.5 -43q-4 -1 -8 -1h-9q-28 0 -42.5 16t-14.5 38q0 38 38.5 67.5t111.5 29.5
q75 0 113 -29.5t38 -67.5q0 -22 -14.5 -38t-42.5 -16h-9.5t-8.5 1q-5 27 -24.5 43t-51.5 16z" />
    <glyph glyph-name="uni0213" unicode="&#x213;" horiz-adv-x="396" 
d="M187 360v-137h-123v147q0 25 12 42.5t34 32.5q30 18 76 30t99 12q94 0 94 -58q0 -14 -4 -25.5t-10 -20.5q-10 2 -25 3.5t-32 1.5q-36 0 -67.5 -7.5t-53.5 -20.5zM64 264l123 -6v-256q-8 -3 -23 -5.5t-33 -2.5q-34 0 -50.5 12.5t-16.5 44.5v213zM218 613q-31 0 -50.5 -16
t-25.5 -43q-4 -1 -8 -1h-9q-28 0 -42.5 16t-14.5 38q0 38 38.5 67.5t111.5 29.5q75 0 113 -29.5t38 -67.5q0 -22 -14.5 -38t-42.5 -16h-9.5t-8.5 1q-5 27 -24.5 43t-51.5 16z" />
    <glyph glyph-name="uni0214" unicode="&#x214;" horiz-adv-x="656" 
d="M328 -15q-79 0 -136 28.5t-86.5 80.5t-29.5 122v72h126v-67q0 -64 35.5 -98.5t90.5 -34.5q54 0 90 34.5t36 98.5v67h127v-72q0 -70 -30 -122t-86.5 -80.5t-136.5 -28.5zM202 253h-126v354q8 2 24.5 5t33.5 3q36 0 52 -12.5t16 -46.5v-303zM581 252h-127v355q8 2 25 5
t34 3q35 0 51.5 -12.5t16.5 -46.5v-304zM183 687l-67 80v5q0 28 15.5 42.5t36.5 14.5q17 0 29.5 -9t22.5 -24l64 -93q-5 -23 -19.5 -33.5t-31.5 -10.5q-15 0 -28 8t-22 20zM374 687l-67 80v5q0 28 15.5 42.5t36.5 14.5q17 0 29.5 -9t22.5 -24l64 -93q-5 -23 -19.5 -33.5
t-32.5 -10.5q-15 0 -27 8.5t-22 19.5z" />
    <glyph glyph-name="uni0215" unicode="&#x215;" horiz-adv-x="565" 
d="M64 181v79h123v-77q0 -53 27.5 -76t76.5 -23q32 0 54 6t33 13v157h123v-167q0 -23 -7.5 -38.5t-28.5 -28.5q-29 -17 -73.5 -28.5t-101.5 -11.5q-69 0 -120 20t-78.5 63.5t-27.5 111.5zM501 212h-123v260q8 2 23.5 4.5t32.5 2.5q35 0 51 -12t16 -45v-210zM187 212h-123
v260q8 2 23 4.5t33 2.5q35 0 51 -12t16 -45v-210zM146 550l-87 101v6q0 28 16 42.5t38 14.5q18 0 30.5 -9t23.5 -25l79 -113q-6 -24 -18.5 -34.5t-31.5 -10.5q-15 0 -27.5 8t-22.5 20zM345 550l-87 101v5q0 29 15.5 43.5t37.5 14.5q18 0 30.5 -9t24.5 -25l79 -113
q-6 -24 -19 -34.5t-32 -10.5q-14 0 -26.5 8t-22.5 20z" />
    <glyph glyph-name="uni0216" unicode="&#x216;" horiz-adv-x="656" 
d="M328 -15q-79 0 -136 28.5t-86.5 80.5t-29.5 122v72h126v-67q0 -64 35.5 -98.5t90.5 -34.5q54 0 90 34.5t36 98.5v67h127v-72q0 -70 -30 -122t-86.5 -80.5t-136.5 -28.5zM202 253h-126v354q8 2 24.5 5t33.5 3q36 0 52 -12.5t16 -46.5v-303zM581 252h-127v355q8 2 25 5
t34 3q35 0 51.5 -12.5t16.5 -46.5v-304zM327 740q-31 0 -50.5 -16t-25.5 -43q-4 -1 -8 -1h-9q-28 0 -42.5 16t-14.5 38q0 38 38.5 67.5t111.5 29.5q75 0 113 -29.5t38 -67.5q0 -22 -14.5 -38t-42.5 -16h-9.5t-8.5 1q-5 27 -24.5 43t-51.5 16z" />
    <glyph glyph-name="uni0217" unicode="&#x217;" horiz-adv-x="565" 
d="M64 181v79h123v-77q0 -53 27.5 -76t76.5 -23q32 0 54 6t33 13v157h123v-167q0 -23 -7.5 -38.5t-28.5 -28.5q-29 -17 -73.5 -28.5t-101.5 -11.5q-69 0 -120 20t-78.5 63.5t-27.5 111.5zM501 212h-123v260q8 2 23.5 4.5t32.5 2.5q35 0 51 -12t16 -45v-210zM187 212h-123
v260q8 2 23 4.5t33 2.5q35 0 51 -12t16 -45v-210zM282 613q-31 0 -50.5 -16t-25.5 -43q-4 -1 -8 -1h-9q-28 0 -42.5 16t-14.5 38q0 38 38.5 67.5t111.5 29.5q75 0 113 -29.5t38 -67.5q0 -22 -14.5 -38t-42.5 -16h-9.5t-8.5 1q-5 27 -24.5 43t-51.5 16z" />
    <glyph glyph-name="uni0218" unicode="&#x218;" horiz-adv-x="536" 
d="M254 88q58 0 86 23.5t28 58.5q0 31 -21.5 50.5t-65.5 32.5l-65 20q-50 17 -87.5 38t-58 54.5t-20.5 82.5q0 81 60.5 128t165.5 47q56 0 99.5 -11.5t69 -31.5t25.5 -47q0 -19 -9.5 -33.5t-23.5 -23.5q-23 17 -63 29.5t-87 12.5q-52 0 -80 -19t-28 -51q0 -26 19.5 -42
t59.5 -28l58 -17q86 -26 134 -70.5t48 -121.5q0 -82 -62.5 -133t-178.5 -51q-61 0 -108 13t-74.5 36t-27.5 52q0 22 14 38t30 24q26 -22 67 -41t96 -19zM279 -212q-12 -13 -26.5 -19t-31.5 -6q-29 0 -47 18q18 38 29 76.5t15 71.5q12 6 27 10t31 4q23 0 38.5 -10t15.5 -31
q0 -16 -8 -38t-20 -42.5t-23 -33.5z" />
    <glyph glyph-name="uni0219" unicode="&#x219;" horiz-adv-x="469" 
d="M430 134q0 -70 -52 -109.5t-151 -39.5q-80 0 -131 24t-51 64q0 17 8 31.5t21 22.5q28 -18 65 -32t84 -14q85 0 85 52q0 22 -15 35.5t-46 19.5l-57 15q-73 16 -108.5 50t-35.5 91q0 63 52 103.5t144 40.5q48 0 86 -9.5t59.5 -27.5t21.5 -43q0 -17 -7.5 -30.5t-19.5 -20.5
q-12 7 -32.5 15.5t-46.5 14t-52 5.5q-39 0 -61.5 -12.5t-22.5 -35.5q0 -17 13 -29t44 -19l51 -12q81 -19 118 -55.5t37 -94.5zM255 -212q-12 -13 -26.5 -19t-31.5 -6q-29 0 -47 18q18 38 29 76.5t15 71.5q12 6 27 10t31 4q23 0 38.5 -10t15.5 -31q0 -16 -8 -38t-20 -42.5
t-23 -33.5z" />
    <glyph glyph-name="uni021A" unicode="&#x21a;" horiz-adv-x="539" 
d="M225 504l-3 103h281q5 -7 9 -20.5t4 -28.5q0 -26 -12 -40t-33 -14h-246zM314 607l2 -103h-281q-5 8 -9 21t-4 29q0 27 12 40t33 13h247zM205 531h126v-529q-8 -3 -24.5 -5.5t-33.5 -2.5q-37 0 -52.5 13.5t-15.5 45.5v478zM278 -212q-12 -13 -26.5 -19t-31.5 -6
q-29 0 -47 18q18 38 29 76.5t15 71.5q12 6 27 10t31 4q23 0 38.5 -10t15.5 -31q0 -16 -8 -38t-20 -42.5t-23 -33.5z" />
    <glyph glyph-name="uni021B" unicode="&#x21b;" horiz-adv-x="384" 
d="M65 264h123v-118q0 -33 19.5 -47t55.5 -14q16 0 34.5 4t31.5 10q7 -8 13 -19t6 -27q0 -29 -27.5 -48t-85.5 -19q-79 0 -124.5 35.5t-45.5 115.5v127zM140 366v97h196q4 -7 8.5 -20t4.5 -27q0 -25 -12 -37.5t-31 -12.5h-166zM188 237h-123v360q8 3 23.5 6t32.5 3
q35 0 51 -12.5t16 -44.5v-312zM219 -212q-12 -13 -26.5 -19t-31.5 -6q-29 0 -47 18q18 38 29 76.5t15 71.5q12 6 27 10t31 4q23 0 38.5 -10t15.5 -31q0 -16 -8 -38t-20 -42.5t-23 -33.5z" />
    <glyph glyph-name="uni022A" unicode="&#x22a;" horiz-adv-x="696" 
d="M461 879h-257q-4 8 -8 19t-4 24q0 24 11 34.5t29 10.5h257q5 -8 8 -19.5t3 -23.5q0 -24 -10.5 -34.5t-28.5 -10.5zM650 304q0 -104 -39.5 -175.5t-108 -107.5t-155.5 -36q-86 0 -154.5 36t-108 107.5t-39.5 175.5t40.5 175t109 107.5t152.5 36.5q86 0 154.5 -36.5
t108.5 -107.5t40 -175zM521 304q0 105 -47.5 160t-126.5 55q-77 0 -124.5 -55t-47.5 -160q0 -106 47 -161t126 -55t126 55t47 161zM316 743q0 -27 -18.5 -46t-48.5 -19q-28 0 -46.5 19t-18.5 46t18.5 46t46.5 19q30 0 48.5 -19t18.5 -46zM509 743q0 -27 -18.5 -46t-47.5 -19
q-28 0 -47 19t-19 46t19 46t47 19q29 0 47.5 -19t18.5 -46z" />
    <glyph glyph-name="uni022B" unicode="&#x22b;" horiz-adv-x="569" 
d="M395 756h-256q-4 7 -8 18.5t-4 23.5q0 25 11 35t28 10h257q5 -7 8.5 -18.5t3.5 -23.5q0 -24 -10.5 -34.5t-29.5 -10.5zM528 237q0 -77 -30 -133.5t-84.5 -87t-128.5 -30.5t-129 30.5t-85.5 86.5t-30.5 134q0 77 31 133t86 86.5t128 30.5t127.5 -30.5t85 -87t30.5 -132.5z
M285 389q-55 0 -86.5 -40t-31.5 -112q0 -74 31 -113.5t87 -39.5q55 0 86 40t31 113q0 71 -31 111.5t-86 40.5zM254 615q0 -27 -18.5 -45.5t-48.5 -18.5q-29 0 -47 18.5t-18 45.5t18 46t47 19q30 0 48.5 -19t18.5 -46zM447 615q0 -27 -18.5 -45.5t-47.5 -18.5
q-28 0 -47.5 18.5t-19.5 45.5t19.5 46t47.5 19q29 0 47.5 -19t18.5 -46z" />
    <glyph glyph-name="uni022C" unicode="&#x22c;" horiz-adv-x="696" 
d="M461 879h-257q-4 8 -8 19t-4 24q0 24 11 34.5t29 10.5h257q5 -8 8 -19.5t3 -23.5q0 -24 -10.5 -34.5t-28.5 -10.5zM269 813q28 0 52 -7.5t45 -15.5t37 -8q20 0 30.5 12t14.5 24h5q25 0 43.5 -15t18.5 -43q0 -36 -24 -55t-61 -19q-30 0 -55 8.5t-45 16t-37 7.5
q-20 0 -29.5 -11.5t-14.5 -25.5h-5q-24 0 -42.5 15.5t-18.5 42.5q0 25 12 41.5t32.5 24.5t41.5 8zM650 304q0 -104 -39.5 -175t-108 -107.5t-155.5 -36.5q-86 0 -154.5 36.5t-108 107.5t-39.5 175t40.5 175t109 107.5t152.5 36.5q86 0 154.5 -36.5t108.5 -107.5t40 -175z
M521 304q0 105 -47.5 160t-126.5 55q-77 0 -124.5 -55t-47.5 -160q0 -106 47 -161t126 -55t126 55t47 161z" />
    <glyph glyph-name="uni022D" unicode="&#x22d;" horiz-adv-x="569" 
d="M400 756h-257q-4 7 -8 18.5t-4 23.5q0 25 11 35t28 10h257q5 -7 8.5 -18.5t3.5 -23.5q0 -24 -10.5 -34.5t-28.5 -10.5zM528 237q0 -77 -30 -133.5t-84.5 -87t-128.5 -30.5t-129 30.5t-85.5 86.5t-30.5 134q0 77 31 133t86 86.5t128 30.5t127.5 -30.5t85 -87t30.5 -132.5z
M285 389q-55 0 -86.5 -40t-31.5 -112q0 -74 31 -113.5t87 -39.5q55 0 86 40t31 113q0 71 -31 111.5t-86 40.5zM206 682q28 0 52.5 -8t45.5 -16t37 -8q20 0 30.5 12t14.5 25h5q25 0 43 -15.5t18 -42.5q0 -36 -23.5 -55t-61.5 -19q-30 0 -54.5 8t-44.5 16t-37 8
q-20 0 -29.5 -12t-14.5 -25h-5q-24 0 -43 15t-19 43q0 25 12.5 41t33 24.5t40.5 8.5z" />
    <glyph glyph-name="uni0230" unicode="&#x230;" horiz-adv-x="696" 
d="M461 879h-257q-4 8 -8 19t-4 24q0 24 11 34.5t29 10.5h257q5 -8 8 -19.5t3 -23.5q0 -24 -10.5 -34.5t-28.5 -10.5zM650 304q0 -104 -39.5 -175t-108 -107.5t-155.5 -36.5q-86 0 -154.5 36.5t-108 107.5t-39.5 175t40.5 175t109 107.5t152.5 36.5q86 0 154.5 -36.5
t108.5 -107.5t40 -175zM521 304q0 105 -47.5 160t-126.5 55q-77 0 -124.5 -55t-47.5 -160q0 -106 47 -161t126 -55t126 55t47 161zM417 744q0 -29 -19 -48t-51 -19q-30 0 -49.5 19t-19.5 48q0 30 19.5 49t49.5 19q32 0 51 -19t19 -49z" />
    <glyph glyph-name="uni0231" unicode="&#x231;" horiz-adv-x="569" 
d="M395 756h-256q-4 7 -8 18.5t-4 23.5q0 25 11 35t28 10h257q5 -7 8.5 -18.5t3.5 -23.5q0 -24 -10.5 -34.5t-29.5 -10.5zM528 237q0 -77 -30 -133.5t-84.5 -87t-128.5 -30.5t-129 30.5t-85.5 86.5t-30.5 134q0 77 31 133t86 86.5t128 30.5t127.5 -30.5t85 -87t30.5 -132.5z
M285 389q-55 0 -86.5 -40t-31.5 -112q0 -74 31 -113.5t87 -39.5q55 0 86 40t31 113q0 71 -31 111.5t-86 40.5zM354 619q0 -29 -19 -48t-51 -19q-30 0 -49.5 19t-19.5 48q0 30 19.5 49t49.5 19q32 0 51 -19t19 -49z" />
    <glyph glyph-name="uni0232" unicode="&#x232;" horiz-adv-x="562" 
d="M344 204h-112q-27 39 -57.5 86.5t-60.5 97.5t-56.5 97.5t-44.5 86.5q9 14 25.5 27t41.5 13q28 0 45.5 -13t33.5 -45q14 -25 30.5 -55t33.5 -61.5t33 -61t29 -52.5h5q27 51 49.5 94.5t43.5 87.5t43 93q12 6 27 9.5t29 3.5q26 0 43 -14t17 -40q0 -11 -11.5 -37.5
t-35.5 -69.5t-61.5 -104.5t-89.5 -142.5zM226 253h124v-251q-8 -3 -24.5 -5.5t-32.5 -2.5q-37 0 -52 13t-15 45v201zM396 691h-246q-4 9 -8.5 21t-4.5 26q0 26 12 37t31 11h246q6 -8 9 -20.5t3 -25.5q0 -27 -11 -38t-31 -11z" />
    <glyph glyph-name="uni0233" unicode="&#x233;" horiz-adv-x="519" 
d="M149 113q-16 33 -36.5 82.5t-42.5 115t-45 144.5q11 12 28 20t37 8q26 0 42.5 -11.5t25.5 -41.5q26 -78 52.5 -154t56.5 -155h4q19 44 38 103.5t36.5 123.5t29.5 122q12 6 25 9.5t28 3.5q25 0 43.5 -11.5t18.5 -38.5q0 -24 -8.5 -63.5t-23.5 -87.5t-34.5 -100t-41 -100.5
t-43.5 -87.5q-51 -91 -94 -137.5t-83 -46.5q-31 0 -50.5 18.5t-23.5 45.5q22 19 46.5 45.5t47.5 56.5t39 59q-17 5 -34 20.5t-38 57.5zM376 567h-246q-4 9 -8.5 21t-4.5 26q0 26 12 37t31 11h246q6 -8 9 -20.5t3 -25.5q0 -27 -11 -38t-31 -11z" />
    </font>
</defs>
</svg>
