<?xml version="1.0" standalone="no"?>
<!DOCTYPE svg PUBLIC "-//W3C//DTD SVG 1.1//EN" "http://www.w3.org/Graphics/SVG/1.1/DTD/svg11.dtd" >
<svg xmlns="http://www.w3.org/2000/svg" xmlns:xlink="http://www.w3.org/1999/xlink" version="1.1">
<metadata>
Created by FontForge 20201107 at Tue Sep 19 13:25:55 2023
 By 
(c) 2023 Adobe (http://www.adobe.com/), with Reserved Font Name `Source'
</metadata>
<defs>
<font id="SourceSans3-SemiBold" horiz-adv-x="0" >
  <font-face 
    font-family="Source Sans 3 SemiBold"
    font-weight="600"
    font-stretch="normal"
    units-per-em="1000"
    panose-1="2 11 3 3 3 4 3 2 2 4"
    ascent="800"
    descent="-200"
    x-height="491"
    cap-height="654"
    bbox="-630 -305 2158 972"
    underline-thickness="50"
    underline-position="-75"
    unicode-range="U+0021-1F916"
  />
<missing-glyph horiz-adv-x="672" 
d="M84 0v660h504v-660h-504zM230 75h210l-56 104l-46 100h-4l-47 -100zM334 401h4l46 94l48 89h-193l49 -89zM166 133l111 207l-111 209v-416zM505 133v416l-110 -209z" />
    <glyph glyph-name="f_f" unicode="ff" horiz-adv-x="618" 
d="M93 0v534q0 51 17.5 90.5t55.5 61.5t97 22q28 0 53.5 -5t42.5 -13l-22 -86q-14 7 -28 10t-34 3q-30 0 -48.5 -21t-18.5 -62v-534h-115zM394 0v542q0 51 16.5 91t52 62.5t93.5 22.5q27 0 50.5 -5t39.5 -12l-22 -86q-13 6 -26.5 9t-26.5 3q-30 0 -46 -20t-16 -63v-544h-115
zM20 400v86l74 5h511v-91h-585z" />
    <glyph glyph-name="f_t" unicode="ft" horiz-adv-x="642" 
d="M93 0v542q0 51 16.5 91t52.5 62.5t94 22.5q27 0 50.5 -5t39.5 -12l-22 -86q-14 6 -27.5 9t-26.5 3q-30 0 -46 -20t-16 -63v-544h-115zM526 -12q-84 0 -119.5 49.5t-35.5 128.5v234h-351v86l74 5h283l14 134h95v-134h126v-91h-126v-234q0 -43 17.5 -64.5t52.5 -21.5
q13 0 27 3.5t24 7.5l20 -85q-20 -6 -45.5 -12t-55.5 -6z" />
    <glyph glyph-name="f_f_t" unicode="fft" horiz-adv-x="942" 
d="M93 0v534q0 51 17.5 90.5t55.5 61.5t97 22q28 0 53.5 -5t42.5 -13l-22 -86q-14 7 -28 10t-34 3q-30 0 -48.5 -21t-18.5 -62v-534h-115zM394 0v542q0 51 16.5 91t52 62.5t93.5 22.5q27 0 50.5 -5t39.5 -12l-22 -86q-13 6 -26.5 9t-26.5 3q-30 0 -46 -20t-16 -63v-544h-115
zM827 -12q-84 0 -119.5 49.5t-35.5 128.5v234h-652v86l74 5h584l14 134h95v-134h125v-91h-125v-234q0 -43 17.5 -64.5t52.5 -21.5q13 0 26.5 3.5t24.5 7.5l20 -85q-20 -6 -45.5 -12t-55.5 -6z" />
    <glyph glyph-name=".notdef" horiz-adv-x="672" 
d="M84 0v660h504v-660h-504zM230 75h210l-56 104l-46 100h-4l-47 -100zM334 401h4l46 94l48 89h-193l49 -89zM166 133l111 207l-111 209v-416zM505 133v416l-110 -209z" />
    <glyph glyph-name=".null" 
 />
    <glyph glyph-name="nonmarkingreturn" horiz-adv-x="333" 
 />
    <glyph glyph-name="space" unicode="&#xa0;" horiz-adv-x="200" 
 />
    <glyph glyph-name="space" unicode=" " horiz-adv-x="200" 
 />
    <glyph glyph-name="exclam" unicode="!" horiz-adv-x="315" 
d="M119 215l-16 341l-3 114h116l-4 -114l-16 -341h-77zM158 -12q-31 0 -53 22.5t-22 55.5q0 34 22 56t53 22q32 0 53 -22t21 -56q0 -33 -21 -55.5t-53 -22.5z" />
    <glyph glyph-name="quotedbl" unicode="&#x22;" horiz-adv-x="482" 
d="M104 392l-22 183l-4 113h118l-3 -113l-23 -183h-66zM311 392l-22 183l-4 113h118l-3 -113l-23 -183h-66z" />
    <glyph glyph-name="numbersign" unicode="#" horiz-adv-x="513" 
d="M84 0l24 190h-76v86h84l16 120h-80v86h90l22 168h80l-22 -168h105l23 168h80l-23 -168h79v-86h-88l-16 -120h84v-86h-93l-23 -190h-80l23 190h-105l-24 -190h-80zM196 276h106l16 120h-106z" />
    <glyph glyph-name="dollar" unicode="$" horiz-adv-x="513" 
d="M245 -12q-56 0 -109 21t-91 61l53 71q34 -30 70.5 -44.5t76.5 -14.5q49 0 73 24t24 64q0 31 -19.5 52t-51 39t-66 36.5t-65.5 41.5t-50.5 54t-19.5 76q0 54 24 94.5t67.5 62.5t101.5 22q61 0 104.5 -22.5t75.5 -59.5l-59 -63q-24 25 -52.5 38t-65.5 13q-39 0 -62 -21
t-23 -59q0 -27 19.5 -47t50.5 -36.5t66 -34.5t66 -41t50.5 -55.5t19.5 -79.5q0 -57 -24.5 -100t-71 -67.5t-112.5 -24.5zM218 -110v143h80v-143h-80zM218 610v136h80v-136h-80z" />
    <glyph glyph-name="percent" unicode="%" horiz-adv-x="841" 
d="M186 252q-46 0 -81 24.5t-55 71t-20 112.5q0 98 43.5 152t112.5 54t112.5 -54t43.5 -152q0 -66 -20 -112.5t-55 -71t-81 -24.5zM186 319q32 0 52.5 33.5t20.5 107.5t-20.5 106.5t-52.5 32.5q-31 0 -52 -32.5t-21 -106.5t21 -107.5t52 -33.5zM207 -12l357 678h70
l-356 -678h-71zM655 -12q-46 0 -81 24.5t-55 71t-20 112.5q0 98 43.5 152t112.5 54t112.5 -54t43.5 -152q0 -66 -20 -112.5t-55 -71t-81 -24.5zM655 55q32 0 52.5 33.5t20.5 107.5t-20.5 106.5t-52.5 32.5q-31 0 -52 -32.5t-21 -106.5t21 -107.5t52 -33.5z" />
    <glyph glyph-name="ampersand" unicode="&#x26;" horiz-adv-x="639" 
d="M243 -12q-64 0 -112.5 22.5t-75.5 64t-27 97.5q0 51 22 88t56.5 65t73 50.5t73 44.5t56 47.5t21.5 58.5q0 26 -12.5 44t-40.5 18q-30 0 -49.5 -23t-19.5 -61q0 -43 23 -91t62 -95t86.5 -89.5t95.5 -76.5q40 -28 80 -45t67 -25l-29 -94q-43 10 -91 33t-96 57
q-58 41 -111 93t-94.5 110t-65.5 114.5t-24 107.5q0 45 20.5 82t57.5 59t87 22q67 0 105.5 -38t38.5 -101q0 -43 -20 -76.5t-52 -61t-68.5 -51.5t-68.5 -48t-52.5 -51t-20.5 -60t15.5 -55.5t41 -34.5t56.5 -12q38 0 74.5 20t68.5 52q40 41 69.5 94.5t46.5 117.5h106
q-20 -72 -55.5 -139t-86.5 -126q-43 -48 -98 -78t-133 -30z" />
    <glyph glyph-name="quotesingle" unicode="'" horiz-adv-x="275" 
d="M104 392l-22 183l-4 113h118l-3 -113l-23 -183h-66z" />
    <glyph glyph-name="parenleft" unicode="(" horiz-adv-x="324" 
d="M209 -178q-62 102 -97 213t-35 243t35 243t97 213l72 -32q-57 -95 -83.5 -204.5t-26.5 -219.5t26.5 -219t83.5 -205z" />
    <glyph glyph-name="parenright" unicode=")" horiz-adv-x="324" 
d="M115 -178l-72 32q57 96 83.5 205t26.5 219t-26.5 219.5t-83.5 204.5l72 32q63 -102 97.5 -213t34.5 -243t-34.5 -243t-97.5 -213z" />
    <glyph glyph-name="asterisk" unicode="*" horiz-adv-x="438" 
d="M143 384l-51 37l58 98l-102 45l19 60l109 -25l11 113h63l11 -113l110 25l19 -60l-103 -45l58 -98l-51 -37l-75 87z" />
    <glyph glyph-name="plus" unicode="+" horiz-adv-x="513" 
d="M213 99v189h-179v84h179v189h87v-189h179v-84h-179v-189h-87z" />
    <glyph glyph-name="comma" unicode="," horiz-adv-x="275" 
d="M72 -182l-25 63q49 19 75.5 52t25.5 72l-5 87l44 -72q-10 -9 -22 -13.5t-26 -4.5q-29 0 -51.5 18.5t-22.5 52.5q0 33 23 52t54 19q41 0 63.5 -31t22.5 -87q0 -74 -41 -128.5t-115 -79.5z" />
    <glyph glyph-name="hyphen" unicode="&#x2011;" horiz-adv-x="322" 
d="M42 210v84h238v-84h-238z" />
    <glyph glyph-name="hyphen" unicode="&#x2010;" horiz-adv-x="322" 
d="M42 210v84h238v-84h-238z" />
    <glyph glyph-name="hyphen" unicode="&#xad;" horiz-adv-x="322" 
d="M42 210v84h238v-84h-238z" />
    <glyph glyph-name="hyphen" unicode="-" horiz-adv-x="322" 
d="M42 210v84h238v-84h-238z" />
    <glyph glyph-name="period" unicode="." horiz-adv-x="275" 
d="M138 -12q-31 0 -53 22.5t-22 55.5q0 34 22 56t53 22q32 0 53 -22t21 -56q0 -33 -21 -55.5t-53 -22.5z" />
    <glyph glyph-name="slash" unicode="/" horiz-adv-x="344" 
d="M12 -160l233 870h78l-233 -870h-78z" />
    <glyph glyph-name="zero" unicode="0" horiz-adv-x="513" 
d="M256 -12q-99 0 -157.5 85.5t-58.5 247.5q0 161 58.5 244t157.5 83t157.5 -83t58.5 -244q0 -162 -58.5 -247.5t-157.5 -85.5zM256 78q31 0 55 23t37.5 76.5t13.5 143.5t-13.5 142t-37.5 73.5t-55 21.5q-30 0 -54 -21.5t-38 -73.5t-14 -142t14 -143.5t38 -76.5t54 -23z" />
    <glyph glyph-name="one" unicode="1" horiz-adv-x="513" 
d="M74 0v94h142v418h-117v72q47 9 82 21.5t65 30.5h86v-542h125v-94h-383z" />
    <glyph glyph-name="two" unicode="2" horiz-adv-x="513" 
d="M38 0v71q88 82 152.5 149.5t100 123t35.5 103.5q0 51 -26.5 80.5t-78.5 29.5q-37 0 -67.5 -21t-56.5 -50l-62 61q43 48 90 74.5t111 26.5q61 0 106 -24t70 -67.5t25 -102.5t-32.5 -117t-87.5 -118.5t-122 -127.5q25 3 54.5 5t52.5 2h166v-98h-430z" />
    <glyph glyph-name="three" unicode="3" horiz-adv-x="513" 
d="M240 -12q-51 0 -91.5 12t-71.5 32.5t-53 45.5l55 74q29 -29 66 -49.5t85 -20.5q52 0 84.5 25.5t32.5 70.5q0 33 -16.5 57t-57 37.5t-113.5 13.5v84q63 0 99 13.5t51.5 36t15.5 52.5q0 40 -25 62.5t-69 22.5q-37 0 -68 -16.5t-60 -43.5l-59 71q41 36 88 58t103 22
q61 0 107 -19.5t72.5 -57t26.5 -91.5q0 -53 -29.5 -89t-81.5 -57v-4q37 -10 67 -31t47.5 -53t17.5 -74q0 -58 -30.5 -99.5t-81 -63t-111.5 -21.5z" />
    <glyph glyph-name="four" unicode="4" horiz-adv-x="513" 
d="M299 0v397q0 27 2 66t3 66h-4q-12 -24 -25 -48.5t-27 -50.5l-116 -177h355v-89h-469v78l252 394h137v-636h-108z" />
    <glyph glyph-name="five" unicode="5" horiz-adv-x="513" 
d="M241 -12q-52 0 -92 12t-71 32.5t-54 43.5l53 74q29 -27 65 -47.5t84 -20.5q36 0 63.5 14.5t43.5 42t16 65.5q0 57 -32.5 88t-84.5 31q-30 0 -51.5 -8.5t-50.5 -27.5l-55 35l19 314h340v-97h-240l-13 -154q20 10 39.5 15.5t44.5 5.5q54 0 99.5 -21.5t73 -65.5t27.5 -112
q0 -70 -31.5 -119t-82.5 -74.5t-110 -25.5z" />
    <glyph glyph-name="six" unicode="6" horiz-adv-x="513" 
d="M275 -12q-47 0 -88.5 18.5t-73.5 56.5t-50.5 97t-18.5 139q0 92 20.5 158.5t56 108.5t80 62t93.5 20q58 0 100 -21t70 -51l-62 -70q-17 21 -44.5 34.5t-56.5 13.5q-41 0 -75.5 -24t-54.5 -80t-20 -151q0 -79 15.5 -128t43 -72t63.5 -23q27 0 48.5 14t34 41t12.5 66
q0 38 -12 63t-34 37.5t-54 12.5q-28 0 -59.5 -17.5t-58.5 -61.5l-4 81q27 39 67 60.5t76 21.5q55 0 97 -21.5t65.5 -65.5t23.5 -110q0 -64 -27.5 -111t-73 -72.5t-99.5 -25.5z" />
    <glyph glyph-name="seven" unicode="7" horiz-adv-x="513" 
d="M160 0q5 85 16.5 155.5t33.5 134t55 124t81 125.5h-302v97h427v-70q-57 -70 -93.5 -133t-56.5 -127.5t-29.5 -138.5t-14.5 -167h-117z" />
    <glyph glyph-name="eight" unicode="8" horiz-adv-x="513" 
d="M257 -12q-62 0 -111 22.5t-77 62t-28 90.5q0 40 16 70.5t42.5 53.5t56.5 39v4q-36 27 -62 63t-26 86q0 51 25 89.5t68.5 59t98.5 20.5q86 0 136.5 -47.5t50.5 -124.5q0 -31 -12.5 -59t-32 -50t-40.5 -37v-4q29 -16 54 -38.5t40.5 -53t15.5 -73.5q0 -49 -27 -88t-75 -62
t-113 -23zM299 359q26 26 39.5 53t13.5 57q0 28 -11 50t-32 34.5t-51 12.5q-37 0 -62 -23t-25 -64q0 -32 17.5 -53.5t46.5 -37t64 -29.5zM259 70q31 0 54.5 11.5t37 32.5t13.5 51q0 34 -20.5 56.5t-55 39t-77.5 33.5q-29 -21 -49 -51.5t-20 -67.5q0 -32 15.5 -55.5t42 -36.5
t59.5 -13z" />
    <glyph glyph-name="nine" unicode="9" horiz-adv-x="513" 
d="M217 -12q-57 0 -99 21.5t-71 50.5l62 70q18 -20 45.5 -34t56.5 -14q41 0 75 24t54.5 80t20.5 152q0 78 -15.5 127.5t-43 72t-64.5 22.5q-26 0 -47.5 -14t-34.5 -40.5t-13 -65.5q0 -38 12 -63t34.5 -38t54.5 -13q28 0 59 18t58 61l5 -81q-27 -37 -67.5 -59t-76.5 -22
q-54 0 -96 21.5t-65.5 65t-23.5 110.5q0 63 27.5 110t72.5 72.5t100 25.5q47 0 88.5 -18.5t73 -56.5t50 -96.5t18.5 -138.5q0 -93 -20.5 -159.5t-55.5 -108.5t-80 -62t-94 -20z" />
    <glyph glyph-name="colon" unicode=":" horiz-adv-x="275" 
d="M138 330q-31 0 -53 22.5t-22 55.5q0 34 22 56t53 22q32 0 53 -22t21 -56q0 -33 -21 -55.5t-53 -22.5zM138 -12q-31 0 -53 22.5t-22 55.5q0 34 22 56t53 22q32 0 53 -22t21 -56q0 -33 -21 -55.5t-53 -22.5z" />
    <glyph glyph-name="semicolon" unicode=";" horiz-adv-x="275" 
d="M138 330q-31 0 -53 22.5t-22 55.5q0 34 22 56t53 22q32 0 53 -22t21 -56q0 -33 -21 -55.5t-53 -22.5zM72 -182l-25 63q49 19 75.5 52t25.5 72l-5 87l44 -72q-10 -9 -22 -13.5t-26 -4.5q-29 0 -51.5 18.5t-22.5 52.5q0 33 23 52t54 19q41 0 63.5 -31t22.5 -87
q0 -74 -41 -128.5t-115 -79.5z" />
    <glyph glyph-name="less" unicode="&#x3c;" horiz-adv-x="513" 
d="M479 117l-445 173v84l445 173v-97l-193 -68l-135 -48v-4l135 -48l193 -68v-97z" />
    <glyph glyph-name="equal" unicode="=" horiz-adv-x="513" 
d="M34 400v84h445v-84h-445zM34 176v84h445v-84h-445z" />
    <glyph glyph-name="greater" unicode="&#x3e;" horiz-adv-x="513" 
d="M34 117v97l193 68l135 48v4l-135 48l-193 68v97l445 -173v-84z" />
    <glyph glyph-name="question" unicode="?" horiz-adv-x="444" 
d="M157 215q-7 44 4.5 78.5t32 62.5t42.5 52.5t37 48.5t15 51q0 24 -9.5 42t-27.5 28t-44 10q-30 0 -55.5 -14t-47.5 -38l-64 59q33 38 78.5 62.5t102.5 24.5q52 0 92.5 -18.5t63.5 -55.5t23 -92q0 -38 -15.5 -68t-38.5 -56t-44.5 -52t-34.5 -56t-9 -69h-101zM208 -12
q-31 0 -52.5 22.5t-21.5 55.5q0 34 21.5 56t52.5 22q32 0 53.5 -22t21.5 -56q0 -33 -21.5 -55.5t-53.5 -22.5z" />
    <glyph glyph-name="at" unicode="@" horiz-adv-x="875" 
d="M416 -164q-74 0 -140 23t-117 69.5t-80 115.5t-29 160q0 103 34.5 186.5t94.5 143.5t138.5 92t166.5 32q105 0 181.5 -43.5t118.5 -121t42 -179.5q0 -68 -19 -119.5t-50 -86t-69 -51.5t-76 -17q-43 0 -73.5 20t-36.5 60h-2q-21 -34 -55 -53t-67 -19q-56 0 -93 40t-37 110
q0 44 15 86.5t42 78t64 56.5t81 21q26 0 45.5 -12.5t32.5 -39.5h2l13 42h73l-42 -212q-10 -52 2 -75t46 -23q29 0 55.5 23.5t43.5 66t17 100.5q0 54 -15.5 101.5t-48 83.5t-82 56.5t-117.5 20.5q-63 0 -122.5 -25.5t-107 -73.5t-75.5 -115t-28 -150q0 -70 22 -123.5
t60.5 -90t90 -54.5t109.5 -18q42 0 81.5 10t72.5 26l31 -72q-46 -24 -93 -37t-100 -13zM403 130q18 0 37.5 11.5t41.5 38.5l26 146q-10 17 -24 24.5t-31 7.5q-33 0 -57 -24.5t-37 -59.5t-13 -69q0 -39 15.5 -57t41.5 -18z" />
    <glyph glyph-name="A" unicode="A" horiz-adv-x="558" 
d="M-2 0l213 654h136l213 -654h-122l-100 348q-16 52 -30.5 107t-28.5 109h-4q-13 -55 -27.5 -109.5t-30.5 -106.5l-101 -348h-118zM124 177v91h308v-91h-308z" />
    <glyph glyph-name="B" unicode="B" horiz-adv-x="597" 
d="M83 0v654h209q68 0 120.5 -15.5t83 -50.5t30.5 -95q0 -50 -23.5 -88.5t-67.5 -53.5v-4q58 -12 91.5 -48.5t33.5 -101.5q0 -67 -32.5 -111t-89.5 -65t-129 -21h-226zM199 384h83q68 0 99 25t31 67q0 48 -32 68t-96 20h-85v-180zM199 90h98q72 0 111 26.5t39 81.5
q0 52 -38 75.5t-112 23.5h-98v-207z" />
    <glyph glyph-name="C" unicode="C" horiz-adv-x="576" 
d="M346 -12q-83 0 -150.5 39t-107 114.5t-39.5 183.5q0 80 23 143.5t64.5 107.5t95.5 67t116 23t110 -24.5t79 -58.5l-62 -71q-25 26 -55.5 39.5t-68.5 13.5q-52 0 -93.5 -29t-65.5 -82t-24 -126q0 -75 23 -128.5t65 -82t98 -28.5q42 0 75 17t60 45l59 -69q-40 -46 -90 -70
t-112 -24z" />
    <glyph glyph-name="D" unicode="D" horiz-adv-x="625" 
d="M83 0v654h175q100 0 171 -36t109 -108t38 -180t-37.5 -181.5t-107.5 -111t-167 -37.5h-181zM199 94h51q66 0 112.5 25.5t70.5 77.5t24 133q0 80 -24 131t-70.5 75t-112.5 24h-51v-466z" />
    <glyph glyph-name="E" unicode="E" horiz-adv-x="538" 
d="M83 0v654h394v-98h-278v-167h235v-98h-235v-193h288v-98h-404z" />
    <glyph glyph-name="F" unicode="F" horiz-adv-x="510" 
d="M83 0v654h395v-98h-279v-185h238v-98h-238v-273h-116z" />
    <glyph glyph-name="G" unicode="G" horiz-adv-x="628" 
d="M357 -12q-88 0 -158 39t-110 114.5t-40 183.5q0 80 23.5 143t66 107.5t98.5 67.5t121 23q70 0 119 -25t79 -58l-62 -71q-24 24 -55 38.5t-77 14.5q-58 0 -102 -28.5t-68 -81.5t-24 -127t23 -128t67.5 -82.5t109.5 -28.5q28 0 53 7.5t41 21.5v141h-124v95h228v-288
q-33 -33 -87.5 -55.5t-121.5 -22.5z" />
    <glyph glyph-name="H" unicode="H" horiz-adv-x="663" 
d="M83 0v654h116v-263h265v263h116v-654h-116v290h-265v-290h-116z" />
    <glyph glyph-name="I" unicode="I" horiz-adv-x="282" 
d="M83 0v654h116v-654h-116z" />
    <glyph glyph-name="J" unicode="J" horiz-adv-x="494" 
d="M212 -12q-64 0 -110.5 27.5t-75.5 85.5l75 51q17 -31 43.5 -47t57.5 -16q49 0 72.5 29t23.5 101v435h116v-445q0 -61 -21 -111t-65.5 -80t-115.5 -30z" />
    <glyph glyph-name="K" unicode="K" horiz-adv-x="597" 
d="M83 0v654h116v-297h3l233 297h129l-201 -255l235 -399h-128l-177 308l-94 -117v-191h-116z" />
    <glyph glyph-name="L" unicode="L" horiz-adv-x="502" 
d="M83 0v654h116v-556h272v-98h-388z" />
    <glyph glyph-name="M" unicode="M" horiz-adv-x="745" 
d="M83 0v654h139l112 -320q11 -31 20 -61.5t18 -66.5h4q9 36 17.5 66.5t18.5 61.5l112 320h138v-654h-107v298q0 31 2.5 71t6.5 79.5t8 69.5h-4l-52 -166l-106 -292h-78l-106 292l-50 166h-4q4 -30 7.5 -69.5t6 -79.5t2.5 -71v-298h-105z" />
    <glyph glyph-name="N" unicode="N" horiz-adv-x="657" 
d="M83 0v654h127l196 -360q18 -33 34.5 -71t31.5 -77h4q-4 53 -9 110.5t-5 111.5v286h111v-654h-127l-196 360q-18 33 -35.5 71t-32.5 77h-4q6 -51 11 -108.5t5 -113.5v-286h-111z" />
    <glyph glyph-name="O" unicode="O" horiz-adv-x="674" 
d="M337 -12q-85 0 -150 41.5t-101.5 118t-36.5 182.5t36.5 181t101.5 115t150 40q86 0 151 -40t101.5 -115t36.5 -181t-36.5 -182.5t-101.5 -118t-151 -41.5zM337 89q52 0 89.5 29.5t58.5 84t21 127.5t-21 125.5t-58.5 81t-89.5 28.5q-51 0 -89 -28.5t-59 -81t-21 -125.5
t21 -127.5t59 -84t89 -29.5z" />
    <glyph glyph-name="P" unicode="P" horiz-adv-x="582" 
d="M83 0v654h206q73 0 130 -19t90 -63t33 -120q0 -72 -32.5 -119t-89 -70t-127.5 -23h-94v-240h-116zM199 333h85q73 0 108.5 30t35.5 89q0 62 -37.5 85.5t-110.5 23.5h-81v-228z" />
    <glyph glyph-name="Q" unicode="Q" horiz-adv-x="674" 
d="M337 -12q-85 0 -150 41.5t-101.5 118t-36.5 182.5q0 105 36.5 180.5t101.5 115.5t150 40t150 -40t102 -115.5t37 -180.5q0 -106 -37 -182.5t-102 -118t-150 -41.5zM337 83q52 0 90 30t58.5 85t20.5 132q0 73 -20.5 125.5t-58.5 81t-90 28.5q-51 0 -89 -28.5t-59 -81
t-21 -125.5q0 -77 21 -132t59 -85t89 -30zM545 -174q-101 0 -169 51t-98 127l119 10q13 -32 37.5 -53t56.5 -30.5t67 -9.5q22 0 39.5 2.5t31.5 6.5l21 -84q-16 -8 -43.5 -14t-61.5 -6z" />
    <glyph glyph-name="R" unicode="R" horiz-adv-x="592" 
d="M83 0v654h221q68 0 122 -18t86 -60.5t32 -115.5q0 -70 -32 -115t-86 -67t-122 -22h-105v-256h-116zM199 348h93q67 0 102.5 28t35.5 84t-35.5 78.5t-102.5 22.5h-93v-213zM440 0l-158 287l84 69l204 -356h-130z" />
    <glyph glyph-name="S" unicode="S" horiz-adv-x="545" 
d="M274 -12q-68 0 -128.5 25t-107.5 71l63 76q35 -34 81.5 -52.5t93.5 -18.5q56 0 85 23t29 61q0 27 -13 43.5t-35.5 28.5t-52.5 24l-90 39q-32 14 -62.5 36.5t-50 56t-19.5 81.5q0 52 28.5 93.5t78 66t113.5 24.5q59 0 111.5 -21.5t89.5 -58.5l-61 -76q-32 26 -67 40.5
t-73 14.5q-46 0 -74.5 -20.5t-28.5 -56.5q0 -25 14.5 -41.5t39 -28t50.5 -22.5l89 -37q39 -17 69 -40t46.5 -56t16.5 -81q0 -53 -28 -97t-80.5 -70.5t-126.5 -26.5z" />
    <glyph glyph-name="T" unicode="T" horiz-adv-x="546" 
d="M215 0v556h-189v98h494v-98h-189v-556h-116z" />
    <glyph glyph-name="U" unicode="U" horiz-adv-x="655" 
d="M328 -12q-57 0 -102.5 16t-78 51t-50 91t-17.5 135v373h116v-382q0 -69 16.5 -109t46.5 -57t69 -17q40 0 70.5 17t48 57t17.5 109v382h111v-373q0 -79 -17 -135t-49.5 -91t-78 -51t-102.5 -16z" />
    <glyph glyph-name="V" unicode="V" horiz-adv-x="536" 
d="M196 0l-200 654h123l88 -329q10 -37 19 -71.5t18.5 -69t20.5 -71.5h4q10 37 19 71.5t18.5 69t19.5 71.5l95 329h119l-207 -654h-137z" />
    <glyph glyph-name="W" unicode="W" horiz-adv-x="800" 
d="M144 0l-126 654h124l56 -330q8 -52 15 -104.5t13 -109.5h4q9 57 19 109.5t21 104.5l76 330h114l74 -330q11 -51 22 -104t20 -110h4q6 57 13.5 109.5t14.5 104.5l56 330h118l-126 -654h-154l-74 344q-7 36 -13.5 74.5t-12.5 83.5h-4q-4 -45 -10 -83.5t-14 -74.5l-76 -344
h-154z" />
    <glyph glyph-name="X" unicode="X" horiz-adv-x="541" 
d="M13 0l186 337l-174 317h129l72 -145q13 -22 24 -46t26 -54h4q12 30 22.5 54t21.5 46l69 145h123l-174 -322l186 -332h-129l-80 154q-13 26 -25.5 51.5t-27.5 55.5h-4q-12 -30 -24 -55.5t-24 -51.5l-78 -154h-123z" />
    <glyph glyph-name="Y" unicode="Y" horiz-adv-x="501" 
d="M192 0v243l-196 411h124l71 -167q14 -37 28 -71.5t30 -72.5h4q16 38 31 72.5t29 71.5l71 167h121l-197 -411v-243h-116z" />
    <glyph glyph-name="Z" unicode="Z" horiz-adv-x="540" 
d="M40 0v70l316 486h-287v98h431v-70l-317 -486h319v-98h-462z" />
    <glyph glyph-name="bracketleft" unicode="[" horiz-adv-x="324" 
d="M90 -152v860h196v-63h-109v-734h109v-63h-196z" />
    <glyph glyph-name="backslash" unicode="\" horiz-adv-x="344" 
d="M255 -160l-234 870h78l234 -870h-78z" />
    <glyph glyph-name="bracketright" unicode="]" horiz-adv-x="324" 
d="M38 -152v63h109v734h-109v63h196v-860h-196z" />
    <glyph glyph-name="asciicircum" unicode="^" horiz-adv-x="513" 
d="M55 279l153 391h96l154 -391h-97l-55 151l-48 135h-4l-47 -135l-55 -151h-97z" />
    <glyph glyph-name="underscore" unicode="_" horiz-adv-x="500" 
d="M12 -133v69h476v-69h-476z" />
    <glyph glyph-name="grave" unicode="`" horiz-adv-x="549" 
d="M266 570l-162 162l7 12h123l122 -174h-90z" />
    <glyph glyph-name="a" unicode="a" horiz-adv-x="516" 
d="M192 -12q-43 0 -76 18t-51.5 50.5t-18.5 75.5q0 83 69.5 125.5t220.5 58.5q-1 25 -9.5 46t-28 33.5t-52.5 12.5q-36 0 -70.5 -13t-67.5 -33l-42 78q27 17 59 31.5t68 23t75 8.5q61 0 101.5 -24.5t61 -72t20.5 -116.5v-290h-95l-8 54h-4q-34 -28 -71 -47t-81 -19zM228 82
q30 0 55.5 12.5t52.5 37.5v104q-67 -8 -106 -21t-55.5 -31.5t-16.5 -43.5q0 -31 20 -44.5t50 -13.5z" />
    <glyph glyph-name="b" unicode="b" horiz-adv-x="563" 
d="M311 -12q-33 0 -67.5 16.5t-66.5 47.5h-3l-10 -52h-91v706h115v-182l-3 -82q31 27 67.5 44t74.5 17q61 0 104.5 -31t66.5 -86.5t23 -131.5q0 -84 -30 -143.5t-77.5 -91t-102.5 -31.5zM287 83q33 0 59 19t41 56.5t15 93.5q0 49 -11 84t-34.5 53.5t-60.5 18.5
q-27 0 -53 -13.5t-55 -41.5v-229q26 -22 52 -31.5t47 -9.5z" />
    <glyph glyph-name="c" unicode="c" horiz-adv-x="462" 
d="M280 -12q-68 0 -122 30.5t-85.5 88t-31.5 138.5q0 82 34 139.5t90.5 88t121.5 30.5q47 0 82.5 -15.5t61.5 -39.5l-55 -72q-16 15 -36.5 24t-46.5 9q-39 0 -69 -20.5t-47.5 -57t-17.5 -86.5q0 -49 17 -85.5t46.5 -57t68.5 -20.5q29 0 54.5 11t45.5 28l47 -71
q-31 -28 -71.5 -45t-86.5 -17z" />
    <glyph glyph-name="d" unicode="d" horiz-adv-x="564" 
d="M245 -12q-92 0 -147 68t-55 189q0 80 29.5 138t77 89t101.5 31q42 0 71.5 -14t57.5 -40l-4 79v178h115v-706h-95l-8 53h-4q-27 -27 -63 -46t-76 -19zM273 83q29 0 54 13.5t49 41.5v229q-25 23 -50 32t-50 9q-32 0 -57.5 -19t-41 -55t-15.5 -88q0 -79 29 -121t82 -42z" />
    <glyph glyph-name="e" unicode="e" horiz-adv-x="507" 
d="M284 -12q-69 0 -124.5 30.5t-87.5 88t-32 139.5q0 80 33 137.5t85 88.5t110 31q67 0 112 -30t67.5 -82.5t22.5 -120.5q0 -16 -1.5 -31t-4.5 -29h-338v88h242q0 53 -24 83.5t-74 30.5q-28 0 -54.5 -15t-44 -51t-17.5 -100q0 -58 20 -94.5t53 -54t71 -17.5q32 0 60.5 9
t53.5 25l40 -74q-34 -24 -77.5 -38t-90.5 -14z" />
    <glyph glyph-name="f" unicode="f" horiz-adv-x="317" 
d="M93 0v542q0 51 16.5 91t52.5 62.5t94 22.5q27 0 50.5 -5t39.5 -12l-24 -83q-26 9 -52 9q-30 0 -46 -20t-16 -63v-544h-115zM20 400v86l80 5h204v-91h-284z" />
    <glyph glyph-name="g" unicode="g" horiz-adv-x="520" 
d="M244 -217q-59 0 -105 14t-72.5 42.5t-26.5 71.5q0 31 18.5 57.5t51.5 47.5v4q-18 12 -31 32t-13 50q0 28 16.5 52t37.5 39v4q-25 19 -44.5 53t-19.5 77q0 56 27 95.5t71 60t96 20.5q20 0 39 -3t33 -9h176v-85h-92v-4q14 -15 22 -34.5t8 -45.5q0 -54 -25 -91t-67 -56
t-94 -19q-16 0 -33 3t-34 10q-10 -10 -17 -20t-7 -27q0 -21 18 -33t62 -12h87q89 0 134.5 -28.5t45.5 -92.5q0 -48 -32 -87.5t-91 -62.5t-139 -23zM250 228q23 0 42.5 11.5t31 34t11.5 53.5q0 47 -24.5 72t-60.5 25t-61 -25t-25 -72q0 -31 12 -53.5t31 -34t43 -11.5z
M262 -142q39 0 69 10.5t47 29t17 39.5q0 29 -22.5 39t-64.5 10h-67q-20 0 -36 2t-31 5q-19 -15 -28.5 -31t-9.5 -34q0 -33 34 -51.5t92 -18.5z" />
    <glyph glyph-name="h" unicode="h" horiz-adv-x="558" 
d="M73 0v706h115v-182l-4 -95q31 29 69 51.5t88 22.5q79 0 115 -51t36 -144v-308h-115v293q0 61 -18 86t-59 25q-32 0 -56.5 -15.5t-55.5 -45.5v-343h-115z" />
    <glyph glyph-name="i" unicode="i" horiz-adv-x="262" 
d="M73 0v491h115v-491h-115zM130 577q-30 0 -49.5 18t-19.5 48t19.5 47.5t49.5 17.5q31 0 50 -17.5t19 -47.5t-19 -48t-50 -18z" />
    <glyph glyph-name="j" unicode="j" horiz-adv-x="263" 
d="M34 -206q-26 0 -46 4t-34 10l22 85q10 -3 21 -5.5t21 -2.5q33 0 44.5 22.5t11.5 65.5v518h116v-516q0 -52 -15 -93t-49 -64.5t-92 -23.5zM132 577q-30 0 -49.5 18t-19.5 48t19.5 47.5t49.5 17.5q31 0 50 -17.5t19 -47.5t-19 -48t-50 -18z" />
    <glyph glyph-name="k" unicode="k" horiz-adv-x="522" 
d="M73 0v706h114v-440h3l180 225h127l-167 -201l184 -290h-125l-126 213l-76 -87v-126h-114z" />
    <glyph glyph-name="l" unicode="l" horiz-adv-x="271" 
d="M185 -10q-41 0 -65.5 16.5t-35.5 47.5t-11 74v578h115v-584q0 -22 8 -30t18 -8q4 0 7.5 0.5t9.5 1.5l15 -86q-10 -4 -25.5 -7t-35.5 -3z" />
    <glyph glyph-name="m" unicode="m" horiz-adv-x="843" 
d="M73 0v491h95l8 -67h4q31 33 67.5 56t82.5 23q55 0 87 -23t49 -65q35 38 73 63t85 25q78 0 115 -51t37 -144v-308h-116v293q0 61 -18 86t-57 25q-24 0 -49 -15t-54 -46v-343h-115v293q0 61 -18.5 86t-57.5 25q-46 0 -103 -61v-343h-115z" />
    <glyph glyph-name="n" unicode="n" horiz-adv-x="560" 
d="M73 0v491h95l8 -66h4q33 32 72 55t89 23q79 0 115 -51t36 -144v-308h-115v293q0 61 -18 86t-59 25q-32 0 -56.5 -15.5t-55.5 -45.5v-343h-115z" />
    <glyph glyph-name="o" unicode="o" horiz-adv-x="549" 
d="M274 -12q-61 0 -114 30.5t-86 88t-33 138.5q0 82 33 139.5t86 88t114 30.5q62 0 115 -30.5t86 -88t33 -139.5q0 -81 -33 -138.5t-86 -88t-115 -30.5zM274 82q36 0 62 20t40 57t14 86t-14 86t-40 57.5t-62 20.5t-61.5 -20.5t-39.5 -57.5t-14 -86t14 -86t39.5 -57t61.5 -20
z" />
    <glyph glyph-name="p" unicode="p" horiz-adv-x="564" 
d="M73 -194v685h95l8 -52h4q31 27 69 45.5t79 18.5q61 0 104 -31t66 -87t23 -132q0 -84 -30 -143t-77.5 -90.5t-102.5 -31.5q-32 0 -64 14t-62 40l3 -82v-154h-115zM287 83q33 0 59 19t41 56.5t15 93.5q0 49 -11 84t-34.5 53.5t-60.5 18.5q-27 0 -53 -13.5t-55 -41.5v-229
q27 -22 52.5 -31.5t46.5 -9.5z" />
    <glyph glyph-name="q" unicode="q" horiz-adv-x="564" 
d="M376 -194v161l4 82q-26 -25 -61.5 -43t-73.5 -18q-92 0 -147 68t-55 189q0 80 29.5 138t77 89t101.5 31q42 0 73.5 -14.5t62.5 -44.5h3l10 47h91v-685h-115zM273 83q29 0 54 13.5t49 41.5v229q-25 23 -50 32t-50 9q-32 0 -57.5 -19t-41 -55t-15.5 -88q0 -79 29 -121
t82 -42z" />
    <glyph glyph-name="r" unicode="r" horiz-adv-x="373" 
d="M73 0v491h95l8 -87h4q26 48 62.5 73.5t76.5 25.5q19 0 32 -2t24 -8l-23 -98q-12 3 -22 4.5t-26 1.5q-29 0 -61 -22.5t-55 -78.5v-300h-115z" />
    <glyph glyph-name="s" unicode="s" horiz-adv-x="431" 
d="M210 -12q-51 0 -100.5 19t-85.5 53l51 66q33 -27 67 -39t72 -12q40 0 59 17t19 42q0 20 -14.5 34t-37.5 24t-51 20q-36 13 -67 31.5t-50.5 46t-19.5 66.5q0 65 48 106t130 41q50 0 92 -16.5t72 -42.5l-51 -65q-26 19 -53 28t-57 9q-37 0 -55 -16t-18 -38
q0 -18 11.5 -30.5t33.5 -22t53 -19.5q38 -13 71 -31.5t52.5 -47t19.5 -71.5q0 -42 -22 -76.5t-64.5 -55t-104.5 -20.5z" />
    <glyph glyph-name="t" unicode="t" horiz-adv-x="361" 
d="M246 -10q-85 0 -120.5 49.5t-35.5 128.5v232h-70v86l76 5l14 154h96v-154h125v-91h-125v-232q0 -43 17 -64.5t52 -21.5q13 0 26 2t25 8l21 -81q-19 -9 -45 -15t-56 -6z" />
    <glyph glyph-name="u" unicode="u" horiz-adv-x="556" 
d="M219 -12q-79 0 -115 51t-36 144v308h115v-293q0 -61 18 -86t58 -25q32 0 56.5 16t52.5 52v336h115v-491h-94l-9 72h-3q-32 -38 -70 -61t-88 -23z" />
    <glyph glyph-name="v" unicode="v" horiz-adv-x="495" 
d="M183 0l-171 491h117l78 -255q10 -35 20.5 -72.5t20.5 -75.5h4q11 38 21.5 75.5t20.5 72.5l78 255h111l-167 -491h-133z" />
    <glyph glyph-name="w" unicode="w" horiz-adv-x="748" 
d="M154 0l-130 491h118l58 -255q8 -33 14 -67.5t11 -78.5h4q7 44 13.5 78.5t13.5 67.5l60 255h120l62 -255q8 -33 15 -67.5t14 -78.5h4q7 44 12.5 78.5t12.5 67.5l58 255h110l-125 -491h-147l-50 228q-7 33 -13.5 66.5t-12.5 81.5h-4q-6 -48 -12 -81.5t-14 -66.5l-50 -228
h-142z" />
    <glyph glyph-name="x" unicode="x" horiz-adv-x="481" 
d="M14 0l156 256l-146 235h124l55 -93q11 -20 22 -41t23 -42h4q9 21 19 42t19 41l47 93h119l-145 -248l156 -243h-124l-60 97q-12 22 -24.5 44t-25.5 43h-4q-11 -21 -22 -42.5t-21 -44.5l-52 -97h-120z" />
    <glyph glyph-name="y" unicode="y" horiz-adv-x="495" 
d="M106 -202q-20 0 -35.5 3t-28.5 9l22 86q10 -3 18 -4t16 -1q39 0 62.5 24t35.5 60l9 31l-193 485h117l85 -241q11 -32 21.5 -67.5t21.5 -70.5h4q9 34 18.5 69.5t18.5 68.5l74 241h111l-178 -513q-20 -55 -46 -95.5t-63 -62.5t-90 -22z" />
    <glyph glyph-name="z" unicode="z" horiz-adv-x="443" 
d="M34 0v62l232 338h-206v91h350v-61l-231 -338h239v-92h-384z" />
    <glyph glyph-name="braceleft" unicode="{" horiz-adv-x="324" 
d="M232 -152q-63 0 -93 29.5t-30 108.5q0 36 2.5 64.5t4.5 56.5t2 60q0 29 -18 52.5t-68 23.5v70q34 0 52.5 11.5t26 28.5t7.5 35q0 33 -2 61t-4.5 56.5t-2.5 64.5q0 80 30 109t93 29h54v-63h-23q-36 0 -48.5 -17.5t-12.5 -62.5q0 -43 2.5 -83t2.5 -89q0 -53 -15.5 -78.5
t-51.5 -34.5v-4q36 -9 51.5 -34.5t15.5 -78.5q0 -48 -2.5 -88.5t-2.5 -83.5q0 -45 12.5 -62.5t48.5 -17.5h23v-63h-54z" />
    <glyph glyph-name="bar" unicode="|" horiz-adv-x="255" 
d="M89 -250v1000h77v-1000h-77z" />
    <glyph glyph-name="braceright" unicode="}" horiz-adv-x="324" 
d="M38 -152v63h23q36 0 48.5 17.5t12.5 62.5q0 43 -2.5 83.5t-2.5 88.5q0 53 16 78.5t51 34.5v4q-35 9 -51 34.5t-16 78.5q0 49 2.5 89t2.5 83q0 45 -12.5 62.5t-48.5 17.5h-23v63h54q63 0 93 -29t30 -109q0 -36 -2.5 -64.5t-4.5 -56.5t-2 -61q0 -18 7.5 -35t26 -28.5
t52.5 -11.5v-70q-50 0 -68 -23.5t-18 -52.5q0 -32 2 -60t4.5 -56.5t2.5 -64.5q0 -79 -30 -108.5t-93 -29.5h-54z" />
    <glyph glyph-name="asciitilde" unicode="~" horiz-adv-x="513" 
d="M343 248q-30 0 -53.5 12.5t-43.5 28t-38.5 27.5t-39.5 12q-20 0 -39 -14.5t-35 -44.5l-62 46q33 52 68 74.5t70 22.5q31 0 54 -12.5t43 -28t38.5 -27.5t39.5 -12t39.5 14.5t34.5 44.5l61 -47q-31 -51 -66.5 -73.5t-70.5 -22.5z" />
    <glyph glyph-name="exclamdown" unicode="&#xa1;" horiz-adv-x="315" 
d="M100 -179l3 114l16 341h77l16 -341l4 -114h-116zM158 347q-31 0 -53 22.5t-22 56.5q0 33 22 55t53 22q32 0 53 -22t21 -55q0 -34 -21 -56.5t-53 -22.5z" />
    <glyph glyph-name="cent" unicode="&#xa2;" horiz-adv-x="513" 
d="M310 60q-74 0 -130 29t-87.5 84.5t-31.5 134.5q0 80 34.5 135.5t93.5 84.5t130 29q47 0 83 -16.5t61 -41.5l-54 -71q-19 17 -39.5 26t-44.5 9q-48 0 -82 -19t-52 -54t-18 -82q0 -70 39.5 -112t109.5 -42q30 0 56 12.5t45 29.5l48 -73q-34 -31 -76.5 -47t-84.5 -16z
M269 -37v691h66v-691h-66z" />
    <glyph glyph-name="sterling" unicode="&#xa3;" horiz-adv-x="513" 
d="M51 0v71q48 24 77 68t29 98q0 37 -11.5 73.5t-23 72.5t-11.5 71q0 60 25.5 103.5t70 67t103.5 23.5q57 0 97.5 -22.5t67.5 -58.5l-61 -58q-18 23 -40 34t-52 11q-47 0 -73.5 -28.5t-26.5 -77.5q0 -34 9 -67.5t18.5 -69t9.5 -75.5q0 -44 -13 -74.5t-40 -59.5v-4h270v-98
h-425zM53 278v69l67 5h273v-74h-340z" />
    <glyph glyph-name="currency" unicode="&#xa4;" horiz-adv-x="513" 
d="M82 93l-59 60l62 63q-16 23 -25.5 51.5t-9.5 61.5q0 34 9.5 62.5t25.5 51.5l-62 63l59 60l68 -70q49 31 106 31q58 0 106 -31l69 70l59 -60l-63 -63q17 -23 26 -51.5t9 -62.5q0 -33 -9.5 -61.5t-25.5 -51.5l63 -63l-59 -60l-69 70q-23 -16 -50.5 -23.5t-55.5 -7.5
q-58 0 -105 31zM256 214q29 0 52 14t36.5 40t13.5 61t-13.5 61t-36.5 40.5t-52 14.5q-28 0 -51 -14.5t-37 -40.5t-14 -61t14 -61t37 -40t51 -14z" />
    <glyph glyph-name="yen" unicode="&#xa5;" horiz-adv-x="513" 
d="M198 0v144h-158v68h158v58h-158v68h132l-154 298h119l64 -151q14 -33 27 -66t28 -67h4q14 34 28 67t27 66l64 151h116l-155 -298h132v-68h-158v-58h158v-68h-158v-144h-116z" />
    <glyph glyph-name="brokenbar" unicode="&#xa6;" horiz-adv-x="255" 
d="M89 302v448h77v-448h-77zM89 -250v459h77v-459h-77z" />
    <glyph glyph-name="section" unicode="&#xa7;" horiz-adv-x="513" 
d="M238 -74q-53 0 -102 20t-82 58l68 60q25 -25 53.5 -38.5t62.5 -13.5q35 0 53.5 16t18.5 40t-19 40t-50 30t-65.5 29t-65 36t-50 53t-19.5 78q0 48 31.5 86t81.5 57l56 -51q-33 -14 -51.5 -34t-18.5 -50q0 -29 19.5 -49t51 -35.5t66.5 -30.5t66.5 -34.5t51.5 -48t20 -71.5
q0 -42 -21.5 -75.5t-61 -52.5t-94.5 -19zM363 139l-64 51q37 15 55.5 33.5t18.5 51.5q0 31 -20 51.5t-52 36t-68 30.5t-67.5 34t-51.5 47.5t-20 70.5q0 40 19 72.5t56 51t89 18.5q53 0 96 -18.5t72 -42.5l-54 -73q-23 20 -50.5 33.5t-57.5 13.5q-34 0 -50 -14t-16 -36
q0 -23 20 -39t51 -29.5t66 -29.5t66 -38t51 -53t20 -77q0 -35 -13.5 -61.5t-37.5 -47t-58 -36.5z" />
    <glyph glyph-name="dieresis" unicode="&#xa8;" horiz-adv-x="549" 
d="M171 578q-26 0 -43.5 17.5t-17.5 43.5t17.5 43.5t43.5 17.5q27 0 44 -17.5t17 -43.5t-17 -43.5t-44 -17.5zM377 578q-26 0 -43.5 17.5t-17.5 43.5t17.5 43.5t43.5 17.5t43.5 -17.5t17.5 -43.5t-17.5 -43.5t-43.5 -17.5z" />
    <glyph glyph-name="copyright" unicode="&#xa9;" horiz-adv-x="747" 
d="M374 -10q-66 0 -125 23.5t-104.5 67t-71.5 105t-26 138.5t26 138t71.5 104t104.5 65.5t125 22.5t124.5 -22.5t104 -65.5t71.5 -104t26 -138t-26 -138.5t-71.5 -105t-104 -67t-124.5 -23.5zM374 42q56 0 104.5 20t85.5 57.5t57.5 89.5t20.5 115q0 64 -20.5 115.5t-57.5 88
t-85.5 56t-104.5 19.5q-57 0 -105.5 -19.5t-85 -56t-57.5 -88t-21 -115.5q0 -63 21 -115t57.5 -89.5t85 -57.5t105.5 -20zM384 129q-54 0 -96.5 23t-67 66.5t-24.5 103.5q0 59 27 103t69.5 67.5t92.5 23.5q44 0 75.5 -17t53.5 -42l-45 -49q-16 18 -35 28t-43 10
q-33 0 -57.5 -16t-38 -44.5t-13.5 -63.5q0 -57 28.5 -89.5t76.5 -32.5q30 0 49.5 10t39.5 28l40 -54q-27 -25 -58.5 -40t-73.5 -15z" />
    <glyph glyph-name="ordfeminine" unicode="&#xaa;" horiz-adv-x="352" 
d="M133 376q-45 0 -72 27.5t-27 70.5q0 54 46 83.5t146 38.5q-1 26 -13.5 40t-42.5 14q-23 0 -47.5 -9.5t-47.5 -22.5l-31 56q29 18 65 31t75 13q62 0 94 -35.5t32 -104.5v-193h-68l-8 35h-4q-19 -18 -43.5 -31t-53.5 -13zM160 442q18 0 33 8t33 24v66q-61 -7 -85.5 -23
t-24.5 -37q0 -19 11.5 -28.5t32.5 -9.5z" />
    <glyph glyph-name="guillemotleft" unicode="&#xab;" horiz-adv-x="455" 
d="M182 61l-135 149v84l135 149l46 -37l-115 -154l115 -155zM356 61l-135 149v84l135 149l46 -37l-115 -154l115 -155z" />
    <glyph glyph-name="logicalnot" unicode="&#xac;" horiz-adv-x="513" 
d="M392 99v189h-358v84h445v-273h-87z" />
    <glyph glyph-name="registered" unicode="&#xae;" horiz-adv-x="443" 
d="M221 315q-53 0 -97 25.5t-70 70.5t-26 103q0 59 26 104t70 70.5t97 25.5t97 -25.5t70 -70.5t26 -104q0 -58 -26 -103t-70 -70.5t-97 -25.5zM221 358q42 0 75 19.5t52 55t19 81.5q0 47 -19 82.5t-52 55.5t-75 20t-75 -20t-52 -55.5t-19 -82.5q0 -46 19 -81.5t52 -55
t75 -19.5zM144 417v199h83q33 0 56.5 -15t23.5 -50q0 -17 -9.5 -32t-27.5 -23l44 -79h-53l-33 65h-34v-65h-50zM194 518h23q18 0 27.5 8t9.5 22q0 13 -8.5 21.5t-27.5 8.5h-24v-60z" />
    <glyph glyph-name="macron" unicode="&#xaf;" horiz-adv-x="549" 
d="M134 596v76h280v-76h-280z" />
    <glyph glyph-name="degree" unicode="&#xb0;" horiz-adv-x="348" 
d="M175 413q-37 0 -68 17t-49 48t-18 71t18 71t49 48t68 17t67.5 -17t49 -48t18.5 -71t-18.5 -71t-49 -48t-67.5 -17zM175 472q32 0 51.5 21.5t19.5 55.5q0 35 -19.5 56.5t-51.5 21.5q-31 0 -51 -21.5t-20 -56.5q0 -34 20 -55.5t51 -21.5z" />
    <glyph glyph-name="plusminus" unicode="&#xb1;" horiz-adv-x="513" 
d="M213 147v153h-179v84h179v177h87v-177h179v-84h-179v-153h-87zM34 0v83h445v-83h-445z" />
    <glyph glyph-name="two.u" unicode="&#xb2;" horiz-adv-x="372" 
d="M48 385v48q56 47 95.5 85t61 68.5t21.5 57.5q0 33 -17.5 52t-48.5 19q-22 0 -41 -14.5t-36 -37.5l-50 46q27 37 62.5 57.5t77.5 20.5q62 0 99.5 -33.5t37.5 -95.5q0 -34 -16.5 -66.5t-44.5 -65t-63 -68.5h141v-73h-279z" />
    <glyph glyph-name="three.u" unicode="&#xb3;" horiz-adv-x="372" 
d="M183 373q-49 0 -88.5 21t-63.5 57l54 42q18 -26 41 -39.5t50 -13.5t47 15t20 43q0 30 -27.5 45t-79.5 15v51q43 0 67.5 16.5t24.5 43.5q0 24 -16 37.5t-43 13.5q-21 0 -39 -12t-33 -31l-50 44q29 32 61 49t75 17q35 0 64.5 -13t47.5 -37t18 -57t-16.5 -55.5t-45.5 -37.5
q32 -10 54.5 -34.5t22.5 -60.5t-20 -63t-53 -41.5t-72 -14.5z" />
    <glyph glyph-name="acute" unicode="&#xb4;" horiz-adv-x="549" 
d="M192 570l122 174h123l7 -12l-162 -162h-90z" />
    <glyph glyph-name="mu" unicode="&#x3bc;" horiz-adv-x="578" 
d="M73 -178v669h115v-293q0 -58 18 -84.5t57 -26.5q20 0 37.5 6.5t34.5 24t35 48.5v325h116q-2 -62 -4 -128t-3 -127.5t-1 -111.5q0 -22 11 -31t29 -9q7 0 15 1.5t15 4.5l15 -86q-14 -6 -30.5 -10t-42.5 -4q-47 0 -73.5 21.5t-34.5 64.5h-4q-22 -42 -52.5 -63t-66.5 -21
q-24 0 -43.5 6.5t-34.5 27.5q0 -42 1 -74.5t2.5 -62.5t5.5 -67h-117z" />
    <glyph glyph-name="mu" unicode="&#xb5;" horiz-adv-x="578" 
d="M73 -178v669h115v-293q0 -58 18 -84.5t57 -26.5q20 0 37.5 6.5t34.5 24t35 48.5v325h116q-2 -62 -4 -128t-3 -127.5t-1 -111.5q0 -22 11 -31t29 -9q7 0 15 1.5t15 4.5l15 -86q-14 -6 -30.5 -10t-42.5 -4q-47 0 -73.5 21.5t-34.5 64.5h-4q-22 -42 -52.5 -63t-66.5 -21
q-24 0 -43.5 6.5t-34.5 27.5q0 -42 1 -74.5t2.5 -62.5t5.5 -67h-117z" />
    <glyph glyph-name="paragraph" unicode="&#xb6;" horiz-adv-x="599" 
d="M387 -80v734h116v-734h-116zM295 212q-72 0 -129.5 24t-91.5 74t-34 126q0 81 33 129t89 68.5t126 20.5h44v-442h-37z" />
    <glyph glyph-name="periodcentered" unicode="&#xb7;" horiz-adv-x="275" 
d="M138 243q-31 0 -53 22.5t-22 55.5q0 34 22 56t53 22q32 0 53 -22t21 -56q0 -33 -21 -55.5t-53 -22.5z" />
    <glyph glyph-name="cedilla" unicode="&#xb8;" horiz-adv-x="549" 
d="M184 -233l-10 50q61 4 83.5 15t22.5 32q0 18 -16.5 28.5t-60.5 16.5l46 94h70l-29 -65q36 -9 55.5 -25.5t19.5 -47.5q0 -47 -47.5 -70.5t-133.5 -27.5z" />
    <glyph glyph-name="one.u" unicode="&#xb9;" horiz-adv-x="372" 
d="M168 385v294h-86v54q37 6 59 16t45 26h69v-390h-87z" />
    <glyph glyph-name="ordmasculine" unicode="&#xba;" horiz-adv-x="369" 
d="M184 377q-42 0 -77.5 20t-57.5 58.5t-22 91.5q0 54 22 92.5t57.5 58.5t77.5 20t77.5 -20t57.5 -58.5t22 -92.5q0 -53 -22 -91.5t-57.5 -58.5t-77.5 -20zM184 444q35 0 53.5 28.5t18.5 74.5q0 47 -18.5 76t-53.5 29t-53.5 -29t-18.5 -76q0 -46 18.5 -74.5t53.5 -28.5z" />
    <glyph glyph-name="guillemotright" unicode="&#xbb;" horiz-adv-x="455" 
d="M99 61l-45 36l114 155l-114 154l45 37l136 -149v-84zM273 61l-45 36l114 155l-114 154l45 37l136 -149v-84z" />
    <glyph glyph-name="onequarter" unicode="&#xbc;" horiz-adv-x="795" 
d="M141 264v294h-86v54q37 6 59 16t45 26h69v-390h-87zM183 -12l357 678h70l-356 -678h-71zM640 0v209l5 113h-4l-45 -79l-51 -89h230v-59h-314v44l152 251h104v-390h-77z" />
    <glyph glyph-name="onehalf" unicode="&#xbd;" horiz-adv-x="827" 
d="M141 264v294h-86v54q37 6 59 16t45 26h69v-390h-87zM165 -12l357 678h70l-356 -678h-71zM503 0v48q56 47 95.5 85t61 68.5t21.5 57.5q0 33 -17.5 52t-48.5 19q-22 0 -41 -14.5t-36 -37.5l-50 46q27 37 62.5 57.5t77.5 20.5q62 0 99.5 -33.5t37.5 -95.5q0 -34 -16.5 -66.5
t-44.5 -65t-63 -68.5h141v-73h-279z" />
    <glyph glyph-name="threequarters" unicode="&#xbe;" horiz-adv-x="807" 
d="M181 252q-49 0 -88.5 21t-63.5 57l54 42q18 -26 41 -39.5t50 -13.5t47 15t20 43q0 30 -27.5 45t-79.5 15v51q43 0 67.5 16.5t24.5 43.5q0 24 -16 37.5t-43 13.5q-21 0 -39 -12t-33 -31l-50 44q29 32 61 49t75 17q35 0 64.5 -13t47.5 -37t18 -57t-16.5 -55.5t-45.5 -37.5
q32 -10 54.5 -34.5t22.5 -60.5t-20 -63t-53 -41.5t-72 -14.5zM213 -12l357 678h70l-356 -678h-71zM652 0v209l5 113h-4l-45 -79l-51 -89h230v-59h-314v44l152 251h104v-390h-77z" />
    <glyph glyph-name="questiondown" unicode="&#xbf;" horiz-adv-x="444" 
d="M224 -191q-53 0 -93 19t-63 56t-23 91q0 38 15.5 68t38 56t44 52t35 56t8.5 69h102q6 -44 -5.5 -78.5t-32 -62.5t-42.5 -52.5t-37 -48.5t-15 -51q0 -24 10 -42t28 -28t44 -10q30 0 55.5 14.5t46.5 37.5l65 -59q-34 -38 -79.5 -62.5t-101.5 -24.5zM236 347
q-31 0 -52.5 22.5t-21.5 56.5q0 33 21.5 55t52.5 22q32 0 53 -22t21 -55q0 -34 -21 -56.5t-53 -22.5z" />
    <glyph glyph-name="Agrave" unicode="&#xc0;" horiz-adv-x="558" 
d="M-2 0l213 654h136l213 -654h-122l-100 348q-16 52 -30.5 107t-28.5 109h-4q-13 -55 -27.5 -109.5t-30.5 -106.5l-101 -348h-118zM124 177v91h308v-91h-308zM262 704l-170 132l7 12h133l128 -144h-98z" />
    <glyph glyph-name="Aacute" unicode="&#xc1;" horiz-adv-x="558" 
d="M-2 0l213 654h136l213 -654h-122l-100 348q-16 52 -30.5 107t-28.5 109h-4q-13 -55 -27.5 -109.5t-30.5 -106.5l-101 -348h-118zM124 177v91h308v-91h-308zM196 704l128 144h133l7 -12l-170 -132h-98z" />
    <glyph glyph-name="Acircumflex" unicode="&#xc2;" horiz-adv-x="558" 
d="M-2 0l213 654h136l213 -654h-122l-100 348q-16 52 -30.5 107t-28.5 109h-4q-13 -55 -27.5 -109.5t-30.5 -106.5l-101 -348h-118zM124 177v91h308v-91h-308zM86 704l134 144h116l134 -144h-92l-98 76h-4l-98 -76h-92z" />
    <glyph glyph-name="Atilde" unicode="&#xc3;" horiz-adv-x="558" 
d="M-2 0l213 654h136l213 -654h-122l-100 348q-16 52 -30.5 107t-28.5 109h-4q-13 -55 -27.5 -109.5t-30.5 -106.5l-101 -348h-118zM124 177v91h308v-91h-308zM351 700q-27 0 -47.5 10t-36.5 22.5t-29.5 22t-29.5 9.5t-27.5 -13.5t-14.5 -43.5l-76 6q4 67 35 100t80 33
q27 0 47.5 -9.5t36.5 -22t30 -22.5t29 -10q16 0 27.5 14t14.5 44l76 -6q-3 -66 -34.5 -100t-80.5 -34z" />
    <glyph glyph-name="Adieresis" unicode="&#xc4;" horiz-adv-x="558" 
d="M-2 0l213 654h136l213 -654h-122l-100 348q-16 52 -30.5 107t-28.5 109h-4q-13 -55 -27.5 -109.5t-30.5 -106.5l-101 -348h-118zM124 177v91h308v-91h-308zM171 708q-25 0 -42 16.5t-17 42.5t17 43t42 17q27 0 43.5 -17t16.5 -43t-16.5 -42.5t-43.5 -16.5zM385 708
q-26 0 -43 16.5t-17 42.5t17 43t43 17t42.5 -17t16.5 -43t-16.5 -42.5t-42.5 -16.5z" />
    <glyph glyph-name="Aring" unicode="&#xc5;" horiz-adv-x="558" 
d="M-2 0l213 654h136l213 -654h-122l-100 348q-16 52 -30.5 107t-28.5 109h-4q-13 -55 -27.5 -109.5t-30.5 -106.5l-101 -348h-118zM124 177v91h308v-91h-308zM278 698q-56 0 -89 25.5t-33 69.5q0 43 33 68.5t89 25.5q57 0 89.5 -25.5t32.5 -69.5q0 -43 -32.5 -68.5
t-89.5 -25.5zM278 742q22 0 36 13.5t14 36.5q0 24 -14 37t-36 13t-36 -13t-14 -37q0 -23 14 -36.5t36 -13.5z" />
    <glyph glyph-name="AE" unicode="&#xc6;" horiz-adv-x="834" 
d="M-3 0l327 654h449v-98h-263v-167h221v-98h-221v-193h273v-98h-389v565h-4q-24 -50 -47 -100.5t-46 -98.5l-178 -366h-122zM148 170v91h310v-91h-310z" />
    <glyph glyph-name="Ccedilla" unicode="&#xc7;" horiz-adv-x="576" 
d="M346 -12q-83 0 -150.5 39t-107 114.5t-39.5 183.5q0 80 23 143.5t64.5 107.5t95.5 67t116 23t110 -24.5t79 -58.5l-62 -71q-25 26 -55.5 39.5t-68.5 13.5q-52 0 -93.5 -29t-65.5 -82t-24 -126q0 -75 23 -128.5t65 -82t98 -28.5q42 0 75 17t60 45l59 -69q-40 -46 -90 -70
t-112 -24zM252 -233l-10 50q61 4 83.5 15t22.5 32q0 18 -16.5 28.5t-60.5 16.5l46 94h70l-29 -65q36 -9 55.5 -25.5t19.5 -47.5q0 -47 -47.5 -70.5t-133.5 -27.5z" />
    <glyph glyph-name="Egrave" unicode="&#xc8;" horiz-adv-x="538" 
d="M83 0v654h394v-98h-278v-167h235v-98h-235v-193h288v-98h-404zM274 704l-170 132l7 12h133l128 -144h-98z" />
    <glyph glyph-name="Eacute" unicode="&#xc9;" horiz-adv-x="538" 
d="M83 0v654h394v-98h-278v-167h235v-98h-235v-193h288v-98h-404zM208 704l128 144h133l7 -12l-170 -132h-98z" />
    <glyph glyph-name="Ecircumflex" unicode="&#xca;" horiz-adv-x="538" 
d="M83 0v654h394v-98h-278v-167h235v-98h-235v-193h288v-98h-404zM98 704l134 144h116l134 -144h-92l-98 76h-4l-98 -76h-92z" />
    <glyph glyph-name="Edieresis" unicode="&#xcb;" horiz-adv-x="538" 
d="M83 0v654h394v-98h-278v-167h235v-98h-235v-193h288v-98h-404zM183 708q-25 0 -42 16.5t-17 42.5t17 43t42 17q27 0 43.5 -17t16.5 -43t-16.5 -42.5t-43.5 -16.5zM397 708q-26 0 -43 16.5t-17 42.5t17 43t43 17t42.5 -17t16.5 -43t-16.5 -42.5t-42.5 -16.5z" />
    <glyph glyph-name="Igrave" unicode="&#xcc;" horiz-adv-x="282" 
d="M83 0v654h116v-654h-116zM126 704l-170 132l7 12h133l128 -144h-98z" />
    <glyph glyph-name="Iacute" unicode="&#xcd;" horiz-adv-x="282" 
d="M83 0v654h116v-654h-116zM60 704l128 144h133l7 -12l-170 -132h-98z" />
    <glyph glyph-name="Icircumflex" unicode="&#xce;" horiz-adv-x="282" 
d="M83 0v654h116v-654h-116zM-50 704l134 144h116l134 -144h-92l-98 76h-4l-98 -76h-92z" />
    <glyph glyph-name="Idieresis" unicode="&#xcf;" horiz-adv-x="282" 
d="M83 0v654h116v-654h-116zM35 708q-25 0 -42 16.5t-17 42.5t17 43t42 17q27 0 43.5 -17t16.5 -43t-16.5 -42.5t-43.5 -16.5zM249 708q-26 0 -43 16.5t-17 42.5t17 43t43 17t42.5 -17t16.5 -43t-16.5 -42.5t-42.5 -16.5z" />
    <glyph glyph-name="Eth" unicode="&#xd0;" horiz-adv-x="651" 
d="M30 298v82l80 6h252v-88h-332zM109 0v654h175q100 0 171 -36t109 -108t38 -180t-37.5 -181.5t-107.5 -111t-167 -37.5h-181zM225 94h51q66 0 112.5 25.5t70.5 77.5t24 133q0 80 -24 131t-70.5 75t-112.5 24h-51v-466z" />
    <glyph glyph-name="Ntilde" unicode="&#xd1;" horiz-adv-x="656" 
d="M83 0v654h127l196 -360q18 -33 34.5 -71t31.5 -77h4q-4 53 -9 110.5t-5 111.5v286h111v-654h-127l-196 360q-18 33 -35.5 71t-32.5 77h-4q6 -51 11 -108.5t5 -113.5v-286h-111zM409 700q-27 0 -47.5 10t-36.5 22.5t-29.5 22t-29.5 9.5t-27.5 -13.5t-14.5 -43.5l-76 6
q4 67 35 100t80 33q27 0 47.5 -9.5t36.5 -22t30 -22.5t29 -10q16 0 27.5 14t14.5 44l76 -6q-3 -66 -34.5 -100t-80.5 -34z" />
    <glyph glyph-name="Ograve" unicode="&#xd2;" horiz-adv-x="674" 
d="M337 -12q-85 0 -150 41.5t-101.5 118t-36.5 182.5t36.5 181t101.5 115t150 40q86 0 151 -40t101.5 -115t36.5 -181t-36.5 -182.5t-101.5 -118t-151 -41.5zM337 89q52 0 89.5 29.5t58.5 84t21 127.5t-21 125.5t-58.5 81t-89.5 28.5q-51 0 -89 -28.5t-59 -81t-21 -125.5
t21 -127.5t59 -84t89 -29.5zM321 704l-170 132l7 12h133l128 -144h-98z" />
    <glyph glyph-name="Oacute" unicode="&#xd3;" horiz-adv-x="674" 
d="M337 -12q-85 0 -150 41.5t-101.5 118t-36.5 182.5t36.5 181t101.5 115t150 40q86 0 151 -40t101.5 -115t36.5 -181t-36.5 -182.5t-101.5 -118t-151 -41.5zM337 89q52 0 89.5 29.5t58.5 84t21 127.5t-21 125.5t-58.5 81t-89.5 28.5q-51 0 -89 -28.5t-59 -81t-21 -125.5
t21 -127.5t59 -84t89 -29.5zM255 704l128 144h133l7 -12l-170 -132h-98z" />
    <glyph glyph-name="Ocircumflex" unicode="&#xd4;" horiz-adv-x="674" 
d="M337 -12q-85 0 -150 41.5t-101.5 118t-36.5 182.5t36.5 181t101.5 115t150 40q86 0 151 -40t101.5 -115t36.5 -181t-36.5 -182.5t-101.5 -118t-151 -41.5zM337 89q52 0 89.5 29.5t58.5 84t21 127.5t-21 125.5t-58.5 81t-89.5 28.5q-51 0 -89 -28.5t-59 -81t-21 -125.5
t21 -127.5t59 -84t89 -29.5zM145 704l134 144h116l134 -144h-92l-98 76h-4l-98 -76h-92z" />
    <glyph glyph-name="Otilde" unicode="&#xd5;" horiz-adv-x="674" 
d="M337 -12q-85 0 -150 41.5t-101.5 118t-36.5 182.5t36.5 181t101.5 115t150 40q86 0 151 -40t101.5 -115t36.5 -181t-36.5 -182.5t-101.5 -118t-151 -41.5zM337 89q52 0 89.5 29.5t58.5 84t21 127.5t-21 125.5t-58.5 81t-89.5 28.5q-51 0 -89 -28.5t-59 -81t-21 -125.5
t21 -127.5t59 -84t89 -29.5zM410 700q-27 0 -47.5 10t-36.5 22.5t-29.5 22t-29.5 9.5t-27.5 -13.5t-14.5 -43.5l-76 6q4 67 35 100t80 33q27 0 47.5 -9.5t36.5 -22t30 -22.5t29 -10q16 0 27.5 14t14.5 44l76 -6q-3 -66 -34.5 -100t-80.5 -34z" />
    <glyph glyph-name="Odieresis" unicode="&#xd6;" horiz-adv-x="674" 
d="M337 -12q-85 0 -150 41.5t-101.5 118t-36.5 182.5t36.5 181t101.5 115t150 40q86 0 151 -40t101.5 -115t36.5 -181t-36.5 -182.5t-101.5 -118t-151 -41.5zM337 89q52 0 89.5 29.5t58.5 84t21 127.5t-21 125.5t-58.5 81t-89.5 28.5q-51 0 -89 -28.5t-59 -81t-21 -125.5
t21 -127.5t59 -84t89 -29.5zM230 708q-25 0 -42 16.5t-17 42.5t17 43t42 17q27 0 43.5 -17t16.5 -43t-16.5 -42.5t-43.5 -16.5zM444 708q-26 0 -43 16.5t-17 42.5t17 43t43 17t42.5 -17t16.5 -43t-16.5 -42.5t-42.5 -16.5z" />
    <glyph glyph-name="multiply" unicode="&#xd7;" horiz-adv-x="513" 
d="M108 119l-59 60l148 150l-148 151l59 60l148 -152l149 152l59 -60l-149 -151l149 -150l-59 -60l-149 151z" />
    <glyph glyph-name="Oslash" unicode="&#xd8;" horiz-adv-x="674" 
d="M110 -40l-69 56l533 678l70 -56zM339 -12q-85 0 -150 41.5t-101.5 118t-36.5 182.5t36.5 181t101.5 115t150 40q86 0 151 -40t101.5 -115t36.5 -181t-36.5 -182.5t-101.5 -118t-151 -41.5zM339 89q52 0 89.5 29.5t58.5 84t21 127.5t-21 125.5t-58.5 81t-89.5 28.5
q-51 0 -89 -28.5t-59 -81t-21 -125.5t21 -127.5t59 -84t89 -29.5z" />
    <glyph glyph-name="Ugrave" unicode="&#xd9;" horiz-adv-x="655" 
d="M328 -12q-57 0 -102.5 16t-78 51t-50 91t-17.5 135v373h116v-382q0 -69 16.5 -109t46.5 -57t69 -17q40 0 70.5 17t48 57t17.5 109v382h111v-373q0 -79 -17 -135t-49.5 -91t-78 -51t-102.5 -16zM311 704l-170 132l7 12h133l128 -144h-98z" />
    <glyph glyph-name="Uacute" unicode="&#xda;" horiz-adv-x="655" 
d="M328 -12q-57 0 -102.5 16t-78 51t-50 91t-17.5 135v373h116v-382q0 -69 16.5 -109t46.5 -57t69 -17q40 0 70.5 17t48 57t17.5 109v382h111v-373q0 -79 -17 -135t-49.5 -91t-78 -51t-102.5 -16zM245 704l128 144h133l7 -12l-170 -132h-98z" />
    <glyph glyph-name="Ucircumflex" unicode="&#xdb;" horiz-adv-x="655" 
d="M328 -12q-57 0 -102.5 16t-78 51t-50 91t-17.5 135v373h116v-382q0 -69 16.5 -109t46.5 -57t69 -17q40 0 70.5 17t48 57t17.5 109v382h111v-373q0 -79 -17 -135t-49.5 -91t-78 -51t-102.5 -16zM135 704l134 144h116l134 -144h-92l-98 76h-4l-98 -76h-92z" />
    <glyph glyph-name="Udieresis" unicode="&#xdc;" horiz-adv-x="655" 
d="M328 -12q-57 0 -102.5 16t-78 51t-50 91t-17.5 135v373h116v-382q0 -69 16.5 -109t46.5 -57t69 -17q40 0 70.5 17t48 57t17.5 109v382h111v-373q0 -79 -17 -135t-49.5 -91t-78 -51t-102.5 -16zM220 708q-25 0 -42 16.5t-17 42.5t17 43t42 17q27 0 43.5 -17t16.5 -43
t-16.5 -42.5t-43.5 -16.5zM434 708q-26 0 -43 16.5t-17 42.5t17 43t43 17t42.5 -17t16.5 -43t-16.5 -42.5t-42.5 -16.5z" />
    <glyph glyph-name="Yacute" unicode="&#xdd;" horiz-adv-x="501" 
d="M192 0v243l-196 411h124l71 -167q14 -37 28 -71.5t30 -72.5h4q16 38 31 72.5t29 71.5l71 167h121l-197 -411v-243h-116zM168 704l128 144h133l7 -12l-170 -132h-98z" />
    <glyph glyph-name="Thorn" unicode="&#xde;" horiz-adv-x="600" 
d="M83 0v654h116v-104h104q72 0 128 -19t88.5 -63t32.5 -120q0 -73 -32.5 -119.5t-89 -69.5t-127.5 -23h-104v-136h-116zM199 229h95q73 0 108.5 29.5t35.5 89.5q0 61 -36.5 85t-107.5 24h-95v-228z" />
    <glyph glyph-name="germandbls" unicode="&#xdf;" horiz-adv-x="604" 
d="M404 -12q-40 0 -75.5 11.5t-68.5 38.5l39 70q25 -19 50.5 -26t51.5 -7q33 0 51 19t18 45q0 24 -12 40t-32 28.5t-42.5 25.5t-42.5 28.5t-32.5 38.5t-12.5 57q0 31 13.5 54t30.5 42.5t30 42t13 51.5q0 34 -23 56.5t-60 22.5q-51 0 -82 -37t-31 -107v-482h-114v498
q0 64 26.5 113.5t77 77t123.5 27.5q62 0 105.5 -21.5t66 -57.5t22.5 -77q0 -37 -14 -63t-31.5 -46t-31.5 -38.5t-14 -41.5q0 -20 12.5 -34t32 -26t42 -25t42.5 -31t32.5 -44.5t12.5 -66.5q0 -43 -20.5 -78.5t-59 -56.5t-93.5 -21z" />
    <glyph glyph-name="agrave" unicode="&#xe0;" horiz-adv-x="516" 
d="M192 -12q-43 0 -76 18t-51.5 50.5t-18.5 75.5q0 83 69.5 125.5t220.5 58.5q-1 25 -9.5 46t-28 33.5t-52.5 12.5q-36 0 -70.5 -13t-67.5 -33l-42 78q27 17 59 31.5t68 23t75 8.5q61 0 101.5 -24.5t61 -72t20.5 -116.5v-290h-95l-8 54h-4q-34 -28 -71 -47t-81 -19zM228 82
q30 0 55.5 12.5t52.5 37.5v104q-67 -8 -106 -21t-55.5 -31.5t-16.5 -43.5q0 -31 20 -44.5t50 -13.5zM264 570l-162 162l7 12h123l122 -174h-90z" />
    <glyph glyph-name="aacute" unicode="&#xe1;" horiz-adv-x="516" 
d="M192 -12q-43 0 -76 18t-51.5 50.5t-18.5 75.5q0 83 69.5 125.5t220.5 58.5q-1 25 -9.5 46t-28 33.5t-52.5 12.5q-36 0 -70.5 -13t-67.5 -33l-42 78q27 17 59 31.5t68 23t75 8.5q61 0 101.5 -24.5t61 -72t20.5 -116.5v-290h-95l-8 54h-4q-34 -28 -71 -47t-81 -19zM228 82
q30 0 55.5 12.5t52.5 37.5v104q-67 -8 -106 -21t-55.5 -31.5t-16.5 -43.5q0 -31 20 -44.5t50 -13.5zM190 570l122 174h123l7 -12l-162 -162h-90z" />
    <glyph glyph-name="acircumflex" unicode="&#xe2;" horiz-adv-x="516" 
d="M192 -12q-43 0 -76 18t-51.5 50.5t-18.5 75.5q0 83 69.5 125.5t220.5 58.5q-1 25 -9.5 46t-28 33.5t-52.5 12.5q-36 0 -70.5 -13t-67.5 -33l-42 78q27 17 59 31.5t68 23t75 8.5q61 0 101.5 -24.5t61 -72t20.5 -116.5v-290h-95l-8 54h-4q-34 -28 -71 -47t-81 -19zM228 82
q30 0 55.5 12.5t52.5 37.5v104q-67 -8 -106 -21t-55.5 -31.5t-16.5 -43.5q0 -31 20 -44.5t50 -13.5zM86 570l134 174h104l134 -174h-90l-94 94h-4l-94 -94h-90z" />
    <glyph glyph-name="atilde" unicode="&#xe3;" horiz-adv-x="516" 
d="M192 -12q-43 0 -76 18t-51.5 50.5t-18.5 75.5q0 83 69.5 125.5t220.5 58.5q-1 25 -9.5 46t-28 33.5t-52.5 12.5q-36 0 -70.5 -13t-67.5 -33l-42 78q27 17 59 31.5t68 23t75 8.5q61 0 101.5 -24.5t61 -72t20.5 -116.5v-290h-95l-8 54h-4q-34 -28 -71 -47t-81 -19zM228 82
q30 0 55.5 12.5t52.5 37.5v104q-67 -8 -106 -21t-55.5 -31.5t-16.5 -43.5q0 -31 20 -44.5t50 -13.5zM341 575q-25 0 -44 11t-34.5 26t-29 26t-28.5 11q-19 0 -28.5 -17t-12.5 -50l-74 4q2 46 15 78t37 49t61 17q26 0 44.5 -11t34 -25.5t29.5 -26t29 -11.5q18 0 27.5 17.5
t12.5 49.5l74 -4q-2 -45 -14.5 -77t-37 -49.5t-61.5 -17.5z" />
    <glyph glyph-name="adieresis" unicode="&#xe4;" horiz-adv-x="516" 
d="M192 -12q-43 0 -76 18t-51.5 50.5t-18.5 75.5q0 83 69.5 125.5t220.5 58.5q-1 25 -9.5 46t-28 33.5t-52.5 12.5q-36 0 -70.5 -13t-67.5 -33l-42 78q27 17 59 31.5t68 23t75 8.5q61 0 101.5 -24.5t61 -72t20.5 -116.5v-290h-95l-8 54h-4q-34 -28 -71 -47t-81 -19zM228 82
q30 0 55.5 12.5t52.5 37.5v104q-67 -8 -106 -21t-55.5 -31.5t-16.5 -43.5q0 -31 20 -44.5t50 -13.5zM169 578q-26 0 -43.5 17.5t-17.5 43.5t17.5 43.5t43.5 17.5q27 0 44 -17.5t17 -43.5t-17 -43.5t-44 -17.5zM375 578q-26 0 -43.5 17.5t-17.5 43.5t17.5 43.5t43.5 17.5
t43.5 -17.5t17.5 -43.5t-17.5 -43.5t-43.5 -17.5z" />
    <glyph glyph-name="aring" unicode="&#xe5;" horiz-adv-x="516" 
d="M192 -12q-43 0 -76 18t-51.5 50.5t-18.5 75.5q0 83 69.5 125.5t220.5 58.5q-1 25 -9.5 46t-28 33.5t-52.5 12.5q-36 0 -70.5 -13t-67.5 -33l-42 78q27 17 59 31.5t68 23t75 8.5q61 0 101.5 -24.5t61 -72t20.5 -116.5v-290h-95l-8 54h-4q-34 -28 -71 -47t-81 -19zM228 82
q30 0 55.5 12.5t52.5 37.5v104q-67 -8 -106 -21t-55.5 -31.5t-16.5 -43.5q0 -31 20 -44.5t50 -13.5zM272 559q-58 0 -89.5 29.5t-31.5 72.5t31.5 72t89.5 29t89.5 -29t31.5 -72t-31.5 -72.5t-89.5 -29.5zM272 605q21 0 35.5 15.5t14.5 40.5t-14.5 40t-35.5 15t-35.5 -15
t-14.5 -41q0 -24 14.5 -39.5t35.5 -15.5z" />
    <glyph glyph-name="ae" unicode="&#xe6;" horiz-adv-x="780" 
d="M192 -12q-43 0 -76 18t-51.5 50.5t-18.5 75.5q0 83 69 125.5t217 58.5q-1 26 -9 47t-26.5 33t-52.5 12t-68.5 -13t-67.5 -33l-42 77q27 18 58 32.5t65 23t69 8.5q51 0 87.5 -23.5t52.5 -65.5q29 42 66.5 65.5t85.5 23.5q65 0 108 -30t64 -83t21 -122q0 -17 -1.5 -32
t-3.5 -26h-300q4 -41 22 -70t47 -44.5t65 -15.5q32 0 59.5 9t54.5 25l38 -74q-34 -24 -77 -38t-90 -14q-38 0 -69.5 11t-56.5 30t-45 43q-51 -43 -98.5 -63.5t-95.5 -20.5zM228 82q30 0 62 13.5t58 40.5q-7 17 -10.5 38.5t-5.5 43.5l-2 18q-93 -12 -131.5 -34.5t-38.5 -61.5
q0 -31 19 -44.5t49 -13.5zM440 296h200q0 57 -25 86.5t-67 29.5q-28 0 -50.5 -14t-37.5 -40t-20 -62z" />
    <glyph glyph-name="ccedilla" unicode="&#xe7;" horiz-adv-x="462" 
d="M280 -12q-68 0 -122 30.5t-85.5 88t-31.5 138.5q0 82 34 139.5t90.5 88t121.5 30.5q47 0 82.5 -15.5t61.5 -39.5l-55 -72q-16 15 -36.5 24t-46.5 9q-39 0 -69 -20.5t-47.5 -57t-17.5 -86.5q0 -49 17 -85.5t46.5 -57t68.5 -20.5q29 0 54.5 11t45.5 28l47 -71
q-31 -28 -71.5 -45t-86.5 -17zM170 -233l-10 50q61 4 83.5 15t22.5 32q0 18 -16.5 28.5t-60.5 16.5l46 94h70l-29 -65q36 -9 55.5 -25.5t19.5 -47.5q0 -47 -47.5 -70.5t-133.5 -27.5z" />
    <glyph glyph-name="egrave" unicode="&#xe8;" horiz-adv-x="507" 
d="M284 -12q-69 0 -124.5 30.5t-87.5 88t-32 139.5q0 80 33 137.5t85 88.5t110 31q67 0 112 -30t67.5 -82.5t22.5 -120.5q0 -16 -1.5 -31t-4.5 -29h-338v88h242q0 53 -24 83.5t-74 30.5q-28 0 -54.5 -15t-44 -51t-17.5 -100q0 -58 20 -94.5t53 -54t71 -17.5q32 0 60.5 9
t53.5 25l40 -74q-34 -24 -77.5 -38t-90.5 -14zM258 570l-162 162l7 12h123l122 -174h-90z" />
    <glyph glyph-name="eacute" unicode="&#xe9;" horiz-adv-x="507" 
d="M284 -12q-69 0 -124.5 30.5t-87.5 88t-32 139.5q0 80 33 137.5t85 88.5t110 31q67 0 112 -30t67.5 -82.5t22.5 -120.5q0 -16 -1.5 -31t-4.5 -29h-338v88h242q0 53 -24 83.5t-74 30.5q-28 0 -54.5 -15t-44 -51t-17.5 -100q0 -58 20 -94.5t53 -54t71 -17.5q32 0 60.5 9
t53.5 25l40 -74q-34 -24 -77.5 -38t-90.5 -14zM184 570l122 174h123l7 -12l-162 -162h-90z" />
    <glyph glyph-name="ecircumflex" unicode="&#xea;" horiz-adv-x="507" 
d="M284 -12q-69 0 -124.5 30.5t-87.5 88t-32 139.5q0 80 33 137.5t85 88.5t110 31q67 0 112 -30t67.5 -82.5t22.5 -120.5q0 -16 -1.5 -31t-4.5 -29h-338v88h242q0 53 -24 83.5t-74 30.5q-28 0 -54.5 -15t-44 -51t-17.5 -100q0 -58 20 -94.5t53 -54t71 -17.5q32 0 60.5 9
t53.5 25l40 -74q-34 -24 -77.5 -38t-90.5 -14zM80 570l134 174h104l134 -174h-90l-94 94h-4l-94 -94h-90z" />
    <glyph glyph-name="edieresis" unicode="&#xeb;" horiz-adv-x="507" 
d="M284 -12q-69 0 -124.5 30.5t-87.5 88t-32 139.5q0 80 33 137.5t85 88.5t110 31q67 0 112 -30t67.5 -82.5t22.5 -120.5q0 -16 -1.5 -31t-4.5 -29h-338v88h242q0 53 -24 83.5t-74 30.5q-28 0 -54.5 -15t-44 -51t-17.5 -100q0 -58 20 -94.5t53 -54t71 -17.5q32 0 60.5 9
t53.5 25l40 -74q-34 -24 -77.5 -38t-90.5 -14zM163 578q-26 0 -43.5 17.5t-17.5 43.5t17.5 43.5t43.5 17.5q27 0 44 -17.5t17 -43.5t-17 -43.5t-44 -17.5zM369 578q-26 0 -43.5 17.5t-17.5 43.5t17.5 43.5t43.5 17.5t43.5 -17.5t17.5 -43.5t-17.5 -43.5t-43.5 -17.5z" />
    <glyph glyph-name="igrave" unicode="&#xec;" horiz-adv-x="262" 
d="M73 0v491h115v-491h-115zM122 570l-162 162l7 12h123l122 -174h-90z" />
    <glyph glyph-name="iacute" unicode="&#xed;" horiz-adv-x="262" 
d="M73 0v491h115v-491h-115zM48 570l122 174h123l7 -12l-162 -162h-90z" />
    <glyph glyph-name="icircumflex" unicode="&#xee;" horiz-adv-x="262" 
d="M73 0v491h115v-491h-115zM-56 570l134 174h104l134 -174h-90l-94 94h-4l-94 -94h-90z" />
    <glyph glyph-name="idieresis" unicode="&#xef;" horiz-adv-x="262" 
d="M73 0v491h115v-491h-115zM27 578q-26 0 -43.5 17.5t-17.5 43.5t17.5 43.5t43.5 17.5q27 0 44 -17.5t17 -43.5t-17 -43.5t-44 -17.5zM233 578q-26 0 -43.5 17.5t-17.5 43.5t17.5 43.5t43.5 17.5t43.5 -17.5t17.5 -43.5t-17.5 -43.5t-43.5 -17.5z" />
    <glyph glyph-name="eth" unicode="&#xf0;" horiz-adv-x="552" 
d="M271 -12q-59 0 -110 29t-82 82t-31 126q0 70 28.5 120.5t75.5 78t102 27.5q41 0 78.5 -20t59.5 -66l1 -67q-28 39 -58 52.5t-62 13.5q-36 0 -63 -17t-41.5 -48t-14.5 -74q0 -44 16.5 -76.5t44 -49.5t59.5 -17q37 0 62.5 20.5t39 59.5t13.5 94q0 83 -19.5 145.5t-57 110.5
t-91.5 85t-124 68l50 71q68 -29 131 -69.5t112.5 -96.5t78.5 -131.5t29 -176.5q0 -80 -28 -142t-78.5 -97t-120.5 -35zM124 476l-40 76l352 180l44 -76z" />
    <glyph glyph-name="ntilde" unicode="&#xf1;" horiz-adv-x="560" 
d="M73 0v491h95l8 -66h4q33 32 72 55t89 23q79 0 115 -51t36 -144v-308h-115v293q0 61 -18 86t-59 25q-32 0 -56.5 -15.5t-55.5 -45.5v-343h-115zM373 575q-25 0 -44 11t-34.5 26t-29 26t-28.5 11q-19 0 -28.5 -17t-12.5 -50l-74 4q2 46 15 78t37 49t61 17q26 0 44.5 -11
t34 -25.5t29.5 -26t29 -11.5q18 0 27.5 17.5t12.5 49.5l74 -4q-2 -45 -14.5 -77t-37 -49.5t-61.5 -17.5z" />
    <glyph glyph-name="ograve" unicode="&#xf2;" horiz-adv-x="549" 
d="M274 -12q-61 0 -114 30.5t-86 88t-33 138.5q0 82 33 139.5t86 88t114 30.5q62 0 115 -30.5t86 -88t33 -139.5q0 -81 -33 -138.5t-86 -88t-115 -30.5zM274 82q36 0 62 20t40 57t14 86t-14 86t-40 57.5t-62 20.5t-61.5 -20.5t-39.5 -57.5t-14 -86t14 -86t39.5 -57t61.5 -20
zM266 570l-162 162l7 12h123l122 -174h-90z" />
    <glyph glyph-name="oacute" unicode="&#xf3;" horiz-adv-x="549" 
d="M274 -12q-61 0 -114 30.5t-86 88t-33 138.5q0 82 33 139.5t86 88t114 30.5q62 0 115 -30.5t86 -88t33 -139.5q0 -81 -33 -138.5t-86 -88t-115 -30.5zM274 82q36 0 62 20t40 57t14 86t-14 86t-40 57.5t-62 20.5t-61.5 -20.5t-39.5 -57.5t-14 -86t14 -86t39.5 -57t61.5 -20
zM192 570l122 174h123l7 -12l-162 -162h-90z" />
    <glyph glyph-name="ocircumflex" unicode="&#xf4;" horiz-adv-x="549" 
d="M274 -12q-61 0 -114 30.5t-86 88t-33 138.5q0 82 33 139.5t86 88t114 30.5q62 0 115 -30.5t86 -88t33 -139.5q0 -81 -33 -138.5t-86 -88t-115 -30.5zM274 82q36 0 62 20t40 57t14 86t-14 86t-40 57.5t-62 20.5t-61.5 -20.5t-39.5 -57.5t-14 -86t14 -86t39.5 -57t61.5 -20
zM88 570l134 174h104l134 -174h-90l-94 94h-4l-94 -94h-90z" />
    <glyph glyph-name="otilde" unicode="&#xf5;" horiz-adv-x="549" 
d="M274 -12q-61 0 -114 30.5t-86 88t-33 138.5q0 82 33 139.5t86 88t114 30.5q62 0 115 -30.5t86 -88t33 -139.5q0 -81 -33 -138.5t-86 -88t-115 -30.5zM274 82q36 0 62 20t40 57t14 86t-14 86t-40 57.5t-62 20.5t-61.5 -20.5t-39.5 -57.5t-14 -86t14 -86t39.5 -57t61.5 -20
zM343 575q-25 0 -44 11t-34.5 26t-29 26t-28.5 11q-19 0 -28.5 -17t-12.5 -50l-74 4q2 46 15 78t37 49t61 17q26 0 44.5 -11t34 -25.5t29.5 -26t29 -11.5q18 0 27.5 17.5t12.5 49.5l74 -4q-2 -45 -14.5 -77t-37 -49.5t-61.5 -17.5z" />
    <glyph glyph-name="odieresis" unicode="&#xf6;" horiz-adv-x="549" 
d="M274 -12q-61 0 -114 30.5t-86 88t-33 138.5q0 82 33 139.5t86 88t114 30.5q62 0 115 -30.5t86 -88t33 -139.5q0 -81 -33 -138.5t-86 -88t-115 -30.5zM274 82q36 0 62 20t40 57t14 86t-14 86t-40 57.5t-62 20.5t-61.5 -20.5t-39.5 -57.5t-14 -86t14 -86t39.5 -57t61.5 -20
zM171 578q-26 0 -43.5 17.5t-17.5 43.5t17.5 43.5t43.5 17.5q27 0 44 -17.5t17 -43.5t-17 -43.5t-44 -17.5zM377 578q-26 0 -43.5 17.5t-17.5 43.5t17.5 43.5t43.5 17.5t43.5 -17.5t17.5 -43.5t-17.5 -43.5t-43.5 -17.5z" />
    <glyph glyph-name="divide" unicode="&#xf7;" horiz-adv-x="513" 
d="M34 288v84h445v-84h-445zM256 84q-28 0 -48 18.5t-20 47.5t20 47t48 18q29 0 48.5 -18t19.5 -47t-19.5 -47.5t-48.5 -18.5zM256 444q-28 0 -48 18.5t-20 47.5t20 47t48 18q29 0 48.5 -18t19.5 -47t-19.5 -47.5t-48.5 -18.5z" />
    <glyph glyph-name="oslash" unicode="&#xf8;" horiz-adv-x="549" 
d="M276 -12q-62 0 -116 30t-87 87.5t-33 138.5q0 83 33 140.5t86.5 88t114.5 30.5q62 0 115.5 -30.5t87 -88t33.5 -140.5q0 -81 -33.5 -138.5t-86.5 -87.5t-114 -30zM276 78q35 0 62 20t42.5 56.5t15.5 83.5q0 57 -15 96.5t-42.5 59.5t-64.5 20q-36 0 -63 -20.5t-42 -57
t-15 -84.5q0 -56 15 -95t42.5 -59t64.5 -20zM98 -34l-62 52l416 508l62 -52z" />
    <glyph glyph-name="ugrave" unicode="&#xf9;" horiz-adv-x="556" 
d="M219 -12q-79 0 -115 51t-36 144v308h115v-293q0 -61 18 -86t58 -25q32 0 56.5 16t52.5 52v336h115v-491h-94l-9 72h-3q-32 -38 -70 -61t-88 -23zM270 570l-162 162l7 12h123l122 -174h-90z" />
    <glyph glyph-name="uacute" unicode="&#xfa;" horiz-adv-x="556" 
d="M219 -12q-79 0 -115 51t-36 144v308h115v-293q0 -61 18 -86t58 -25q32 0 56.5 16t52.5 52v336h115v-491h-94l-9 72h-3q-32 -38 -70 -61t-88 -23zM196 570l122 174h123l7 -12l-162 -162h-90z" />
    <glyph glyph-name="ucircumflex" unicode="&#xfb;" horiz-adv-x="556" 
d="M219 -12q-79 0 -115 51t-36 144v308h115v-293q0 -61 18 -86t58 -25q32 0 56.5 16t52.5 52v336h115v-491h-94l-9 72h-3q-32 -38 -70 -61t-88 -23zM92 570l134 174h104l134 -174h-90l-94 94h-4l-94 -94h-90z" />
    <glyph glyph-name="udieresis" unicode="&#xfc;" horiz-adv-x="556" 
d="M219 -12q-79 0 -115 51t-36 144v308h115v-293q0 -61 18 -86t58 -25q32 0 56.5 16t52.5 52v336h115v-491h-94l-9 72h-3q-32 -38 -70 -61t-88 -23zM175 578q-26 0 -43.5 17.5t-17.5 43.5t17.5 43.5t43.5 17.5q27 0 44 -17.5t17 -43.5t-17 -43.5t-44 -17.5zM381 578
q-26 0 -43.5 17.5t-17.5 43.5t17.5 43.5t43.5 17.5t43.5 -17.5t17.5 -43.5t-17.5 -43.5t-43.5 -17.5z" />
    <glyph glyph-name="yacute" unicode="&#xfd;" horiz-adv-x="495" 
d="M106 -202q-20 0 -35.5 3t-28.5 9l22 86q10 -3 18 -4t16 -1q39 0 62.5 24t35.5 60l9 31l-193 485h117l85 -241q11 -32 21.5 -67.5t21.5 -70.5h4q9 34 18.5 69.5t18.5 68.5l74 241h111l-178 -513q-20 -55 -46 -95.5t-63 -62.5t-90 -22zM172 570l122 174h123l7 -12
l-162 -162h-90z" />
    <glyph glyph-name="thorn" unicode="&#xfe;" horiz-adv-x="564" 
d="M73 -194v900h115v-182l-2 -77q29 24 64 40t72 16q63 0 107.5 -31t68 -87t23.5 -132q0 -84 -30 -143t-77.5 -90.5t-102.5 -31.5q-35 0 -65.5 13.5t-59.5 36.5l2 -78v-154h-115zM287 83q33 0 59 19t41 56.5t15 93.5q0 49 -11 84t-34.5 53.5t-60.5 18.5q-27 0 -53 -13.5
t-55 -41.5v-229q27 -22 52.5 -31.5t46.5 -9.5z" />
    <glyph glyph-name="ydieresis" unicode="&#xff;" horiz-adv-x="495" 
d="M106 -202q-20 0 -35.5 3t-28.5 9l22 86q10 -3 18 -4t16 -1q39 0 62.5 24t35.5 60l9 31l-193 485h117l85 -241q11 -32 21.5 -67.5t21.5 -70.5h4q9 34 18.5 69.5t18.5 68.5l74 241h111l-178 -513q-20 -55 -46 -95.5t-63 -62.5t-90 -22zM151 578q-26 0 -43.5 17.5
t-17.5 43.5t17.5 43.5t43.5 17.5q27 0 44 -17.5t17 -43.5t-17 -43.5t-44 -17.5zM357 578q-26 0 -43.5 17.5t-17.5 43.5t17.5 43.5t43.5 17.5t43.5 -17.5t17.5 -43.5t-17.5 -43.5t-43.5 -17.5z" />
    <glyph glyph-name="Amacron" unicode="&#x100;" horiz-adv-x="558" 
d="M-2 0l213 654h136l213 -654h-122l-100 348q-16 52 -30.5 107t-28.5 109h-4q-13 -55 -27.5 -109.5t-30.5 -106.5l-101 -348h-118zM124 177v91h308v-91h-308zM134 728v76h288v-76h-288z" />
    <glyph glyph-name="amacron" unicode="&#x101;" horiz-adv-x="516" 
d="M192 -12q-43 0 -76 18t-51.5 50.5t-18.5 75.5q0 83 69.5 125.5t220.5 58.5q-1 25 -9.5 46t-28 33.5t-52.5 12.5q-36 0 -70.5 -13t-67.5 -33l-42 78q27 17 59 31.5t68 23t75 8.5q61 0 101.5 -24.5t61 -72t20.5 -116.5v-290h-95l-8 54h-4q-34 -28 -71 -47t-81 -19zM228 82
q30 0 55.5 12.5t52.5 37.5v104q-67 -8 -106 -21t-55.5 -31.5t-16.5 -43.5q0 -31 20 -44.5t50 -13.5zM132 596v76h280v-76h-280z" />
    <glyph glyph-name="Abreve" unicode="&#x102;" horiz-adv-x="558" 
d="M-2 0l213 654h136l213 -654h-122l-100 348q-16 52 -30.5 107t-28.5 109h-4q-13 -55 -27.5 -109.5t-30.5 -106.5l-101 -348h-118zM124 177v91h308v-91h-308zM278 702q-48 0 -80.5 17t-51 47t-23.5 69l66 11q6 -33 28.5 -53.5t60.5 -20.5t60.5 20.5t28.5 53.5l66 -11
q-4 -39 -23 -69t-51.5 -47t-80.5 -17z" />
    <glyph glyph-name="abreve" unicode="&#x103;" horiz-adv-x="516" 
d="M192 -12q-43 0 -76 18t-51.5 50.5t-18.5 75.5q0 83 69.5 125.5t220.5 58.5q-1 25 -9.5 46t-28 33.5t-52.5 12.5q-36 0 -70.5 -13t-67.5 -33l-42 78q27 17 59 31.5t68 23t75 8.5q61 0 101.5 -24.5t61 -72t20.5 -116.5v-290h-95l-8 54h-4q-34 -28 -71 -47t-81 -19zM228 82
q30 0 55.5 12.5t52.5 37.5v104q-67 -8 -106 -21t-55.5 -31.5t-16.5 -43.5q0 -31 20 -44.5t50 -13.5zM272 569q-55 0 -90.5 21.5t-53 57t-19.5 75.5l68 11q4 -23 15 -44t31 -34t49 -13q30 0 49.5 13t30.5 34t15 44l68 -11q-2 -40 -19.5 -75.5t-52.5 -57t-91 -21.5z" />
    <glyph glyph-name="Aogonek" unicode="&#x104;" horiz-adv-x="558" 
d="M498 -222q-49 0 -83 24t-34 71q0 30 13 55t31.5 43.5t35.5 28.5h-23l-100 348q-16 52 -30.5 107t-28.5 109h-4q-13 -54 -28 -109t-30 -107l-101 -348h-118l213 654h136l213 -654q-38 -10 -62.5 -38t-24.5 -57q0 -23 14.5 -33.5t34.5 -10.5q14 0 26.5 5t21.5 11l28 -65
q-18 -14 -45.5 -24t-54.5 -10zM124 177v91h308v-91h-308z" />
    <glyph glyph-name="aogonek" unicode="&#x105;" horiz-adv-x="516" 
d="M395 -217q-46 0 -78 24t-32 73q0 28 11 51.5t27.5 41t32.5 27.5l-8 54h-4q-34 -28 -71 -47t-81 -19q-43 0 -76 18t-51.5 50.5t-18.5 75.5q0 83 69.5 125.5t220.5 58.5q-1 25 -9.5 46t-28 33.5t-52.5 12.5q-36 0 -70.5 -13t-67.5 -33l-42 78q27 17 59 31.5t68 23t75 8.5
q61 0 101.5 -24.5t61 -72t20.5 -116.5v-290q-38 -13 -58 -41t-20 -53q0 -22 14.5 -32.5t31.5 -10.5q14 0 26 4t23 11l26 -62q-19 -14 -46 -23.5t-53 -9.5zM228 82q30 0 55.5 12.5t52.5 37.5v104q-67 -8 -106 -21t-55.5 -31.5t-16.5 -43.5q0 -31 20 -44.5t50 -13.5z" />
    <glyph glyph-name="Cacute" unicode="&#x106;" horiz-adv-x="576" 
d="M346 -12q-83 0 -150.5 39t-107 114.5t-39.5 183.5q0 80 23 143.5t64.5 107.5t95.5 67t116 23t110 -24.5t79 -58.5l-62 -71q-25 26 -55.5 39.5t-68.5 13.5q-52 0 -93.5 -29t-65.5 -82t-24 -126q0 -75 23 -128.5t65 -82t98 -28.5q42 0 75 17t60 45l59 -69q-40 -46 -90 -70
t-112 -24zM256 704l128 144h133l7 -12l-170 -132h-98z" />
    <glyph glyph-name="cacute" unicode="&#x107;" horiz-adv-x="462" 
d="M280 -12q-68 0 -122 30.5t-85.5 88t-31.5 138.5q0 82 34 139.5t90.5 88t121.5 30.5q47 0 82.5 -15.5t61.5 -39.5l-55 -72q-16 15 -36.5 24t-46.5 9q-39 0 -69 -20.5t-47.5 -57t-17.5 -86.5q0 -49 17 -85.5t46.5 -57t68.5 -20.5q29 0 54.5 11t45.5 28l47 -71
q-31 -28 -71.5 -45t-86.5 -17zM194 570l122 174h123l7 -12l-162 -162h-90z" />
    <glyph glyph-name="Ccircumflex" unicode="&#x108;" horiz-adv-x="576" 
d="M346 -12q-83 0 -150.5 39t-107 114.5t-39.5 183.5q0 80 23 143.5t64.5 107.5t95.5 67t116 23t110 -24.5t79 -58.5l-62 -71q-25 26 -55.5 39.5t-68.5 13.5q-52 0 -93.5 -29t-65.5 -82t-24 -126q0 -75 23 -128.5t65 -82t98 -28.5q42 0 75 17t60 45l59 -69q-40 -46 -90 -70
t-112 -24zM146 704l134 144h116l134 -144h-92l-98 76h-4l-98 -76h-92z" />
    <glyph glyph-name="ccircumflex" unicode="&#x109;" horiz-adv-x="462" 
d="M280 -12q-68 0 -122 30.5t-85.5 88t-31.5 138.5q0 82 34 139.5t90.5 88t121.5 30.5q47 0 82.5 -15.5t61.5 -39.5l-55 -72q-16 15 -36.5 24t-46.5 9q-39 0 -69 -20.5t-47.5 -57t-17.5 -86.5q0 -49 17 -85.5t46.5 -57t68.5 -20.5q29 0 54.5 11t45.5 28l47 -71
q-31 -28 -71.5 -45t-86.5 -17zM90 570l134 174h104l134 -174h-90l-94 94h-4l-94 -94h-90z" />
    <glyph glyph-name="Cdotaccent" unicode="&#x10a;" horiz-adv-x="576" 
d="M346 -12q-83 0 -150.5 39t-107 114.5t-39.5 183.5q0 80 23 143.5t64.5 107.5t95.5 67t116 23t110 -24.5t79 -58.5l-62 -71q-25 26 -55.5 39.5t-68.5 13.5q-52 0 -93.5 -29t-65.5 -82t-24 -126q0 -75 23 -128.5t65 -82t98 -28.5q42 0 75 17t60 45l59 -69q-40 -46 -90 -70
t-112 -24zM338 707q-30 0 -50.5 19t-20.5 47q0 29 20.5 47t50.5 18q31 0 51 -18t20 -47q0 -28 -20 -47t-51 -19z" />
    <glyph glyph-name="cdotaccent" unicode="&#x10b;" horiz-adv-x="462" 
d="M280 -12q-68 0 -122 30.5t-85.5 88t-31.5 138.5q0 82 34 139.5t90.5 88t121.5 30.5q47 0 82.5 -15.5t61.5 -39.5l-55 -72q-16 15 -36.5 24t-46.5 9q-39 0 -69 -20.5t-47.5 -57t-17.5 -86.5q0 -49 17 -85.5t46.5 -57t68.5 -20.5q29 0 54.5 11t45.5 28l47 -71
q-31 -28 -71.5 -45t-86.5 -17zM276 577q-30 0 -49.5 18t-19.5 48t19.5 47.5t49.5 17.5q31 0 50 -17.5t19 -47.5t-19 -48t-50 -18z" />
    <glyph glyph-name="Ccaron" unicode="&#x10c;" horiz-adv-x="576" 
d="M346 -12q-83 0 -150.5 39t-107 114.5t-39.5 183.5q0 80 23 143.5t64.5 107.5t95.5 67t116 23t110 -24.5t79 -58.5l-62 -71q-25 26 -55.5 39.5t-68.5 13.5q-52 0 -93.5 -29t-65.5 -82t-24 -126q0 -75 23 -128.5t65 -82t98 -28.5q42 0 75 17t60 45l59 -69q-40 -46 -90 -70
t-112 -24zM280 705l-134 143h92l98 -71h4l98 71h92l-134 -143h-116z" />
    <glyph glyph-name="ccaron" unicode="&#x10d;" horiz-adv-x="462" 
d="M280 -12q-68 0 -122 30.5t-85.5 88t-31.5 138.5q0 82 34 139.5t90.5 88t121.5 30.5q47 0 82.5 -15.5t61.5 -39.5l-55 -72q-16 15 -36.5 24t-46.5 9q-39 0 -69 -20.5t-47.5 -57t-17.5 -86.5q0 -49 17 -85.5t46.5 -57t68.5 -20.5q29 0 54.5 11t45.5 28l47 -71
q-31 -28 -71.5 -45t-86.5 -17zM224 570l-134 174h90l94 -94h4l94 94h90l-134 -174h-104z" />
    <glyph glyph-name="Dcaron" unicode="&#x10e;" horiz-adv-x="625" 
d="M83 0v654h175q100 0 171 -36t109 -108t38 -180t-37.5 -181.5t-107.5 -111t-167 -37.5h-181zM199 94h51q66 0 112.5 25.5t70.5 77.5t24 133q0 80 -24 131t-70.5 75t-112.5 24h-51v-466zM260 705l-134 143h92l98 -71h4l98 71h92l-134 -143h-116z" />
    <glyph glyph-name="dcaron" unicode="&#x10f;" horiz-adv-x="594" 
d="M245 -12q-92 0 -147 68t-55 189q0 80 29.5 138t77 89t101.5 31q42 0 71.5 -14t57.5 -40l-4 79v178h115v-706h-95l-8 53h-4q-27 -27 -63 -46t-76 -19zM273 83q29 0 54 13.5t49 41.5v229q-25 23 -50 32t-50 9q-32 0 -57.5 -19t-41 -55t-15.5 -88q0 -79 29 -121t82 -42z
M541 548l-5 217h77l-1 -63l-19 -154h-52z" />
    <glyph glyph-name="Dcroat" unicode="&#x110;" horiz-adv-x="645" 
d="M30 298v82l80 6h252v-88h-332zM109 0v654h175q100 0 171 -36t109 -108t38 -180t-37.5 -181.5t-107.5 -111t-167 -37.5h-181zM225 94h51q66 0 112.5 25.5t70.5 77.5t24 133q0 80 -24 131t-70.5 75t-112.5 24h-51v-466z" />
    <glyph glyph-name="dcroat" unicode="&#x111;" horiz-adv-x="564" 
d="M246 -12q-62 0 -108 28.5t-71 81.5t-25 126q0 72 30 125t78 82t101 29q42 0 71.5 -14t57.5 -40l-4 80v220h115v-706h-97l-8 50h-4q-27 -27 -61 -44.5t-75 -17.5zM273 83q29 0 53.5 13.5t49.5 41.5v184q-25 24 -49.5 33.5t-50.5 9.5q-31 0 -57 -17t-41.5 -48t-15.5 -74
q0 -67 29 -105t82 -38zM200 540v88h362v-82l-76 -6h-286z" />
    <glyph glyph-name="Emacron" unicode="&#x112;" horiz-adv-x="538" 
d="M83 0v654h394v-98h-278v-167h235v-98h-235v-193h288v-98h-404zM146 728v76h288v-76h-288z" />
    <glyph glyph-name="emacron" unicode="&#x113;" horiz-adv-x="507" 
d="M284 -12q-69 0 -124.5 30.5t-87.5 88t-32 139.5q0 80 33 137.5t85 88.5t110 31q67 0 112 -30t67.5 -82.5t22.5 -120.5q0 -16 -1.5 -31t-4.5 -29h-338v88h242q0 53 -24 83.5t-74 30.5q-28 0 -54.5 -15t-44 -51t-17.5 -100q0 -58 20 -94.5t53 -54t71 -17.5q32 0 60.5 9
t53.5 25l40 -74q-34 -24 -77.5 -38t-90.5 -14zM126 596v76h280v-76h-280z" />
    <glyph glyph-name="Ebreve" unicode="&#x114;" horiz-adv-x="538" 
d="M83 0v654h394v-98h-278v-167h235v-98h-235v-193h288v-98h-404zM290 702q-48 0 -80.5 17t-51 47t-23.5 69l66 11q6 -33 28.5 -53.5t60.5 -20.5t60.5 20.5t28.5 53.5l66 -11q-4 -39 -23 -69t-51.5 -47t-80.5 -17z" />
    <glyph glyph-name="ebreve" unicode="&#x115;" horiz-adv-x="507" 
d="M284 -12q-69 0 -124.5 30.5t-87.5 88t-32 139.5q0 80 33 137.5t85 88.5t110 31q67 0 112 -30t67.5 -82.5t22.5 -120.5q0 -16 -1.5 -31t-4.5 -29h-338v88h242q0 53 -24 83.5t-74 30.5q-28 0 -54.5 -15t-44 -51t-17.5 -100q0 -58 20 -94.5t53 -54t71 -17.5q32 0 60.5 9
t53.5 25l40 -74q-34 -24 -77.5 -38t-90.5 -14zM266 569q-55 0 -90.5 21.5t-53 57t-19.5 75.5l68 11q4 -23 15 -44t31 -34t49 -13q30 0 49.5 13t30.5 34t15 44l68 -11q-2 -40 -19.5 -75.5t-52.5 -57t-91 -21.5z" />
    <glyph glyph-name="Edotaccent" unicode="&#x116;" horiz-adv-x="538" 
d="M83 0v654h394v-98h-278v-167h235v-98h-235v-193h288v-98h-404zM290 707q-30 0 -50.5 19t-20.5 47q0 29 20.5 47t50.5 18q31 0 51 -18t20 -47q0 -28 -20 -47t-51 -19z" />
    <glyph glyph-name="edotaccent" unicode="&#x117;" horiz-adv-x="507" 
d="M284 -12q-69 0 -124.5 30.5t-87.5 88t-32 139.5q0 80 33 137.5t85 88.5t110 31q67 0 112 -30t67.5 -82.5t22.5 -120.5q0 -16 -1.5 -31t-4.5 -29h-338v88h242q0 53 -24 83.5t-74 30.5q-28 0 -54.5 -15t-44 -51t-17.5 -100q0 -58 20 -94.5t53 -54t71 -17.5q32 0 60.5 9
t53.5 25l40 -74q-34 -24 -77.5 -38t-90.5 -14zM266 577q-30 0 -49.5 18t-19.5 48t19.5 47.5t49.5 17.5q31 0 50 -17.5t19 -47.5t-19 -48t-50 -18z" />
    <glyph glyph-name="Eogonek" unicode="&#x118;" horiz-adv-x="538" 
d="M410 -222q-49 0 -83 24t-34 71q0 44 25.5 77t54.5 50h-290v654h394v-98h-278v-167h235v-98h-235v-193h288v-98h-9q-21 0 -42.5 -14.5t-35.5 -36t-14 -44.5t14.5 -33.5t34.5 -10.5q14 0 26 5t21 11l29 -65q-18 -14 -46 -24t-55 -10z" />
    <glyph glyph-name="eogonek" unicode="&#x119;" horiz-adv-x="507" 
d="M363 -216q-46 0 -78.5 23.5t-32.5 72.5q0 35 20.5 66t59.5 56l2 -4q-12 -5 -25.5 -7.5t-24.5 -2.5q-69 0 -124.5 30.5t-87.5 88t-32 139.5q0 80 33 137.5t85 88.5t110 31q67 0 112 -30t67.5 -82.5t22.5 -120.5q0 -16 -1.5 -31t-4.5 -29h-338v88h242q0 53 -24 83.5
t-74 30.5q-28 0 -54.5 -15t-44 -51t-17.5 -100q0 -58 20 -94.5t53 -54t71 -17.5q32 0 60.5 9t53.5 25l40 -74q-41 -26 -66 -49t-35.5 -43.5t-10.5 -41.5q0 -24 15 -33t31 -9q15 0 27.5 3.5t22.5 10.5l26 -62q-18 -15 -45.5 -23.5t-53.5 -8.5z" />
    <glyph glyph-name="Ecaron" unicode="&#x11a;" horiz-adv-x="538" 
d="M83 0v654h394v-98h-278v-167h235v-98h-235v-193h288v-98h-404zM232 705l-134 143h92l98 -71h4l98 71h92l-134 -143h-116z" />
    <glyph glyph-name="ecaron" unicode="&#x11b;" horiz-adv-x="507" 
d="M284 -12q-69 0 -124.5 30.5t-87.5 88t-32 139.5q0 80 33 137.5t85 88.5t110 31q67 0 112 -30t67.5 -82.5t22.5 -120.5q0 -16 -1.5 -31t-4.5 -29h-338v88h242q0 53 -24 83.5t-74 30.5q-28 0 -54.5 -15t-44 -51t-17.5 -100q0 -58 20 -94.5t53 -54t71 -17.5q32 0 60.5 9
t53.5 25l40 -74q-34 -24 -77.5 -38t-90.5 -14zM214 570l-134 174h90l94 -94h4l94 94h90l-134 -174h-104z" />
    <glyph glyph-name="Gcircumflex" unicode="&#x11c;" horiz-adv-x="628" 
d="M357 -12q-88 0 -158 39t-110 114.5t-40 183.5q0 80 23.5 143t66 107.5t98.5 67.5t121 23q70 0 119 -25t79 -58l-62 -71q-24 24 -55 38.5t-77 14.5q-58 0 -102 -28.5t-68 -81.5t-24 -127t23 -128t67.5 -82.5t109.5 -28.5q28 0 53 7.5t41 21.5v141h-124v95h228v-288
q-33 -33 -87.5 -55.5t-121.5 -22.5zM166 704l134 144h116l134 -144h-92l-98 76h-4l-98 -76h-92z" />
    <glyph glyph-name="gcircumflex" unicode="&#x11d;" horiz-adv-x="520" 
d="M244 -217q-59 0 -105 14t-72.5 42.5t-26.5 71.5q0 31 18.5 57.5t51.5 47.5v4q-18 12 -31 32t-13 50q0 28 16.5 52t37.5 39v4q-25 19 -44.5 53t-19.5 77q0 56 27 95.5t71 60t96 20.5q20 0 39 -3t33 -9h176v-85h-92v-4q14 -15 22 -34.5t8 -45.5q0 -54 -25 -91t-67 -56
t-94 -19q-16 0 -33 3t-34 10q-10 -10 -17 -20t-7 -27q0 -21 18 -33t62 -12h87q89 0 134.5 -28.5t45.5 -92.5q0 -48 -32 -87.5t-91 -62.5t-139 -23zM250 228q23 0 42.5 11.5t31 34t11.5 53.5q0 47 -24.5 72t-60.5 25t-61 -25t-25 -72q0 -31 12 -53.5t31 -34t43 -11.5z
M262 -142q39 0 69 10.5t47 29t17 39.5q0 29 -22.5 39t-64.5 10h-67q-20 0 -36 2t-31 5q-19 -15 -28.5 -31t-9.5 -34q0 -33 34 -51.5t92 -18.5zM80 570l134 174h104l134 -174h-90l-94 94h-4l-94 -94h-90z" />
    <glyph glyph-name="Gbreve" unicode="&#x11e;" horiz-adv-x="628" 
d="M357 -12q-88 0 -158 39t-110 114.5t-40 183.5q0 80 23.5 143t66 107.5t98.5 67.5t121 23q70 0 119 -25t79 -58l-62 -71q-24 24 -55 38.5t-77 14.5q-58 0 -102 -28.5t-68 -81.5t-24 -127t23 -128t67.5 -82.5t109.5 -28.5q28 0 53 7.5t41 21.5v141h-124v95h228v-288
q-33 -33 -87.5 -55.5t-121.5 -22.5zM358 702q-48 0 -80.5 17t-51 47t-23.5 69l66 11q6 -33 28.5 -53.5t60.5 -20.5t60.5 20.5t28.5 53.5l66 -11q-4 -39 -23 -69t-51.5 -47t-80.5 -17z" />
    <glyph glyph-name="gbreve" unicode="&#x11f;" horiz-adv-x="520" 
d="M244 -217q-59 0 -105 14t-72.5 42.5t-26.5 71.5q0 31 18.5 57.5t51.5 47.5v4q-18 12 -31 32t-13 50q0 28 16.5 52t37.5 39v4q-25 19 -44.5 53t-19.5 77q0 56 27 95.5t71 60t96 20.5q20 0 39 -3t33 -9h176v-85h-92v-4q14 -15 22 -34.5t8 -45.5q0 -54 -25 -91t-67 -56
t-94 -19q-16 0 -33 3t-34 10q-10 -10 -17 -20t-7 -27q0 -21 18 -33t62 -12h87q89 0 134.5 -28.5t45.5 -92.5q0 -48 -32 -87.5t-91 -62.5t-139 -23zM250 228q23 0 42.5 11.5t31 34t11.5 53.5q0 47 -24.5 72t-60.5 25t-61 -25t-25 -72q0 -31 12 -53.5t31 -34t43 -11.5z
M262 -142q39 0 69 10.5t47 29t17 39.5q0 29 -22.5 39t-64.5 10h-67q-20 0 -36 2t-31 5q-19 -15 -28.5 -31t-9.5 -34q0 -33 34 -51.5t92 -18.5zM266 569q-55 0 -90.5 21.5t-53 57t-19.5 75.5l68 11q4 -23 15 -44t31 -34t49 -13q30 0 49.5 13t30.5 34t15 44l68 -11
q-2 -40 -19.5 -75.5t-52.5 -57t-91 -21.5z" />
    <glyph glyph-name="Gdotaccent" unicode="&#x120;" horiz-adv-x="628" 
d="M357 -12q-88 0 -158 39t-110 114.5t-40 183.5q0 80 23.5 143t66 107.5t98.5 67.5t121 23q70 0 119 -25t79 -58l-62 -71q-24 24 -55 38.5t-77 14.5q-58 0 -102 -28.5t-68 -81.5t-24 -127t23 -128t67.5 -82.5t109.5 -28.5q28 0 53 7.5t41 21.5v141h-124v95h228v-288
q-33 -33 -87.5 -55.5t-121.5 -22.5zM358 707q-30 0 -50.5 19t-20.5 47q0 29 20.5 47t50.5 18q31 0 51 -18t20 -47q0 -28 -20 -47t-51 -19z" />
    <glyph glyph-name="gdotaccent" unicode="&#x121;" horiz-adv-x="520" 
d="M244 -217q-59 0 -105 14t-72.5 42.5t-26.5 71.5q0 31 18.5 57.5t51.5 47.5v4q-18 12 -31 32t-13 50q0 28 16.5 52t37.5 39v4q-25 19 -44.5 53t-19.5 77q0 56 27 95.5t71 60t96 20.5q20 0 39 -3t33 -9h176v-85h-92v-4q14 -15 22 -34.5t8 -45.5q0 -54 -25 -91t-67 -56
t-94 -19q-16 0 -33 3t-34 10q-10 -10 -17 -20t-7 -27q0 -21 18 -33t62 -12h87q89 0 134.5 -28.5t45.5 -92.5q0 -48 -32 -87.5t-91 -62.5t-139 -23zM250 228q23 0 42.5 11.5t31 34t11.5 53.5q0 47 -24.5 72t-60.5 25t-61 -25t-25 -72q0 -31 12 -53.5t31 -34t43 -11.5z
M262 -142q39 0 69 10.5t47 29t17 39.5q0 29 -22.5 39t-64.5 10h-67q-20 0 -36 2t-31 5q-19 -15 -28.5 -31t-9.5 -34q0 -33 34 -51.5t92 -18.5zM266 577q-30 0 -49.5 18t-19.5 48t19.5 47.5t49.5 17.5q31 0 50 -17.5t19 -47.5t-19 -48t-50 -18z" />
    <glyph glyph-name="uni0122" unicode="&#x122;" horiz-adv-x="628" 
d="M357 -12q-88 0 -158 39t-110 114.5t-40 183.5q0 80 23.5 143t66 107.5t98.5 67.5t121 23q70 0 119 -25t79 -58l-62 -71q-24 24 -55 38.5t-77 14.5q-58 0 -102 -28.5t-68 -81.5t-24 -127t23 -128t67.5 -82.5t109.5 -28.5q28 0 53 7.5t41 21.5v141h-124v95h228v-288
q-33 -33 -87.5 -55.5t-121.5 -22.5zM264 -233l-10 50q61 4 83.5 14.5t22.5 28.5q0 17 -16.5 26.5t-51.5 12.5l24 46q73 -7 101 -26t28 -54q0 -47 -47.5 -70.5t-133.5 -27.5z" />
    <glyph glyph-name="uni0123" unicode="&#x123;" horiz-adv-x="520" 
d="M244 -217q-59 0 -105 14t-72.5 42.5t-26.5 71.5q0 31 18.5 57.5t51.5 47.5v4q-18 12 -31 32t-13 50q0 28 16.5 52t37.5 39v4q-25 19 -44.5 53t-19.5 77q0 56 27 95.5t71 60t96 20.5q20 0 39 -3t33 -9h176v-85h-92v-4q14 -15 22 -34.5t8 -45.5q0 -54 -25 -91t-67 -56
t-94 -19q-16 0 -33 3t-34 10q-10 -10 -17 -20t-7 -27q0 -21 18 -33t62 -12h87q89 0 134.5 -28.5t45.5 -92.5q0 -48 -32 -87.5t-91 -62.5t-139 -23zM250 228q23 0 42.5 11.5t31 34t11.5 53.5q0 47 -24.5 72t-60.5 25t-61 -25t-25 -72q0 -31 12 -53.5t31 -34t43 -11.5z
M262 -142q39 0 69 10.5t47 29t17 39.5q0 29 -22.5 39t-64.5 10h-67q-20 0 -36 2t-31 5q-19 -15 -28.5 -31t-9.5 -34q0 -33 34 -51.5t92 -18.5zM308 572q-72 7 -100.5 26t-28.5 54q0 48 47.5 71t133.5 27l10 -50q-61 -4 -83.5 -14t-22.5 -30q0 -16 16.5 -25.5t51.5 -12.5z
" />
    <glyph glyph-name="Hcircumflex" unicode="&#x124;" horiz-adv-x="663" 
d="M83 0v654h116v-263h265v263h116v-654h-116v290h-265v-290h-116zM138 704l134 144h116l134 -144h-92l-98 76h-4l-98 -76h-92z" />
    <glyph glyph-name="hcircumflex" unicode="&#x125;" horiz-adv-x="558" 
d="M73 0v706h115v-182l-4 -95q31 29 69 51.5t88 22.5q79 0 115 -51t36 -144v-308h-115v293q0 61 -18 86t-59 25q-32 0 -56.5 -15.5t-55.5 -45.5v-343h-115zM112 754l134 144h116l134 -144h-92l-98 76h-4l-98 -76h-92z" />
    <glyph glyph-name="Hbar" unicode="&#x126;" horiz-adv-x="703" 
d="M22 476v82l86 6h571v-88h-657zM103 0v654h116v-263h265v263h116v-654h-116v290h-265v-290h-116z" />
    <glyph glyph-name="hbar" unicode="&#x127;" horiz-adv-x="566" 
d="M81 0v706h115v-224l-4 -96q32 30 69.5 52t86.5 22q80 0 116 -50.5t36 -143.5v-266h-115v250q0 60 -18 86t-59 26q-31 0 -56.5 -16t-55.5 -46v-300h-115zM4 540v82l82 6h286v-88h-368z" />
    <glyph glyph-name="Itilde" unicode="&#x128;" horiz-adv-x="282" 
d="M83 0v654h116v-654h-116zM215 700q-27 0 -47.5 10t-36.5 22.5t-29.5 22t-29.5 9.5t-27.5 -13.5t-14.5 -43.5l-76 6q4 67 35 100t80 33q27 0 47.5 -9.5t36.5 -22t30 -22.5t29 -10q16 0 27.5 14t14.5 44l76 -6q-3 -66 -34.5 -100t-80.5 -34z" />
    <glyph glyph-name="itilde" unicode="&#x129;" horiz-adv-x="262" 
d="M73 0v491h115v-491h-115zM199 575q-25 0 -44 11t-34.5 26t-29 26t-28.5 11q-19 0 -28.5 -17t-12.5 -50l-74 4q2 46 15 78t37 49t61 17q26 0 44.5 -11t34 -25.5t29.5 -26t29 -11.5q18 0 27.5 17.5t12.5 49.5l74 -4q-2 -45 -14.5 -77t-37 -49.5t-61.5 -17.5z" />
    <glyph glyph-name="Imacron" unicode="&#x12a;" horiz-adv-x="282" 
d="M83 0v654h116v-654h-116zM-2 728v76h288v-76h-288z" />
    <glyph glyph-name="imacron" unicode="&#x12b;" horiz-adv-x="262" 
d="M73 0v491h115v-491h-115zM-10 596v76h280v-76h-280z" />
    <glyph glyph-name="Ibreve" unicode="&#x12c;" horiz-adv-x="282" 
d="M83 0v654h116v-654h-116zM142 702q-48 0 -80.5 17t-51 47t-23.5 69l66 11q6 -33 28.5 -53.5t60.5 -20.5t60.5 20.5t28.5 53.5l66 -11q-4 -39 -23 -69t-51.5 -47t-80.5 -17z" />
    <glyph glyph-name="ibreve" unicode="&#x12d;" horiz-adv-x="262" 
d="M73 0v491h115v-491h-115zM130 569q-55 0 -90.5 21.5t-53 57t-19.5 75.5l68 11q4 -23 15 -44t31 -34t49 -13q30 0 49.5 13t30.5 34t15 44l68 -11q-2 -40 -19.5 -75.5t-52.5 -57t-91 -21.5z" />
    <glyph glyph-name="Iogonek" unicode="&#x12e;" horiz-adv-x="282" 
d="M150 -222q-49 0 -83 24t-34 71q0 42 24.5 74.5t51.5 52.5h-26v654h116v-654q-36 -19 -55 -44t-19 -51q0 -23 14.5 -33.5t34.5 -10.5q14 0 26.5 5t21.5 11l28 -65q-18 -14 -45.5 -24t-54.5 -10z" />
    <glyph glyph-name="iogonek" unicode="&#x12f;" horiz-adv-x="262" 
d="M141 -217q-45 0 -77.5 24t-32.5 73q0 27 11 50t26.5 40.5t29.5 29.5h-25v491h115v-491q-35 -18 -52.5 -43.5t-17.5 -51.5q0 -22 14.5 -32.5t31.5 -10.5q15 0 26.5 4t22.5 11l26 -61q-18 -14 -44.5 -23.5t-53.5 -9.5zM131 577q-30 0 -49.5 18t-19.5 48t19.5 47.5
t49.5 17.5q31 0 50 -17.5t19 -47.5t-19 -48t-50 -18z" />
    <glyph glyph-name="Idotaccent" unicode="&#x130;" horiz-adv-x="282" 
d="M83 0v654h116v-654h-116zM142 707q-30 0 -50.5 19t-20.5 47q0 29 20.5 47t50.5 18q31 0 51 -18t20 -47q0 -28 -20 -47t-51 -19z" />
    <glyph glyph-name="dotlessi" unicode="&#x131;" horiz-adv-x="262" 
d="M73 0v491h115v-491h-115z" />
    <glyph glyph-name="IJ" unicode="&#x132;" horiz-adv-x="565" 
d="M83 0v654h116v-654h-116zM325 -174q-26 0 -45.5 4t-33.5 10l21 87q10 -3 20.5 -5t21.5 -2q33 0 45 22.5t12 64.5v647h116v-646q0 -52 -15 -93t-49.5 -65t-92.5 -24z" />
    <glyph glyph-name="ij" unicode="&#x133;" horiz-adv-x="524" 
d="M73 0v491h115v-491h-115zM130 577q-30 0 -49.5 18t-19.5 48t19.5 47.5t49.5 17.5q31 0 50 -17.5t19 -47.5t-19 -48t-50 -18zM296 -206q-26 0 -46 4t-34 10l22 85q10 -3 21 -5.5t21 -2.5q33 0 44.5 22.5t11.5 65.5v518h116v-516q0 -52 -15 -93t-49 -64.5t-92 -23.5z
M394 577q-30 0 -49.5 18t-19.5 48t19.5 47.5t49.5 17.5q31 0 50 -17.5t19 -47.5t-19 -48t-50 -18z" />
    <glyph glyph-name="Jcircumflex" unicode="&#x134;" horiz-adv-x="494" 
d="M212 -12q-64 0 -110.5 27.5t-75.5 85.5l75 51q17 -31 43.5 -47t57.5 -16q49 0 72.5 29t23.5 101v435h116v-445q0 -61 -21 -111t-65.5 -80t-115.5 -30zM162 704l134 144h116l134 -144h-92l-98 76h-4l-98 -76h-92z" />
    <glyph glyph-name="jcircumflex" unicode="&#x135;" horiz-adv-x="263" 
d="M34 -206q-26 0 -46 4t-34 10l22 85q10 -3 21 -5.5t21 -2.5q33 0 44.5 22.5t11.5 65.5v518h116v-516q0 -52 -15 -93t-49 -64.5t-92 -23.5zM-54 570l134 174h104l134 -174h-90l-94 94h-4l-94 -94h-90z" />
    <glyph glyph-name="uni0136" unicode="&#x136;" horiz-adv-x="597" 
d="M83 0v654h116v-297h3l233 297h129l-201 -255l235 -399h-128l-177 308l-94 -117v-191h-116zM236 -233l-10 50q61 4 83.5 14.5t22.5 28.5q0 17 -16.5 26.5t-51.5 12.5l24 46q73 -7 101 -26t28 -54q0 -47 -47.5 -70.5t-133.5 -27.5z" />
    <glyph glyph-name="uni0137" unicode="&#x137;" horiz-adv-x="522" 
d="M73 0v706h114v-440h3l180 225h127l-167 -201l184 -290h-125l-126 213l-76 -87v-126h-114zM190 -233l-10 50q61 4 83.5 14.5t22.5 28.5q0 17 -16.5 26.5t-51.5 12.5l24 46q73 -7 101 -26t28 -54q0 -47 -47.5 -70.5t-133.5 -27.5z" />
    <glyph glyph-name="kgreenlandic" unicode="&#x138;" horiz-adv-x="522" 
d="M73 0v491h115v-228h4l179 228h126l-166 -200l183 -291h-125l-126 210l-75 -89v-121h-115z" />
    <glyph glyph-name="Lacute" unicode="&#x139;" horiz-adv-x="502" 
d="M83 0v654h116v-556h272v-98h-388zM62 704l128 144h133l7 -12l-170 -132h-98z" />
    <glyph glyph-name="lacute" unicode="&#x13a;" horiz-adv-x="271" 
d="M185 -10q-41 0 -65.5 16.5t-35.5 47.5t-11 74v578h115v-584q0 -22 8 -30t18 -8q4 0 7.5 0.5t9.5 1.5l15 -86q-10 -4 -25.5 -7t-35.5 -3zM52 754l128 144h133l7 -12l-170 -132h-98z" />
    <glyph glyph-name="uni013B" unicode="&#x13b;" horiz-adv-x="502" 
d="M83 0v654h116v-556h272v-98h-388zM196 -233l-10 50q61 4 83.5 14.5t22.5 28.5q0 17 -16.5 26.5t-51.5 12.5l24 46q73 -7 101 -26t28 -54q0 -47 -47.5 -70.5t-133.5 -27.5z" />
    <glyph glyph-name="uni013C" unicode="&#x13c;" horiz-adv-x="271" 
d="M185 -10q-41 0 -65.5 16.5t-35.5 47.5t-11 74v578h115v-584q0 -22 8 -30t18 -8q4 0 7.5 0.5t9.5 1.5l15 -86q-10 -4 -25.5 -7t-35.5 -3zM60 -233l-10 50q61 4 83.5 14.5t22.5 28.5q0 17 -16.5 26.5t-51.5 12.5l24 46q73 -7 101 -26t28 -54q0 -47 -47.5 -70.5
t-133.5 -27.5z" />
    <glyph glyph-name="Lcaron" unicode="&#x13d;" horiz-adv-x="502" 
d="M83 0v654h116v-556h272v-98h-388zM343 512l-5 217h77l-1 -63l-19 -154h-52z" />
    <glyph glyph-name="lcaron" unicode="&#x13e;" horiz-adv-x="292" 
d="M185 -10q-41 0 -65.5 16.5t-35.5 47.5t-11 74v578h115v-584q0 -22 8 -30t18 -8q4 0 7.5 0.5t9.5 1.5l15 -86q-10 -4 -25.5 -7t-35.5 -3zM239 548l-5 217h77l-1 -63l-19 -154h-52z" />
    <glyph glyph-name="Ldot" unicode="&#x13f;" horiz-adv-x="502" 
d="M83 0v654h116v-556h272v-98h-388zM394 249q-31 0 -53 22.5t-22 55.5q0 34 22 56t53 22q32 0 53 -22t21 -56q0 -33 -21 -55.5t-53 -22.5z" />
    <glyph glyph-name="ldot" unicode="&#x140;" horiz-adv-x="408" 
d="M185 -10q-41 0 -65.5 16.5t-35.5 47.5t-11 74v578h115v-584q0 -22 8 -30t18 -8q4 0 7.5 0.5t9.5 1.5l15 -86q-10 -4 -25.5 -7t-35.5 -3zM335 249q-31 0 -53 22.5t-22 55.5q0 34 22 56t53 22q32 0 53 -22t21 -56q0 -33 -21 -55.5t-53 -22.5z" />
    <glyph glyph-name="Lslash" unicode="&#x141;" horiz-adv-x="522" 
d="M30 192l-44 86l120 52l94 44l194 88l44 -86l-230 -100l-94 -44zM105 0v654h116v-556h272v-98h-388z" />
    <glyph glyph-name="lslash" unicode="&#x142;" horiz-adv-x="329" 
d="M30 286l-44 86l120 52l94 44l94 44l44 -86l-130 -56l-94 -44zM213 -10q-41 0 -65.5 16.5t-35.5 47.5t-11 74v578h115v-584q0 -22 8 -30t18 -8q4 0 7.5 0.5t9.5 1.5l15 -86q-10 -4 -25.5 -7t-35.5 -3z" />
    <glyph glyph-name="Nacute" unicode="&#x143;" horiz-adv-x="656" 
d="M83 0v654h127l196 -360q18 -33 34.5 -71t31.5 -77h4q-4 53 -9 110.5t-5 111.5v286h111v-654h-127l-196 360q-18 33 -35.5 71t-32.5 77h-4q6 -51 11 -108.5t5 -113.5v-286h-111zM254 704l128 144h133l7 -12l-170 -132h-98z" />
    <glyph glyph-name="nacute" unicode="&#x144;" horiz-adv-x="560" 
d="M73 0v491h95l8 -66h4q33 32 72 55t89 23q79 0 115 -51t36 -144v-308h-115v293q0 61 -18 86t-59 25q-32 0 -56.5 -15.5t-55.5 -45.5v-343h-115zM222 570l122 174h123l7 -12l-162 -162h-90z" />
    <glyph glyph-name="uni0145" unicode="&#x145;" horiz-adv-x="656" 
d="M83 0v654h127l196 -360q18 -33 34.5 -71t31.5 -77h4q-4 53 -9 110.5t-5 111.5v286h111v-654h-127l-196 360q-18 33 -35.5 71t-32.5 77h-4q6 -51 11 -108.5t5 -113.5v-286h-111zM244 -233l-10 50q61 4 83.5 14.5t22.5 28.5q0 17 -16.5 26.5t-51.5 12.5l24 46
q73 -7 101 -26t28 -54q0 -47 -47.5 -70.5t-133.5 -27.5z" />
    <glyph glyph-name="uni0146" unicode="&#x146;" horiz-adv-x="560" 
d="M73 0v491h95l8 -66h4q33 32 72 55t89 23q79 0 115 -51t36 -144v-308h-115v293q0 61 -18 86t-59 25q-32 0 -56.5 -15.5t-55.5 -45.5v-343h-115zM188 -233l-10 50q61 4 83.5 14.5t22.5 28.5q0 17 -16.5 26.5t-51.5 12.5l24 46q73 -7 101 -26t28 -54q0 -47 -47.5 -70.5
t-133.5 -27.5z" />
    <glyph glyph-name="Ncaron" unicode="&#x147;" horiz-adv-x="656" 
d="M83 0v654h127l196 -360q18 -33 34.5 -71t31.5 -77h4q-4 53 -9 110.5t-5 111.5v286h111v-654h-127l-196 360q-18 33 -35.5 71t-32.5 77h-4q6 -51 11 -108.5t5 -113.5v-286h-111zM278 705l-134 143h92l98 -71h4l98 71h92l-134 -143h-116z" />
    <glyph glyph-name="ncaron" unicode="&#x148;" horiz-adv-x="560" 
d="M73 0v491h95l8 -66h4q33 32 72 55t89 23q79 0 115 -51t36 -144v-308h-115v293q0 61 -18 86t-59 25q-32 0 -56.5 -15.5t-55.5 -45.5v-343h-115zM252 570l-134 174h90l94 -94h4l94 94h90l-134 -174h-104z" />
    <glyph glyph-name="napostrophe" unicode="&#x149;" horiz-adv-x="810" 
d="M96 402l-30 57q34 14 54.5 34t30 42t9.5 42q0 10 -1.5 16.5t-6.5 12.5h18q-8 -10 -23 -17t-31 -7q-24 0 -45.5 16.5t-21.5 47.5q0 33 23.5 52.5t55.5 19.5q48 0 79.5 -31.5t31.5 -87.5q0 -42 -13.5 -80t-45 -68t-84.5 -49zM324 0v491h95l8 -66h4q33 32 72 55t89 23
q79 0 115 -51t36 -144v-308h-115v293q0 61 -18 86t-59 25q-32 0 -56.5 -15.5t-55.5 -45.5v-343h-115z" />
    <glyph glyph-name="Eng" unicode="&#x14a;" horiz-adv-x="651" 
d="M409 -12q-20 0 -45 4.5t-39 12.5l26 100q10 -4 20.5 -6t24.5 -2q24 0 43.5 20t31.5 71t12 145q0 87 -17 137.5t-48.5 72.5t-73.5 22q-24 0 -50.5 -11t-51.5 -31t-43 -47v-476h-116v654h113v-76q24 27 53 46.5t61.5 30.5t65.5 11q65 0 116 -32.5t80.5 -105.5t29.5 -195
q0 -121 -22 -197.5t-65 -112t-106 -35.5z" />
    <glyph glyph-name="eng" unicode="&#x14b;" horiz-adv-x="560" 
d="M336 -206q-25 0 -45 4t-34 10l21 85q10 -3 21 -5.5t21 -2.5q33 0 45 22.5t12 65.5v320q0 61 -18 86t-59 25q-32 0 -56.5 -15.5t-55.5 -45.5v-343h-115v491h95l8 -66h4q33 32 72 55t89 23q79 0 115 -51t36 -144v-333q0 -52 -14.5 -93t-48.5 -64.5t-93 -23.5z" />
    <glyph glyph-name="Omacron" unicode="&#x14c;" horiz-adv-x="674" 
d="M337 -12q-85 0 -150 41.5t-101.5 118t-36.5 182.5t36.5 181t101.5 115t150 40q86 0 151 -40t101.5 -115t36.5 -181t-36.5 -182.5t-101.5 -118t-151 -41.5zM337 89q52 0 89.5 29.5t58.5 84t21 127.5t-21 125.5t-58.5 81t-89.5 28.5q-51 0 -89 -28.5t-59 -81t-21 -125.5
t21 -127.5t59 -84t89 -29.5zM193 728v76h288v-76h-288z" />
    <glyph glyph-name="omacron" unicode="&#x14d;" horiz-adv-x="549" 
d="M274 -12q-61 0 -114 30.5t-86 88t-33 138.5q0 82 33 139.5t86 88t114 30.5q62 0 115 -30.5t86 -88t33 -139.5q0 -81 -33 -138.5t-86 -88t-115 -30.5zM274 82q36 0 62 20t40 57t14 86t-14 86t-40 57.5t-62 20.5t-61.5 -20.5t-39.5 -57.5t-14 -86t14 -86t39.5 -57t61.5 -20
zM134 596v76h280v-76h-280z" />
    <glyph glyph-name="Obreve" unicode="&#x14e;" horiz-adv-x="674" 
d="M337 -12q-85 0 -150 41.5t-101.5 118t-36.5 182.5t36.5 181t101.5 115t150 40q86 0 151 -40t101.5 -115t36.5 -181t-36.5 -182.5t-101.5 -118t-151 -41.5zM337 89q52 0 89.5 29.5t58.5 84t21 127.5t-21 125.5t-58.5 81t-89.5 28.5q-51 0 -89 -28.5t-59 -81t-21 -125.5
t21 -127.5t59 -84t89 -29.5zM337 702q-48 0 -80.5 17t-51 47t-23.5 69l66 11q6 -33 28.5 -53.5t60.5 -20.5t60.5 20.5t28.5 53.5l66 -11q-4 -39 -23 -69t-51.5 -47t-80.5 -17z" />
    <glyph glyph-name="obreve" unicode="&#x14f;" horiz-adv-x="549" 
d="M274 -12q-61 0 -114 30.5t-86 88t-33 138.5q0 82 33 139.5t86 88t114 30.5q62 0 115 -30.5t86 -88t33 -139.5q0 -81 -33 -138.5t-86 -88t-115 -30.5zM274 82q36 0 62 20t40 57t14 86t-14 86t-40 57.5t-62 20.5t-61.5 -20.5t-39.5 -57.5t-14 -86t14 -86t39.5 -57t61.5 -20
zM274 569q-55 0 -90.5 21.5t-53 57t-19.5 75.5l68 11q4 -23 15 -44t31 -34t49 -13q30 0 49.5 13t30.5 34t15 44l68 -11q-2 -40 -19.5 -75.5t-52.5 -57t-91 -21.5z" />
    <glyph glyph-name="Ohungarumlaut" unicode="&#x150;" horiz-adv-x="674" 
d="M337 -12q-85 0 -150 41.5t-101.5 118t-36.5 182.5t36.5 181t101.5 115t150 40q86 0 151 -40t101.5 -115t36.5 -181t-36.5 -182.5t-101.5 -118t-151 -41.5zM337 89q52 0 89.5 29.5t58.5 84t21 127.5t-21 125.5t-58.5 81t-89.5 28.5q-51 0 -89 -28.5t-59 -81t-21 -125.5
t21 -127.5t59 -84t89 -29.5zM187 704l97 144h102l7 -12l-132 -132h-74zM379 704l97 144h102l7 -12l-132 -132h-74z" />
    <glyph glyph-name="ohungarumlaut" unicode="&#x151;" horiz-adv-x="549" 
d="M274 -12q-61 0 -114 30.5t-86 88t-33 138.5q0 82 33 139.5t86 88t114 30.5q62 0 115 -30.5t86 -88t33 -139.5q0 -81 -33 -138.5t-86 -88t-115 -30.5zM274 82q36 0 62 20t40 57t14 86t-14 86t-40 57.5t-62 20.5t-61.5 -20.5t-39.5 -57.5t-14 -86t14 -86t39.5 -57t61.5 -20
zM148 570l80 174h91l7 -12l-114 -162h-64zM316 570l80 174h91l7 -12l-114 -162h-64z" />
    <glyph glyph-name="OE" unicode="&#x152;" horiz-adv-x="859" 
d="M371 0q-96 0 -168.5 37t-113 110.5t-40.5 182.5q0 108 40.5 180t114.5 108t173 36h421v-98h-262v-167h220v-98h-220v-193h272v-98h-437zM384 94h36v466h-36q-67 0 -115.5 -24t-74.5 -74.5t-26 -131.5t26 -133t74.5 -77.5t115.5 -25.5z" />
    <glyph glyph-name="oe" unicode="&#x153;" horiz-adv-x="830" 
d="M264 -12q-60 0 -111 30.5t-82 88t-31 138.5q0 82 31.5 139.5t82.5 88t110 30.5t103.5 -27.5t68.5 -75.5q26 50 68.5 76.5t93.5 26.5q64 0 107.5 -30.5t66 -83.5t22.5 -121q0 -18 -1 -32.5t-3 -25.5h-300q4 -40 22 -69t46 -45t62 -16q32 0 61 9.5t53 24.5l40 -74
q-33 -24 -76.5 -38t-81.5 -14q-57 0 -103 26.5t-75 77.5q-28 -51 -71.5 -77.5t-102.5 -26.5zM268 84q34 0 58.5 20t38 56.5t13.5 84.5q0 50 -13.5 86.5t-38 56.5t-58.5 20t-58.5 -20t-38 -56.5t-13.5 -86.5q0 -48 13.5 -84.5t38 -56.5t58.5 -20zM490 298h202q0 53 -25 83.5
t-73 30.5q-26 0 -48 -14.5t-37 -40t-19 -59.5z" />
    <glyph glyph-name="Racute" unicode="&#x154;" horiz-adv-x="592" 
d="M83 0v654h221q68 0 122 -18t86 -60.5t32 -115.5q0 -70 -32 -115t-86 -67t-122 -22h-105v-256h-116zM199 348h93q67 0 102.5 28t35.5 84t-35.5 78.5t-102.5 22.5h-93v-213zM440 0l-158 287l84 69l204 -356h-130zM220 704l128 144h133l7 -12l-170 -132h-98z" />
    <glyph glyph-name="racute" unicode="&#x155;" horiz-adv-x="373" 
d="M73 0v491h95l8 -87h4q26 48 62.5 73.5t76.5 25.5q19 0 32 -2t24 -8l-23 -98q-12 3 -22 4.5t-26 1.5q-29 0 -61 -22.5t-55 -78.5v-300h-115zM154 570l122 174h123l7 -12l-162 -162h-90z" />
    <glyph glyph-name="uni0156" unicode="&#x156;" horiz-adv-x="592" 
d="M83 0v654h221q68 0 122 -18t86 -60.5t32 -115.5q0 -70 -32 -115t-86 -67t-122 -22h-105v-256h-116zM199 348h93q67 0 102.5 28t35.5 84t-35.5 78.5t-102.5 22.5h-93v-213zM440 0l-158 287l84 69l204 -356h-130zM225 -233l-10 50q61 4 83.5 14.5t22.5 28.5
q0 17 -16.5 26.5t-51.5 12.5l24 46q73 -7 101 -26t28 -54q0 -47 -47.5 -70.5t-133.5 -27.5z" />
    <glyph glyph-name="uni0157" unicode="&#x157;" horiz-adv-x="373" 
d="M73 0v491h95l8 -87h4q26 48 62.5 73.5t76.5 25.5q19 0 32 -2t24 -8l-23 -98q-12 3 -22 4.5t-26 1.5q-29 0 -61 -22.5t-55 -78.5v-300h-115zM34 -233l-10 50q61 4 83.5 14.5t22.5 28.5q0 17 -16.5 26.5t-51.5 12.5l24 46q73 -7 101 -26t28 -54q0 -47 -47.5 -70.5
t-133.5 -27.5z" />
    <glyph glyph-name="Rcaron" unicode="&#x158;" horiz-adv-x="592" 
d="M83 0v654h221q68 0 122 -18t86 -60.5t32 -115.5q0 -70 -32 -115t-86 -67t-122 -22h-105v-256h-116zM199 348h93q67 0 102.5 28t35.5 84t-35.5 78.5t-102.5 22.5h-93v-213zM440 0l-158 287l84 69l204 -356h-130zM244 705l-134 143h92l98 -71h4l98 71h92l-134 -143h-116z
" />
    <glyph glyph-name="rcaron" unicode="&#x159;" horiz-adv-x="373" 
d="M73 0v491h95l8 -87h4q26 48 62.5 73.5t76.5 25.5q19 0 32 -2t24 -8l-23 -98q-12 3 -22 4.5t-26 1.5q-29 0 -61 -22.5t-55 -78.5v-300h-115zM184 570l-134 174h90l94 -94h4l94 94h90l-134 -174h-104z" />
    <glyph glyph-name="Sacute" unicode="&#x15a;" horiz-adv-x="545" 
d="M274 -12q-68 0 -128.5 25t-107.5 71l63 76q35 -34 81.5 -52.5t93.5 -18.5q56 0 85 23t29 61q0 27 -13 43.5t-35.5 28.5t-52.5 24l-90 39q-32 14 -62.5 36.5t-50 56t-19.5 81.5q0 52 28.5 93.5t78 66t113.5 24.5q59 0 111.5 -21.5t89.5 -58.5l-61 -76q-32 26 -67 40.5
t-73 14.5q-46 0 -74.5 -20.5t-28.5 -56.5q0 -25 14.5 -41.5t39 -28t50.5 -22.5l89 -37q39 -17 69 -40t46.5 -56t16.5 -81q0 -53 -28 -97t-80.5 -70.5t-126.5 -26.5zM205 704l128 144h133l7 -12l-170 -132h-98z" />
    <glyph glyph-name="sacute" unicode="&#x15b;" horiz-adv-x="431" 
d="M210 -12q-51 0 -100.5 19t-85.5 53l51 66q33 -27 67 -39t72 -12q40 0 59 17t19 42q0 20 -14.5 34t-37.5 24t-51 20q-36 13 -67 31.5t-50.5 46t-19.5 66.5q0 65 48 106t130 41q50 0 92 -16.5t72 -42.5l-51 -65q-26 19 -53 28t-57 9q-37 0 -55 -16t-18 -38
q0 -18 11.5 -30.5t33.5 -22t53 -19.5q38 -13 71 -31.5t52.5 -47t19.5 -71.5q0 -42 -22 -76.5t-64.5 -55t-104.5 -20.5zM143 570l122 174h123l7 -12l-162 -162h-90z" />
    <glyph glyph-name="Scircumflex" unicode="&#x15c;" horiz-adv-x="545" 
d="M274 -12q-68 0 -128.5 25t-107.5 71l63 76q35 -34 81.5 -52.5t93.5 -18.5q56 0 85 23t29 61q0 27 -13 43.5t-35.5 28.5t-52.5 24l-90 39q-32 14 -62.5 36.5t-50 56t-19.5 81.5q0 52 28.5 93.5t78 66t113.5 24.5q59 0 111.5 -21.5t89.5 -58.5l-61 -76q-32 26 -67 40.5
t-73 14.5q-46 0 -74.5 -20.5t-28.5 -56.5q0 -25 14.5 -41.5t39 -28t50.5 -22.5l89 -37q39 -17 69 -40t46.5 -56t16.5 -81q0 -53 -28 -97t-80.5 -70.5t-126.5 -26.5zM95 704l134 144h116l134 -144h-92l-98 76h-4l-98 -76h-92z" />
    <glyph glyph-name="scircumflex" unicode="&#x15d;" horiz-adv-x="431" 
d="M210 -12q-51 0 -100.5 19t-85.5 53l51 66q33 -27 67 -39t72 -12q40 0 59 17t19 42q0 20 -14.5 34t-37.5 24t-51 20q-36 13 -67 31.5t-50.5 46t-19.5 66.5q0 65 48 106t130 41q50 0 92 -16.5t72 -42.5l-51 -65q-26 19 -53 28t-57 9q-37 0 -55 -16t-18 -38
q0 -18 11.5 -30.5t33.5 -22t53 -19.5q38 -13 71 -31.5t52.5 -47t19.5 -71.5q0 -42 -22 -76.5t-64.5 -55t-104.5 -20.5zM38 570l134 174h104l134 -174h-90l-94 94h-4l-94 -94h-90z" />
    <glyph glyph-name="uni015E" unicode="&#x15e;" horiz-adv-x="545" 
d="M274 -12q-68 0 -128.5 25t-107.5 71l63 76q35 -34 81.5 -52.5t93.5 -18.5q56 0 85 23t29 61q0 27 -13 43.5t-35.5 28.5t-52.5 24l-90 39q-32 14 -62.5 36.5t-50 56t-19.5 81.5q0 52 28.5 93.5t78 66t113.5 24.5q59 0 111.5 -21.5t89.5 -58.5l-61 -76q-32 26 -67 40.5
t-73 14.5q-46 0 -74.5 -20.5t-28.5 -56.5q0 -25 14.5 -41.5t39 -28t50.5 -22.5l89 -37q39 -17 69 -40t46.5 -56t16.5 -81q0 -53 -28 -97t-80.5 -70.5t-126.5 -26.5zM182 -233l-10 50q61 4 83.5 15t22.5 32q0 18 -16.5 28.5t-60.5 16.5l46 94h70l-29 -65q36 -9 55.5 -25.5
t19.5 -47.5q0 -47 -47.5 -70.5t-133.5 -27.5z" />
    <glyph glyph-name="uni015F" unicode="&#x15f;" horiz-adv-x="431" 
d="M210 -12q-51 0 -100.5 19t-85.5 53l51 66q33 -27 67 -39t72 -12q40 0 59 17t19 42q0 20 -14.5 34t-37.5 24t-51 20q-36 13 -67 31.5t-50.5 46t-19.5 66.5q0 65 48 106t130 41q50 0 92 -16.5t72 -42.5l-51 -65q-26 19 -53 28t-57 9q-37 0 -55 -16t-18 -38
q0 -18 11.5 -30.5t33.5 -22t53 -19.5q38 -13 71 -31.5t52.5 -47t19.5 -71.5q0 -42 -22 -76.5t-64.5 -55t-104.5 -20.5zM122 -233l-10 50q61 4 83.5 15t22.5 32q0 18 -16.5 28.5t-60.5 16.5l46 94h70l-29 -65q36 -9 55.5 -25.5t19.5 -47.5q0 -47 -47.5 -70.5t-133.5 -27.5z
" />
    <glyph glyph-name="Scaron" unicode="&#x160;" horiz-adv-x="545" 
d="M274 -12q-68 0 -128.5 25t-107.5 71l63 76q35 -34 81.5 -52.5t93.5 -18.5q56 0 85 23t29 61q0 27 -13 43.5t-35.5 28.5t-52.5 24l-90 39q-32 14 -62.5 36.5t-50 56t-19.5 81.5q0 52 28.5 93.5t78 66t113.5 24.5q59 0 111.5 -21.5t89.5 -58.5l-61 -76q-32 26 -67 40.5
t-73 14.5q-46 0 -74.5 -20.5t-28.5 -56.5q0 -25 14.5 -41.5t39 -28t50.5 -22.5l89 -37q39 -17 69 -40t46.5 -56t16.5 -81q0 -53 -28 -97t-80.5 -70.5t-126.5 -26.5zM229 705l-134 143h92l98 -71h4l98 71h92l-134 -143h-116z" />
    <glyph glyph-name="scaron" unicode="&#x161;" horiz-adv-x="431" 
d="M210 -12q-51 0 -100.5 19t-85.5 53l51 66q33 -27 67 -39t72 -12q40 0 59 17t19 42q0 20 -14.5 34t-37.5 24t-51 20q-36 13 -67 31.5t-50.5 46t-19.5 66.5q0 65 48 106t130 41q50 0 92 -16.5t72 -42.5l-51 -65q-26 19 -53 28t-57 9q-37 0 -55 -16t-18 -38
q0 -18 11.5 -30.5t33.5 -22t53 -19.5q38 -13 71 -31.5t52.5 -47t19.5 -71.5q0 -42 -22 -76.5t-64.5 -55t-104.5 -20.5zM172 570l-134 174h90l94 -94h4l94 94h90l-134 -174h-104z" />
    <glyph glyph-name="uni0162" unicode="&#x162;" horiz-adv-x="546" 
d="M215 0v556h-189v98h494v-98h-189v-556h-116zM174 -233l-10 50q61 4 83.5 15t22.5 32q0 18 -16.5 28.5t-60.5 16.5l46 94h70l-29 -65q36 -9 55.5 -25.5t19.5 -47.5q0 -47 -47.5 -70.5t-133.5 -27.5z" />
    <glyph glyph-name="uni0163" unicode="&#x163;" horiz-adv-x="361" 
d="M246 -10q-85 0 -120.5 49.5t-35.5 128.5v232h-70v86l76 5l14 154h96v-154h125v-91h-125v-232q0 -43 17 -64.5t52 -21.5q13 0 26 2t25 8l21 -81q-19 -9 -45 -15t-56 -6zM130 -233l-10 50q61 4 83.5 15t22.5 32q0 18 -16.5 28.5t-60.5 16.5l46 94h70l-29 -65
q36 -9 55.5 -25.5t19.5 -47.5q0 -47 -47.5 -70.5t-133.5 -27.5z" />
    <glyph glyph-name="Tcaron" unicode="&#x164;" horiz-adv-x="546" 
d="M215 0v556h-189v98h494v-98h-189v-556h-116zM214 705l-134 143h92l98 -71h4l98 71h92l-134 -143h-116z" />
    <glyph glyph-name="tcaron" unicode="&#x165;" horiz-adv-x="361" 
d="M246 -10q-85 0 -120.5 49.5t-35.5 128.5v232h-70v86l76 5l14 154h96v-154h125v-91h-125v-232q0 -43 17 -64.5t52 -21.5q13 0 26 2t25 8l21 -81q-19 -9 -45 -15t-56 -6zM268 548l-5 217h77l-1 -63l-19 -154h-52z" />
    <glyph glyph-name="Tbar" unicode="&#x166;" horiz-adv-x="546" 
d="M94 282v84l92 4h266v-88h-358zM215 0v556h-189v98h494v-98h-189v-556h-116z" />
    <glyph glyph-name="tbar" unicode="&#x167;" horiz-adv-x="361" 
d="M20 206v82l76 6h236v-88h-312zM246 -10q-85 0 -120.5 49.5t-35.5 128.5v232h-70v86l76 5l14 154h96v-154h125v-91h-125v-232q0 -43 17 -64.5t52 -21.5q13 0 26 2t25 8l21 -81q-19 -9 -45 -15t-56 -6z" />
    <glyph glyph-name="Utilde" unicode="&#x168;" horiz-adv-x="655" 
d="M328 -12q-57 0 -102.5 16t-78 51t-50 91t-17.5 135v373h116v-382q0 -69 16.5 -109t46.5 -57t69 -17q40 0 70.5 17t48 57t17.5 109v382h111v-373q0 -79 -17 -135t-49.5 -91t-78 -51t-102.5 -16zM400 700q-27 0 -47.5 10t-36.5 22.5t-29.5 22t-29.5 9.5t-27.5 -13.5
t-14.5 -43.5l-76 6q4 67 35 100t80 33q27 0 47.5 -9.5t36.5 -22t30 -22.5t29 -10q16 0 27.5 14t14.5 44l76 -6q-3 -66 -34.5 -100t-80.5 -34z" />
    <glyph glyph-name="utilde" unicode="&#x169;" horiz-adv-x="556" 
d="M219 -12q-79 0 -115 51t-36 144v308h115v-293q0 -61 18 -86t58 -25q32 0 56.5 16t52.5 52v336h115v-491h-94l-9 72h-3q-32 -38 -70 -61t-88 -23zM347 575q-25 0 -44 11t-34.5 26t-29 26t-28.5 11q-19 0 -28.5 -17t-12.5 -50l-74 4q2 46 15 78t37 49t61 17q26 0 44.5 -11
t34 -25.5t29.5 -26t29 -11.5q18 0 27.5 17.5t12.5 49.5l74 -4q-2 -45 -14.5 -77t-37 -49.5t-61.5 -17.5z" />
    <glyph glyph-name="Umacron" unicode="&#x16a;" horiz-adv-x="655" 
d="M328 -12q-57 0 -102.5 16t-78 51t-50 91t-17.5 135v373h116v-382q0 -69 16.5 -109t46.5 -57t69 -17q40 0 70.5 17t48 57t17.5 109v382h111v-373q0 -79 -17 -135t-49.5 -91t-78 -51t-102.5 -16zM183 728v76h288v-76h-288z" />
    <glyph glyph-name="umacron" unicode="&#x16b;" horiz-adv-x="556" 
d="M219 -12q-79 0 -115 51t-36 144v308h115v-293q0 -61 18 -86t58 -25q32 0 56.5 16t52.5 52v336h115v-491h-94l-9 72h-3q-32 -38 -70 -61t-88 -23zM138 596v76h280v-76h-280z" />
    <glyph glyph-name="Ubreve" unicode="&#x16c;" horiz-adv-x="655" 
d="M328 -12q-57 0 -102.5 16t-78 51t-50 91t-17.5 135v373h116v-382q0 -69 16.5 -109t46.5 -57t69 -17q40 0 70.5 17t48 57t17.5 109v382h111v-373q0 -79 -17 -135t-49.5 -91t-78 -51t-102.5 -16zM327 702q-48 0 -80.5 17t-51 47t-23.5 69l66 11q6 -33 28.5 -53.5
t60.5 -20.5t60.5 20.5t28.5 53.5l66 -11q-4 -39 -23 -69t-51.5 -47t-80.5 -17z" />
    <glyph glyph-name="ubreve" unicode="&#x16d;" horiz-adv-x="556" 
d="M219 -12q-79 0 -115 51t-36 144v308h115v-293q0 -61 18 -86t58 -25q32 0 56.5 16t52.5 52v336h115v-491h-94l-9 72h-3q-32 -38 -70 -61t-88 -23zM278 569q-55 0 -90.5 21.5t-53 57t-19.5 75.5l68 11q4 -23 15 -44t31 -34t49 -13q30 0 49.5 13t30.5 34t15 44l68 -11
q-2 -40 -19.5 -75.5t-52.5 -57t-91 -21.5z" />
    <glyph glyph-name="Uring" unicode="&#x16e;" horiz-adv-x="655" 
d="M328 -12q-57 0 -102.5 16t-78 51t-50 91t-17.5 135v373h116v-382q0 -69 16.5 -109t46.5 -57t69 -17q40 0 70.5 17t48 57t17.5 109v382h111v-373q0 -79 -17 -135t-49.5 -91t-78 -51t-102.5 -16zM327 698q-56 0 -89 25.5t-33 69.5q0 43 33 68.5t89 25.5q57 0 89.5 -25.5
t32.5 -69.5q0 -43 -32.5 -68.5t-89.5 -25.5zM327 742q22 0 36 13.5t14 36.5q0 24 -14 37t-36 13t-36 -13t-14 -37q0 -23 14 -36.5t36 -13.5z" />
    <glyph glyph-name="uring" unicode="&#x16f;" horiz-adv-x="556" 
d="M219 -12q-79 0 -115 51t-36 144v308h115v-293q0 -61 18 -86t58 -25q32 0 56.5 16t52.5 52v336h115v-491h-94l-9 72h-3q-32 -38 -70 -61t-88 -23zM278 559q-58 0 -89.5 29.5t-31.5 72.5t31.5 72t89.5 29t89.5 -29t31.5 -72t-31.5 -72.5t-89.5 -29.5zM278 605
q21 0 35.5 15.5t14.5 40.5t-14.5 40t-35.5 15t-35.5 -15t-14.5 -41q0 -24 14.5 -39.5t35.5 -15.5z" />
    <glyph glyph-name="Uhungarumlaut" unicode="&#x170;" horiz-adv-x="655" 
d="M328 -12q-57 0 -102.5 16t-78 51t-50 91t-17.5 135v373h116v-382q0 -69 16.5 -109t46.5 -57t69 -17q40 0 70.5 17t48 57t17.5 109v382h111v-373q0 -79 -17 -135t-49.5 -91t-78 -51t-102.5 -16zM177 704l97 144h102l7 -12l-132 -132h-74zM369 704l97 144h102l7 -12
l-132 -132h-74z" />
    <glyph glyph-name="uhungarumlaut" unicode="&#x171;" horiz-adv-x="556" 
d="M219 -12q-79 0 -115 51t-36 144v308h115v-293q0 -61 18 -86t58 -25q32 0 56.5 16t52.5 52v336h115v-491h-94l-9 72h-3q-32 -38 -70 -61t-88 -23zM152 570l80 174h91l7 -12l-114 -162h-64zM320 570l80 174h91l7 -12l-114 -162h-64z" />
    <glyph glyph-name="Uogonek" unicode="&#x172;" horiz-adv-x="655" 
d="M343 -222q-49 0 -83 24t-34 71q0 40 24.5 75t52.5 55l25 -15q-56 0 -102 17t-78.5 52t-50 92.5t-17.5 137.5v367h116v-376q0 -72 16.5 -114t46.5 -60t69 -18q40 0 70.5 18t48 60t17.5 114v376h111v-367q0 -89 -20.5 -149t-61 -95t-101.5 -52q-23 -6 -39.5 -20
t-25.5 -31.5t-9 -34.5q0 -23 14.5 -33.5t35.5 -10.5q14 0 26 5t21 11l29 -65q-18 -14 -46 -24t-55 -10z" />
    <glyph glyph-name="uogonek" unicode="&#x173;" horiz-adv-x="556" 
d="M427 -217q-45 0 -77.5 24t-32.5 73q0 27 11.5 50.5t28.5 41.5t33 29l-10 71h-3q-33 -38 -70.5 -61t-87.5 -23q-79 0 -115 51t-36 144v308h115v-293q0 -60 18 -85.5t58 -25.5q33 0 57 16t52 52v336h115v-491q-40 -14 -59.5 -42t-19.5 -53q0 -22 14.5 -32.5t31.5 -10.5
q15 0 26.5 4t22.5 11l26 -61q-18 -14 -44.5 -23.5t-53.5 -9.5z" />
    <glyph glyph-name="Wcircumflex" unicode="&#x174;" horiz-adv-x="800" 
d="M144 0l-126 654h124l56 -330q8 -52 15 -104.5t13 -109.5h4q9 57 19 109.5t21 104.5l76 330h114l74 -330q11 -51 22 -104t20 -110h4q6 57 13.5 109.5t14.5 104.5l56 330h118l-126 -654h-154l-74 344q-7 36 -13.5 74.5t-12.5 83.5h-4q-4 -45 -10 -83.5t-14 -74.5l-76 -344
h-154zM208 704l134 144h116l134 -144h-92l-98 76h-4l-98 -76h-92z" />
    <glyph glyph-name="wcircumflex" unicode="&#x175;" horiz-adv-x="748" 
d="M154 0l-130 491h118l58 -255q8 -33 14 -67.5t11 -78.5h4q7 44 13.5 78.5t13.5 67.5l60 255h120l62 -255q8 -33 15 -67.5t14 -78.5h4q7 44 12.5 78.5t12.5 67.5l58 255h110l-125 -491h-147l-50 228q-7 33 -13.5 66.5t-12.5 81.5h-4q-6 -48 -12 -81.5t-14 -66.5l-50 -228
h-142zM188 570l134 174h104l134 -174h-90l-94 94h-4l-94 -94h-90z" />
    <glyph glyph-name="Ycircumflex" unicode="&#x176;" horiz-adv-x="501" 
d="M192 0v243l-196 411h124l71 -167q14 -37 28 -71.5t30 -72.5h4q16 38 31 72.5t29 71.5l71 167h121l-197 -411v-243h-116zM58 704l134 144h116l134 -144h-92l-98 76h-4l-98 -76h-92z" />
    <glyph glyph-name="ycircumflex" unicode="&#x177;" horiz-adv-x="495" 
d="M106 -202q-20 0 -35.5 3t-28.5 9l22 86q10 -3 18 -4t16 -1q39 0 62.5 24t35.5 60l9 31l-193 485h117l85 -241q11 -32 21.5 -67.5t21.5 -70.5h4q9 34 18.5 69.5t18.5 68.5l74 241h111l-178 -513q-20 -55 -46 -95.5t-63 -62.5t-90 -22zM68 570l134 174h104l134 -174h-90
l-94 94h-4l-94 -94h-90z" />
    <glyph glyph-name="Ydieresis" unicode="&#x178;" horiz-adv-x="501" 
d="M192 0v243l-196 411h124l71 -167q14 -37 28 -71.5t30 -72.5h4q16 38 31 72.5t29 71.5l71 167h121l-197 -411v-243h-116zM143 708q-25 0 -42 16.5t-17 42.5t17 43t42 17q27 0 43.5 -17t16.5 -43t-16.5 -42.5t-43.5 -16.5zM357 708q-26 0 -43 16.5t-17 42.5t17 43t43 17
t42.5 -17t16.5 -43t-16.5 -42.5t-42.5 -16.5z" />
    <glyph glyph-name="Zacute" unicode="&#x179;" horiz-adv-x="540" 
d="M40 0v70l316 486h-287v98h431v-70l-317 -486h319v-98h-462zM200 704l128 144h133l7 -12l-170 -132h-98z" />
    <glyph glyph-name="zacute" unicode="&#x17a;" horiz-adv-x="443" 
d="M34 0v62l232 338h-206v91h350v-61l-231 -338h239v-92h-384zM156 570l122 174h123l7 -12l-162 -162h-90z" />
    <glyph glyph-name="Zdotaccent" unicode="&#x17b;" horiz-adv-x="540" 
d="M40 0v70l316 486h-287v98h431v-70l-317 -486h319v-98h-462zM282 707q-30 0 -50.5 19t-20.5 47q0 29 20.5 47t50.5 18q31 0 51 -18t20 -47q0 -28 -20 -47t-51 -19z" />
    <glyph glyph-name="zdotaccent" unicode="&#x17c;" horiz-adv-x="443" 
d="M34 0v62l232 338h-206v91h350v-61l-231 -338h239v-92h-384zM238 577q-30 0 -49.5 18t-19.5 48t19.5 47.5t49.5 17.5q31 0 50 -17.5t19 -47.5t-19 -48t-50 -18z" />
    <glyph glyph-name="Zcaron" unicode="&#x17d;" horiz-adv-x="540" 
d="M40 0v70l316 486h-287v98h431v-70l-317 -486h319v-98h-462zM224 705l-134 143h92l98 -71h4l98 71h92l-134 -143h-116z" />
    <glyph glyph-name="zcaron" unicode="&#x17e;" horiz-adv-x="443" 
d="M34 0v62l232 338h-206v91h350v-61l-231 -338h239v-92h-384zM186 570l-134 174h90l94 -94h4l94 94h90l-134 -174h-104z" />
    <glyph glyph-name="longs" unicode="&#x17f;" horiz-adv-x="292" 
d="M93 0v542q0 51 16.5 91t52.5 62.5t94 22.5q27 0 50.5 -5t39.5 -12l-22 -85q-29 11 -54 11q-30 0 -46 -20t-16 -63v-544h-115zM27 400v86l72 5h93v-91h-165z" />
    <glyph glyph-name="uni0180" unicode="&#x180;" horiz-adv-x="572" 
d="M320 -12q-34 0 -69 16.5t-65 47.5h-4l-10 -52h-91v706h115v-224l-4 -83q33 28 69 44.5t73 16.5q62 0 106 -28t67 -79.5t23 -120.5q0 -76 -29.5 -130.5t-77.5 -84t-103 -29.5zM295 83q33 0 59 17.5t41 51t15 80.5q0 40 -11 70t-34.5 46.5t-60.5 16.5q-27 0 -53 -13.5
t-55 -41.5v-186q26 -22 51.5 -31.5t47.5 -9.5zM4 540v83l83 5h285v-88h-368z" />
    <glyph glyph-name="uni0181" unicode="&#x181;" horiz-adv-x="769" 
d="M276 0v606h116v-222h64q69 0 99.5 25.5t30.5 69.5q0 48 -34.5 69t-103.5 21h-96q-74 0 -121 -20t-68.5 -53t-21.5 -74t17.5 -66t50.5 -44l-48 -78q-56 26 -88.5 70t-32.5 114q0 72 37 128t118.5 88t211.5 32q101 0 165 -17.5t95 -55.5t31 -98q0 -51 -23.5 -90t-67.5 -54
v-4q58 -12 91.5 -48.5t33.5 -101.5q0 -67 -32 -111t-88 -65t-128 -21h-208zM392 90h80q72 0 110.5 26.5t38.5 81.5q0 52 -38 75.5t-111 23.5h-80v-207z" />
    <glyph glyph-name="uni0186" unicode="&#x186;" horiz-adv-x="576" 
d="M241 -12q-65 0 -118.5 24t-95.5 71l62 69q29 -32 66 -47.5t84 -15.5q78 0 123.5 59t45.5 183q0 78 -21.5 130t-59.5 78t-89 26q-40 0 -74.5 -13t-63.5 -40l-56 71q35 37 85.5 60t114.5 23q79 0 143.5 -38t102.5 -114t38 -189q0 -114 -38 -188.5t-103 -111.5t-146 -37z
" />
    <glyph glyph-name="uni018A" unicode="&#x18a;" horiz-adv-x="804" 
d="M276 0v606h116v-512h44q60 0 103.5 26t68 79.5t24.5 136.5q0 79 -25 129.5t-76 75t-129 24.5h-50q-74 0 -121 -19t-68.5 -51.5t-21.5 -72.5q0 -41 17.5 -66t50.5 -44l-48 -78q-56 26 -88.5 70t-32.5 114q0 72 36 128t115.5 88t209.5 32q116 0 194 -37t117 -110.5
t39 -182.5q0 -111 -38.5 -185.5t-109 -112.5t-168.5 -38h-159z" />
    <glyph glyph-name="uni018D" unicode="&#x18d;" horiz-adv-x="543" 
d="M274 718q61 0 112.5 -28.5t81.5 -82.5t30 -127q0 -68 -30 -122.5t-83.5 -86t-125.5 -33.5l-51 72q64 2 104.5 24.5t60 60t19.5 83.5t-16 78.5t-43 50t-59 17.5q-53 0 -85 -42t-32 -121q0 -40 15.5 -78.5t44 -75t67.5 -72t86.5 -70t99.5 -67.5v-98h-392v91h243
q-40 26 -79 56t-74 64.5t-61.5 73.5t-41.5 82.5t-15 90.5q0 78 27 136.5t77 91t120 32.5z" />
    <glyph glyph-name="uni018E" unicode="&#x18e;" horiz-adv-x="538" 
d="M51 0v98h287v193h-235v98h235v167h-277v98h393v-654h-403z" />
    <glyph glyph-name="uni018F" unicode="&#x18f;" horiz-adv-x="657" 
d="M331 -12q-127 0 -202 84t-75 248q0 10 1 20.5t3 21.5h463v-86h-351q1 -65 22 -108t57.5 -64t82.5 -21q75 0 118 59.5t43 185.5q0 122 -45 182.5t-128 60.5q-53 0 -96.5 -19t-78.5 -50l-59 70q45 43 104.5 68.5t135.5 25.5q130 0 206 -86.5t76 -251.5q0 -112 -34.5 -188
t-97 -114t-145.5 -38z" />
    <glyph glyph-name="uni0190" unicode="&#x190;" horiz-adv-x="541" 
d="M294 -12q-74 0 -131.5 23.5t-91 68.5t-33.5 109q0 42 17.5 74.5t47 53t65.5 29.5v4q-45 20 -70.5 58t-25.5 89q0 54 30 92t80.5 57.5t113.5 19.5q57 0 108.5 -21.5t89.5 -57.5l-54 -73q-29 25 -63.5 38t-76.5 13q-50 0 -82 -22t-32 -66q0 -45 30.5 -69t99.5 -24h64v-87
h-81q-72 0 -109.5 -24t-37.5 -76q0 -35 20 -59t54.5 -36.5t77.5 -12.5q48 0 85 14t73 45l57 -70q-46 -46 -97 -68t-128 -22z" />
    <glyph glyph-name="uni0192" unicode="&#x192;" horiz-adv-x="317" 
d="M52 -206q-25 0 -45 4t-34 10l21 85q10 -3 21 -5.5t21 -2.5q33 0 45 22.5t12 65.5v569q0 51 16.5 91t52.5 62.5t94 22.5q27 0 50.5 -5t39.5 -12l-24 -83q-26 9 -52 9q-30 0 -46 -20t-16 -63v-569q0 -52 -14.5 -93t-48.5 -64.5t-93 -23.5zM22 400v86l72 5h210v-91h-282z
" />
    <glyph glyph-name="uni0193" unicode="&#x193;" horiz-adv-x="628" 
d="M357 -12q-88 0 -158 39t-110 114.5t-40 183.5q0 80 23.5 143t66 107.5t98.5 67.5t121 23q26 0 50.5 -5.5t53.5 -17.5l-10 -19q-19 28 -24.5 46t-5.5 34q0 29 15 52.5t42 38t64 14.5q27 0 45 -4.5t32 -11.5l-22 -81q-8 4 -15.5 6t-19.5 2q-21 0 -35 -14t-14 -36
q0 -23 12.5 -37t29.5 -36l-62 -75q-24 19 -55 31t-77 12q-58 0 -102 -28.5t-68 -81.5t-24 -127t23 -128t67.5 -82.5t109.5 -28.5q28 0 53 7.5t41 21.5v141h-124v95h228v-288q-33 -33 -87.5 -55.5t-121.5 -22.5z" />
    <glyph glyph-name="uni0194" unicode="&#x194;" horiz-adv-x="536" 
d="M267 -217q-71 0 -107 35t-36 90q0 27 8.5 53t25 58.5t40.5 76.5l-12 -54l-190 612h123l88 -318q11 -37 20 -71.5l18 -69t20 -74.5h4q11 40 20 74.5t17.5 69t19.5 71.5l95 318h119l-198 -612l-9 54q25 -44 42 -76.5t25 -58.5t8 -53q0 -55 -35 -90t-106 -35zM267 -142
q20 0 30.5 13t10.5 34q0 24 -10 50t-30 60h-4q-18 -34 -28 -60t-10 -50q0 -21 10.5 -34t30.5 -13z" />
    <glyph glyph-name="uni0196" unicode="&#x196;" horiz-adv-x="282" 
d="M199 -10q-42 0 -67.5 16.5t-37 48t-11.5 75.5v524h116v-524q0 -23 9 -31.5t20 -8.5q5 0 9.5 0.5t10.5 1.5l15 -91q-10 -5 -26.5 -8t-37.5 -3z" />
    <glyph glyph-name="uni0197" unicode="&#x197;" horiz-adv-x="322" 
d="M22 298v82l86 6h192v-88h-278zM103 0v654h116v-654h-116z" />
    <glyph glyph-name="uni019A" unicode="&#x19a;" horiz-adv-x="313" 
d="M22 338v82l78 6h188v-88h-266zM211 -10q-41 0 -65.5 16.5t-35.5 47.5t-11 74v578h115v-584q0 -22 8 -30t18 -8q4 0 7.5 0.5t9.5 1.5l15 -86q-10 -4 -25.5 -7t-35.5 -3z" />
    <glyph glyph-name="uni019B" unicode="&#x19b;" horiz-adv-x="495" 
d="M78 422l-40 76l352 180l44 -76zM14 0l193 485l-19 57q-12 37 -35.5 60.5t-62.5 23.5q-9 0 -18.5 -2.5t-16.5 -4.5l-21 89q14 5 29 7.5t35 2.5q54 0 90.5 -21.5t62.5 -61.5t46 -96l187 -539h-116l-73 241q-10 34 -19 69.5t-18 69.5h-4q-11 -35 -22 -71t-22 -68l-85 -241
h-111z" />
    <glyph glyph-name="uni019E" unicode="&#x19e;" horiz-adv-x="560" 
d="M377 -194v487q0 61 -18 86t-59 25q-32 0 -56.5 -15.5t-55.5 -45.5v-343h-115v491h95l8 -66h4q33 32 72 55t89 23q79 0 115 -51t36 -144v-502h-115z" />
    <glyph glyph-name="Ohorn" unicode="&#x1a0;" horiz-adv-x="674" 
d="M529 592l-58 42q37 9 55 26.5t18 51.5q0 17 -4.5 33.5t-10.5 28.5l87 36q11 -16 19 -39.5t8 -50.5q0 -51 -29 -82t-85 -46zM339 -12q-85 0 -150 41.5t-102 118t-37 182.5q0 105 37 180.5t102 115.5t150 40t150 -40t101.5 -115.5t36.5 -180.5q0 -106 -36.5 -182.5
t-101.5 -118t-150 -41.5zM339 89q51 0 89 29.5t59 83.5t21 128q0 73 -21 125.5t-59 81t-89 28.5q-52 0 -90 -28.5t-58.5 -81t-20.5 -125.5q0 -74 20.5 -128t58.5 -83.5t90 -29.5z" />
    <glyph glyph-name="ohorn" unicode="&#x1a1;" horiz-adv-x="549" 
d="M427 441l-59 41q37 8 58 29.5t21 63.5q0 16 -4.5 30.5t-10.5 25.5l86 39q10 -16 18.5 -39t8.5 -48q0 -39 -16.5 -68t-43 -46.5t-58.5 -27.5zM274 -12q-61 0 -114 30.5t-86 88t-33 138.5q0 82 33 139.5t86 88t114 30.5q62 0 115 -30.5t86 -88t33 -139.5q0 -81 -33 -138.5
t-86 -88t-115 -30.5zM274 82q36 0 62 20t40 57t14 86t-14 86t-40 57.5t-62 20.5t-61.5 -20.5t-39.5 -57.5t-14 -86t14 -86t39.5 -57t61.5 -20z" />
    <glyph glyph-name="Uhorn" unicode="&#x1af;" horiz-adv-x="671" 
d="M575 609l-60 45q24 2 43.5 9.5t31 23.5t11.5 45q0 17 -4.5 33.5t-10.5 28.5l88 36q10 -16 18 -39.5t8 -50.5q0 -40 -15.5 -66t-44 -42t-65.5 -23zM328 -12q-56 0 -102 16t-78.5 51t-50 91t-17.5 135v373h116v-382q0 -69 16.5 -109t46.5 -57t69 -17q40 0 70.5 17t48 57
t17.5 109v382h111v-373q0 -79 -17 -135t-49 -91t-78 -51t-103 -16z" />
    <glyph glyph-name="uhorn" unicode="&#x1b0;" horiz-adv-x="556" 
d="M481 452l-79 39q21 3 40 11t31 28t12 55q0 15 -4.5 30t-10.5 26l86 39q11 -16 19 -39t8 -48q0 -40 -14.5 -68.5t-37.5 -46t-50 -26.5zM219 -12q-79 0 -115 51t-36 144v308h115v-293q0 -60 18.5 -85.5t57.5 -25.5q33 0 57 16t52 52v336h115v-491h-94l-9 72h-3
q-33 -38 -70.5 -61t-87.5 -23z" />
    <glyph glyph-name="uni01B1" unicode="&#x1b1;" horiz-adv-x="695" 
d="M650 654v-94h-120v-4q25 -25 49.5 -62t40.5 -86t16 -108q0 -92 -36 -162t-101 -110t-152 -40q-86 0 -151 40t-101 110t-36 162q0 59 16 108t40.5 86t49.5 62v4h-120v94h250v-84q-36 -30 -62 -68t-40.5 -85.5t-14.5 -106.5q0 -64 20 -114t58 -78.5t91 -28.5t91 28.5
t58.5 78.5t20.5 114q0 59 -14.5 106.5t-41 85.5t-61.5 68v84h250z" />
    <glyph glyph-name="uni01B7" unicode="&#x1b7;" horiz-adv-x="553" 
d="M282 -12q-78 0 -138 22t-112 76l62 72q40 -38 84 -53.5t91 -15.5q39 0 69.5 12.5t47.5 37t17 60.5q0 53 -35 79.5t-86 26.5q-28 0 -43.5 -2.5t-36.5 -10.5l-40 65l192 199h-282v98h430v-74l-184 -197q63 -2 107.5 -24.5t68 -62t23.5 -94.5q0 -69 -32.5 -117t-86 -72.5
t-116.5 -24.5z" />
    <glyph glyph-name="uni01BF" unicode="&#x1bf;" horiz-adv-x="556" 
d="M73 -194v685h95l8 -73h4q35 40 74 62.5t92 22.5q50 0 87.5 -21t58.5 -59.5t21 -90.5q0 -59 -22 -113t-64 -99t-102.5 -78.5t-138.5 -53.5l2 -78v-104h-115zM188 85q62 19 108 54t72 80t26 93q0 44 -21 70t-62 26q-19 0 -38 -7.5t-39.5 -25.5t-45.5 -51v-239z" />
    <glyph glyph-name="uni01C0" unicode="&#x1c0;" horiz-adv-x="262" 
d="M73 0v706h115v-706h-115z" />
    <glyph glyph-name="uni01C1" unicode="&#x1c1;" horiz-adv-x="483" 
d="M73 0v706h115v-706h-115zM295 0v706h115v-706h-115z" />
    <glyph glyph-name="uni01C2" unicode="&#x1c2;" horiz-adv-x="424" 
d="M28 222v82l78 6h290v-88h-368zM28 394v82l78 6h290v-88h-368zM159 0v706h115v-706h-115z" />
    <glyph glyph-name="uni01C3" unicode="&#x1c3;" horiz-adv-x="248" 
d="M86 215l-18 341l-3 150h118l-3 -150l-18 -341h-76zM124 -12q-31 0 -52.5 22.5t-21.5 55.5q0 34 21.5 56t52.5 22q32 0 53 -22t21 -56q0 -33 -21 -55.5t-53 -22.5z" />
    <glyph glyph-name="uni01CD" unicode="&#x1cd;" horiz-adv-x="558" 
d="M-2 0l213 654h136l213 -654h-122l-100 348q-16 52 -30.5 107t-28.5 109h-4q-13 -55 -27.5 -109.5t-30.5 -106.5l-101 -348h-118zM124 177v91h308v-91h-308zM220 705l-134 143h92l98 -71h4l98 71h92l-134 -143h-116z" />
    <glyph glyph-name="uni01CE" unicode="&#x1ce;" horiz-adv-x="516" 
d="M192 -12q-43 0 -76 18t-51.5 50.5t-18.5 75.5q0 83 69.5 125.5t220.5 58.5q-1 25 -9.5 46t-28 33.5t-52.5 12.5q-36 0 -70.5 -13t-67.5 -33l-42 78q27 17 59 31.5t68 23t75 8.5q61 0 101.5 -24.5t61 -72t20.5 -116.5v-290h-95l-8 54h-4q-34 -28 -71 -47t-81 -19zM228 82
q30 0 55.5 12.5t52.5 37.5v104q-67 -8 -106 -21t-55.5 -31.5t-16.5 -43.5q0 -31 20 -44.5t50 -13.5zM220 570l-134 174h90l94 -94h4l94 94h90l-134 -174h-104z" />
    <glyph glyph-name="uni01CF" unicode="&#x1cf;" horiz-adv-x="282" 
d="M83 0v654h116v-654h-116zM84 705l-134 143h92l98 -71h4l98 71h92l-134 -143h-116z" />
    <glyph glyph-name="uni01D0" unicode="&#x1d0;" horiz-adv-x="262" 
d="M73 0v491h115v-491h-115zM78 570l-134 174h90l94 -94h4l94 94h90l-134 -174h-104z" />
    <glyph glyph-name="uni01D1" unicode="&#x1d1;" horiz-adv-x="674" 
d="M337 -12q-85 0 -150 41.5t-101.5 118t-36.5 182.5t36.5 181t101.5 115t150 40q86 0 151 -40t101.5 -115t36.5 -181t-36.5 -182.5t-101.5 -118t-151 -41.5zM337 89q52 0 89.5 29.5t58.5 84t21 127.5t-21 125.5t-58.5 81t-89.5 28.5q-51 0 -89 -28.5t-59 -81t-21 -125.5
t21 -127.5t59 -84t89 -29.5zM279 705l-134 143h92l98 -71h4l98 71h92l-134 -143h-116z" />
    <glyph glyph-name="uni01D2" unicode="&#x1d2;" horiz-adv-x="549" 
d="M274 -12q-61 0 -114 30.5t-86 88t-33 138.5q0 82 33 139.5t86 88t114 30.5q62 0 115 -30.5t86 -88t33 -139.5q0 -81 -33 -138.5t-86 -88t-115 -30.5zM274 82q36 0 62 20t40 57t14 86t-14 86t-40 57.5t-62 20.5t-61.5 -20.5t-39.5 -57.5t-14 -86t14 -86t39.5 -57t61.5 -20
zM222 570l-134 174h90l94 -94h4l94 94h90l-134 -174h-104z" />
    <glyph glyph-name="uni01D3" unicode="&#x1d3;" horiz-adv-x="655" 
d="M328 -12q-57 0 -102.5 16t-78 51t-50 91t-17.5 135v373h116v-382q0 -69 16.5 -109t46.5 -57t69 -17q40 0 70.5 17t48 57t17.5 109v382h111v-373q0 -79 -17 -135t-49.5 -91t-78 -51t-102.5 -16zM269 705l-134 143h92l98 -71h4l98 71h92l-134 -143h-116z" />
    <glyph glyph-name="uni01D4" unicode="&#x1d4;" horiz-adv-x="556" 
d="M219 -12q-79 0 -115 51t-36 144v308h115v-293q0 -61 18 -86t58 -25q32 0 56.5 16t52.5 52v336h115v-491h-94l-9 72h-3q-32 -38 -70 -61t-88 -23zM226 570l-134 174h90l94 -94h4l94 94h90l-134 -174h-104z" />
    <glyph glyph-name="uni01D5" unicode="&#x1d5;" horiz-adv-x="655" 
d="M328 -12q-57 0 -102.5 16t-78 51t-50 91t-17.5 135v373h116v-382q0 -69 16.5 -109t46.5 -57t69 -17q40 0 70.5 17t48 57t17.5 109v382h111v-373q0 -79 -17 -135t-49.5 -91t-78 -51t-102.5 -16zM220 708q-25 0 -41 16t-16 41t16 41t41 16q26 0 41.5 -16t15.5 -41
t-15.5 -41t-41.5 -16zM434 708q-25 0 -41 16t-16 41t16 41t41 16t41 -16t16 -41t-16 -41t-41 -16zM184 866v63h286v-63h-286z" />
    <glyph glyph-name="uni01D6" unicode="&#x1d6;" horiz-adv-x="556" 
d="M219 -12q-79 0 -115 51t-36 144v308h115v-293q0 -61 18 -86t58 -25q32 0 56.5 16t52.5 52v336h115v-491h-94l-9 72h-3q-32 -38 -70 -61t-88 -23zM175 578q-25 0 -41.5 17.5t-16.5 40.5q0 25 16.5 42t41.5 17q26 0 42.5 -17t16.5 -42q0 -23 -16.5 -40.5t-42.5 -17.5z
M381 578q-25 0 -42 17.5t-17 40.5q0 25 17 42t42 17t41.5 -17t16.5 -42q0 -23 -16.5 -40.5t-41.5 -17.5zM137 753v63h281v-63h-281z" />
    <glyph glyph-name="uni01D7" unicode="&#x1d7;" horiz-adv-x="655" 
d="M328 -12q-57 0 -102.5 16t-78 51t-50 91t-17.5 135v373h116v-382q0 -69 16.5 -109t46.5 -57t69 -17q40 0 70.5 17t48 57t17.5 109v382h111v-373q0 -79 -17 -135t-49.5 -91t-78 -51t-102.5 -16zM220 708q-25 0 -41 16t-16 41t16 41t41 16q26 0 41.5 -16t15.5 -41
t-15.5 -41t-41.5 -16zM434 708q-25 0 -41 16t-16 41t16 41t41 16t41 -16t16 -41t-16 -41t-41 -16zM263 845l84 123h105l7 -12l-118 -111h-78z" />
    <glyph glyph-name="uni01D8" unicode="&#x1d8;" horiz-adv-x="556" 
d="M219 -12q-79 0 -115 51t-36 144v308h115v-293q0 -61 18 -86t58 -25q32 0 56.5 16t52.5 52v336h115v-491h-94l-9 72h-3q-32 -38 -70 -61t-88 -23zM175 578q-25 0 -41.5 17.5t-16.5 40.5q0 25 16.5 42t41.5 17q26 0 42.5 -17t16.5 -42q0 -23 -16.5 -40.5t-42.5 -17.5z
M381 578q-25 0 -42 17.5t-17 40.5q0 25 17 42t42 17t41.5 -17t16.5 -42q0 -23 -16.5 -40.5t-41.5 -17.5zM210 719l89 135h104l7 -12l-123 -123h-77z" />
    <glyph glyph-name="uni01D9" unicode="&#x1d9;" horiz-adv-x="655" 
d="M328 -12q-57 0 -102.5 16t-78 51t-50 91t-17.5 135v373h116v-382q0 -69 16.5 -109t46.5 -57t69 -17q40 0 70.5 17t48 57t17.5 109v382h111v-373q0 -79 -17 -135t-49.5 -91t-78 -51t-102.5 -16zM220 708q-25 0 -41 16t-16 41t16 41t41 16q26 0 41.5 -16t15.5 -41
t-15.5 -41t-41.5 -16zM434 708q-25 0 -41 16t-16 41t16 41t41 16t41 -16t16 -41t-16 -41t-41 -16zM275 846l-120 112h85l85 -52h4l85 52h85l-120 -112h-104z" />
    <glyph glyph-name="uni01DA" unicode="&#x1da;" horiz-adv-x="556" 
d="M219 -12q-79 0 -115 51t-36 144v308h115v-293q0 -61 18 -86t58 -25q32 0 56.5 16t52.5 52v336h115v-491h-94l-9 72h-3q-32 -38 -70 -61t-88 -23zM175 578q-25 0 -41.5 17.5t-16.5 40.5q0 25 16.5 42t41.5 17q26 0 42.5 -17t16.5 -42q0 -23 -16.5 -40.5t-42.5 -17.5z
M381 578q-25 0 -42 17.5t-17 40.5q0 25 17 42t42 17t41.5 -17t16.5 -42q0 -23 -16.5 -40.5t-41.5 -17.5zM226 713l-118 113h86l82 -54h4l82 54h86l-118 -113h-104z" />
    <glyph glyph-name="uni01DB" unicode="&#x1db;" horiz-adv-x="655" 
d="M328 -12q-57 0 -102.5 16t-78 51t-50 91t-17.5 135v373h116v-382q0 -69 16.5 -109t46.5 -57t69 -17q40 0 70.5 17t48 57t17.5 109v382h111v-373q0 -79 -17 -135t-49.5 -91t-78 -51t-102.5 -16zM220 708q-25 0 -41 16t-16 41t16 41t41 16q26 0 41.5 -16t15.5 -41
t-15.5 -41t-41.5 -16zM434 708q-25 0 -41 16t-16 41t16 41t41 16t41 -16t16 -41t-16 -41t-41 -16zM313 845l-118 111l7 12h105l84 -123h-78z" />
    <glyph glyph-name="uni01DC" unicode="&#x1dc;" horiz-adv-x="556" 
d="M219 -12q-79 0 -115 51t-36 144v308h115v-293q0 -61 18 -86t58 -25q32 0 56.5 16t52.5 52v336h115v-491h-94l-9 72h-3q-32 -38 -70 -61t-88 -23zM175 578q-25 0 -41.5 17.5t-16.5 40.5q0 25 16.5 42t41.5 17q26 0 42.5 -17t16.5 -42q0 -23 -16.5 -40.5t-42.5 -17.5z
M381 578q-25 0 -42 17.5t-17 40.5q0 25 17 42t42 17t41.5 -17t16.5 -42q0 -23 -16.5 -40.5t-41.5 -17.5zM269 719l-123 123l7 12h104l89 -135h-77z" />
    <glyph glyph-name="uni01DD" unicode="&#x1dd;" horiz-adv-x="507" 
d="M248 -12q-70 0 -117 30.5t-71 84.5t-24 123q0 17 1.5 32t4.5 28h338v-88h-242q0 -54 27 -86t81 -32q26 0 50.5 15t40 51t15.5 99q0 59 -17.5 95t-46 53t-62.5 17q-33 0 -62 -8.5t-56 -25.5l-40 74q36 26 80 39.5t92 13.5q64 0 115 -30t81 -87.5t30 -140.5q0 -80 -31 -138
t-81 -88.5t-106 -30.5z" />
    <glyph glyph-name="uni01E2" unicode="&#x1e2;" horiz-adv-x="834" 
d="M-3 0l327 654h449v-98h-263v-167h221v-98h-221v-193h273v-98h-389v565h-4q-24 -50 -47 -100.5t-46 -98.5l-178 -366h-122zM148 170v91h310v-91h-310zM406 728v76h288v-76h-288z" />
    <glyph glyph-name="uni01E3" unicode="&#x1e3;" horiz-adv-x="780" 
d="M192 -12q-43 0 -76 18t-51.5 50.5t-18.5 75.5q0 83 69 125.5t217 58.5q-1 26 -9 47t-26.5 33t-52.5 12t-68.5 -13t-67.5 -33l-42 77q27 18 58 32.5t65 23t69 8.5q51 0 87.5 -23.5t52.5 -65.5q29 42 66.5 65.5t85.5 23.5q65 0 108 -30t64 -83t21 -122q0 -17 -1.5 -32
t-3.5 -26h-300q4 -41 22 -70t47 -44.5t65 -15.5q32 0 59.5 9t54.5 25l38 -74q-34 -24 -77 -38t-90 -14q-38 0 -69.5 11t-56.5 30t-45 43q-51 -43 -98.5 -63.5t-95.5 -20.5zM228 82q30 0 62 13.5t58 40.5q-7 17 -10.5 38.5t-5.5 43.5l-2 18q-93 -12 -131.5 -34.5t-38.5 -61.5
q0 -31 19 -44.5t49 -13.5zM440 296h200q0 57 -25 86.5t-67 29.5q-28 0 -50.5 -14t-37.5 -40t-20 -62zM272 596v76h280v-76h-280z" />
    <glyph glyph-name="uni01E4" unicode="&#x1e4;" horiz-adv-x="669" 
d="M357 -12q-88 0 -158 39t-110 114.5t-40 183.5q0 80 23.5 143.5t65.5 107.5t98.5 67t121.5 23q70 0 118.5 -25.5t79.5 -57.5l-62 -71q-25 24 -55.5 38.5t-76.5 14.5q-58 0 -101.5 -28.5t-68 -81.5t-24.5 -127q0 -75 22.5 -128.5t67.5 -82t110 -28.5q28 0 53 7.5t41 21.5
v236h104v-288q-33 -33 -87.5 -55.5t-121.5 -22.5zM338 194v82l128 6h179v-88h-307z" />
    <glyph glyph-name="uni01E5" unicode="&#x1e5;" horiz-adv-x="590" 
d="M276 218v82l100 6h190v-88h-290zM257 -211q-43 0 -91.5 14t-89.5 40l40 78q35 -22 71.5 -31.5t69.5 -9.5q60 0 88.5 30.5t30.5 79.5l2 76q-26 -25 -60.5 -41t-72.5 -16q-61 0 -106.5 30.5t-70.5 85.5t-25 129q0 76 30.5 132t78.5 86.5t102 30.5q39 0 70.5 -14t60.5 -43h3
l9 45h94v-495q0 -98 -61 -152.5t-173 -54.5zM273 103q29 0 53.5 13.5t49.5 42.5v208q-25 23 -50 32t-50 9q-32 0 -58.5 -18.5t-42 -53t-15.5 -81.5q0 -71 30 -111.5t83 -40.5z" />
    <glyph glyph-name="Gcaron" unicode="&#x1e6;" horiz-adv-x="628" 
d="M357 -12q-88 0 -158 39t-110 114.5t-40 183.5q0 80 23.5 143t66 107.5t98.5 67.5t121 23q70 0 119 -25t79 -58l-62 -71q-24 24 -55 38.5t-77 14.5q-58 0 -102 -28.5t-68 -81.5t-24 -127t23 -128t67.5 -82.5t109.5 -28.5q28 0 53 7.5t41 21.5v141h-124v95h228v-288
q-33 -33 -87.5 -55.5t-121.5 -22.5zM300 705l-134 143h92l98 -71h4l98 71h92l-134 -143h-116z" />
    <glyph glyph-name="gcaron" unicode="&#x1e7;" horiz-adv-x="520" 
d="M244 -217q-59 0 -105 14t-72.5 42.5t-26.5 71.5q0 31 18.5 57.5t51.5 47.5v4q-18 12 -31 32t-13 50q0 28 16.5 52t37.5 39v4q-25 19 -44.5 53t-19.5 77q0 56 27 95.5t71 60t96 20.5q20 0 39 -3t33 -9h176v-85h-92v-4q14 -15 22 -34.5t8 -45.5q0 -54 -25 -91t-67 -56
t-94 -19q-16 0 -33 3t-34 10q-10 -10 -17 -20t-7 -27q0 -21 18 -33t62 -12h87q89 0 134.5 -28.5t45.5 -92.5q0 -48 -32 -87.5t-91 -62.5t-139 -23zM250 228q23 0 42.5 11.5t31 34t11.5 53.5q0 47 -24.5 72t-60.5 25t-61 -25t-25 -72q0 -31 12 -53.5t31 -34t43 -11.5z
M262 -142q39 0 69 10.5t47 29t17 39.5q0 29 -22.5 39t-64.5 10h-67q-20 0 -36 2t-31 5q-19 -15 -28.5 -31t-9.5 -34q0 -33 34 -51.5t92 -18.5zM214 570l-134 174h90l94 -94h4l94 94h90l-134 -174h-104z" />
    <glyph glyph-name="uni01EA" unicode="&#x1ea;" horiz-adv-x="674" 
d="M353 -222q-49 0 -83 24t-34 71q0 35 23 71.5t62 58.5l16 -15q-85 0 -150 41.5t-101.5 118t-36.5 182.5q0 105 36.5 180.5t101.5 115.5t150 40t150 -40t102 -115.5t37 -180.5q0 -94 -27 -161t-73.5 -109t-106.5 -61q-33 -11 -53 -27.5t-29 -34t-9 -32.5q0 -23 14.5 -33.5
t35.5 -10.5q14 0 26 5t21 11l29 -65q-18 -14 -46 -24t-55 -10zM337 86q52 0 90 30t58.5 85t20.5 129q0 73 -20.5 125.5t-58.5 81t-90 28.5q-51 0 -89 -28.5t-59 -81t-21 -125.5q0 -74 21 -129t59 -85t89 -30z" />
    <glyph glyph-name="uni01EB" unicode="&#x1eb;" horiz-adv-x="549" 
d="M287 -217q-45 0 -77.5 24t-32.5 73q0 37 22 69.5t57 53.5l18 -15q-61 0 -114 30.5t-86 88t-33 138.5q0 82 33 139.5t86 88t114 30.5q62 0 115 -30.5t86 -88t33 -139.5q0 -66 -22 -115.5t-59.5 -82.5t-82.5 -51q-45 -16 -62.5 -40.5t-17.5 -50.5q0 -22 14.5 -32.5
t31.5 -10.5q15 0 26.5 4t22.5 11l26 -61q-18 -14 -44.5 -23.5t-53.5 -9.5zM274 80q36 0 62 20.5t40 57.5t14 87q0 49 -14 86t-40 57.5t-62 20.5t-61.5 -20.5t-39.5 -57.5t-14 -86q0 -50 14 -87t39.5 -57.5t61.5 -20.5z" />
    <glyph glyph-name="uni01EE" unicode="&#x1ee;" horiz-adv-x="553" 
d="M282 -12q-78 0 -138 22t-112 76l62 72q40 -38 84 -53.5t91 -15.5q39 0 69.5 12.5t47.5 37t17 60.5q0 53 -35 79.5t-86 26.5q-28 0 -43.5 -2.5t-36.5 -10.5l-40 65l192 199h-282v98h430v-74l-184 -197q63 -2 107.5 -24.5t68 -62t23.5 -94.5q0 -69 -32.5 -117t-86 -72.5
t-116.5 -24.5zM226 705l-134 143h92l98 -71h4l98 71h92l-134 -143h-116z" />
    <glyph glyph-name="uni01EF" unicode="&#x1ef;" horiz-adv-x="443" 
d="M206 -206q-72 0 -120 24t-82 55l54 72q25 -23 58 -40t77 -17q33 0 58.5 15.5t40.5 43.5t15 67q0 54 -30.5 83.5t-84.5 29.5q-20 0 -31.5 -3.5t-28.5 -10.5l-41 58l171 229h-221v91h360v-61l-169 -224q60 1 103 -23t65.5 -67t22.5 -98q0 -72 -30 -122t-79.5 -76
t-107.5 -26zM170 570l-134 174h90l94 -94h4l94 94h90l-134 -174h-104z" />
    <glyph glyph-name="uni01F0" unicode="&#x1f0;" horiz-adv-x="263" 
d="M34 -206q-26 0 -46 4t-34 10l22 85q10 -3 21 -5.5t21 -2.5q33 0 44.5 22.5t11.5 65.5v518h116v-516q0 -52 -15 -93t-49 -64.5t-92 -23.5zM80 570l-134 174h90l94 -94h4l94 94h90l-134 -174h-104z" />
    <glyph glyph-name="uni01F4" unicode="&#x1f4;" horiz-adv-x="628" 
d="M357 -12q-88 0 -158 39t-110 114.5t-40 183.5q0 80 23.5 143t66 107.5t98.5 67.5t121 23q70 0 119 -25t79 -58l-62 -71q-24 24 -55 38.5t-77 14.5q-58 0 -102 -28.5t-68 -81.5t-24 -127t23 -128t67.5 -82.5t109.5 -28.5q28 0 53 7.5t41 21.5v141h-124v95h228v-288
q-33 -33 -87.5 -55.5t-121.5 -22.5zM276 704l128 144h133l7 -12l-170 -132h-98z" />
    <glyph glyph-name="uni01F5" unicode="&#x1f5;" horiz-adv-x="520" 
d="M244 -217q-59 0 -105 14t-72.5 42.5t-26.5 71.5q0 31 18.5 57.5t51.5 47.5v4q-18 12 -31 32t-13 50q0 28 16.5 52t37.5 39v4q-25 19 -44.5 53t-19.5 77q0 56 27 95.5t71 60t96 20.5q20 0 39 -3t33 -9h176v-85h-92v-4q14 -15 22 -34.5t8 -45.5q0 -54 -25 -91t-67 -56
t-94 -19q-16 0 -33 3t-34 10q-10 -10 -17 -20t-7 -27q0 -21 18 -33t62 -12h87q89 0 134.5 -28.5t45.5 -92.5q0 -48 -32 -87.5t-91 -62.5t-139 -23zM250 228q23 0 42.5 11.5t31 34t11.5 53.5q0 47 -24.5 72t-60.5 25t-61 -25t-25 -72q0 -31 12 -53.5t31 -34t43 -11.5z
M262 -142q39 0 69 10.5t47 29t17 39.5q0 29 -22.5 39t-64.5 10h-67q-20 0 -36 2t-31 5q-19 -15 -28.5 -31t-9.5 -34q0 -33 34 -51.5t92 -18.5zM184 570l122 174h123l7 -12l-162 -162h-90z" />
    <glyph glyph-name="uni01F7" unicode="&#x1f7;" horiz-adv-x="582" 
d="M83 -162v816h113v-76q24 26 51 46t57.5 31t63.5 11q53 0 92 -22t60.5 -69.5t21.5 -123.5q0 -79 -33 -157.5t-108 -153t-202 -142.5v-160h-116zM199 100q88 58 138 115t70.5 113t20.5 112q0 46 -12 73.5t-33 39.5t-49 12q-23 0 -47 -11t-46.5 -31.5t-41.5 -46.5v-376z" />
    <glyph glyph-name="uni01F8" unicode="&#x1f8;" horiz-adv-x="656" 
d="M83 0v654h127l196 -360q18 -33 34.5 -71t31.5 -77h4q-4 53 -9 110.5t-5 111.5v286h111v-654h-127l-196 360q-18 33 -35.5 71t-32.5 77h-4q6 -51 11 -108.5t5 -113.5v-286h-111zM320 704l-170 132l7 12h133l128 -144h-98z" />
    <glyph glyph-name="uni01F9" unicode="&#x1f9;" horiz-adv-x="560" 
d="M73 0v491h95l8 -66h4q33 32 72 55t89 23q79 0 115 -51t36 -144v-308h-115v293q0 61 -18 86t-59 25q-32 0 -56.5 -15.5t-55.5 -45.5v-343h-115zM296 570l-162 162l7 12h123l122 -174h-90z" />
    <glyph glyph-name="Aringacute" unicode="&#x1fa;" horiz-adv-x="558" 
d="M-2 0l213 654h136l213 -654h-122l-100 348q-16 52 -30.5 107t-28.5 109h-4q-13 -55 -27.5 -109.5t-30.5 -106.5l-101 -348h-118zM124 177v91h308v-91h-308zM278 698q-57 0 -89.5 25.5t-32.5 66.5q0 24 9 40t27 32l115 106h106l7 -12l-136 -91l5 13q49 0 80 -22t31 -66
q0 -41 -32 -66.5t-90 -25.5zM278 742q22 0 36 13t14 35t-14 35t-36 13t-36 -13t-14 -35t14 -35t36 -13z" />
    <glyph glyph-name="aringacute" unicode="&#x1fb;" horiz-adv-x="516" 
d="M192 -12q-43 0 -76 18t-51.5 50.5t-18.5 75.5q0 83 69.5 125.5t220.5 58.5q-1 25 -9.5 46t-28 33.5t-52.5 12.5q-36 0 -70.5 -13t-67.5 -33l-42 78q27 17 59 31.5t68 23t75 8.5q61 0 101.5 -24.5t61 -72t20.5 -116.5v-290h-95l-8 54h-4q-34 -28 -71 -47t-81 -19zM228 82
q30 0 55.5 12.5t52.5 37.5v104q-67 -8 -106 -21t-55.5 -31.5t-16.5 -43.5q0 -31 20 -44.5t50 -13.5zM275 559q-58 0 -89.5 29t-31.5 70q0 30 13 48.5t38 41.5l100 106h105l7 -12l-133 -98l2 6q57 0 83.5 -27.5t26.5 -64.5q0 -41 -31.5 -70t-89.5 -29zM275 605q21 0 35.5 15
t14.5 38q0 25 -14.5 39.5t-35.5 14.5t-35.5 -14.5t-14.5 -39.5q0 -23 14.5 -38t35.5 -15z" />
    <glyph glyph-name="AEacute" unicode="&#x1fc;" horiz-adv-x="834" 
d="M-3 0l327 654h449v-98h-263v-167h221v-98h-221v-193h273v-98h-389v565h-4q-24 -50 -47 -100.5t-46 -98.5l-178 -366h-122zM148 170v91h310v-91h-310zM468 704l128 144h133l7 -12l-170 -132h-98z" />
    <glyph glyph-name="aeacute" unicode="&#x1fd;" horiz-adv-x="780" 
d="M192 -12q-43 0 -76 18t-51.5 50.5t-18.5 75.5q0 83 69 125.5t217 58.5q-1 26 -9 47t-26.5 33t-52.5 12t-68.5 -13t-67.5 -33l-42 77q27 18 58 32.5t65 23t69 8.5q51 0 87.5 -23.5t52.5 -65.5q29 42 66.5 65.5t85.5 23.5q65 0 108 -30t64 -83t21 -122q0 -17 -1.5 -32
t-3.5 -26h-300q4 -41 22 -70t47 -44.5t65 -15.5q32 0 59.5 9t54.5 25l38 -74q-34 -24 -77 -38t-90 -14q-38 0 -69.5 11t-56.5 30t-45 43q-51 -43 -98.5 -63.5t-95.5 -20.5zM228 82q30 0 62 13.5t58 40.5q-7 17 -10.5 38.5t-5.5 43.5l-2 18q-93 -12 -131.5 -34.5t-38.5 -61.5
q0 -31 19 -44.5t49 -13.5zM440 296h200q0 57 -25 86.5t-67 29.5q-28 0 -50.5 -14t-37.5 -40t-20 -62zM330 570l122 174h123l7 -12l-162 -162h-90z" />
    <glyph glyph-name="Oslashacute" unicode="&#x1fe;" horiz-adv-x="674" 
d="M110 -40l-69 56l533 678l70 -56zM339 -12q-85 0 -150 41.5t-101.5 118t-36.5 182.5t36.5 181t101.5 115t150 40q86 0 151 -40t101.5 -115t36.5 -181t-36.5 -182.5t-101.5 -118t-151 -41.5zM339 89q52 0 89.5 29.5t58.5 84t21 127.5t-21 125.5t-58.5 81t-89.5 28.5
q-51 0 -89 -28.5t-59 -81t-21 -125.5t21 -127.5t59 -84t89 -29.5zM254 704l128 144h133l7 -12l-170 -132h-98z" />
    <glyph glyph-name="oslashacute" unicode="&#x1ff;" horiz-adv-x="549" 
d="M276 -12q-62 0 -116 30t-87 87.5t-33 138.5q0 83 33 140.5t86.5 88t114.5 30.5q62 0 115.5 -30.5t87 -88t33.5 -140.5q0 -81 -33.5 -138.5t-86.5 -87.5t-114 -30zM276 78q35 0 62 20t42.5 56.5t15.5 83.5q0 57 -15 96.5t-42.5 59.5t-64.5 20q-36 0 -63 -20.5t-42 -57
t-15 -84.5q0 -56 15 -95t42.5 -59t64.5 -20zM98 -34l-62 52l416 508l62 -52zM192 570l122 174h123l7 -12l-162 -162h-90z" />
    <glyph glyph-name="uni0200" unicode="&#x200;" horiz-adv-x="558" 
d="M-2 0l213 654h136l213 -654h-122l-100 348q-16 52 -30.5 107t-28.5 109h-4q-13 -55 -27.5 -109.5t-30.5 -106.5l-101 -348h-118zM124 177v91h308v-91h-308zM162 705l-132 131l7 12h102l97 -143h-74zM354 705l-132 131l7 12h102l97 -143h-74z" />
    <glyph glyph-name="uni0201" unicode="&#x201;" horiz-adv-x="516" 
d="M192 -12q-43 0 -76 18t-51.5 50.5t-18.5 75.5q0 83 69.5 125.5t220.5 58.5q-1 25 -9.5 46t-28 33.5t-52.5 12.5q-36 0 -70.5 -13t-67.5 -33l-42 78q27 17 59 31.5t68 23t75 8.5q61 0 101.5 -24.5t61 -72t20.5 -116.5v-290h-95l-8 54h-4q-34 -28 -71 -47t-81 -19zM228 82
q30 0 55.5 12.5t52.5 37.5v104q-67 -8 -106 -21t-55.5 -31.5t-16.5 -43.5q0 -31 20 -44.5t50 -13.5zM166 571l-114 164l7 13h91l80 -177h-64zM334 571l-114 164l7 13h91l80 -177h-64z" />
    <glyph glyph-name="uni0204" unicode="&#x204;" horiz-adv-x="538" 
d="M83 0v654h394v-98h-278v-167h235v-98h-235v-193h288v-98h-404zM174 705l-132 131l7 12h102l97 -143h-74zM366 705l-132 131l7 12h102l97 -143h-74z" />
    <glyph glyph-name="uni0205" unicode="&#x205;" horiz-adv-x="507" 
d="M284 -12q-69 0 -124.5 30.5t-87.5 88t-32 139.5q0 80 33 137.5t85 88.5t110 31q67 0 112 -30t67.5 -82.5t22.5 -120.5q0 -16 -1.5 -31t-4.5 -29h-338v88h242q0 53 -24 83.5t-74 30.5q-28 0 -54.5 -15t-44 -51t-17.5 -100q0 -58 20 -94.5t53 -54t71 -17.5q32 0 60.5 9
t53.5 25l40 -74q-34 -24 -77.5 -38t-90.5 -14zM160 571l-114 164l7 13h91l80 -177h-64zM328 571l-114 164l7 13h91l80 -177h-64z" />
    <glyph glyph-name="uni0208" unicode="&#x208;" horiz-adv-x="282" 
d="M83 0v654h116v-654h-116zM26 705l-132 131l7 12h102l97 -143h-74zM218 705l-132 131l7 12h102l97 -143h-74z" />
    <glyph glyph-name="uni0209" unicode="&#x209;" horiz-adv-x="262" 
d="M73 0v491h115v-491h-115zM24 571l-114 164l7 13h91l80 -177h-64zM192 571l-114 164l7 13h91l80 -177h-64z" />
    <glyph glyph-name="uni020C" unicode="&#x20c;" horiz-adv-x="674" 
d="M337 -12q-85 0 -150 41.5t-101.5 118t-36.5 182.5t36.5 181t101.5 115t150 40q86 0 151 -40t101.5 -115t36.5 -181t-36.5 -182.5t-101.5 -118t-151 -41.5zM337 89q52 0 89.5 29.5t58.5 84t21 127.5t-21 125.5t-58.5 81t-89.5 28.5q-51 0 -89 -28.5t-59 -81t-21 -125.5
t21 -127.5t59 -84t89 -29.5zM221 705l-132 131l7 12h102l97 -143h-74zM413 705l-132 131l7 12h102l97 -143h-74z" />
    <glyph glyph-name="uni020D" unicode="&#x20d;" horiz-adv-x="549" 
d="M274 -12q-61 0 -114 30.5t-86 88t-33 138.5q0 82 33 139.5t86 88t114 30.5q62 0 115 -30.5t86 -88t33 -139.5q0 -81 -33 -138.5t-86 -88t-115 -30.5zM274 82q36 0 62 20t40 57t14 86t-14 86t-40 57.5t-62 20.5t-61.5 -20.5t-39.5 -57.5t-14 -86t14 -86t39.5 -57t61.5 -20
zM168 571l-114 164l7 13h91l80 -177h-64zM336 571l-114 164l7 13h91l80 -177h-64z" />
    <glyph glyph-name="uni0218" unicode="&#x218;" horiz-adv-x="545" 
d="M274 -12q-68 0 -128.5 25t-107.5 71l63 76q35 -34 81.5 -52.5t93.5 -18.5q56 0 85 23t29 61q0 27 -13 43.5t-35.5 28.5t-52.5 24l-90 39q-32 14 -62.5 36.5t-50 56t-19.5 81.5q0 52 28.5 93.5t78 66t113.5 24.5q59 0 111.5 -21.5t89.5 -58.5l-61 -76q-32 26 -67 40.5
t-73 14.5q-46 0 -74.5 -20.5t-28.5 -56.5q0 -25 14.5 -41.5t39 -28t50.5 -22.5l89 -37q39 -17 69 -40t46.5 -56t16.5 -81q0 -53 -28 -97t-80.5 -70.5t-126.5 -26.5zM182 -233l-10 50q61 4 83.5 14.5t22.5 28.5q0 17 -16.5 26.5t-51.5 12.5l24 46q73 -7 101 -26t28 -54
q0 -47 -47.5 -70.5t-133.5 -27.5z" />
    <glyph glyph-name="uni0219" unicode="&#x219;" horiz-adv-x="431" 
d="M210 -12q-51 0 -100.5 19t-85.5 53l51 66q33 -27 67 -39t72 -12q40 0 59 17t19 42q0 20 -14.5 34t-37.5 24t-51 20q-36 13 -67 31.5t-50.5 46t-19.5 66.5q0 65 48 106t130 41q50 0 92 -16.5t72 -42.5l-51 -65q-26 19 -53 28t-57 9q-37 0 -55 -16t-18 -38
q0 -18 11.5 -30.5t33.5 -22t53 -19.5q38 -13 71 -31.5t52.5 -47t19.5 -71.5q0 -42 -22 -76.5t-64.5 -55t-104.5 -20.5zM122 -233l-10 50q61 4 83.5 14.5t22.5 28.5q0 17 -16.5 26.5t-51.5 12.5l24 46q73 -7 101 -26t28 -54q0 -47 -47.5 -70.5t-133.5 -27.5z" />
    <glyph glyph-name="uni021A" unicode="&#x21a;" horiz-adv-x="546" 
d="M215 0v556h-189v98h494v-98h-189v-556h-116zM178 -233l-10 50q61 4 83.5 14.5t22.5 28.5q0 17 -16.5 26.5t-51.5 12.5l24 46q73 -7 101 -26t28 -54q0 -47 -47.5 -70.5t-133.5 -27.5z" />
    <glyph glyph-name="uni021B" unicode="&#x21b;" horiz-adv-x="361" 
d="M246 -10q-85 0 -120.5 49.5t-35.5 128.5v232h-70v86l76 5l14 154h96v-154h125v-91h-125v-232q0 -43 17 -64.5t52 -21.5q13 0 26 2t25 8l21 -81q-19 -9 -45 -15t-56 -6zM130 -233l-10 50q61 4 83.5 14.5t22.5 28.5q0 17 -16.5 26.5t-51.5 12.5l24 46q73 -7 101 -26t28 -54
q0 -47 -47.5 -70.5t-133.5 -27.5z" />
    <glyph glyph-name="uni021C" unicode="&#x21c;" horiz-adv-x="506" 
d="M106 -174l-44 84q107 45 170.5 87.5t91 82t27.5 76.5q0 44 -25 67.5t-64 23.5q-27 0 -52 -6t-62 -26l-40 69q66 36 106 64t61.5 50.5t29.5 44t8 43.5q0 37 -22 58t-57 21q-44 0 -79 -18.5t-79 -58.5l-56 68q39 39 75.5 63t75 35.5t85.5 11.5q52 0 91 -18.5t60 -51.5
t21 -76q0 -60 -29.5 -105.5t-94.5 -88.5q72 0 117.5 -39.5t45.5 -113.5q0 -75 -38.5 -135t-118 -111t-204.5 -101z" />
    <glyph glyph-name="uni021D" unicode="&#x21d;" horiz-adv-x="445" 
d="M89 -206l-36 76q92 37 145.5 72t76.5 68t23 65q0 34 -21.5 53t-58.5 19q-20 0 -41.5 -6t-50.5 -22l-36 63q74 40 111 68t50 51.5t13 46.5q0 32 -18.5 49t-49.5 17q-35 0 -65.5 -16t-68.5 -50l-50 62q52 50 101 71.5t111 21.5q69 0 110 -34.5t41 -90.5q0 -47 -27 -83.5
t-83 -72.5q62 -2 103 -35.5t41 -100.5q0 -63 -33.5 -113.5t-104 -94t-182.5 -84.5z" />
    <glyph glyph-name="uni021E" unicode="&#x21e;" horiz-adv-x="663" 
d="M83 0v654h116v-263h265v263h116v-654h-116v290h-265v-290h-116zM272 705l-134 143h92l98 -71h4l98 71h92l-134 -143h-116z" />
    <glyph glyph-name="uni021F" unicode="&#x21f;" horiz-adv-x="558" 
d="M73 0v706h115v-182l-4 -95q31 29 69 51.5t88 22.5q79 0 115 -51t36 -144v-308h-115v293q0 61 -18 86t-59 25q-32 0 -56.5 -15.5t-55.5 -45.5v-343h-115zM246 755l-134 143h92l98 -71h4l98 71h92l-134 -143h-116z" />
    <glyph glyph-name="uni0220" unicode="&#x220;" horiz-adv-x="672" 
d="M476 -162v515q0 79 -15.5 125.5t-45 66.5t-71.5 20q-24 0 -50.5 -11t-51.5 -31t-43 -47v-476h-116v654h113v-76q24 27 53 46.5t61.5 30.5t66.5 11q66 0 114.5 -30.5t74.5 -96.5t26 -174v-527h-116z" />
    <glyph glyph-name="uni0222" unicode="&#x222;" horiz-adv-x="674" 
d="M337 -12q-86 0 -151 26t-101 74.5t-36 115.5q0 55 24 95t65.5 65t96.5 36v-27q-56 16 -88 44t-45 69t-13 95v73h116v-64q0 -60 16.5 -95t46.5 -50t69 -15q40 0 70.5 15t47.5 50t17 95v64h112v-73q0 -54 -13.5 -95t-45 -69t-87.5 -44v27q54 -11 96.5 -36t67 -65t24.5 -95
q0 -67 -36 -115.5t-101 -74.5t-152 -26zM337 89q50 0 88.5 14t59.5 41.5t21 68.5t-21 68.5t-59.5 41t-88.5 13.5t-88 -13.5t-59.5 -41t-21.5 -68.5t21.5 -68.5t59.5 -41.5t88 -14z" />
    <glyph glyph-name="uni0223" unicode="&#x223;" horiz-adv-x="545" 
d="M276 82q32 0 57.5 13.5t39.5 39t14 61.5q0 40 -16.5 69t-49 51.5t-79.5 40.5q-45 -27 -67.5 -66.5t-22.5 -85.5q0 -39 16 -66.5t44.5 -42t63.5 -14.5zM272 -12q-66 0 -119 26t-83.5 73t-30.5 109q0 73 39 123t98 73v4q-52 35 -83.5 82t-31.5 111q0 42 8.5 72t26.5 57
l100 -28q-12 -23 -18 -44t-6 -50q0 -40 17 -68t46 -48.5t67 -35.5q39 30 57.5 68t18.5 80q0 24 -5.5 46t-16.5 41l93 31q18 -32 25 -57.5t7 -57.5q0 -62 -32.5 -109t-76.5 -73v-4q36 -18 66.5 -46t49 -68.5t18.5 -94.5q0 -64 -29.5 -112t-82 -74t-122.5 -26z" />
    <glyph glyph-name="uni0226" unicode="&#x226;" horiz-adv-x="558" 
d="M-2 0l213 654h136l213 -654h-122l-100 348q-16 52 -30.5 107t-28.5 109h-4q-13 -55 -27.5 -109.5t-30.5 -106.5l-101 -348h-118zM124 177v91h308v-91h-308zM278 707q-30 0 -50.5 19t-20.5 47q0 29 20.5 47t50.5 18q31 0 51 -18t20 -47q0 -28 -20 -47t-51 -19z" />
    <glyph glyph-name="uni0227" unicode="&#x227;" horiz-adv-x="516" 
d="M192 -12q-43 0 -76 18t-51.5 50.5t-18.5 75.5q0 83 69.5 125.5t220.5 58.5q-1 25 -9.5 46t-28 33.5t-52.5 12.5q-36 0 -70.5 -13t-67.5 -33l-42 78q27 17 59 31.5t68 23t75 8.5q61 0 101.5 -24.5t61 -72t20.5 -116.5v-290h-95l-8 54h-4q-34 -28 -71 -47t-81 -19zM228 82
q30 0 55.5 12.5t52.5 37.5v104q-67 -8 -106 -21t-55.5 -31.5t-16.5 -43.5q0 -31 20 -44.5t50 -13.5zM272 577q-30 0 -49.5 18t-19.5 48t19.5 47.5t49.5 17.5q31 0 50 -17.5t19 -47.5t-19 -48t-50 -18z" />
    <glyph glyph-name="uni0237" unicode="&#x237;" horiz-adv-x="263" 
d="M34 -206q-26 0 -46 4t-34 10l22 85q10 -3 21 -5.5t21 -2.5q33 0 44.5 22.5t11.5 65.5v518h116v-516q0 -52 -15 -93t-49 -64.5t-92 -23.5z" />
    <glyph glyph-name="uni023A" unicode="&#x23a;" horiz-adv-x="558" 
d="M202 -56l-46 12l200 754l46 -12zM-2 0l213 654h136l213 -654h-122l-100 348q-16 52 -30.5 107t-28.5 109h-4q-13 -55 -27.5 -109.5t-30.5 -106.5l-101 -348h-118zM124 177v91h308v-91h-308z" />
    <glyph glyph-name="uni023B" unicode="&#x23b;" horiz-adv-x="576" 
d="M238 -56l-50 12l224 754l50 -12zM346 -12q-83 0 -150.5 39t-107 114.5t-39.5 183.5q0 80 23 143.5t64.5 107.5t95.5 67t116 23t110 -24.5t79 -58.5l-62 -71q-25 26 -55.5 39.5t-68.5 13.5q-52 0 -93.5 -29t-65.5 -82t-24 -126q0 -75 23 -128.5t65 -82t98 -28.5
q42 0 75 17t60 45l59 -69q-40 -46 -90 -70t-112 -24z" />
    <glyph glyph-name="uni023C" unicode="&#x23c;" horiz-adv-x="462" 
d="M200 -56l-48 12l198 598l48 -12zM280 -12q-68 0 -122 30.5t-85.5 88t-31.5 138.5q0 82 34 139.5t90.5 88t121.5 30.5q47 0 82.5 -15.5t61.5 -39.5l-55 -72q-16 15 -36.5 24t-46.5 9q-39 0 -69 -20.5t-47.5 -57t-17.5 -86.5q0 -49 17 -85.5t46.5 -57t68.5 -20.5
q29 0 54.5 11t45.5 28l47 -71q-31 -28 -71.5 -45t-86.5 -17z" />
    <glyph glyph-name="uni023D" unicode="&#x23d;" horiz-adv-x="520" 
d="M22 314v82l83 6h287v-88h-370zM103 0v654h116v-556h272v-98h-388z" />
    <glyph glyph-name="uni023E" unicode="&#x23e;" horiz-adv-x="546" 
d="M76 -38l-42 26l500 716l42 -26zM215 0v556h-189v98h494v-98h-189v-556h-116z" />
    <glyph glyph-name="uni0241" unicode="&#x241;" horiz-adv-x="507" 
d="M171 0v271q100 38 141 83.5t41 101.5q0 51 -35.5 80t-95.5 29q-44 0 -87 -20t-75 -49l-60 74q41 40 99.5 68t130.5 28q66 0 121 -23t88 -67.5t33 -111.5q0 -57 -24 -103t-65.5 -82t-95.5 -61v-218h-116z" />
    <glyph glyph-name="uni0242" unicode="&#x242;" horiz-adv-x="450" 
d="M147 0v188q53 22 84 44t44.5 45.5t13.5 53.5q0 35 -25.5 56.5t-64.5 21.5q-41 0 -72.5 -16t-58.5 -41l-54 68q35 34 81 58.5t110 24.5q54 0 99.5 -19t72.5 -56.5t27 -91.5q0 -68 -40 -113t-102 -76v-147h-115z" />
    <glyph glyph-name="uni0243" unicode="&#x243;" horiz-adv-x="615" 
d="M103 0v654h209q68 0 121 -15.5t83 -50t30 -92.5q0 -45 -27.5 -82t-84.5 -52v-4q71 -12 108.5 -51.5t37.5 -108.5q0 -68 -33 -112t-89.5 -65t-128.5 -21h-226zM219 394h83q68 0 100 22.5t32 68.5q0 44 -33.5 61.5t-96.5 17.5h-85v-170zM219 90h98q71 0 111 28t40 88
q0 57 -38.5 80.5t-112.5 23.5h-98v-220zM22 162v80l83 6h253v-86h-336z" />
    <glyph glyph-name="uni0244" unicode="&#x244;" horiz-adv-x="695" 
d="M18 322v83l84 5h574v-88h-658zM348 -12q-57 0 -102.5 16t-78 51t-50 91t-17.5 135v373h116v-382q0 -69 16.5 -109t46.5 -57t69 -17q40 0 70.5 17t48 57t17.5 109v382h111v-373q0 -79 -17 -135t-49.5 -91t-78 -51t-102.5 -16z" />
    <glyph glyph-name="uni0245" unicode="&#x245;" horiz-adv-x="536" 
d="M-4 0l203 654h137l204 -654h-123l-92 329q-16 56 -28.5 106.5t-29.5 106.5h-4q-16 -56 -29 -106.5t-28 -106.5l-91 -329h-119z" />
    <glyph glyph-name="uni0248" unicode="&#x248;" horiz-adv-x="514" 
d="M170 322v82l102 6h220v-88h-322zM212 -12q-64 0 -110.5 27.5t-75.5 85.5l75 51q17 -31 43.5 -47t57.5 -16q49 0 72.5 29t23.5 101v435h116v-445q0 -61 -21 -111t-65.5 -80t-115.5 -30z" />
    <glyph glyph-name="uni0249" unicode="&#x249;" horiz-adv-x="315" 
d="M22 210v82l78 6h192v-88h-270zM60 -206q-26 0 -46 4t-34 10l22 85q10 -3 21 -5.5t21 -2.5q33 0 44.5 22.5t11.5 65.5v518h116v-516q0 -52 -15 -93t-49 -64.5t-92 -23.5zM158 577q-30 0 -49.5 18t-19.5 48t19.5 47.5t49.5 17.5q31 0 50 -17.5t19 -47.5t-19 -48t-50 -18z
" />
    <glyph glyph-name="uni0250" unicode="&#x250;" horiz-adv-x="516" 
d="M274 -12q-70 0 -116.5 26t-69.5 75t-23 118v284h95l9 -64h3q33 35 74 55.5t90 20.5q62 0 98 -35.5t36 -95.5q0 -82 -68.5 -130t-220.5 -66q1 -19 7 -36t18.5 -30t32.5 -20.5t50 -7.5q34 0 68 13.5t65 32.5l42 -76q-27 -17 -58 -31.5t-64.5 -23.5t-67.5 -9zM181 256
q67 9 105.5 22.5t55 32.5t16.5 43q0 30 -18 44t-45 14q-29 0 -57 -16.5t-57 -49.5v-90z" />
    <glyph glyph-name="uni0251" unicode="&#x251;" horiz-adv-x="567" 
d="M245 -12q-92 0 -147 68t-55 189q0 80 30 138t78 89t103 31q39 0 70.5 -15t62.5 -45h3l9 48h92v-369q0 -21 6.5 -29.5t16.5 -8.5q3 0 6 0.5t8 1.5l14 -86q-9 -2 -23 -6t-32 -4q-38 0 -62 16.5t-34 50.5h-3q-26 -27 -63 -48t-80 -21zM273 83q29 0 54 13.5t49 41.5v229
q-25 23 -50 32t-50 9q-32 0 -57.5 -19t-41 -55t-15.5 -88q0 -79 29 -121t82 -42z" />
    <glyph glyph-name="uni0252" unicode="&#x252;" horiz-adv-x="573" 
d="M320 -12q-32 0 -66.5 15t-67.5 45h-3l-9 -48h-92v369q0 22 -6.5 30.5t-16.5 8.5h-5.5t-7.5 -2l-15 85q10 4 24 7.5t31 3.5q39 0 62.5 -16.5t33.5 -51.5h3q31 29 70.5 49t81.5 20q61 0 104 -31t66 -87t23 -132q0 -84 -30 -143t-77.5 -90.5t-102.5 -31.5zM296 83
q33 0 59 19t41.5 56.5t15.5 93.5q0 49 -11.5 84t-35 53.5t-60.5 18.5q-26 0 -52 -13.5t-55 -41.5v-229q26 -22 51.5 -31.5t46.5 -9.5z" />
    <glyph glyph-name="uni0253" unicode="&#x253;" horiz-adv-x="563" 
d="M311 -12q-33 0 -67.5 16t-66.5 46h-3l-10 -50h-91v518q0 57 19 102.5t60.5 71.5t107.5 26q27 0 51 -5t40 -12l-23 -86q-13 6 -26.5 9t-26.5 3q-43 0 -64 -27t-24 -80l-2 -90q31 27 67.5 44t74.5 17q61 0 104.5 -30t66.5 -84.5t23 -128.5q0 -82 -30 -140.5t-77.5 -89
t-102.5 -30.5zM287 83q33 0 59 18.5t41 55t15 89.5q0 47 -11 80.5t-34.5 51.5t-60.5 18q-27 0 -53 -13.5t-55 -41.5v-217q26 -22 52 -31.5t47 -9.5z" />
    <glyph glyph-name="uni0254" unicode="&#x254;" horiz-adv-x="462" 
d="M188 -12q-43 0 -86 13.5t-78 46.5l46 76q22 -18 49 -30t57 -12q37 0 65.5 20t44.5 57t16 86q0 50 -16 87t-44 57t-64 20q-29 0 -50 -8.5t-41 -26.5l-56 74q29 25 68 40t92 15q62 0 114 -30t84 -87.5t32 -140.5q0 -81 -31.5 -138.5t-84 -88t-117.5 -30.5z" />
    <glyph glyph-name="uni0255" unicode="&#x255;" horiz-adv-x="468" 
d="M130 -72l-80 32q51 137 127.5 211.5t164.5 74.5q54 0 84 -31.5t30 -84.5q0 -39 -21 -71t-61 -51.5t-96 -19.5q-66 0 -120 30.5t-86 88t-32 139.5t34.5 139t90.5 87.5t122 30.5q47 0 81.5 -15.5t61.5 -39.5l-52 -68q-18 17 -39 25.5t-47 8.5q-40 0 -71.5 -21t-49 -58.5
t-17.5 -88.5q0 -50 17.5 -88t47.5 -59t67 -21q39 0 61.5 16t22.5 38q0 32 -40 32q-35 0 -71.5 -29t-69.5 -82t-59 -125z" />
    <glyph glyph-name="uni0256" unicode="&#x256;" horiz-adv-x="564" 
d="M521 -206q-48 0 -79.5 19t-47 51t-15.5 74l1 111q-28 -25 -62 -43t-73 -18q-92 0 -147 68t-55 189q0 80 29.5 138t77 89t101.5 31q42 0 71.5 -14t57.5 -40l-4 79v190h115v-754q0 -38 10 -58.5t36 -20.5q9 0 17.5 2.5t15.5 5.5l21 -86q-12 -5 -29 -9t-41 -4zM273 83
q29 0 54 13.5t49 41.5v229q-25 23 -50 32t-50 9q-32 0 -57.5 -19t-41 -55t-15.5 -88q0 -79 29 -121t82 -42z" />
    <glyph glyph-name="uni0257" unicode="&#x257;" horiz-adv-x="564" 
d="M245 -12q-92 0 -147 68t-55 189q0 80 29.5 138t77 89t101.5 31q42 0 71.5 -14t57.5 -40l-1 107q0 48 15.5 84.5t49 57.5t86.5 21q21 0 36 -2.5t27 -7.5l-21 -86q-6 3 -12 4t-14 1q-30 0 -42.5 -21t-12.5 -61v-546h-95l-8 53h-4q-27 -27 -63 -46t-76 -19zM273 83
q29 0 54 13.5t49 41.5v229q-25 23 -50 32t-50 9q-32 0 -57.5 -19t-41 -55t-15.5 -88q0 -79 29 -121t82 -42z" />
    <glyph glyph-name="uni0258" unicode="&#x258;" horiz-adv-x="508" 
d="M232 -12q-49 0 -95.5 13.5t-82.5 38.5l40 74q27 -18 58.5 -26t65.5 -8q36 0 66.5 17.5t49 54t18.5 94.5q0 64 -15.5 100t-40 51t-50.5 15q-54 0 -81 -30.5t-27 -83.5h242v-88h-338q-3 14 -4.5 29t-1.5 31q0 68 24 120.5t71 82.5t117 30q56 0 106 -31t81 -88.5t31 -137.5
q0 -82 -31 -139.5t-84 -88t-119 -30.5z" />
    <glyph glyph-name="uni0259" unicode="&#x259;" horiz-adv-x="508" 
d="M248 -12q-70 0 -117 30.5t-71 84.5t-24 123q0 17 1.5 32t4.5 28h338v-88h-242q0 -54 27 -86t81 -32q26 0 50.5 15t40 51t15.5 99q0 59 -17.5 95t-46 53t-62.5 17q-33 0 -62 -8.5t-56 -25.5l-40 74q36 26 80 39.5t92 13.5q64 0 115 -30t81 -87.5t30 -140.5q0 -80 -31 -138
t-81 -88.5t-106 -30.5z" />
    <glyph glyph-name="uni025A" unicode="&#x25a;" horiz-adv-x="698" 
d="M254 -12q-72 0 -119 29.5t-71 80t-28 112.5l550 218l12 -10q-1 -16 -2.5 -30t-1.5 -28q0 -54 14 -75t38 -21q14 0 23 3t16 7l27 -56q-14 -9 -33 -16.5t-47 -7.5q-26 0 -49 11.5t-37 37.5t-14 68v9l-392 -156q9 -40 38.5 -62t75.5 -22q32 0 54 19.5t33 53.5t11 77
q0 63 -15.5 102.5t-44 58.5t-68.5 19q-32 0 -61 -8.5t-55 -25.5l-40 74q38 27 81.5 40t88.5 13q71 0 122 -32.5t78.5 -91.5t27.5 -139q0 -69 -26 -126t-73.5 -91.5t-112.5 -34.5z" />
    <glyph glyph-name="uni025B" unicode="&#x25b;" horiz-adv-x="439" 
d="M245 -12q-54 0 -100.5 17t-74.5 49t-28 78q0 36 14 61.5t38 41.5t54 23v4q-40 14 -61 43.5t-21 62.5q0 46 25.5 76t68 44.5t92.5 14.5q47 0 86 -12t70 -35l-42 -72q-25 17 -49.5 23.5t-54.5 6.5q-36 0 -59 -15.5t-23 -42.5q0 -28 22.5 -44t67.5 -16h55v-86h-70
q-49 0 -74 -17t-25 -47q0 -31 29.5 -49.5t78.5 -18.5q29 0 57.5 8.5t58.5 27.5l40 -70q-36 -30 -79 -43t-96 -13z" />
    <glyph glyph-name="uni025C" unicode="&#x25c;" horiz-adv-x="446" 
d="M202 -12q-54 0 -96 13t-80 43l40 70q30 -19 59 -27.5t57 -8.5q50 0 79 18.5t29 49.5q0 32 -24.5 48t-74.5 16h-71v86h56q45 0 67.5 16t22.5 44q0 27 -21.5 42.5t-56.5 15.5q-30 0 -55.5 -6.5t-52.5 -23.5l-42 70q33 24 73 36.5t86 12.5q50 0 91.5 -14.5t66.5 -44.5
t25 -76q0 -33 -20.5 -62.5t-59.5 -43.5v-4q29 -7 52.5 -23t37.5 -41t14 -60q0 -46 -28 -78.5t-74 -50t-100 -17.5z" />
    <glyph glyph-name="uni025D" unicode="&#x25d;" horiz-adv-x="601" 
d="M201 -12q-53 0 -95.5 12.5t-79.5 43.5l40 69q30 -19 58.5 -27.5t57.5 -8.5q50 0 79 19t29 53q0 32 -24.5 48.5t-74.5 16.5h-70v78h55q45 0 67.5 17t22.5 45q0 29 -21.5 44.5t-56.5 15.5q-30 0 -55.5 -6.5t-52.5 -23.5l-42 71q33 24 73 36t86 12q49 0 90 -14.5t65 -45
t24 -76.5q0 -22 -6.5 -41t-23.5 -36l-4 70l146 65l11 -8q-1 -18 -1.5 -31t-0.5 -26q0 -55 14 -76t38 -21q13 0 23 3.5t16 8.5l27 -57q-13 -8 -32.5 -16t-46.5 -8t-49.5 11.5t-36.5 37t-14 68.5v13l-137 -62v-4q29 -8 53 -23.5t38 -40.5t14 -61q0 -45 -28 -77.5t-74.5 -50
t-100.5 -17.5z" />
    <glyph glyph-name="uni025E" unicode="&#x25e;" horiz-adv-x="556" 
d="M288 -12q-70 0 -126 26t-89 78.5t-33 131.5q0 92 35.5 154t93.5 93.5t125 31.5q52 0 95.5 -14.5t69.5 -44.5t26 -76q0 -33 -20 -62.5t-61 -43.5v-4q29 -7 53 -22t38.5 -39.5t14.5 -58.5q0 -48 -29 -81.5t-79.5 -51t-113.5 -17.5zM292 78q51 0 77.5 19.5t26.5 48.5
q0 33 -23.5 48.5t-70.5 15.5h-44v86h28q44 0 65 15.5t21 42.5q0 29 -22.5 44.5t-55.5 15.5q-39 0 -70 -19.5t-48.5 -60.5t-17.5 -104q0 -53 17.5 -86.5t47.5 -49.5t69 -16z" />
    <glyph glyph-name="uni025F" unicode="&#x25f;" horiz-adv-x="315" 
d="M22 210v82l78 6h192v-88h-270zM60 -206q-26 0 -46 4t-34 10l22 85q10 -3 21 -5.5t21 -2.5q33 0 44.5 22.5t11.5 65.5v518h116v-516q0 -52 -15 -93t-49 -64.5t-92 -23.5z" />
    <glyph glyph-name="uni0260" unicode="&#x260;" horiz-adv-x="564" 
d="M257 -211q-43 0 -91.5 14t-89.5 40l40 78q36 -22 72 -31.5t69 -9.5q61 0 89 30.5t30 79.5l2 76q-26 -25 -60 -41t-73 -16q-61 0 -106.5 30.5t-70.5 85.5t-25 129q0 76 30.5 131.5t78.5 86.5t102 31q39 0 68 -14t57 -40l-1 114q0 42 15.5 77t49 56.5t87.5 21.5
q20 0 35.5 -4t27.5 -9l-21 -86q-7 3 -14.5 5t-19.5 2q-17 0 -27.5 -16.5t-15 -41.5t-4.5 -50v-522q0 -98 -61 -152.5t-173 -54.5zM273 103q29 0 53.5 13.5t49.5 42.5v208q-25 23 -50 32t-50 9q-32 0 -58 -19t-42 -53t-16 -81q0 -71 30 -111.5t83 -40.5z" />
    <glyph glyph-name="uni0261" unicode="&#x261;" horiz-adv-x="564" 
d="M257 -211q-43 0 -91.5 14t-89.5 40l40 78q35 -22 71.5 -31.5t69.5 -9.5q60 0 88.5 30.5t30.5 79.5l2 76q-26 -25 -60.5 -41t-72.5 -16q-61 0 -106.5 30.5t-70.5 85.5t-25 129q0 76 30.5 132t78.5 86.5t102 30.5q39 0 70.5 -14t60.5 -43h3l9 45h94v-495q0 -98 -61 -152.5
t-173 -54.5zM273 103q29 0 53.5 13.5t49.5 42.5v208q-25 23 -50 32t-50 9q-32 0 -58.5 -18.5t-42 -53t-15.5 -81.5q0 -71 30 -111.5t83 -40.5z" />
    <glyph glyph-name="uni0262" unicode="&#x262;" horiz-adv-x="507" 
d="M284 -12q-66 0 -121.5 28.5t-89 86t-33.5 143.5q0 61 20 108.5t54.5 80.5t79.5 50.5t94 17.5q60 0 98 -18.5t66 -42.5l-54 -70q-19 17 -42.5 27.5t-61.5 10.5q-36 0 -67 -18.5t-50 -55t-19 -90.5q0 -78 38 -121t96 -43q23 0 40.5 5t29.5 15v94h-96v88h196v-233
q-30 -26 -75.5 -44.5t-102.5 -18.5z" />
    <glyph glyph-name="uni0263" unicode="&#x263;" horiz-adv-x="495" 
d="M250 -217q-62 0 -98 36t-36 92q0 26 7.5 52t24 58t40.5 75v-54l-176 449h117l78 -233q10 -32 20.5 -59.5t20.5 -61.5h4q11 34 21.5 61.5t20.5 59.5l78 233h111l-171 -449v54q24 -44 40.5 -75.5t24.5 -57.5t8 -52q0 -56 -36 -92t-99 -36zM250 -142q20 0 30 13t10 34
q0 24 -9.5 52t-28.5 62h-5q-18 -34 -27 -62t-9 -52q0 -21 10.5 -34t28.5 -13z" />
    <glyph glyph-name="uni0264" unicode="&#x264;" horiz-adv-x="541" 
d="M270 -12q-57 0 -99 21t-64 58.5t-22 88.5q0 46 30 99t83 101q-25 25 -50 39t-51 14q-28 0 -47 -13l-34 83q15 11 38 17.5t46 6.5q40 0 82 -20t88 -63q46 43 89 63t81 20q24 0 47 -6.5t38 -17.5l-34 -83q-19 13 -47 13q-27 0 -51.5 -14t-49.5 -39q35 -32 60 -66.5
t39 -68.5t14 -65q0 -51 -22 -88.5t-63.5 -58.5t-100.5 -21zM270 77q39 0 58 24t19 60q0 35 -21.5 73t-55.5 69q-32 -31 -54 -69t-22 -73q0 -36 19 -60t57 -24z" />
    <glyph glyph-name="uni0265" unicode="&#x265;" horiz-adv-x="560" 
d="M371 -194v162l6 100q-31 -35 -69.5 -57.5t-88.5 -22.5q-79 0 -115 51t-36 144v308h115v-293q0 -60 18.5 -85.5t57.5 -25.5q33 0 58.5 15.5t53.5 52.5v336h115v-685h-115z" />
    <glyph glyph-name="uni0266" unicode="&#x266;" horiz-adv-x="558" 
d="M73 0v518q0 57 19 102.5t60.5 71.5t107.5 26q27 0 51 -5t40 -12l-23 -86q-13 6 -26.5 9t-26.5 3q-43 0 -64 -27t-24 -80l-3 -103q31 29 69 51.5t88 22.5q79 0 115 -51t36 -144v-296h-115v281q0 61 -18 86t-59 25q-32 0 -56.5 -15.5t-55.5 -45.5v-331h-115z" />
    <glyph glyph-name="uni0267" unicode="&#x267;" horiz-adv-x="558" 
d="M336 -206q-26 0 -45.5 4t-33.5 9l21 86q10 -3 20.5 -5.5t21.5 -2.5q33 0 45 22.5t12 65.5v308q0 61 -18 86t-59 25q-32 0 -56.5 -15.5t-55.5 -45.5v-331h-115v518q0 57 19 102.5t60.5 71.5t107.5 26q27 0 51 -5t40 -12l-23 -86q-13 6 -26.5 9t-26.5 3q-43 0 -64 -27
t-24 -80l-3 -103q31 29 69 51.5t88 22.5q79 0 115 -51t36 -144v-321q0 -52 -14.5 -93t-48.5 -64.5t-93 -23.5z" />
    <glyph glyph-name="uni0268" unicode="&#x268;" horiz-adv-x="314" 
d="M22 210v82l77 6h191v-88h-268zM99 0v491h115v-491h-115zM156 577q-30 0 -49.5 18t-19.5 48t19.5 47.5t49.5 17.5q31 0 50 -17.5t19 -47.5t-19 -48t-50 -18z" />
    <glyph glyph-name="uni0269" unicode="&#x269;" horiz-adv-x="271" 
d="M185 -10q-41 0 -65.5 16.5t-35.5 47.5t-11 74v363h115v-369q0 -21 8.5 -29.5t17.5 -8.5q4 0 7.5 0.5t9.5 1.5l15 -86q-9 -4 -25 -7t-36 -3z" />
    <glyph glyph-name="uni026A" unicode="&#x26a;" horiz-adv-x="369" 
d="M49 0v92h78v308h-78v91h271v-91h-78v-308h78v-92h-271z" />
    <glyph glyph-name="uni026B" unicode="&#x26b;" horiz-adv-x="390" 
d="M248 -10q-41 0 -65.5 16.5t-35.5 47.5t-11 74v578h115v-584q0 -22 8 -30t18 -8q4 0 7.5 0.5t9.5 1.5l15 -86q-10 -4 -25.5 -7t-35.5 -3zM300 299q-35 0 -62.5 11t-50.5 25.5t-43.5 25.5t-42.5 11q-18 0 -27.5 -16.5t-12.5 -47.5l-74 14q2 41 13.5 70.5t34 45.5t55.5 16
q36 0 63 -11.5t50 -26t43.5 -25.5t42.5 -11q18 0 28 17t12 47l74 -14q-2 -40 -13.5 -69.5t-34 -45.5t-55.5 -16z" />
    <glyph glyph-name="uni026C" unicode="&#x26c;" horiz-adv-x="388" 
d="M138 294q-74 0 -108 33.5t-34 82.5q0 42 27 68t67 26q36 0 60.5 -19t37 -49.5t12.5 -63.5l-51 14q0 26 -13 42t-35 16q-16 0 -23.5 -8t-7.5 -20q0 -15 14 -24.5t42 -9.5h252v-88h-240zM149 0v706h115v-706h-115z" />
    <glyph glyph-name="uni026D" unicode="&#x26d;" horiz-adv-x="271" 
d="M219 -206q-55 0 -86.5 22t-45.5 61t-14 89v740h115v-742q0 -39 10 -59t37 -20q9 0 17 2t15 5l21 -85q-11 -5 -28.5 -9t-40.5 -4z" />
    <glyph glyph-name="uni026E" unicode="&#x26e;" horiz-adv-x="597" 
d="M73 0v706h115v-706h-115zM366 -206q-66 0 -110.5 24.5t-75.5 54.5l54 72q22 -21 51 -39t68 -18q31 0 55.5 15.5t38.5 43.5t14 67q0 54 -27 83.5t-76 29.5q-20 0 -31.5 -3.5t-28.5 -10.5l-41 58l159 229h-245v91h384v-61l-168 -241l-43 22q66 5 110.5 -8.5t71.5 -41
t39 -64.5t12 -79q0 -72 -29.5 -122t-77.5 -76t-104 -26z" />
    <glyph glyph-name="uni026F" unicode="&#x26f;" horiz-adv-x="843" 
d="M222 -12q-78 0 -115 51t-37 144v308h115v-293q0 -60 19 -85.5t57 -25.5q23 0 48.5 15t54.5 46v343h115v-293q0 -60 18.5 -85.5t56.5 -25.5q47 0 103 61v343h115v-491h-94l-9 67h-3q-31 -32 -68 -55.5t-83 -23.5q-54 0 -86.5 23.5t-48.5 64.5q-36 -37 -73.5 -62.5
t-84.5 -25.5z" />
    <glyph glyph-name="uni0270" unicode="&#x270;" horiz-adv-x="843" 
d="M657 -194v161l6 99q-34 -37 -69.5 -57.5t-78.5 -20.5q-54 0 -86.5 23.5t-48.5 64.5q-36 -37 -73.5 -62.5t-84.5 -25.5q-78 0 -115 51t-37 144v308h115v-293q0 -60 19 -85.5t57 -25.5q23 0 48.5 15t54.5 46v343h115v-293q0 -60 18.5 -85.5t56.5 -25.5q47 0 103 61v343h115
v-685h-115z" />
    <glyph glyph-name="uni0271" unicode="&#x271;" horiz-adv-x="843" 
d="M626 -206q-24 0 -42 4t-32 9l22 86q8 -3 17 -5.5t19 -2.5q31 0 40.5 22.5t9.5 65.5v320q0 61 -18 86t-57 25q-24 0 -49 -15t-54 -46v-343h-115v293q0 61 -18.5 86t-57.5 25q-46 0 -103 -61v-343h-115v491h95l8 -67h4q31 33 67.5 56t82.5 23q55 0 87 -23t49 -65
q35 38 73 63t85 25q78 0 115 -51t37 -144v-333q0 -52 -14.5 -93t-47 -64.5t-88.5 -23.5z" />
    <glyph glyph-name="uni0272" unicode="&#x272;" horiz-adv-x="560" 
d="M43 -206q-24 0 -41 4t-29 9l21 86q8 -3 16 -5.5t17 -2.5q26 0 36 20t10 59v527h96l7 -66h4q33 32 72 55t89 23q79 0 115 -51t36 -144v-308h-115v293q0 61 -18 86t-59 25q-32 0 -56.5 -15.5t-55.5 -45.5v-377q0 -50 -13.5 -89t-45.5 -61t-86 -22z" />
    <glyph glyph-name="uni0273" unicode="&#x273;" horiz-adv-x="560" 
d="M522 -206q-54 0 -86 22t-45.5 61t-13.5 89v327q0 61 -18 86t-59 25q-32 0 -56.5 -15.5t-55.5 -45.5v-343h-115v491h95l8 -66h4q33 32 72 55t89 23q79 0 115 -51t36 -144v-344q0 -39 10 -59t36 -20q9 0 17.5 2.5t15.5 5.5l21 -86q-12 -5 -29 -9t-41 -4z" />
    <glyph glyph-name="uni0274" unicode="&#x274;" horiz-adv-x="552" 
d="M73 0v491h119l134 -231q14 -23 26.5 -52t25.5 -68h4q-4 47 -7.5 95t-3.5 87v169h108v-491h-121l-134 234q-12 21 -24 50t-26 66h-4q5 -46 8 -94t3 -86v-170h-108z" />
    <glyph glyph-name="uni0275" unicode="&#x275;" horiz-adv-x="549" 
d="M275 -12q-63 0 -116 29t-85 86.5t-32 142.5t32 142t85 86t116 29q62 0 115 -29t85.5 -86t32.5 -142t-32.5 -142.5t-85.5 -86.5t-115 -29zM275 80q38 0 66 19.5t43.5 56.5t15.5 90q0 52 -15.5 89t-43.5 57t-66 20q-39 0 -67 -20t-43 -57t-15 -89q0 -53 15 -90t43 -56.5
t67 -19.5zM127 210v88h291v-88h-291z" />
    <glyph glyph-name="uni0276" unicode="&#x276;" horiz-adv-x="714" 
d="M288 -12q-49 0 -93.5 16t-79.5 48.5t-55 81t-20 112.5t20 112t54.5 80.5t79.5 48.5t94 16q29 0 53 -2.5t57 -9.5h282v-87h-216v-108h182v-86h-182v-124h226v-86h-292q-33 -7 -57 -9.5t-53 -2.5zM294 80q14 0 28 2t27 6v314q-13 5 -27 6.5t-28 1.5q-36 0 -66.5 -17
t-49 -53.5t-18.5 -93.5q0 -59 18.5 -95.5t49 -53.5t66.5 -17z" />
    <glyph glyph-name="uni0277" unicode="&#x277;" horiz-adv-x="726" 
d="M222 -12q-54 0 -93.5 26.5t-61 78.5t-21.5 129q0 55 20 105t60 90t99.5 63t138.5 23q81 0 140.5 -23t98.5 -62.5t58.5 -90.5t19.5 -105q0 -70 -20 -122.5t-58.5 -82t-94.5 -29.5q-33 0 -63 13t-51.5 37t-29.5 59h-4q-12 -53 -50 -81t-88 -28zM236 77q21 0 37.5 11
t26 35.5t9.5 65.5v103h106v-103q0 -42 10.5 -66.5t27.5 -35t36 -10.5q37 0 59.5 33.5t22.5 106.5q0 57 -23.5 101.5t-70 70t-116.5 25.5q-73 0 -118.5 -28.5t-66.5 -74.5t-21 -98q0 -68 22.5 -102t58.5 -34z" />
    <glyph glyph-name="uni0278" unicode="&#x278;" horiz-adv-x="710" 
d="M302 -194v900h106v-900h-106zM314 -9q-72 1 -134.5 30.5t-100.5 86t-38 138.5t38 138.5t100.5 85.5t134.5 30l-6 -87q-42 -1 -76 -20.5t-53.5 -56.5t-19.5 -90t19.5 -90.5t53.5 -57t76 -20.5zM396 -9l6 87q42 1 76 20.5t53 57t19 90.5t-18.5 90t-52 56.5t-77.5 20.5
l-6 87q74 -1 136 -30t99.5 -85.5t37.5 -138.5t-38 -138.5t-100.5 -86t-134.5 -30.5z" />
    <glyph glyph-name="uni0279" unicode="&#x279;" horiz-adv-x="373" 
d="M300 491v-491h-95l-8 87h-4q-26 -48 -62.5 -73.5t-76.5 -25.5q-19 0 -32 2t-24 8l23 98q12 -3 22 -4.5t26 -1.5q29 0 61 22.5t55 78.5v300h115z" />
    <glyph glyph-name="uni027A" unicode="&#x27a;" horiz-adv-x="373" 
d="M54 -12q-19 0 -31.5 2.5t-24.5 7.5l24 98q12 -3 22 -4.5t25 -1.5q29 0 61.5 23t54.5 79v514h115v-706h-94l-9 88h-3q-26 -48 -63 -74t-77 -26z" />
    <glyph glyph-name="uni027B" unicode="&#x27b;" horiz-adv-x="373" 
d="M330 -206q-49 0 -78.5 20.5t-42 55.5t-12.5 81v137h-3q-26 -48 -63 -74t-77 -26q-19 0 -31.5 2.5t-24.5 7.5l24 98q12 -3 22 -4.5t25 -1.5q29 0 61.5 23t54.5 79v299h115v-527q0 -39 10 -59t36 -20q9 0 17.5 2.5t15.5 5.5l21 -86q-12 -5 -29 -9t-41 -4z" />
    <glyph glyph-name="uni027D" unicode="&#x27d;" horiz-adv-x="373" 
d="M219 -206q-55 0 -86.5 22t-45.5 61t-14 89v525h95l8 -87h4q26 48 62.5 73.5t76.5 25.5q19 0 32 -2t24 -8l-20 -100q-13 4 -24 6t-27 2q-29 0 -61 -22.5t-55 -78.5v-336q0 -39 10 -59t37 -20q9 0 17 2.5t15 5.5l21 -86q-11 -5 -28.5 -9t-40.5 -4z" />
    <glyph glyph-name="uni027E" unicode="&#x27e;" horiz-adv-x="355" 
d="M71 0v309q0 57 20.5 100.5t62 68.5t104.5 25q32 0 57 -3.5t41 -10.5l-18 -97q-19 7 -32 9t-34 2q-20 0 -40 -12.5t-33 -38.5t-13 -68v-284h-115z" />
    <glyph glyph-name="uni027F" unicode="&#x27f;" horiz-adv-x="288" 
d="M105 -194v518q0 43 -13 65.5t-49 22.5q-9 0 -16.5 -2t-15.5 -5l-22 85q13 6 29.5 9.5t40.5 3.5q60 0 95.5 -23.5t50.5 -64.5t15 -93v-516h-115z" />
    <glyph glyph-name="uni0280" unicode="&#x280;" horiz-adv-x="514" 
d="M73 0v491h189q55 0 98.5 -14.5t69.5 -48t26 -90.5q0 -44 -17 -75t-45 -50t-62.5 -28t-69.5 -9h-74v-176h-115zM188 260h58q47 0 71.5 20t24.5 54q0 36 -25 53t-71 17h-58v-144zM364 0l-120 204l94 32l154 -236h-128z" />
    <glyph glyph-name="uni0281" unicode="&#x281;" horiz-adv-x="516" 
d="M73 0v491h115v-169h78q34 0 67.5 -9t61.5 -29t44.5 -51.5t16.5 -76.5q0 -58 -26 -92t-69.5 -49t-98.5 -15h-189zM188 87h58q46 0 71 18t25 55q0 34 -25 55t-71 21h-58v-149zM338 256l-94 32l120 203h128z" />
    <glyph glyph-name="uni0282" unicode="&#x282;" horiz-adv-x="431" 
d="M168 -206q-53 0 -84.5 23.5t-45.5 64.5t-14 93v148l4 2q59 -31 102 -40.5t80 -9.5q43 0 62.5 17t19.5 42q0 20 -15.5 34t-39.5 24.5t-50 20.5q-32 13 -63.5 30.5t-51.5 44.5t-20 68q0 65 48 106t130 41q52 0 93 -17.5t71 -41.5l-53 -70q-26 19 -52.5 30.5t-55.5 11.5
q-37 0 -55 -15.5t-18 -38.5q0 -19 14 -31.5t37 -22t49 -19.5q34 -13 66.5 -30t53.5 -45t21 -74q0 -42 -22 -76.5t-64.5 -55t-104.5 -20.5q-21 0 -50 4.5t-62 17.5l22 28v-63q0 -49 14 -70.5t44 -21.5q11 0 22 2t20 5l22 -83q-13 -5 -31 -9t-43 -4z" />
    <glyph glyph-name="uni0283" unicode="&#x283;" horiz-adv-x="263" 
d="M34 -206q-27 0 -46.5 4t-33.5 9l22 86q11 -3 21 -5.5t21 -2.5q33 0 44.5 22.5t11.5 65.5v564q0 52 15.5 93t52 64.5t98.5 23.5q23 0 40 -4t30 -9l-22 -85q-7 3 -15 5t-17 2q-38 0 -52 -22.5t-14 -65.5v-564q0 -52 -15 -93t-49 -64.5t-92 -23.5z" />
    <glyph glyph-name="uni0284" unicode="&#x284;" horiz-adv-x="315" 
d="M22 210v83l78 5h192v-88h-270zM60 -206q-27 0 -46.5 4t-33.5 9l22 86q11 -3 21 -5.5t21 -2.5q33 0 44.5 22.5t11.5 65.5v564q0 52 15.5 93t52 64.5t98.5 23.5q23 0 40 -4t30 -9l-22 -85q-7 3 -15 5t-17 2q-38 0 -52 -22.5t-14 -65.5v-564q0 -52 -15 -93t-49 -64.5
t-92 -23.5z" />
    <glyph glyph-name="uni0285" unicode="&#x285;" horiz-adv-x="303" 
d="M251 -206q-55 0 -86.5 22t-45.5 61t-14 89v358q0 43 -13 65.5t-49 22.5q-9 0 -16.5 -2t-15.5 -5l-22 85q13 6 29.5 9.5t40.5 3.5q60 0 95.5 -23.5t50.5 -64.5t15 -93v-358q0 -39 10 -59t37 -20q9 0 17 2t15 5l21 -85q-11 -5 -28.5 -9t-40.5 -4z" />
    <glyph glyph-name="uni0287" unicode="&#x287;" horiz-adv-x="361" 
d="M115 501q85 0 120.5 -49.5t35.5 -128.5v-232h70v-86l-76 -5l-14 -154h-96v154h-125v91h125v232q0 43 -17 64.5t-52 21.5q-13 0 -26 -2t-25 -8l-21 81q19 9 45 15t56 6z" />
    <glyph glyph-name="uni0288" unicode="&#x288;" horiz-adv-x="361" 
d="M246 -206q-85 0 -120.5 49t-35.5 128v429h-70v86l76 5l14 154h96v-154h125v-91h-125v-429q0 -43 17 -64.5t52 -21.5q13 0 27 3.5t24 7.5l20 -84q-20 -7 -45.5 -12.5t-54.5 -5.5z" />
    <glyph glyph-name="uni0289" unicode="&#x289;" horiz-adv-x="603" 
d="M16 252v82l78 6h492v-88h-570zM245 -12q-79 0 -115 51t-36 144v308h115v-293q0 -61 18 -86t58 -25q32 0 56.5 16t52.5 52v336h115v-491h-94l-9 72h-3q-32 -38 -70 -61t-88 -23z" />
    <glyph glyph-name="uni028A" unicode="&#x28a;" horiz-adv-x="557" 
d="M278 -12q-73 0 -124.5 31.5t-78.5 81t-27 104.5q0 45 11.5 81t29.5 64t37 47v3h-89v91h200v-74q-34 -34 -53.5 -78t-19.5 -109q0 -40 12.5 -74t38 -54t63.5 -20q39 0 64.5 20t38 54t12.5 74q0 65 -19.5 109t-53.5 78v74h200v-91h-90v-3q20 -19 38 -47t29.5 -64t11.5 -81
q0 -55 -27 -104.5t-78.5 -81t-125.5 -31.5z" />
    <glyph glyph-name="uni028B" unicode="&#x28b;" horiz-adv-x="541" 
d="M268 -12q-60 0 -105 24t-70 73.5t-25 124.5v281h115v-277q0 -46 11.5 -75.5t32 -43t46.5 -13.5q34 0 58 24.5t36 68t12 101.5q0 68 -15.5 102.5t-49.5 34.5q-6 0 -11.5 -1t-12.5 -4l-15 87q13 5 28 6.5t35 1.5q47 0 83 -22t56.5 -69t20.5 -119q0 -90 -26 -158.5
t-77 -107.5t-127 -39z" />
    <glyph glyph-name="uni028C" unicode="&#x28c;" horiz-adv-x="495" 
d="M312 491l171 -491h-117l-78 255q-10 35 -20.5 72.5t-20.5 75.5h-4q-11 -38 -21.5 -75.5t-20.5 -72.5l-78 -255h-111l167 491h133z" />
    <glyph glyph-name="uni028D" unicode="&#x28d;" horiz-adv-x="748" 
d="M594 491l130 -491h-118l-58 255q-8 33 -14 67.5t-11 78.5h-4q-7 -44 -13.5 -78.5t-13.5 -67.5l-60 -255h-120l-62 255q-8 33 -15 67.5t-14 78.5h-4q-7 -44 -12.5 -78.5t-12.5 -67.5l-58 -255h-110l125 491h147l50 -228q7 -33 13.5 -66.5t12.5 -81.5h4q6 48 12 81.5
t14 66.5l50 228h142z" />
    <glyph glyph-name="uni028E" unicode="&#x28e;" horiz-adv-x="495" 
d="M12 0l187 539q21 56 46.5 96t62.5 61.5t91 21.5q20 0 35.5 -2.5t28.5 -7.5l-21 -89q-7 3 -16.5 5t-19.5 2q-38 0 -61.5 -23.5t-36.5 -60.5l-18 -57l193 -485h-117l-85 241q-11 33 -21.5 68.5t-21.5 70.5h-4q-9 -34 -18.5 -70t-19.5 -69l-73 -241h-111z" />
    <glyph glyph-name="uni028F" unicode="&#x28f;" horiz-adv-x="441" 
d="M164 0v157l-168 334h121l55 -122q11 -30 23 -57.5t25 -57.5h4q12 30 24 57.5t24 57.5l53 122h121l-167 -334v-157h-115z" />
    <glyph glyph-name="uni0290" unicode="&#x290;" horiz-adv-x="443" 
d="M441 -206q-51 0 -81 22t-43 58.5t-13 79.5v46h-270v62l232 338h-206v91h350v-61l-231 -338h229v-128q0 -39 10 -59t36 -20q9 0 17.5 2.5t15.5 5.5l21 -86q-12 -5 -29 -9t-38 -4z" />
    <glyph glyph-name="uni0291" unicode="&#x291;" horiz-adv-x="492" 
d="M280 -82l-80 12q15 70 33.5 126.5t42 96.5t55 61.5t71.5 21.5q45 0 71.5 -26.5t26.5 -73.5q0 -39 -18.5 -71t-57.5 -51.5t-100 -19.5q-32 0 -69 0.5t-75.5 1t-75.5 2t-70 2.5v62l232 338h-206v91h342v-63l-228 -334q45 -3 90 -4.5t91 -1.5q34 0 51.5 15t17.5 33
q0 12 -7 19t-19 7q-30 0 -60.5 -56.5t-57.5 -187.5z" />
    <glyph glyph-name="uni0292" unicode="&#x292;" horiz-adv-x="443" 
d="M206 -206q-72 0 -120 24t-82 55l54 72q25 -23 58 -40t77 -17q33 0 58.5 15.5t40.5 43.5t15 67q0 54 -30.5 83.5t-84.5 29.5q-20 0 -31.5 -3.5t-28.5 -10.5l-41 58l171 229h-221v91h360v-61l-169 -224q60 1 103 -23t65.5 -67t22.5 -98q0 -72 -30 -122t-79.5 -76
t-107.5 -26z" />
    <glyph glyph-name="uni0294" unicode="&#x294;" horiz-adv-x="433" 
d="M137 0v326q86 50 123.5 92.5t37.5 97.5q0 50 -28.5 79t-79.5 29q-43 0 -75 -18.5t-58 -44.5l-55 69q24 24 52 44t64.5 32t82.5 12q59 0 107 -22t77 -65.5t29 -107.5q0 -55 -21 -97.5t-57.5 -76.5t-83.5 -66v-283h-115z" />
    <glyph glyph-name="uni0295" unicode="&#x295;" horiz-adv-x="433" 
d="M180 0v283q-46 32 -83 66t-58 76.5t-21 97.5q0 64 29.5 107.5t79.5 65.5t109 22q46 0 81 -12t63 -32t51 -44l-55 -69q-25 26 -56.5 44.5t-72.5 18.5q-52 0 -82.5 -29t-30.5 -79q0 -55 38 -97.5t124 -92.5v-326h-116z" />
    <glyph glyph-name="uni0298" unicode="&#x298;" horiz-adv-x="541" 
d="M270 -12q-65 0 -114 39.5t-75.5 121t-26.5 207.5q0 121 26.5 201t75.5 120.5t114 40.5q66 0 115 -40.5t76 -121t27 -200.5q0 -126 -27 -207.5t-76 -121t-115 -39.5zM270 84q31 0 56.5 25.5t40.5 85t15 161.5q0 96 -15 154.5t-40.5 85t-56.5 26.5q-29 0 -54.5 -26.5
t-40.5 -85t-15 -154.5q0 -102 15 -161.5t40.5 -85t54.5 -25.5zM270 284q-29 0 -49.5 20.5t-20.5 51.5q0 32 20.5 52t49.5 20q31 0 50.5 -20t19.5 -52q0 -31 -19.5 -51.5t-50.5 -20.5z" />
    <glyph glyph-name="uni0299" unicode="&#x299;" horiz-adv-x="518" 
d="M73 0v491h199q55 0 97.5 -12t67.5 -40t25 -75q0 -36 -20.5 -64t-61.5 -39v-4q29 -6 52 -20.5t36.5 -37.5t13.5 -57q0 -50 -26.5 -81.5t-71.5 -46t-102 -14.5h-209zM186 296h75q47 0 68 15.5t21 40.5q0 29 -20 45t-66 16h-78v-117zM186 78h88q50 0 72 19t22 51
q0 29 -24 45.5t-74 16.5h-84v-132z" />
    <glyph glyph-name="uni029B" unicode="&#x29b;" horiz-adv-x="507" 
d="M284 -12q-65 0 -120.5 28.5t-89 86t-33.5 143.5q0 61 20 108.5t54.5 80.5t79 50.5t93.5 17.5q21 0 42.5 -4t38.5 -13l-25 -14q-21 35 -33.5 69.5t-12.5 69.5q0 48 33 77.5t88 29.5q27 0 45 -4.5t32 -11.5l-22 -80q-8 3 -15.5 5t-19.5 2q-22 0 -35.5 -15t-13.5 -43
q0 -31 15.5 -61t46.5 -67l-53 -68q-22 17 -45.5 28t-58.5 11q-37 0 -68 -19t-50.5 -56.5t-19.5 -92.5q0 -80 37.5 -124.5t98.5 -44.5q22 0 40 6.5t29 15.5v102h-95v79h195v-229q-29 -26 -75.5 -44.5t-102.5 -18.5z" />
    <glyph glyph-name="uni029C" unicode="&#x29c;" horiz-adv-x="572" 
d="M73 0v491h115v-188h196v188h115v-491h-115v202h-196v-202h-115z" />
    <glyph glyph-name="uni029D" unicode="&#x29d;" horiz-adv-x="367" 
d="M312 -246q-30 66 -64 112.5t-68.5 71t-65.5 24.5q-22 0 -35 -10t-13 -28q0 -16 13 -27t35 -11t36 11t21 32t7 49v513h116v-495q0 -57 -17 -103t-55.5 -72.5t-103.5 -26.5q-66 0 -104 37.5t-38 90.5q0 56 36.5 89t93.5 33q86 0 154 -63t126 -191zM236 577q-30 0 -49.5 18
t-19.5 48t19.5 47.5t49.5 17.5q31 0 50 -17.5t19 -47.5t-19 -48t-50 -18z" />
    <glyph glyph-name="uni029E" unicode="&#x29e;" horiz-adv-x="523" 
d="M336 -194v419h-4l-193 -225h-132l329 364v127h114v-685h-114zM208 207l-184 284h120l136 -217z" />
    <glyph glyph-name="uni029F" unicode="&#x29f;" horiz-adv-x="422" 
d="M73 0v491h115v-399h208v-92h-323z" />
    <glyph glyph-name="uni02A1" unicode="&#x2a1;" horiz-adv-x="443" 
d="M32 122v83l96 5h244v-88h-340zM147 0v326q86 50 123.5 92.5t37.5 97.5q0 50 -28.5 79t-79.5 29q-43 0 -75 -18.5t-58 -44.5l-55 69q24 24 52 44t64.5 32t82.5 12q59 0 107 -22t77 -65.5t29 -107.5q0 -55 -21 -97.5t-57.5 -76.5t-83.5 -66v-283h-115z" />
    <glyph glyph-name="uni02A2" unicode="&#x2a2;" horiz-adv-x="443" 
d="M66 122v83l94 5h246v-88h-340zM180 0v283q-46 32 -83 66t-58 76.5t-21 97.5q0 64 29.5 107.5t79.5 65.5t109 22q46 0 81 -12t63 -32t51 -44l-55 -69q-25 26 -56.5 44.5t-72.5 18.5q-52 0 -82.5 -29t-30.5 -79q0 -55 38 -97.5t124 -92.5v-326h-116z" />
    <glyph glyph-name="uni02A3" unicode="&#x2a3;" horiz-adv-x="862" 
d="M235 -12q-87 0 -139.5 68t-52.5 189q0 80 28 138t73.5 89t96.5 31q39 0 65 -15t54 -39l-4 79v178h115v-706h-95l-8 53h-4q-26 -26 -59 -45.5t-70 -19.5zM263 83q26 0 47.5 14t45.5 41v229q-24 22 -46 31.5t-44 9.5q-29 0 -52.5 -19t-37.5 -55t-14 -88q0 -79 26.5 -121
t74.5 -42zM518 0v62l182 338h-240v91h370v-61l-182 -338h190v-92h-320z" />
    <glyph glyph-name="uni02A4" unicode="&#x2a4;" horiz-adv-x="871" 
d="M235 -12q-87 0 -139.5 68t-52.5 189q0 80 28 138t73.5 89t96.5 31q39 0 65 -15t54 -39l-4 79v178h115v-706h-95l-8 53h-4q-26 -26 -59 -45.5t-70 -19.5zM263 83q26 0 47.5 14t45.5 41v229q-24 22 -46 31.5t-44 9.5q-29 0 -52.5 -19t-37.5 -55t-14 -88q0 -79 26.5 -121
t74.5 -42zM644 -206q-43 0 -76.5 11.5t-59 29.5t-45.5 38l53 72q23 -21 50.5 -39t65.5 -18q29 0 52.5 15.5t37.5 43.5t14 67q0 54 -25.5 83.5t-69.5 29.5q-20 0 -32 -3.5t-29 -10.5l-40 58l151 229h-238v91h376v-61l-159 -240l-44 21q64 5 107.5 -9t69 -41.5t37.5 -64
t12 -78.5q0 -72 -29.5 -122t-76.5 -76t-102 -26z" />
    <glyph glyph-name="uni02A5" unicode="&#x2a5;" horiz-adv-x="938" 
d="M235 -12q-88 0 -140 68t-52 189q0 80 28 138t73.5 89t96.5 31q38 0 64.5 -15t54.5 -39l-4 79v178h115v-706h-95l-8 53h-4q-26 -26 -59 -45.5t-70 -19.5zM263 83q26 0 48 13.5t45 41.5v229q-24 22 -45.5 31.5t-44.5 9.5q-29 0 -52.5 -19t-37.5 -55t-14 -88
q0 -79 26.5 -121t74.5 -42zM728 -82l-80 12q14 69 32.5 125.5t42 96.5t54 62t69.5 22q45 0 71.5 -26.5t26.5 -73.5q0 -38 -19 -70t-59.5 -51t-103.5 -19q-37 0 -80 0.5t-85.5 1.5t-78.5 2v62l182 338h-239v91h369v-61l-182 -338q39 -3 76 -3.5t75 -0.5q34 0 51.5 15t17.5 33
q0 12 -6.5 19t-19.5 7q-30 0 -60 -57.5t-54 -186.5z" />
    <glyph glyph-name="uni02A6" unicode="&#x2a6;" horiz-adv-x="687" 
d="M374 -12q-85 0 -140 16.5t-86.5 45t-44.5 65.5t-13 79v206h-70v86l76 5l14 154h96v-154h225l-80 -91h-145v-206q0 -34 17.5 -61t55 -42.5t99.5 -15.5q53 0 86.5 4.5t52 12t25 18.5t6.5 24q0 20 -14.5 34t-38.5 24.5t-50 20.5q-32 13 -62.5 30t-50.5 44.5t-20 68.5
q0 65 47.5 106t128.5 41q49 0 90.5 -16.5t71.5 -42.5l-51 -65q-26 19 -52.5 28t-55.5 9q-36 0 -53.5 -15.5t-17.5 -38.5q0 -19 14 -31.5t36.5 -22t48.5 -19.5q33 -12 64.5 -29t52.5 -45.5t21 -74.5q0 -31 -12.5 -59t-43.5 -49t-86 -32.5t-141 -11.5z" />
    <glyph glyph-name="uni02A7" unicode="&#x2a7;" horiz-adv-x="571" 
d="M246 -10q-85 0 -120.5 49t-35.5 128v233h-70v86l76 5l14 154h96v-154h238v-91h-238v-233q0 -43 15 -64.5t48 -21.5q9 0 19 2.5t20 6.5l21 -83q-17 -7 -38 -12t-45 -5zM342 -206q-26 0 -45.5 4t-33.5 9l22 86q10 -3 20 -5.5t21 -2.5q33 0 45 22.5t12 65.5v564
q0 52 15.5 93t52 64.5t97.5 23.5q24 0 40.5 -3.5t29.5 -9.5l-22 -85q-7 3 -15 5t-17 2q-38 0 -52 -22t-14 -66v-564q0 -52 -14.5 -93t-48.5 -64.5t-93 -23.5z" />
    <glyph glyph-name="uni02A8" unicode="&#x2a8;" horiz-adv-x="772" 
d="M246 -10q-85 0 -120.5 49t-35.5 128v233h-70v86l76 5l14 154h96v-154h318v-91h-318v-233q0 -43 15 -64.5t48 -21.5q9 0 19 2.5t20 6.5l21 -83q-17 -7 -38 -12t-45 -5zM433 -71l-71 27q52 135 125.5 210.5t159.5 75.5q53 0 83 -31t30 -81q0 -39 -21 -71t-60.5 -51.5
t-95.5 -19.5q-66 0 -120 30.5t-86 88t-32 138.5q0 82 34.5 139.5t90.5 88t122 30.5q47 0 82 -15.5t61 -39.5l-51 -68q-19 16 -40.5 25t-45.5 9q-42 0 -73.5 -21t-49 -59t-17.5 -89t17.5 -88.5t47.5 -58.5t67 -21q38 0 61.5 16t23.5 39q0 32 -40 32q-36 0 -73 -28.5
t-70.5 -81t-58.5 -125.5z" />
    <glyph glyph-name="h.u" unicode="&#x2b0;" horiz-adv-x="375" 
d="M47 385v465h83v-119l-5 -63q20 19 46.5 34.5t59.5 15.5q56 0 79.5 -35.5t23.5 -94.5v-203h-84v192q0 34 -9 52.5t-41 18.5q-17 0 -33.5 -10t-36.5 -29v-224h-83z" />
    <glyph glyph-name="uni02B1" unicode="&#x2b1;" horiz-adv-x="375" 
d="M47 385v344q0 37 13 67.5t40.5 48.5t72.5 18q20 0 35.5 -3t27.5 -8l-16 -59q-7 2 -16 3.5t-20 1.5q-27 0 -40 -15.5t-15 -44.5l-4 -70q20 19 46.5 34.5t59.5 15.5q56 0 79.5 -35.5t23.5 -94.5v-203h-84v192q0 34 -9 52.5t-41 18.5q-17 0 -33.5 -10t-36.5 -29v-224h-83z
" />
    <glyph glyph-name="j.u" unicode="&#x2b2;" horiz-adv-x="180" 
d="M25 245q-19 0 -31 2t-24 6l16 63q6 -2 12 -3.5t15 -1.5q21 0 28.5 13.5t7.5 41.5v344h83v-340q0 -36 -10 -64.5t-33.5 -44.5t-63.5 -16zM91 764q-22 0 -36.5 13t-14.5 33t14.5 33t36.5 13t36.5 -13t14.5 -33t-14.5 -33t-36.5 -13z" />
    <glyph glyph-name="r.u" unicode="&#x2b3;" horiz-adv-x="256" 
d="M47 385v325h67l8 -57h2q20 33 43.5 49t49.5 16q14 0 23.5 -2t16.5 -5l-15 -72q-6 2 -15.5 3.5t-18.5 1.5q-20 0 -41 -14t-36 -50v-195h-84z" />
    <glyph glyph-name="uni02B4" unicode="&#x2b4;" horiz-adv-x="256" 
d="M39 377q-13 0 -23 2t-17 5l15 72q7 -1 16.5 -3t17.5 -2q20 0 41 14.5t36 49.5v195h84v-325h-67l-8 57h-2q-19 -32 -43 -48.5t-50 -16.5z" />
    <glyph glyph-name="w.u" unicode="&#x2b7;" horiz-adv-x="505" 
d="M102 385l-86 325h84l36 -163l17 -95h4l19 95l43 163h70l45 -163l20 -95h4l18 95l36 163h77l-82 -325h-98l-36 145l-19 90h-2l-18 -90l-36 -145h-96z" />
    <glyph glyph-name="y.u" unicode="&#x2b8;" horiz-adv-x="336" 
d="M74 256q-13 0 -23.5 1.5t-21.5 4.5l15 64q8 -3 13.5 -4t10.5 -1q25 0 41 15t23 38l6 17l-130 319h84l54 -152q8 -23 14 -45.5t14 -48.5h4q6 24 12.5 47t13.5 47l44 152h80l-115 -334q-15 -38 -32.5 -64.5t-43.5 -41t-63 -14.5z" />
    <glyph glyph-name="uni02B9" unicode="&#x2b9;" horiz-adv-x="275" 
d="M150 446l-75 5l35 269l113 -10l-24 -106z" />
    <glyph glyph-name="uni02BB" unicode="&#x2bb;" horiz-adv-x="280" 
d="M152 411q-47 0 -79 32t-32 88q0 42 13.5 79.5t45 68t84.5 49.5l30 -57q-34 -14 -54.5 -34t-30 -42t-9.5 -42q0 -9 2 -16t6 -14h-18q9 12 23.5 18.5t30.5 6.5q24 0 45.5 -16.5t21.5 -47.5q0 -32 -23 -52.5t-56 -20.5z" />
    <glyph glyph-name="uni02BC" unicode="&#x2bc;" horiz-adv-x="280" 
d="M96 402l-30 57q34 14 54.5 34t30 42t9.5 42q0 10 -1.5 16.5t-6.5 12.5h18q-8 -10 -23 -17t-31 -7q-24 0 -45.5 16.5t-21.5 47.5q0 33 23.5 52.5t55.5 19.5q48 0 79.5 -31.5t31.5 -87.5q0 -42 -13.5 -80t-45 -68t-84.5 -49z" />
    <glyph glyph-name="uni02BD" unicode="&#x2bd;" horiz-adv-x="280" 
d="M184 402q-80 28 -111.5 78t-31.5 110q0 62 32 95t79 33q33 0 56 -19.5t23 -52.5q0 -31 -21.5 -47.5t-45.5 -16.5q-16 0 -30.5 7t-23.5 17h18q-4 -6 -6 -13.5t-2 -17.5q0 -19 9.5 -41t30.5 -41.5t54 -33.5z" />
    <glyph glyph-name="uni02BE" unicode="&#x2be;" horiz-adv-x="256" 
d="M47 423v66q46 0 67 19.5t21 58.5q0 38 -21 58t-67 20v66q84 4 128.5 -33t44.5 -111q0 -73 -44.5 -110.5t-128.5 -33.5z" />
    <glyph glyph-name="uni02BF" unicode="&#x2bf;" horiz-adv-x="256" 
d="M209 423q-84 -4 -128.5 33.5t-44.5 110.5q0 74 44.5 111t128.5 33v-66q-45 0 -66.5 -20t-21.5 -58q0 -39 21.5 -58.5t66.5 -19.5v-66z" />
    <glyph glyph-name="uni02C0" unicode="&#x2c0;" horiz-adv-x="328" 
d="M106 385v105q60 22 84 45t24 55q0 28 -19 44t-52 16q-27 0 -47.5 -10.5t-37.5 -28.5l-44 46q22 25 56 43t79 18q65 0 107 -32.5t42 -95.5q0 -47 -30.5 -79.5t-78.5 -53.5v-72h-83z" />
    <glyph glyph-name="uni02C1" unicode="&#x2c1;" horiz-adv-x="328" 
d="M139 385v72q-48 21 -78.5 53.5t-30.5 79.5q0 63 42.5 95.5t106.5 32.5q46 0 79.5 -18t55.5 -43l-44 -46q-17 18 -37.5 28.5t-47.5 10.5q-32 0 -51.5 -16t-19.5 -44q0 -32 24 -55t84 -45v-105h-83z" />
    <glyph glyph-name="circumflex" unicode="&#x2c6;" horiz-adv-x="549" 
d="M88 570l134 174h104l134 -174h-90l-94 94h-4l-94 -94h-90z" />
    <glyph glyph-name="caron" unicode="&#x2c7;" horiz-adv-x="549" 
d="M222 570l-134 174h90l94 -94h4l94 94h90l-134 -174h-104z" />
    <glyph glyph-name="uni02C8" unicode="&#x2c8;" horiz-adv-x="199" 
d="M58 417l-6 289h95l-6 -289h-83z" />
    <glyph glyph-name="uni02C9" unicode="&#x2c9;" horiz-adv-x="293" 
d="M6 596v76h280v-76h-280z" />
    <glyph glyph-name="uni02CA" unicode="&#x2ca;" horiz-adv-x="230" 
d="M32 570l122 174h123l7 -12l-162 -162h-90z" />
    <glyph glyph-name="uni02CB" unicode="&#x2cb;" horiz-adv-x="230" 
d="M106 570l-162 162l7 12h123l122 -174h-90z" />
    <glyph glyph-name="uni02CC" unicode="&#x2cc;" horiz-adv-x="131" 
d="M19 -270l6 202h82l6 -202h-94z" />
    <glyph glyph-name="uni02D0" unicode="&#x2d0;" horiz-adv-x="275" 
d="M46 0l85 167h13l85 -167h-183zM131 325l-85 166h183l-85 -166h-13z" />
    <glyph glyph-name="uni02D1" unicode="&#x2d1;" horiz-adv-x="275" 
d="M131 325l-85 166h183l-85 -166h-13z" />
    <glyph glyph-name="uni02D2" unicode="&#x2d2;" horiz-adv-x="256" 
d="M47 121v66q46 0 67 19.5t21 58.5q0 38 -21 58t-67 20v66q84 4 128.5 -33t44.5 -111q0 -73 -44.5 -110.5t-128.5 -33.5z" />
    <glyph glyph-name="uni02D3" unicode="&#x2d3;" horiz-adv-x="256" 
d="M209 121q-84 -4 -128.5 33.5t-44.5 110.5q0 74 44.5 111t128.5 33v-66q-45 0 -66.5 -20t-21.5 -58q0 -39 21.5 -58.5t66.5 -19.5v-66z" />
    <glyph glyph-name="uni02D4" unicode="&#x2d4;" horiz-adv-x="372" 
d="M28 101v69h122v264h72v-264h122v-69h-316z" />
    <glyph glyph-name="uni02D5" unicode="&#x2d5;" horiz-adv-x="372" 
d="M150 101v265h-122v68h316v-68h-122v-265h-72z" />
    <glyph glyph-name="uni02D6" unicode="&#x2d6;" horiz-adv-x="372" 
d="M150 101v133h-122v68h122v132h72v-132h122v-68h-122v-133h-72z" />
    <glyph glyph-name="uni02D7" unicode="&#x2d7;" horiz-adv-x="372" 
d="M28 234v68h316v-68h-316z" />
    <glyph glyph-name="breve" unicode="&#x2d8;" horiz-adv-x="549" 
d="M274 569q-55 0 -90.5 21.5t-53 57t-19.5 75.5l68 11q4 -23 15 -44t31 -34t49 -13q30 0 49.5 13t30.5 34t15 44l68 -11q-2 -40 -19.5 -75.5t-52.5 -57t-91 -21.5z" />
    <glyph glyph-name="dotaccent" unicode="&#x2d9;" horiz-adv-x="549" 
d="M274 577q-30 0 -49.5 18t-19.5 48t19.5 47.5t49.5 17.5q31 0 50 -17.5t19 -47.5t-19 -48t-50 -18z" />
    <glyph glyph-name="ring" unicode="&#x2da;" horiz-adv-x="549" 
d="M274 559q-58 0 -89.5 29.5t-31.5 72.5t31.5 72t89.5 29t89.5 -29t31.5 -72t-31.5 -72.5t-89.5 -29.5zM274 605q21 0 35.5 15.5t14.5 40.5t-14.5 40t-35.5 15t-35.5 -15t-14.5 -41q0 -24 14.5 -39.5t35.5 -15.5z" />
    <glyph glyph-name="ogonek" unicode="&#x2db;" horiz-adv-x="549" 
d="M287 -217q-46 0 -78 24t-32 73q0 27 11.5 51t27.5 42t31 30h76q-26 -22 -43 -47t-17 -51q0 -22 15 -32.5t31 -10.5q15 0 27 4t22 11l26 -61q-18 -14 -44.5 -23.5t-52.5 -9.5z" />
    <glyph glyph-name="tilde" unicode="&#x2dc;" horiz-adv-x="549" 
d="M343 575q-25 0 -44 11t-34.5 26t-29 26t-28.5 11q-19 0 -28.5 -17t-12.5 -50l-74 4q2 46 15 78t37 49t61 17q26 0 44.5 -11t34 -25.5t29.5 -26t29 -11.5q18 0 27.5 17.5t12.5 49.5l74 -4q-2 -45 -14.5 -77t-37 -49.5t-61.5 -17.5z" />
    <glyph glyph-name="hungarumlaut" unicode="&#x2dd;" horiz-adv-x="549" 
d="M148 570l80 174h91l7 -12l-114 -162h-64zM316 570l80 174h91l7 -12l-114 -162h-64z" />
    <glyph glyph-name="uni02DE" unicode="&#x2de;" horiz-adv-x="192" 
d="M126 194q-26 0 -49 11.5t-37 37t-14 68.5v13l-134 -55v81l186 75l12 -8q-1 -18 -1.5 -31t-0.5 -26q0 -55 13.5 -76t38.5 -21q13 0 22.5 3.5t16.5 8.5l27 -57q-14 -8 -33 -16t-47 -8z" />
    <glyph glyph-name="uni02E0" unicode="&#x2e0;" horiz-adv-x="336" 
d="M122 419l-114 291h83l51 -150q6 -21 13 -39t14 -40h3q6 22 13 40t14 39l50 150h79l-111 -291h-95zM170 242q-43 0 -68.5 24.5t-25.5 64.5q0 28 14 55t40 72h80q26 -45 40 -72t14 -55q0 -40 -25 -64.5t-69 -24.5zM170 295q12 0 19 8.5t7 21.5q0 15 -6 32.5t-19 40.5h-3
q-11 -23 -17.5 -41t-6.5 -32q0 -13 7 -21.5t19 -8.5z" />
    <glyph glyph-name="l.u" unicode="&#x2e1;" horiz-adv-x="184" 
d="M127 377q-45 0 -62.5 26.5t-17.5 71.5v375h83v-380q0 -14 5 -20t12 -6q3 0 6 0.5t7 1.5l11 -62l-18 -4.5t-26 -2.5z" />
    <glyph glyph-name="s.u" unicode="&#x2e2;" horiz-adv-x="290" 
d="M143 377q-34 0 -67.5 12.5t-58.5 31.5l37 53q23 -16 45.5 -25.5t45.5 -9.5q24 0 36.5 10t12.5 25q0 19 -21 29t-49 20q-21 9 -42 20.5t-35 30.5t-14 46q0 42 32.5 70t87.5 28q37 0 64.5 -11.5t48.5 -27.5l-39 -51q-18 13 -35 20.5t-37 7.5q-21 0 -32.5 -9.5t-11.5 -22.5
q0 -18 21.5 -27.5t47.5 -19.5q21 -8 42.5 -19t35.5 -29.5t14 -48.5q0 -44 -34 -73.5t-95 -29.5z" />
    <glyph glyph-name="x.u" unicode="&#x2e3;" horiz-adv-x="328" 
d="M8 385l106 169l-98 156h90l34 -58l29 -51h4l24 51l29 58h88l-98 -165l103 -160h-89l-36 60l-33 53h-4l-29 -53l-33 -60h-87z" />
    <glyph glyph-name="uni02E4" unicode="&#x2e4;" horiz-adv-x="323" 
d="M135 385v178q-48 34 -79.5 70t-31.5 88q0 66 42.5 101.5t108.5 35.5q46 0 79.5 -18t54.5 -42l-42 -46q-17 17 -38 27.5t-48 10.5q-34 0 -53.5 -19t-19.5 -51q0 -35 25 -63.5t85 -62.5v-209h-83z" />
    <glyph glyph-name="equal.u" unicode="&#x207c;" horiz-adv-x="372" 
d="M28 636v68h316v-68h-316zM28 464v68h316v-68h-316z" />
    <glyph glyph-name="equal.u" unicode="&#x2ed;" horiz-adv-x="372" 
d="M28 636v68h316v-68h-316zM28 464v68h316v-68h-316z" />
    <glyph glyph-name="uni0300" unicode="&#x300;" 
d="M-8 570l-162 162l7 12h123l122 -174h-90z" />
    <glyph glyph-name="uni0301" unicode="&#x301;" 
d="M-82 570l122 174h123l7 -12l-162 -162h-90z" />
    <glyph glyph-name="uni0302" unicode="&#x302;" 
d="M-186 570l134 174h104l134 -174h-90l-94 94h-4l-94 -94h-90z" />
    <glyph glyph-name="uni0303" unicode="&#x303;" 
d="M69 575q-25 0 -44 11t-34.5 26t-29 26t-28.5 11q-19 0 -28.5 -17t-12.5 -50l-74 4q2 46 15 78t37 49t61 17q26 0 44.5 -11t34 -25.5t29.5 -26t29 -11.5q18 0 27.5 17.5t12.5 49.5l74 -4q-2 -45 -14.5 -77t-37 -49.5t-61.5 -17.5z" />
    <glyph glyph-name="uni0304" unicode="&#x304;" 
d="M-140 596v76h280v-76h-280z" />
    <glyph glyph-name="uni0305" unicode="&#x305;" 
d="M-140 596v76h280v-76h-280z" />
    <glyph glyph-name="uni0306" unicode="&#x306;" 
d="M0 569q-55 0 -90.5 21.5t-53 57t-19.5 75.5l68 11q4 -23 15 -44t31 -34t49 -13q30 0 49.5 13t30.5 34t15 44l68 -11q-2 -40 -19.5 -75.5t-52.5 -57t-91 -21.5z" />
    <glyph glyph-name="uni0307" unicode="&#x307;" 
d="M0 577q-30 0 -49.5 18t-19.5 48t19.5 47.5t49.5 17.5q31 0 50 -17.5t19 -47.5t-19 -48t-50 -18z" />
    <glyph glyph-name="uni0308" unicode="&#x308;" 
d="M-103 578q-26 0 -43.5 17.5t-17.5 43.5t17.5 43.5t43.5 17.5q27 0 44 -17.5t17 -43.5t-17 -43.5t-44 -17.5zM103 578q-26 0 -43.5 17.5t-17.5 43.5t17.5 43.5t43.5 17.5t43.5 -17.5t17.5 -43.5t-17.5 -43.5t-43.5 -17.5z" />
    <glyph glyph-name="uni0309" unicode="&#x309;" 
d="M-38 562l-10 49q22 5 36 17.5t14 31.5t-19 30.5t-62 13.5l7 67q55 -2 91 -12.5t53 -31.5t17 -51q0 -35 -17.5 -59t-46.5 -37.5t-63 -17.5z" />
    <glyph glyph-name="uni030A" unicode="&#x30a;" 
d="M0 559q-58 0 -89.5 29.5t-31.5 72.5t31.5 72t89.5 29t89.5 -29t31.5 -72t-31.5 -72.5t-89.5 -29.5zM0 605q21 0 35.5 15.5t14.5 40.5t-14.5 40t-35.5 15t-35.5 -15t-14.5 -41q0 -24 14.5 -39.5t35.5 -15.5z" />
    <glyph glyph-name="uni030B" unicode="&#x30b;" 
d="M-126 570l80 174h91l7 -12l-114 -162h-64zM42 570l80 174h91l7 -12l-114 -162h-64z" />
    <glyph glyph-name="uni030C" unicode="&#x30c;" 
d="M-52 570l-134 174h90l94 -94h4l94 94h90l-134 -174h-104z" />
    <glyph glyph-name="uni030D" unicode="&#x30d;" 
d="M-41 568l-6 192h94l-6 -192h-82z" />
    <glyph glyph-name="uni030F" unicode="&#x30f;" 
d="M-106 571l-114 164l7 13h91l80 -177h-64zM62 571l-114 164l7 13h91l80 -177h-64z" />
    <glyph glyph-name="uni0310" unicode="&#x310;" 
d="M0 571q-57 0 -94 22t-55.5 57t-21.5 76l62 11q4 -26 17.5 -48t36.5 -36t55 -14q33 0 55.5 14t36.5 36t17 48l62 -11q-3 -41 -21.5 -76t-55.5 -57t-94 -22zM0 721q-26 0 -44 17.5t-18 42.5t18 42t44 17q27 0 44.5 -17t17.5 -42t-17.5 -42.5t-44.5 -17.5z" />
    <glyph glyph-name="uni0311" unicode="&#x311;" 
d="M-95 566l-68 12q2 40 19.5 75.5t53 57t90.5 21.5q56 0 91 -21.5t52.5 -57t19.5 -75.5l-68 -12q-4 24 -15 45t-30.5 34t-49.5 13q-29 0 -49 -13t-31 -34t-15 -45z" />
    <glyph glyph-name="uni0312" unicode="&#x312;" 
d="M5 561q-34 0 -57 23.5t-23 63.5q0 49 27 83.5t83 55.5l23 -45q-39 -14 -56.5 -33.5t-17.5 -48.5q7 6 15 9t21 3q20 0 36.5 -14t16.5 -39q0 -27 -19.5 -42.5t-48.5 -15.5z" />
    <glyph glyph-name="uni0313" unicode="&#x313;" 
d="M-35 561l-23 45q39 15 56.5 34.5t17.5 46.5q-6 -5 -14.5 -8t-21.5 -3q-20 0 -36.5 14t-16.5 39q0 26 19.5 42t48.5 16q35 0 57.5 -23.5t22.5 -63.5q0 -50 -27 -84.5t-83 -54.5z" />
    <glyph glyph-name="uni0315" unicode="&#x315;" 
d="M-35 561l-23 45q39 15 56.5 34.5t17.5 46.5q-6 -5 -14.5 -8t-21.5 -3q-20 0 -36.5 14t-16.5 39q0 26 19.5 42t48.5 16q35 0 57.5 -23.5t22.5 -63.5q0 -50 -27 -84.5t-83 -54.5z" />
    <glyph glyph-name="uni0318" unicode="&#x318;" 
d="M28 -253v69h-110v59h110v69h64v-197h-64z" />
    <glyph glyph-name="uni0319" unicode="&#x319;" 
d="M-92 -253v197h64v-69h110v-59h-110v-69h-64z" />
    <glyph glyph-name="uni031A" unicode="&#x31a;" 
d="M28 573v87h-110v59h174v-146h-64z" />
    <glyph glyph-name="uni031B" unicode="&#x31b;" 
d="M0 430l-9 50q36 7 55.5 25.5t19.5 52.5q0 17 -4.5 30.5t-10.5 26.5l87 39q10 -17 18 -39.5t8 -48.5q0 -43 -22 -71.5t-59.5 -44t-82.5 -20.5z" />
    <glyph glyph-name="uni031C" unicode="&#x31c;" 
d="M71 -254q-76 -3 -112.5 23.5t-36.5 77.5q0 50 36.5 77.5t112.5 23.5v-46q-38 1 -54.5 -14.5t-16.5 -40.5t16.5 -40.5t54.5 -14.5v-46z" />
    <glyph glyph-name="uni031D" unicode="&#x31d;" 
d="M-102 -220v59h70v105h64v-105h70v-59h-204z" />
    <glyph glyph-name="uni031E" unicode="&#x31e;" 
d="M-32 -253v105h-70v59h204v-59h-70v-105h-64z" />
    <glyph glyph-name="uni031F" unicode="&#x31f;" 
d="M-32 -253v69h-70v59h70v69h64v-69h70v-59h-70v-69h-64z" />
    <glyph glyph-name="uni0320" unicode="&#x320;" 
d="M-102 -184v59h204v-59h-204z" />
    <glyph glyph-name="uni0323" unicode="&#x323;" 
d="M0 -217q-30 0 -49.5 18t-19.5 48t19.5 47.5t49.5 17.5q31 0 50 -17.5t19 -47.5t-19 -48t-50 -18z" />
    <glyph glyph-name="uni0324" unicode="&#x324;" 
d="M-103 -210q-26 0 -43.5 17.5t-17.5 43.5t17.5 43.5t43.5 17.5q27 0 44 -17.5t17 -43.5t-17 -43.5t-44 -17.5zM103 -210q-26 0 -43.5 17.5t-17.5 43.5t17.5 43.5t43.5 17.5t43.5 -17.5t17.5 -43.5t-17.5 -43.5t-43.5 -17.5z" />
    <glyph glyph-name="uni0325" unicode="&#x325;" 
d="M0 -255q-58 0 -89.5 29.5t-31.5 72.5t31.5 72t89.5 29t89.5 -29t31.5 -72t-31.5 -72.5t-89.5 -29.5zM0 -209q21 0 35.5 15.5t14.5 40.5t-14.5 40t-35.5 15t-35.5 -15t-14.5 -41q0 -24 14.5 -39.5t35.5 -15.5z" />
    <glyph glyph-name="uni0326" unicode="&#x326;" 
d="M-94 -233l-10 50q61 4 83.5 14.5t22.5 28.5q0 17 -16.5 26.5t-51.5 12.5l24 46q73 -7 101 -26t28 -54q0 -47 -47.5 -70.5t-133.5 -27.5z" />
    <glyph glyph-name="uni0327" unicode="&#x327;" 
d="M-94 -233l-10 50q61 4 83.5 15t22.5 32q0 18 -16.5 28.5t-60.5 16.5l46 94h70l-29 -65q36 -9 55.5 -25.5t19.5 -47.5q0 -47 -47.5 -70.5t-133.5 -27.5z" />
    <glyph glyph-name="uni0328" unicode="&#x328;" 
d="M13 -217q-46 0 -78 24t-32 73q0 27 11.5 51t27.5 42t31 30h76q-26 -22 -43 -47t-17 -51q0 -22 15 -32.5t31 -10.5q15 0 27 4t22 11l26 -61q-18 -14 -44.5 -23.5t-52.5 -9.5z" />
    <glyph glyph-name="uni0329" unicode="&#x329;" 
d="M-47 -270l6 202h82l6 -202h-94z" />
    <glyph glyph-name="uni032A" unicode="&#x32a;" 
d="M-124 -223v143h248v-143h-59v84h-130v-84h-59z" />
    <glyph glyph-name="uni032C" unicode="&#x32c;" 
d="M-52 -230l-134 174h90l94 -94h4l94 94h90l-134 -174h-104z" />
    <glyph glyph-name="uni032E" unicode="&#x32e;" 
d="M0 -235q-55 0 -90.5 21.5t-53 57t-19.5 75.5l68 11q4 -23 15 -44t31 -34t49 -13q30 0 49.5 13t30.5 34t15 44l68 -11q-2 -40 -19.5 -75.5t-52.5 -57t-91 -21.5z" />
    <glyph glyph-name="uni032F" unicode="&#x32f;" 
d="M-95 -242l-68 12q2 40 19.5 75.5t53 57t90.5 21.5q56 0 91 -21.5t52.5 -57t19.5 -75.5l-68 -12q-4 24 -15 45t-30.5 34t-49.5 13q-29 0 -49 -13t-31 -34t-15 -45z" />
    <glyph glyph-name="uni0330" unicode="&#x330;" 
d="M69 -225q-25 0 -44 11t-34.5 26t-29 26t-28.5 11q-19 0 -28.5 -17t-12.5 -50l-74 4q2 46 15 78t37 49t61 17q26 0 44.5 -11t34 -25.5t29.5 -26t29 -11.5q18 0 27.5 17.5t12.5 49.5l74 -4q-2 -45 -14.5 -77t-37 -49.5t-61.5 -17.5z" />
    <glyph glyph-name="uni0331" unicode="&#x331;" 
d="M-140 -168v76h280v-76h-280z" />
    <glyph glyph-name="uni0332" unicode="&#x332;" 
d="M-280 -168v76h560v-76h-560z" />
    <glyph glyph-name="uni0334" unicode="&#x334;" 
d="M105 177q-35 0 -62.5 11t-50.5 25.5t-43.5 25.5t-42.5 11q-18 0 -27.5 -16.5t-12.5 -47.5l-74 14q2 41 13.5 70.5t34 45.5t55.5 16q36 0 63 -11.5t50 -26t43.5 -25.5t42.5 -11q18 0 28 17t12 47l74 -14q-2 -40 -13.5 -69.5t-34 -45.5t-55.5 -16z" />
    <glyph glyph-name="uni0337" unicode="&#x337;" 
d="M-457 -24l-46 36l411 504l46 -36z" />
    <glyph glyph-name="uni0338" unicode="&#x338;" 
d="M-568 -36l-62 48l534 678l62 -48z" />
    <glyph glyph-name="uni0339" unicode="&#x339;" 
d="M-71 -254v46q38 -1 54.5 14.5t16.5 40.5t-16.5 40.5t-54.5 14.5v46q77 4 113 -23.5t36 -77.5q0 -51 -36 -77.5t-113 -23.5z" />
    <glyph glyph-name="uni033A" unicode="&#x33a;" 
d="M-124 -220v143h59v-83h130v83h59v-143h-248z" />
    <glyph glyph-name="uni033B" unicode="&#x33b;" 
d="M-124 -244v172h248v-172h-248zM-65 -196h130v78h-130v-78z" />
    <glyph glyph-name="uni033C" unicode="&#x33c;" 
d="M-178 -232q0 80 25.5 117t76.5 37q26 0 46 -13t28 -43h4q8 30 28 43t46 13q52 0 77 -37t25 -117l-62 -8q0 54 -12 71.5t-32 17.5q-22 0 -32 -18t-10 -49v-20h-60v20q0 31 -9.5 49t-32.5 18q-21 0 -32.5 -17.5t-11.5 -71.5z" />
    <glyph glyph-name="uni033D" unicode="&#x33d;" 
d="M-51 548l-42 41l51 51l-51 51l42 42l51 -51l51 51l42 -42l-51 -51l51 -51l-42 -41l-51 51z" />
    <glyph glyph-name="uni0300.g" unicode="&#x340;" 
d="M-28 568l-76 186l7 12h115l36 -198h-82z" />
    <glyph glyph-name="uni0342" unicode="&#x342;" 
d="M69 575q-25 0 -44 11t-34.5 26t-29 26t-28.5 11q-19 0 -28.5 -17t-12.5 -50l-74 4q2 46 15 78t37 49t61 17q26 0 44.5 -11t34 -25.5t29.5 -26t29 -11.5q18 0 27.5 17.5t12.5 49.5l74 -4q-2 -45 -14.5 -77t-37 -49.5t-61.5 -17.5z" />
    <glyph glyph-name="uni0343" unicode="&#x343;" 
d="M-38 562l-10 49q22 5 36 17.5t14 31.5t-19 30.5t-62 13.5l7 67q55 -2 91 -12.5t53 -31.5t17 -51q0 -35 -17.5 -59t-46.5 -37.5t-63 -17.5z" />
    <glyph glyph-name="uni0344" unicode="&#x344;" 
d="M-126 579q-25 0 -41 17t-16 40q0 25 16 41.5t41 16.5q26 0 42 -16.5t16 -41.5q0 -23 -16 -40t-42 -17zM126 579q-25 0 -41.5 17t-16.5 40q0 25 16.5 41.5t41.5 16.5t41 -16.5t16 -41.5q0 -23 -16 -40t-41 -17zM-48 567l36 201h85l7 -12l-76 -189h-52z" />
    <glyph glyph-name="uni0345" unicode="&#x345;" 
d="M49 -208q-51 0 -72.5 29t-21.5 81v40h85q-1 -12 -1.5 -25t-0.5 -22q0 -18 10 -25t24 -7q4 0 7.5 0.5t11.5 2.5l12 -65q-10 -4 -22.5 -6.5t-31.5 -2.5z" />
    <glyph glyph-name="uni034F" unicode="&#x34f;" 
 />
    <glyph glyph-name="uni0357" unicode="&#x357;" 
d="M-71 560v46q38 -1 54.5 14.5t16.5 40.5t-16.5 40.5t-54.5 14.5v46q77 4 113 -23.5t36 -77.5q0 -51 -36 -77.5t-113 -23.5z" />
    <glyph glyph-name="uni0358" unicode="&#x358;" 
d="M0 577q-30 0 -49.5 18t-19.5 48t19.5 47.5t49.5 17.5q31 0 50 -17.5t19 -47.5t-19 -48t-50 -18z" />
    <glyph glyph-name="uni035C" unicode="&#x35c;" 
d="M0 -232q-123 0 -238.5 31.5t-217.5 94.5l32 54q64 -37 136.5 -60t146.5 -33.5t141 -10.5t141 10.5t146.5 33.5t136.5 60l32 -54q-102 -63 -217.5 -94.5t-238.5 -31.5z" />
    <glyph glyph-name="uni035E" unicode="&#x35e;" 
d="M-455 600v68h910v-68h-910z" />
    <glyph glyph-name="uni035F" unicode="&#x35f;" 
d="M-455 -174v68h910v-68h-910z" />
    <glyph glyph-name="uni0361" unicode="&#x361;" 
d="M-424 543l-32 55q102 62 217.5 93.5t238.5 31.5t238.5 -31.5t217.5 -93.5l-32 -55q-64 37 -136.5 60t-146.5 33.5t-141 10.5t-141 -10.5t-146.5 -33.5t-136.5 -60z" />
    <glyph glyph-name="uni0374" unicode="&#x374;" horiz-adv-x="275" 
d="M82 418l20 270h115l-19 -110l-41 -160h-75z" />
    <glyph glyph-name="uni0375" unicode="&#x375;" horiz-adv-x="275" 
d="M58 0l19 110l41 160h75l-20 -270h-115z" />
    <glyph glyph-name="uni037A" unicode="&#x37a;" horiz-adv-x="549" 
d="M327 -208q-51 0 -72.5 29t-21.5 81v40h85q-1 -12 -1.5 -25t-0.5 -22q0 -18 10 -25t24 -7q4 0 7.5 0.5t11.5 2.5l12 -65q-10 -4 -22.5 -6.5t-31.5 -2.5z" />
    <glyph glyph-name="uni037E" unicode="&#x37e;" horiz-adv-x="275" 
d="M138 330q-31 0 -53 22.5t-22 55.5q0 34 22 56t53 22q32 0 53 -22t21 -56q0 -33 -21 -55.5t-53 -22.5zM72 -182l-25 63q49 19 75.5 52t25.5 72l-5 87l44 -72q-10 -9 -22 -13.5t-26 -4.5q-29 0 -51.5 18.5t-22.5 52.5q0 33 23 52t54 19q41 0 63.5 -31t22.5 -87
q0 -74 -41 -128.5t-115 -79.5z" />
    <glyph glyph-name="tonos" unicode="&#x384;" horiz-adv-x="549" 
d="M220 566l36 200h115l7 -12l-76 -188h-82z" />
    <glyph glyph-name="dieresistonos" unicode="&#x385;" horiz-adv-x="549" 
d="M152 579q-25 0 -41 17t-16 40q0 25 16 41.5t41 16.5q26 0 42 -16.5t16 -41.5q0 -23 -16 -40t-42 -17zM404 579q-25 0 -41.5 17t-16.5 40q0 25 16.5 41.5t41.5 16.5t41 -16.5t16 -41.5q0 -23 -16 -40t-41 -17zM230 567l36 201h85l7 -12l-76 -189h-52z" />
    <glyph glyph-name="Alphatonos" unicode="&#x386;" horiz-adv-x="606" 
d="M46 0l213 654h136l213 -654h-122l-100 348q-16 52 -30.5 107t-28.5 109h-4q-13 -55 -27.5 -109.5t-30.5 -106.5l-101 -348h-118zM172 177v91h308v-91h-308zM12 420l26 240h97l7 -12l-54 -228h-76z" />
    <glyph glyph-name="anoteleia" unicode="&#x387;" horiz-adv-x="275" 
d="M138 330q-31 0 -53 22.5t-22 55.5q0 34 22 56t53 22q32 0 53 -22t21 -56q0 -33 -21 -55.5t-53 -22.5z" />
    <glyph glyph-name="Epsilontonos" unicode="&#x388;" horiz-adv-x="650" 
d="M195 0v654h394v-98h-278v-167h235v-98h-235v-193h288v-98h-404zM-8 420l26 240h97l7 -12l-54 -228h-76z" />
    <glyph glyph-name="Etatonos" unicode="&#x389;" horiz-adv-x="775" 
d="M195 0v654h116v-263h265v263h116v-654h-116v290h-265v-290h-116zM-8 420l26 240h97l7 -12l-54 -228h-76z" />
    <glyph glyph-name="Iotatonos" unicode="&#x38a;" horiz-adv-x="394" 
d="M195 0v654h116v-654h-116zM-8 420l26 240h97l7 -12l-54 -228h-76z" />
    <glyph glyph-name="Omicrontonos" unicode="&#x38c;" horiz-adv-x="774" 
d="M433 -12q-85 0 -150 41.5t-101.5 118t-36.5 182.5t36.5 181t101.5 115t150 40q86 0 151 -40t101.5 -115t36.5 -181t-36.5 -182.5t-101.5 -118t-151 -41.5zM433 89q52 0 89.5 29.5t58.5 84t21 127.5t-21 125.5t-58.5 81t-89.5 28.5q-51 0 -89 -28.5t-59 -81t-21 -125.5
t21 -127.5t59 -84t89 -29.5zM-8 420l26 240h97l7 -12l-54 -228h-76z" />
    <glyph glyph-name="Upsilontonos" unicode="&#x38e;" horiz-adv-x="659" 
d="M350 0v243l-196 411h124l71 -167q14 -37 28 -71.5t30 -72.5h4q16 38 31 72.5t29 71.5l71 167h121l-197 -411v-243h-116zM-8 420l26 240h97l7 -12l-54 -228h-76z" />
    <glyph glyph-name="Omegatonos" unicode="&#x38f;" horiz-adv-x="785" 
d="M135 0v94h120v4q-25 25 -49.5 62t-40.5 86t-16 108q0 92 36 162t101 110t152 40q86 0 151 -40t101 -110t36 -162q0 -59 -16 -108t-40.5 -86t-49.5 -62v-4h120v-94h-250v84q36 30 62 68t40.5 85.5t14.5 106.5q0 64 -20 114t-58 78.5t-91 28.5t-91 -28.5t-58.5 -78.5
t-20.5 -114q0 -59 14.5 -106.5t41 -85.5t61.5 -68v-84h-250zM-8 420l26 240h97l7 -12l-54 -228h-76z" />
    <glyph glyph-name="iotadieresistonos" unicode="&#x390;" horiz-adv-x="282" 
d="M191 -10q-45 0 -70.5 16.5t-36.5 48.5t-11 75v361h117q-2 -62 -4 -128t-3 -127.5t-1 -111.5q0 -22 9.5 -31t27.5 -9q7 0 15 1.5t16 4.5l14 -86q-14 -6 -30.5 -10t-42.5 -4zM4 579q-25 0 -41 17t-16 40q0 25 16 41.5t41 16.5q26 0 42 -16.5t16 -41.5q0 -23 -16 -40
t-42 -17zM256 579q-25 0 -41.5 17t-16.5 40q0 25 16.5 41.5t41.5 16.5t41 -16.5t16 -41.5q0 -23 -16 -40t-41 -17zM82 567l36 201h85l7 -12l-76 -189h-52z" />
    <glyph glyph-name="Alpha" unicode="&#x391;" horiz-adv-x="558" 
d="M-2 0l213 654h136l213 -654h-122l-100 348q-16 52 -30.5 107t-28.5 109h-4q-13 -55 -27.5 -109.5t-30.5 -106.5l-101 -348h-118zM124 177v91h308v-91h-308z" />
    <glyph glyph-name="Beta" unicode="&#x392;" horiz-adv-x="597" 
d="M83 0v654h209q68 0 120.5 -15.5t83 -50.5t30.5 -95q0 -50 -23.5 -88.5t-67.5 -53.5v-4q58 -12 91.5 -48.5t33.5 -101.5q0 -67 -32.5 -111t-89.5 -65t-129 -21h-226zM199 384h83q68 0 99 25t31 67q0 48 -32 68t-96 20h-85v-180zM199 90h98q72 0 111 26.5t39 81.5
q0 52 -38 75.5t-112 23.5h-98v-207z" />
    <glyph glyph-name="Gamma" unicode="&#x393;" horiz-adv-x="510" 
d="M83 0v654h395v-98h-279v-556h-116z" />
    <glyph glyph-name="Delta" unicode="&#x2206;" horiz-adv-x="614" 
d="M32 0v70l207 584h137l206 -584v-70h-550zM157 98h298l-85 259l-63 203h-4l-62 -203z" />
    <glyph glyph-name="Delta" unicode="&#x394;" horiz-adv-x="614" 
d="M32 0v70l207 584h137l206 -584v-70h-550zM157 98h298l-85 259l-63 203h-4l-62 -203z" />
    <glyph glyph-name="Epsilon" unicode="&#x395;" horiz-adv-x="538" 
d="M83 0v654h394v-98h-278v-167h235v-98h-235v-193h288v-98h-404z" />
    <glyph glyph-name="Zeta" unicode="&#x396;" horiz-adv-x="540" 
d="M40 0v70l316 486h-287v98h431v-70l-317 -486h319v-98h-462z" />
    <glyph glyph-name="Eta" unicode="&#x397;" horiz-adv-x="663" 
d="M83 0v654h116v-263h265v263h116v-654h-116v290h-265v-290h-116z" />
    <glyph glyph-name="Theta" unicode="&#x398;" horiz-adv-x="674" 
d="M232 290v101h210v-101h-210zM337 -12q-85 0 -150 41.5t-101.5 118t-36.5 182.5q0 105 36.5 180.5t101.5 115.5t150 40t150 -40t102 -115.5t37 -180.5q0 -106 -37 -182.5t-102 -118t-150 -41.5zM337 89q52 0 90 29.5t58.5 83.5t20.5 128q0 73 -20.5 125.5t-58.5 81
t-90 28.5q-51 0 -89 -28.5t-59 -81t-21 -125.5q0 -74 21 -128t59 -83.5t89 -29.5z" />
    <glyph glyph-name="Iota" unicode="&#x399;" horiz-adv-x="282" 
d="M83 0v654h116v-654h-116z" />
    <glyph glyph-name="Kappa" unicode="&#x39a;" horiz-adv-x="597" 
d="M83 0v654h116v-297h3l233 297h129l-201 -255l235 -399h-128l-177 308l-94 -117v-191h-116z" />
    <glyph glyph-name="Lambda" unicode="&#x39b;" horiz-adv-x="536" 
d="M-4 0l203 654h137l204 -654h-123l-92 329q-16 56 -28.5 106.5t-29.5 106.5h-4q-16 -56 -29 -106.5t-28 -106.5l-91 -329h-119z" />
    <glyph glyph-name="Mu" unicode="&#x39c;" horiz-adv-x="745" 
d="M83 0v654h139l112 -320q11 -31 20 -61.5t18 -66.5h4q9 36 17.5 66.5t18.5 61.5l112 320h138v-654h-107v298q0 31 2.5 71t6.5 79.5t8 69.5h-4l-52 -166l-106 -292h-78l-106 292l-50 166h-4q4 -30 7.5 -69.5t6 -79.5t2.5 -71v-298h-105z" />
    <glyph glyph-name="Nu" unicode="&#x39d;" horiz-adv-x="656" 
d="M83 0v654h127l196 -360q18 -33 34.5 -71t31.5 -77h4q-4 53 -9 110.5t-5 111.5v286h111v-654h-127l-196 360q-18 33 -35.5 71t-32.5 77h-4q6 -51 11 -108.5t5 -113.5v-286h-111z" />
    <glyph glyph-name="Xi" unicode="&#x39e;" horiz-adv-x="552" 
d="M51 0v98h451v-98h-451zM122 291v98h308v-98h-308zM61 556v98h431v-98h-431z" />
    <glyph glyph-name="Omicron" unicode="&#x39f;" horiz-adv-x="674" 
d="M337 -12q-85 0 -150 41.5t-101.5 118t-36.5 182.5t36.5 181t101.5 115t150 40q86 0 151 -40t101.5 -115t36.5 -181t-36.5 -182.5t-101.5 -118t-151 -41.5zM337 89q52 0 89.5 29.5t58.5 84t21 127.5t-21 125.5t-58.5 81t-89.5 28.5q-51 0 -89 -28.5t-59 -81t-21 -125.5
t21 -127.5t59 -84t89 -29.5z" />
    <glyph glyph-name="Pi" unicode="&#x3a0;" horiz-adv-x="654" 
d="M83 0v654h488v-654h-116v556h-256v-556h-116z" />
    <glyph glyph-name="Rho" unicode="&#x3a1;" horiz-adv-x="582" 
d="M83 0v654h206q73 0 130 -19t90 -63t33 -120q0 -72 -32.5 -119t-89 -70t-127.5 -23h-94v-240h-116zM199 333h85q73 0 108.5 30t35.5 89q0 62 -37.5 85.5t-110.5 23.5h-81v-228z" />
    <glyph glyph-name="Sigma" unicode="&#x3a3;" horiz-adv-x="544" 
d="M41 0v70l213 261l-210 253v70h436v-98h-290l181 -222l-184 -236h321v-98h-467z" />
    <glyph glyph-name="Tau" unicode="&#x3a4;" horiz-adv-x="546" 
d="M215 0v556h-189v98h494v-98h-189v-556h-116z" />
    <glyph glyph-name="Upsilon" unicode="&#x3a5;" horiz-adv-x="501" 
d="M192 0v243l-196 411h124l71 -167q14 -37 28 -71.5t30 -72.5h4q16 38 31 72.5t29 71.5l71 167h121l-197 -411v-243h-116z" />
    <glyph glyph-name="Phi" unicode="&#x3a6;" horiz-adv-x="740" 
d="M350 67q-90 0 -158.5 31t-106 90t-37.5 142t37.5 140.5t106 87.5t158.5 30h40q90 0 158 -30t106 -87.5t38 -140.5t-38 -142t-106 -90t-158 -31h-40zM344 155h52q56 0 97.5 21.5t64.5 61t23 92.5q0 52 -23 90.5t-64.5 59t-97.5 20.5h-52q-56 0 -97.5 -20.5t-64.5 -59
t-23 -90.5q0 -53 23 -92.5t64.5 -61t97.5 -21.5zM318 -22v698h104v-698h-104z" />
    <glyph glyph-name="Chi" unicode="&#x3a7;" horiz-adv-x="541" 
d="M13 0l186 337l-174 317h129l72 -145q13 -22 24 -46t26 -54h4q12 30 22.5 54t21.5 46l69 145h123l-174 -322l186 -332h-129l-80 154q-13 26 -25.5 51.5t-27.5 55.5h-4q-12 -30 -24 -55.5t-24 -51.5l-78 -154h-123z" />
    <glyph glyph-name="Psi" unicode="&#x3a8;" horiz-adv-x="726" 
d="M340 231q-88 0 -151 27t-97 85t-34 150v161h113v-155q0 -65 18.5 -103.5t55 -55.5t89.5 -17h58q53 0 89.5 17t54.5 55.5t18 103.5v155h114v-161q0 -92 -34 -150t-97.5 -85t-150.5 -27h-46zM308 0v654h109v-654h-109z" />
    <glyph glyph-name="Omega" unicode="&#x2126;" horiz-adv-x="695" 
d="M45 0v94h120v4q-25 25 -49.5 62t-40.5 86t-16 108q0 92 36 162t101 110t152 40q86 0 151 -40t101 -110t36 -162q0 -59 -16 -108t-40.5 -86t-49.5 -62v-4h120v-94h-250v84q36 30 62 68t40.5 85.5t14.5 106.5q0 64 -20 114t-58 78.5t-91 28.5t-91 -28.5t-58.5 -78.5
t-20.5 -114q0 -59 14.5 -106.5t41 -85.5t61.5 -68v-84h-250z" />
    <glyph glyph-name="Omega" unicode="&#x3a9;" horiz-adv-x="695" 
d="M45 0v94h120v4q-25 25 -49.5 62t-40.5 86t-16 108q0 92 36 162t101 110t152 40q86 0 151 -40t101 -110t36 -162q0 -59 -16 -108t-40.5 -86t-49.5 -62v-4h120v-94h-250v84q36 30 62 68t40.5 85.5t14.5 106.5q0 64 -20 114t-58 78.5t-91 28.5t-91 -28.5t-58.5 -78.5
t-20.5 -114q0 -59 14.5 -106.5t41 -85.5t61.5 -68v-84h-250z" />
    <glyph glyph-name="Iotadieresis" unicode="&#x3aa;" horiz-adv-x="282" 
d="M83 0v654h116v-654h-116zM35 708q-25 0 -42 16.5t-17 42.5t17 43t42 17q27 0 43.5 -17t16.5 -43t-16.5 -42.5t-43.5 -16.5zM249 708q-26 0 -43 16.5t-17 42.5t17 43t43 17t42.5 -17t16.5 -43t-16.5 -42.5t-42.5 -16.5z" />
    <glyph glyph-name="Upsilondieresis" unicode="&#x3ab;" horiz-adv-x="501" 
d="M192 0v243l-196 411h124l71 -167q14 -37 28 -71.5t30 -72.5h4q16 38 31 72.5t29 71.5l71 167h121l-197 -411v-243h-116zM143 708q-25 0 -42 16.5t-17 42.5t17 43t42 17q27 0 43.5 -17t16.5 -43t-16.5 -42.5t-43.5 -16.5zM357 708q-26 0 -43 16.5t-17 42.5t17 43t43 17
t42.5 -17t16.5 -43t-16.5 -42.5t-42.5 -16.5z" />
    <glyph glyph-name="alphatonos" unicode="&#x3ac;" horiz-adv-x="578" 
d="M234 -12q-87 0 -140 66t-53 186q0 83 30.5 142t79.5 90t106 31q29 0 56 -11t49.5 -36t37.5 -66h4l18 101h114q-10 -45 -21 -95.5t-20.5 -100t-15.5 -92t-6 -73.5q0 -25 14 -36.5t34 -11.5q8 0 16.5 2t16.5 5l15 -86q-12 -6 -31 -10.5t-44 -4.5q-48 0 -77 21.5t-35 68.5
h-4q-52 -90 -144 -90zM260 83q27 0 51.5 17.5t41 47t18.5 64.5l7 88q-12 41 -28.5 64.5t-35.5 33.5t-41 10q-29 0 -55 -18t-42.5 -55t-16.5 -94q0 -78 27.5 -118t73.5 -40zM238 566l36 200h115l7 -12l-76 -188h-82z" />
    </font>
</defs>
</svg>
